999
dxfrw 0.6.3
  0
SECTION
  2
HEADER
  9
$ACADVER
  1
AC1021
  9
$DWGCODEPAGE
  3
ANSI_1252
  9
$INSBASE
 10
0
 20
0
 30
0
  9
$EXTMIN
 10
-2155.00900960608
 20
0
 30
0
  9
$EXTMAX
 10
400.0000003225909
 20
1310.947313009753
 30
0
  9
$LIMMIN
 10
0
 20
0
  9
$LIMMAX
 10
420
 20
297
  9
$ORTHOMODE
 70
    0
  9
$REGENMODE
 70
    1
  9
$FILLMODE
 70
    1
  9
$QTEXTMODE
 70
    0
  9
$MIRRTEXT
 70
    0
  9
$LTSCALE
 40
1
  9
$ATTMODE
 70
    0
  9
$TEXTSIZE
 40
2.5
  9
$TRACEWID
 40
15.68
  9
$TEXTSTYLE
  7
STANDARD
  9
$CLAYER
  8
0
  9
$CELTYPE
  6
BYLAYER
  9
$CECOLOR
 62
  256
  9
$CELTSCALE
 40
1
  9
$DISPSILH
 70
    0
  9
$DIMSCALE
 40
2.5
  9
$DIMASZ
 40
2.5
  9
$DIMEXO
 40
0.625
  9
$DIMDLI
 40
3.75
  9
$DIMRND
 40
0
  9
$DIMDLE
 40
0
  9
$DIMEXE
 40
1.25
  9
$DIMTP
 40
0
  9
$DIMTM
 40
0
  9
$DIMTXT
 40
2.5
  9
$DIMCEN
 40
2.5
  9
$DIMTSZ
 40
0
  9
$DIMTOL
 70
    0
  9
$DIMLIM
 70
    0
  9
$DIMTIH
 70
    0
  9
$DIMTOH
 70
    0
  9
$DIMSE1
 70
    0
  9
$DIMSE2
 70
    0
  9
$DIMTAD
 70
    1
  9
$DIMZIN
 70
    8
  9
$DIMBLK
  1

  9
$DIMASO
 70
    1
  9
$DIMSHO
 70
    1
  9
$DIMPOST
  1

  9
$DIMAPOST
  1

  9
$DIMALT
 70
    0
  9
$DIMALTD
 70
    3
  9
$DIMALTF
 40
0.03937
  9
$DIMLFAC
 40
1
  9
$DIMTOFL
 70
    1
  9
$DIMTVP
 40
0
  9
$DIMTIX
 70
    0
  9
$DIMSOXD
 70
    0
  9
$DIMSAH
 70
    0
  9
$DIMBLK1
  1

  9
$DIMBLK2
  1

  9
$DIMSTYLE
  2
Standard
  9
$DIMCLRD
 70
    0
  9
$DIMCLRE
 70
    0
  9
$DIMCLRT
 70
    0
  9
$DIMTFAC
 40
1
  9
$DIMGAP
 40
0.625
  9
$DIMJUST
 70
    0
  9
$DIMSD1
 70
    0
  9
$DIMSD2
 70
    0
  9
$DIMTOLJ
 70
    0
  9
$DIMTZIN
 70
    8
  9
$DIMALTZ
 70
    0
  9
$DIMALTTZ
 70
    0
  9
$DIMUPT
 70
    0
  9
$DIMDEC
 70
    2
  9
$DIMTDEC
 70
    2
  9
$DIMALTU
 70
    2
  9
$DIMALTTD
 70
    3
  9
$DIMTXSTY
  7
STANDARD
  9
$DIMAUNIT
 70
    0
  9
$DIMADEC
 70
    0
  9
$DIMALTRND
 40
0
  9
$DIMAZIN
 70
    0
  9
$DIMDSEP
 70
   44
  9
$DIMATFIT
 70
    3
  9
$DIMFRAC
 70
    0
  9
$DIMLDRBLK
  1
STANDARD
  9
$DIMLUNIT
 70
    2
  9
$DIMLWD
 70
   -2
  9
$DIMLWE
 70
   -2
  9
$DIMTMOVE
 70
    0
  9
$DIMFXL
 40
1
  9
$DIMFXLON
 70
    0
  9
$DIMJOGANG
 40
0.7854
  9
$DIMTFILL
 70
    0
  9
$DIMTFILLCLR
 70
    0
  9
$DIMARCSYM
 70
    0
  9
$DIMLTYPE
  6

  9
$DIMLTEX1
  6

  9
$DIMLTEX2
  6

  9
$LUNITS
 70
    2
  9
$LUPREC
 70
    4
  9
$SKETCHINC
 40
1
  9
$FILLETRAD
 40
0
  9
$AUNITS
 70
    0
  9
$AUPREC
 70
    2
  9
$MENU
  1
.
  9
$ELEVATION
 40
0
  9
$PELEVATION
 40
0
  9
$THICKNESS
 40
0
  9
$LIMCHECK
 70
    0
  9
$CHAMFERA
 40
0
  9
$CHAMFERB
 40
0
  9
$CHAMFERC
 40
0
  9
$CHAMFERD
 40
0
  9
$SKPOLY
 70
    0
  9
$USRTIMER
 70
    1
  9
$ANGBASE
 50
0
  9
$ANGDIR
 70
    0
  9
$PDMODE
 70
   34
  9
$PDSIZE
 40
0
  9
$PLINEWID
 40
0
  9
$SPLFRAME
 70
    0
  9
$SPLINETYPE
 70
    2
  9
$SPLINESEGS
 70
    8
  9
$HANDSEED
  5
20000
  9
$SURFTAB1
 70
    6
  9
$SURFTAB2
 70
    6
  9
$SURFTYPE
 70
    6
  9
$SURFU
 70
    6
  9
$SURFV
 70
    6
  9
$UCSBASE
  2

  9
$UCSNAME
  2

  9
$UCSORG
 10
0
 20
0
 30
0
  9
$UCSXDIR
 10
1
 20
0
 30
0
  9
$UCSYDIR
 10
0
 20
1
 30
0
  9
$UCSORTHOREF
  2

  9
$UCSORTHOVIEW
 70
    0
  9
$UCSORGTOP
 10
0
 20
0
 30
0
  9
$UCSORGBOTTOM
 10
0
 20
0
 30
0
  9
$UCSORGLEFT
 10
0
 20
0
 30
0
  9
$UCSORGRIGHT
 10
0
 20
0
 30
0
  9
$UCSORGFRONT
 10
0
 20
0
 30
0
  9
$UCSORGBACK
 10
0
 20
0
 30
0
  9
$PUCSBASE
  2

  9
$PUCSNAME
  2

  9
$PUCSORG
 10
0
 20
0
 30
0
  9
$PUCSXDIR
 10
1
 20
0
 30
0
  9
$PUCSYDIR
 10
0
 20
1
 30
0
  9
$PUCSORTHOREF
  2

  9
$PUCSORTHOVIEW
 70
    0
  9
$PUCSORGTOP
 10
0
 20
0
 30
0
  9
$PUCSORGBOTTOM
 10
0
 20
0
 30
0
  9
$PUCSORGLEFT
 10
0
 20
0
 30
0
  9
$PUCSORGRIGHT
 10
0
 20
0
 30
0
  9
$PUCSORGFRONT
 10
0
 20
0
 30
0
  9
$PUCSORGBACK
 10
0
 20
0
 30
0
  9
$USERI1
 70
    0
  9
$USERI2
 70
    0
  9
$USERI3
 70
    0
  9
$USERI4
 70
    0
  9
$USERI5
 70
    0
  9
$USERR1
 40
0
  9
$USERR2
 40
0
  9
$USERR3
 40
0
  9
$USERR4
 40
0
  9
$USERR5
 40
0
  9
$WORLDVIEW
 70
    1
  9
$SHADEDGE
 70
    3
  9
$SHADEDIF
 70
   70
  9
$TILEMODE
 70
    1
  9
$MAXACTVP
 70
   64
  9
$PINSBASE
 10
0
 20
0
 30
0
  9
$PLIMCHECK
 70
    0
  9
$PEXTMIN
 10
0
 20
0
 30
0
  9
$PEXTMAX
 10
0
 20
0
 30
0
  9
$SNAPSTYLE
 70
    0
  9
$PLIMMIN
 10
0
 20
0
  9
$PLIMMAX
 10
210
 20
297
  9
$UNITMODE
 70
    0
  9
$VISRETAIN
 70
    1
  9
$PLINEGEN
 70
    0
  9
$PSLTSCALE
 70
    1
  9
$TREEDEPTH
 70
 3020
  9
$CMLSTYLE
  2
Standard
  9
$CMLJUST
 70
    0
  9
$CMLSCALE
 40
20
  9
$PROXYGRAPHICS
 70
    1
  9
$MEASUREMENT
 70
    1
  9
$CELWEIGHT
370
   -1
  9
$ENDCAPS
280
    0
  9
$JOINSTYLE
280
    0
  9
$LWDISPLAY
290
    0
  9
$INSUNITS
 70
    4
  9
$HYPERLINKBASE
  1

  9
$STYLESHEET
  1

  9
$XEDIT
290
    1
  9
$CEPSNTYPE
380
    0
  9
$PSTYLEMODE
290
    1
  9
$EXTNAMES
290
    1
  9
$PSVPSCALE
 40
1
  9
$OLESTARTUP
290
    0
  9
$SORTENTS
280
  127
  9
$INDEXCTL
280
    0
  9
$HIDETEXT
280
    1
  9
$XCLIPFRAME
290
    0
  9
$HALOGAP
280
    0
  9
$OBSCOLOR
 70
  257
  9
$OBSLTYPE
280
    0
  9
$INTERSECTIONDISPLAY
280
    0
  9
$INTERSECTIONCOLOR
 70
  257
  9
$DIMASSOC
280
    1
  9
$PROJECTNAME
  1

  9
$CAMERADISPLAY
290
    0
  9
$LENSLENGTH
 40
50
  9
$CAMERAHEIGHT
 40
0
  9
$STEPSPERSEC
 40
2
  9
$STEPSIZE
 40
50
  9
$3DDWFPREC
 40
2
  9
$PSOLWIDTH
 40
5
  9
$PSOLHEIGHT
 40
80
  9
$LOFTANG1
 40
1.570796326794897
  9
$LOFTANG2
 40
1.570796326794897
  9
$LOFTMAG1
 40
0
  9
$LOFTMAG2
 40
0
  9
$LOFTPARAM
 70
    7
  9
$LOFTNORMALS
280
    1
  9
$LATITUDE
 40
1
  9
$LONGITUDE
 40
1
  9
$NORTHDIRECTION
 40
0
  9
$TIMEZONE
 70
-8000
  9
$LIGHTGLYPHDISPLAY
280
    1
  9
$TILEMODELIGHTSYNCH
280
    1
  9
$SOLIDHIST
280
    1
  9
$SHOWHIST
280
    1
  9
$DWFFRAME
280
    2
  9
$DGNFRAME
280
    0
  9
$REALWORLDSCALE
290
    1
  9
$INTERFERECOLOR
 62
    1
  9
$CSHADOW
280
    0
  9
$SHADOWPLANELOCATION
 40
0
  0
ENDSEC
  0
SECTION
  2
CLASSES
  0
ENDSEC
  0
SECTION
  2
TABLES
  0
TABLE
  2
VPORT
  5
8
330
0
100
AcDbSymbolTable
 70
    1
  0
VPORT
  5
31
330
2
100
AcDbSymbolTableRecord
100
AcDbViewportTableRecord
  2
*ACTIVE
 70
    0
 10
0
 20
0
 11
1
 21
1
 12
497.3262548446655
 22
1032.836735248566
 13
0
 23
0
 14
10
 24
10
 15
10
 25
10
 16
0
 26
0
 36
1
 17
0
 27
0
 37
0
 40
2522.021532058716
 41
1.87149187592319
 42
50
 43
0
 44
0
 50
0
 51
0
 71
    0
 72
  100
 73
    1
 74
    3
 75
    0
 76
    1
 77
    0
 78
    0
281
    0
 65
    1
110
0
120
0
130
0
111
1
121
0
131
0
112
0
122
1
132
0
 79
    0
146
0
348
10020
 60
    7
 61
    5
292
1
282
    1
141
0
142
0
 63
  250
421
3358443
  0
ENDTAB
  0
TABLE
  2
LTYPE
  5
5
330
0
100
AcDbSymbolTable
 70
    4
  0
LTYPE
  5
14
330
5
100
AcDbSymbolTableRecord
100
AcDbLinetypeTableRecord
  2
ByBlock
 70
    0
  3

 72
   65
 73
    0
 40
0
  0
LTYPE
  5
15
330
5
100
AcDbSymbolTableRecord
100
AcDbLinetypeTableRecord
  2
ByLayer
 70
    0
  3

 72
   65
 73
    0
 40
0
  0
LTYPE
  5
16
330
5
100
AcDbSymbolTableRecord
100
AcDbLinetypeTableRecord
  2
Continuous
 70
    0
  3
Solid line
 72
   65
 73
    0
 40
0
  0
LTYPE
  5
32
330
5
100
AcDbSymbolTableRecord
100
AcDbLinetypeTableRecord
  2
DOT
 70
    0
  3
Dot . . . . . . . . . . . . . . . . . . . . . .
 72
   65
 73
    2
 40
6.35
 49
0
 74
    0
 49
-6.35
 74
    0
  0
LTYPE
  5
33
330
5
100
AcDbSymbolTableRecord
100
AcDbLinetypeTableRecord
  2
DOTTINY
 70
    0
  3
Dot (.15x) .....................................
 72
   65
 73
    2
 40
0.9525
 49
0
 74
    0
 49
-0.9525
 74
    0
  0
LTYPE
  5
34
330
5
100
AcDbSymbolTableRecord
100
AcDbLinetypeTableRecord
  2
DOT2
 70
    0
  3
Dot (.5x) .....................................
 72
   65
 73
    2
 40
3.175
 49
0
 74
    0
 49
-3.175
 74
    0
  0
LTYPE
  5
35
330
5
100
AcDbSymbolTableRecord
100
AcDbLinetypeTableRecord
  2
DOTX2
 70
    0
  3
Dot (2x) .  .  .  .  .  .  .  .  .  .  .  .  .
 72
   65
 73
    2
 40
12.7
 49
0
 74
    0
 49
-12.7
 74
    0
  0
LTYPE
  5
36
330
5
100
AcDbSymbolTableRecord
100
AcDbLinetypeTableRecord
  2
DASHED
 70
    0
  3
Dashed _ _ _ _ _ _ _ _ _ _ _ _ _ _ _ _ _
 72
   65
 73
    2
 40
19.05
 49
12.7
 74
    0
 49
-6.35
 74
    0
  0
LTYPE
  5
37
330
5
100
AcDbSymbolTableRecord
100
AcDbLinetypeTableRecord
  2
DASHEDTINY
 70
    0
  3
Dashed (.15x) _ _ _ _ _ _ _ _ _ _ _ _ _ _ _ _ _
 72
   65
 73
    2
 40
2.8575
 49
1.905
 74
    0
 49
-0.9525
 74
    0
  0
LTYPE
  5
38
330
5
100
AcDbSymbolTableRecord
100
AcDbLinetypeTableRecord
  2
DASHED2
 70
    0
  3
Dashed (.5x) _ _ _ _ _ _ _ _ _ _ _ _ _ _ _ _ _
 72
   65
 73
    2
 40
9.524999999999999
 49
6.35
 74
    0
 49
-3.175
 74
    0
  0
LTYPE
  5
39
330
5
100
AcDbSymbolTableRecord
100
AcDbLinetypeTableRecord
  2
DASHEDX2
 70
    0
  3
Dashed (2x) ____  ____  ____  ____  ____  ___
 72
   65
 73
    2
 40
38.09999999999999
 49
25.4
 74
    0
 49
-12.7
 74
    0
  0
LTYPE
  5
3A
330
5
100
AcDbSymbolTableRecord
100
AcDbLinetypeTableRecord
  2
DASHDOT
 70
    0
  3
Dash dot __ . __ . __ . __ . __ . __ . __ . __
 72
   65
 73
    4
 40
25.4
 49
12.7
 74
    0
 49
-6.35
 74
    0
 49
0
 74
    0
 49
-6.35
 74
    0
  0
LTYPE
  5
3B
330
5
100
AcDbSymbolTableRecord
100
AcDbLinetypeTableRecord
  2
DASHDOTTINY
 70
    0
  3
Dash dot (.15x) _._._._._._._._._._._._._._._.
 72
   65
 73
    4
 40
3.81
 49
1.905
 74
    0
 49
-0.9525
 74
    0
 49
0
 74
    0
 49
-0.9525
 74
    0
  0
LTYPE
  5
3C
330
5
100
AcDbSymbolTableRecord
100
AcDbLinetypeTableRecord
  2
DASHDOT2
 70
    0
  3
Dash dot (.5x) _._._._._._._._._._._._._._._.
 72
   65
 73
    4
 40
12.7
 49
6.35
 74
    0
 49
-3.175
 74
    0
 49
0
 74
    0
 49
-3.175
 74
    0
  0
LTYPE
  5
3D
330
5
100
AcDbSymbolTableRecord
100
AcDbLinetypeTableRecord
  2
DASHDOTX2
 70
    0
  3
Dash dot (2x) ____  .  ____  .  ____  .  ___
 72
   65
 73
    4
 40
50.8
 49
25.4
 74
    0
 49
-12.7
 74
    0
 49
0
 74
    0
 49
-12.7
 74
    0
  0
LTYPE
  5
3E
330
5
100
AcDbSymbolTableRecord
100
AcDbLinetypeTableRecord
  2
DIVIDE
 70
    0
  3
Divide ____ . . ____ . . ____ . . ____ . . ____
 72
   65
 73
    6
 40
31.75
 49
12.7
 74
    0
 49
-6.35
 74
    0
 49
0
 74
    0
 49
-6.35
 74
    0
 49
0
 74
    0
 49
-6.35
 74
    0
  0
LTYPE
  5
3F
330
5
100
AcDbSymbolTableRecord
100
AcDbLinetypeTableRecord
  2
DIVIDETINY
 70
    0
  3
Divide (.15x) __..__..__..__..__..__..__..__.._
 72
   65
 73
    6
 40
4.7625
 49
1.905
 74
    0
 49
-0.9525
 74
    0
 49
0
 74
    0
 49
-0.9525
 74
    0
 49
0
 74
    0
 49
-0.9525
 74
    0
  0
LTYPE
  5
40
330
5
100
AcDbSymbolTableRecord
100
AcDbLinetypeTableRecord
  2
DIVIDE2
 70
    0
  3
Divide (.5x) __..__..__..__..__..__..__..__.._
 72
   65
 73
    6
 40
15.875
 49
6.35
 74
    0
 49
-3.175
 74
    0
 49
0
 74
    0
 49
-3.175
 74
    0
 49
0
 74
    0
 49
-3.175
 74
    0
  0
LTYPE
  5
41
330
5
100
AcDbSymbolTableRecord
100
AcDbLinetypeTableRecord
  2
DIVIDEX2
 70
    0
  3
Divide (2x) ________  .  .  ________  .  .  _
 72
   65
 73
    6
 40
63.5
 49
25.4
 74
    0
 49
-12.7
 74
    0
 49
0
 74
    0
 49
-12.7
 74
    0
 49
0
 74
    0
 49
-12.7
 74
    0
  0
LTYPE
  5
42
330
5
100
AcDbSymbolTableRecord
100
AcDbLinetypeTableRecord
  2
BORDER
 70
    0
  3
Border __ __ . __ __ . __ __ . __ __ . __ __ .
 72
   65
 73
    6
 40
44.45
 49
12.7
 74
    0
 49
-6.35
 74
    0
 49
12.7
 74
    0
 49
-6.35
 74
    0
 49
0
 74
    0
 49
-6.35
 74
    0
  0
LTYPE
  5
43
330
5
100
AcDbSymbolTableRecord
100
AcDbLinetypeTableRecord
  2
BORDERTINY
 70
    0
  3
Border (.15x) __.__.__.__.__.__.__.__.__.__.__.
 72
   65
 73
    6
 40
6.6675
 49
1.905
 74
    0
 49
-0.9525
 74
    0
 49
1.905
 74
    0
 49
-0.9525
 74
    0
 49
0
 74
    0
 49
-0.9525
 74
    0
  0
LTYPE
  5
44
330
5
100
AcDbSymbolTableRecord
100
AcDbLinetypeTableRecord
  2
BORDER2
 70
    0
  3
Border (.5x) __.__.__.__.__.__.__.__.__.__.__.
 72
   65
 73
    6
 40
22.225
 49
6.35
 74
    0
 49
-3.175
 74
    0
 49
6.35
 74
    0
 49
-3.175
 74
    0
 49
0
 74
    0
 49
-3.175
 74
    0
  0
LTYPE
  5
45
330
5
100
AcDbSymbolTableRecord
100
AcDbLinetypeTableRecord
  2
BORDERX2
 70
    0
  3
Border (2x) ____  ____  .  ____  ____  .  ___
 72
   65
 73
    6
 40
88.89999999999999
 49
25.4
 74
    0
 49
-12.7
 74
    0
 49
25.4
 74
    0
 49
-12.7
 74
    0
 49
0
 74
    0
 49
-12.7
 74
    0
  0
LTYPE
  5
46
330
5
100
AcDbSymbolTableRecord
100
AcDbLinetypeTableRecord
  2
CENTER
 70
    0
  3
Center ____ _ ____ _ ____ _ ____ _ ____ _ ____
 72
   65
 73
    4
 40
50.8
 49
31.75
 74
    0
 49
-6.35
 74
    0
 49
6.35
 74
    0
 49
-6.35
 74
    0
  0
LTYPE
  5
47
330
5
100
AcDbSymbolTableRecord
100
AcDbLinetypeTableRecord
  2
CENTERTINY
 70
    0
  3
Center (.15x) ___ _ ___ _ ___ _ ___ _ ___ _ ___
 72
   65
 73
    4
 40
7.619999999999999
 49
4.7625
 74
    0
 49
-0.9525
 74
    0
 49
0.9525
 74
    0
 49
-0.9525
 74
    0
  0
LTYPE
  5
48
330
5
100
AcDbSymbolTableRecord
100
AcDbLinetypeTableRecord
  2
CENTER2
 70
    0
  3
Center (.5x) ___ _ ___ _ ___ _ ___ _ ___ _ ___
 72
   65
 73
    4
 40
28.575
 49
19.05
 74
    0
 49
-3.175
 74
    0
 49
3.175
 74
    0
 49
-3.175
 74
    0
  0
LTYPE
  5
49
330
5
100
AcDbSymbolTableRecord
100
AcDbLinetypeTableRecord
  2
CENTERX2
 70
    0
  3
Center (2x) ________  __  ________  __  _____
 72
   65
 73
    4
 40
101.6
 49
63.5
 74
    0
 49
-12.7
 74
    0
 49
12.7
 74
    0
 49
-12.7
 74
    0
  0
ENDTAB
  0
TABLE
  2
LAYER
  5
2
330
0
100
AcDbSymbolTable
 70
    1
  0
LAYER
  5
10
330
2
100
AcDbSymbolTableRecord
100
AcDbLayerTableRecord
  2
0
 70
    0
 62
    7
  6
CONTINUOUS
370
    0
390
F
  0
LAYER
  5
4A
330
2
100
AcDbSymbolTableRecord
100
AcDbLayerTableRecord
  2
Layer0
 70
    0
 62
    7
  6
CONTINUOUS
370
   -3
390
F
  0
ENDTAB
  0
TABLE
  2
STYLE
  5
3
330
0
100
AcDbSymbolTable
 70
    3
  0
STYLE
  5
4B
330
2
100
AcDbSymbolTableRecord
100
AcDbTextStyleTableRecord
  2
Standard
 70
    0
 40
0
 41
1
 50
0
 71
    0
 42
1
  3
txt
  4

  0
ENDTAB
  0
TABLE
  2
VIEW
  5
6
330
0
100
AcDbSymbolTable
 70
    0
  0
ENDTAB
  0
TABLE
  2
UCS
  5
7
330
0
100
AcDbSymbolTable
 70
    0
  0
ENDTAB
  0
TABLE
  2
APPID
  5
9
330
0
100
AcDbSymbolTable
 70
    1
  0
APPID
  5
12
330
9
100
AcDbSymbolTableRecord
100
AcDbRegAppTableRecord
  2
ACAD
 70
    0
  0
APPID
  5
4C
330
9
100
AcDbSymbolTableRecord
100
AcDbRegAppTableRecord
  2
LibreCad
 70
    0
  0
ENDTAB
  0
TABLE
  2
DIMSTYLE
  5
A
330
0
100
AcDbSymbolTable
 70
    1
100
AcDbDimStyleTable
 71
    1
  0
DIMSTYLE
105
4D
330
A
100
AcDbSymbolTableRecord
100
AcDbDimStyleTableRecord
  2
Standard
 70
    0
 40
1
 41
2.5
 42
0.625
 43
0.38
 44
1.25
 45
0
 46
0
 47
0
 48
0
 49
1
140
2.5
141
0.09
142
2.5
143
25.4
144
1
145
0
146
1
147
0.625
148
0
 71
    0
 72
    0
 73
    0
 74
    1
 75
    0
 76
    0
 77
    0
 78
    1
 79
    0
170
    0
171
    2
172
    0
173
    0
174
    0
175
    0
176
    0
177
    0
178
    0
179
    0
271
    2
272
    4
273
    2
274
    2
275
    0
276
    0
277
    2
278
    0
279
    0
280
    0
281
    0
282
    0
283
    1
284
    0
285
    0
286
    0
288
    0
289
    3
340
standard
341

371
   -2
372
   -2
  0
ENDTAB
  0
TABLE
  2
BLOCK_RECORD
  5
1
330
0
100
AcDbSymbolTable
 70
    2
  0
BLOCK_RECORD
  5
1F
330
1
100
AcDbSymbolTableRecord
100
AcDbBlockTableRecord
  2
*Model_Space
 70
    0
280
    1
281
    0
  0
BLOCK_RECORD
  5
1E
330
1
100
AcDbSymbolTableRecord
100
AcDbBlockTableRecord
  2
*Paper_Space
 70
    0
280
    1
281
    0
  0
ENDTAB
  0
ENDSEC
  0
SECTION
  2
BLOCKS
  0
BLOCK
  5
20
330
1F
100
AcDbEntity
  8
0
100
AcDbBlockBegin
  2
*Model_Space
 70
    0
 10
0
 20
0
 30
0
  3
*Model_Space
  1

  0
ENDBLK
  5
21
330
1F
100
AcDbEntity
  8
0
100
AcDbBlockEnd
  0
BLOCK
  5
1C
330
1B
100
AcDbEntity
  8
0
100
AcDbBlockBegin
  2
*Paper_Space
 70
    0
 10
0
 20
0
 30
0
  3
*Paper_Space
  1

  0
ENDBLK
  5
1D
330
1F
100
AcDbEntity
  8
0
100
AcDbBlockEnd
  0
ENDSEC
  0
SECTION
  2
ENTITIES
  0
LWPOLYLINE
  5
4E
100
AcDbEntity
  8
0
  6
ByLayer
 62
  256
370
   -1
100
AcDbPolyline
 90
    5
 70
    0
 43
0
 10
2.859119376807939e-07
 20
414.9992794559107
 10
400.000000036679
 20
414.9992794559109
 10
400.0000003225909
 20
3.410605131648481e-13
 10
0
 20
0
 10
2.859119376807939e-07
 20
414.9992794559107
  0
LWPOLYLINE
  5
4F
100
AcDbEntity
  8
0
  6
ByLayer
 62
  256
370
   -1
100
AcDbPolyline
 90
   25
 70
    0
 43
0
 10
357.0434830542592
 20
35.10904252611601
 10
357.0008903371204
 20
34.78551871973787
 10
357.0434830542592
 20
34.46199491335972
 10
357.1683585823901
 20
34.16051871973798
 10
357.3670068606373
 20
33.90163524325476
 10
357.6258903371204
 20
33.70298696500731
 10
357.9273665307423
 20
33.57811143687661
 10
358.2508903371206
 20
33.53551871973798
 10
358.5744141434986
 20
33.57811143687661
 10
358.8758903371204
 20
33.70298696500731
 10
359.1347738136035
 20
33.90163524325476
 10
359.3334220918512
 20
34.16051871973798
 10
359.458297619982
 20
34.46199491335972
 10
359.5008903371206
 20
34.78551871973787
 10
359.458297619982
 20
35.10904252611601
 10
359.3334220918512
 20
35.41051871973787
 10
359.1347738136035
 20
35.6694021962212
 10
358.8758903371204
 20
35.86805047446842
 10
358.5744141434986
 20
35.99292600259923
 10
358.2508903371206
 20
36.03551871973798
 10
357.9273665307423
 20
35.99292600259923
 10
357.6258903371204
 20
35.86805047446842
 10
357.3670068606373
 20
35.6694021962212
 10
357.1683585823901
 20
35.41051871973787
 10
357.0434830542592
 20
35.10904252611601
  0
LWPOLYLINE
  5
50
100
AcDbEntity
  8
0
  6
ByLayer
 62
  256
370
   -1
100
AcDbPolyline
 90
   25
 70
    0
 43
0
 10
374.9529142327976
 20
35.04167164453827
 10
374.910321515659
 20
34.71814783816012
 10
374.9529142327976
 20
34.39462403178197
 10
375.0777897609285
 20
34.09314783816012
 10
375.2764380391757
 20
33.83426436167679
 10
375.5353215156592
 20
33.63561608342957
 10
375.836797709281
 20
33.51074055529875
 10
376.160321515659
 20
33.46814783816001
 10
376.483845322037
 20
33.51074055529875
 10
376.7853215156588
 20
33.63561608342957
 10
377.0442049921423
 20
33.83426436167679
 10
377.2428532703896
 20
34.09314783816012
 10
377.3677287985201
 20
34.39462403178197
 10
377.4103215156588
 20
34.71814783816012
 10
377.3677287985201
 20
35.04167164453827
 10
377.2428532703896
 20
35.34314783816001
 10
377.0442049921423
 20
35.60203131464323
 10
376.7853215156588
 20
35.80067959289067
 10
376.483845322037
 20
35.92555512102138
 10
376.160321515659
 20
35.96814783816001
 10
375.836797709281
 20
35.92555512102138
 10
375.5353215156588
 20
35.80067959289067
 10
375.2764380391757
 20
35.60203131464323
 10
375.0777897609285
 20
35.34314783816001
 10
374.9529142327976
 20
35.04167164453827
  0
LWPOLYLINE
  5
51
100
AcDbEntity
  8
0
  6
ByLayer
 62
  256
370
   -1
100
AcDbPolyline
 90
   25
 70
    0
 43
0
 10
376.7852883371306
 20
72.8653149810923
 10
376.4838121435089
 20
72.99019050922311
 10
376.1602883371306
 20
73.03278322636174
 10
375.8367645307526
 20
72.99019050922311
 10
375.5352883371309
 20
72.8653149810923
 10
375.2764048606473
 20
72.66666670284496
 10
375.0777565824001
 20
72.40778322636174
 10
374.9528810542697
 20
72.10630703273978
 10
374.9102883371309
 20
71.78278322636163
 10
374.9528810542697
 20
71.4592594199836
 10
375.0777565824001
 20
71.15778322636163
 10
375.2764048606473
 20
70.89889974987841
 10
375.5352883371309
 20
70.70025147163108
 10
375.8367645307526
 20
70.57537594350026
 10
376.1602883371306
 20
70.53278322636163
 10
376.4838121435089
 20
70.57537594350026
 10
376.7852883371309
 20
70.70025147163108
 10
377.044171813614
 20
70.89889974987841
 10
377.2428200918612
 20
71.15778322636163
 10
377.367695619992
 20
71.4592594199836
 10
377.4102883371309
 20
71.78278322636163
 10
377.367695619992
 20
72.10630703273978
 10
377.2428200918612
 20
72.40778322636174
 10
377.044171813614
 20
72.66666670284496
 10
376.7852883371306
 20
72.8653149810923
  0
LWPOLYLINE
  5
52
100
AcDbEntity
  8
0
  6
ByLayer
 62
  256
370
   -1
100
AcDbPolyline
 90
   25
 70
    0
 43
0
 10
357.3670068606373
 20
70.89889974987875
 10
357.6258903371204
 20
70.7002514716313
 10
357.9273665307423
 20
70.5753759435006
 10
358.2508903371206
 20
70.53278322636197
 10
358.5744141434986
 20
70.5753759435006
 10
358.8758903371204
 20
70.7002514716313
 10
359.1347738136035
 20
70.89889974987875
 10
359.3334220918512
 20
71.15778322636186
 10
359.458297619982
 20
71.45925941998371
 10
359.5008903371206
 20
71.78278322636186
 10
359.458297619982
 20
72.10630703274001
 10
359.3334220918512
 20
72.40778322636186
 10
359.1347738136035
 20
72.66666670284496
 10
358.8758903371204
 20
72.8653149810923
 10
358.5744141434986
 20
72.99019050922311
 10
358.2508903371206
 20
73.03278322636174
 10
357.9273665307423
 20
72.99019050922311
 10
357.6258903371204
 20
72.8653149810923
 10
357.3670068606373
 20
72.66666670284496
 10
357.1683585823901
 20
72.40778322636186
 10
357.0434830542592
 20
72.10630703274001
 10
357.0008903371204
 20
71.78278322636186
 10
357.0434830542592
 20
71.45925941998371
 10
357.1683585823901
 20
71.15778322636186
 10
357.3670068606373
 20
70.89889974987875
  0
LWPOLYLINE
  5
53
100
AcDbEntity
  8
0
  6
ByLayer
 62
  256
370
   -1
100
AcDbPolyline
 90
   25
 70
    0
 43
0
 10
377.0442191429363
 20
202.6706138457766
 10
377.2428674211835
 20
202.9294973222597
 10
377.3677429493143
 20
203.2309735158815
 10
377.410335666453
 20
203.5544973222597
 10
377.3677429493143
 20
203.8780211286378
 10
377.2428674211835
 20
204.1794973222597
 10
377.0442191429363
 20
204.4383807987431
 10
376.7853356664532
 20
204.6370290769903
 10
376.483859472831
 20
204.7619046051211
 10
376.160335666453
 20
204.8044973222597
 10
375.8368118600749
 20
204.7619046051211
 10
375.5353356664532
 20
204.6370290769903
 10
375.2764521899701
 20
204.4383807987431
 10
375.0778039117224
 20
204.1794973222597
 10
374.9529283835916
 20
203.8780211286378
 10
374.910335666453
 20
203.5544973222597
 10
374.9529283835916
 20
203.2309735158815
 10
375.0778039117224
 20
202.9294973222597
 10
375.2764521899701
 20
202.6706138457766
 10
375.5353356664532
 20
202.4719655675292
 10
375.8368118600749
 20
202.3470900393984
 10
376.160335666453
 20
202.3044973222595
 10
376.483859472831
 20
202.3470900393984
 10
376.7853356664532
 20
202.4719655675292
 10
377.0442191429363
 20
202.6706138457766
  0
LWPOLYLINE
  5
54
100
AcDbEntity
  8
0
  6
ByLayer
 62
  256
370
   -1
100
AcDbPolyline
 90
   25
 70
    0
 43
0
 10
375.0777897609285
 20
180.9137577835904
 10
374.9529142327976
 20
180.6122815899687
 10
374.910321515659
 20
180.2887577835904
 10
374.9529142327976
 20
179.9652339772124
 10
375.0777897609285
 20
179.6637577835904
 10
375.2764380391757
 20
179.4048743071073
 10
375.5353215156592
 20
179.2062260288601
 10
375.836797709281
 20
179.0813505007293
 10
376.160321515659
 20
179.0387577835907
 10
376.483845322037
 20
179.0813505007293
 10
376.7853215156588
 20
179.2062260288601
 10
377.0442049921423
 20
179.4048743071073
 10
377.2428532703896
 20
179.6637577835904
 10
377.3677287985201
 20
179.9652339772124
 10
377.4103215156588
 20
180.2887577835904
 10
377.3677287985201
 20
180.6122815899687
 10
377.2428532703896
 20
180.9137577835904
 10
377.0442049921423
 20
181.1726412600735
 10
376.7853215156588
 20
181.371289538321
 10
376.483845322037
 20
181.4961650664518
 10
376.160321515659
 20
181.5387577835904
 10
375.836797709281
 20
181.4961650664518
 10
375.5353215156588
 20
181.371289538321
 10
375.2764380391757
 20
181.1726412600735
 10
375.0777897609285
 20
180.9137577835904
  0
LWPOLYLINE
  5
55
100
AcDbEntity
  8
0
  6
ByLayer
 62
  256
370
   -1
100
AcDbPolyline
 90
   25
 70
    0
 43
0
 10
327.043483054259
 20
180.5261439641065
 10
327.0008903371204
 20
180.2026201577282
 10
327.043483054259
 20
179.87909635135
 10
327.1683585823901
 20
179.5776201577282
 10
327.3670068606373
 20
179.3187366812451
 10
327.6258903371206
 20
179.1200884029977
 10
327.9273665307423
 20
178.9952128748669
 10
328.2508903371206
 20
178.9526201577282
 10
328.5744141434986
 20
178.9952128748669
 10
328.8758903371204
 20
179.1200884029977
 10
329.1347738136037
 20
179.3187366812451
 10
329.3334220918512
 20
179.5776201577282
 10
329.4582976199815
 20
179.87909635135
 10
329.5008903371202
 20
180.2026201577282
 10
329.4582976199815
 20
180.5261439641065
 10
329.3334220918512
 20
180.8276201577282
 10
329.1347738136037
 20
181.0865036342116
 10
328.8758903371204
 20
181.2851519124588
 10
328.5744141434986
 20
181.4100274405896
 10
328.2508903371206
 20
181.4526201577282
 10
327.9273665307423
 20
181.4100274405896
 10
327.6258903371204
 20
181.2851519124588
 10
327.3670068606373
 20
181.0865036342116
 10
327.1683585823901
 20
180.8276201577282
 10
327.043483054259
 20
180.5261439641065
  0
LWPOLYLINE
  5
56
100
AcDbEntity
  8
0
  6
ByLayer
 62
  256
370
   -1
100
AcDbPolyline
 90
   25
 70
    0
 43
0
 10
327.3670068606373
 20
219.1946150564831
 10
327.1683585823901
 20
218.93573158
 10
327.043483054259
 20
218.6342553863783
 10
327.0008903371204
 20
218.3107315800003
 10
327.043483054259
 20
217.9872077736218
 10
327.1683585823901
 20
217.68573158
 10
327.3670068606373
 20
217.4268481035169
 10
327.6258903371206
 20
217.2281998252697
 10
327.9273665307423
 20
217.1033242971387
 10
328.2508903371206
 20
217.06073158
 10
328.5744141434986
 20
217.1033242971387
 10
328.8758903371204
 20
217.2281998252697
 10
329.1347738136037
 20
217.4268481035169
 10
329.3334220918512
 20
217.68573158
 10
329.4582976199815
 20
217.9872077736218
 10
329.5008903371202
 20
218.3107315800003
 10
329.4582976199815
 20
218.6342553863783
 10
329.3334220918512
 20
218.93573158
 10
329.1347738136037
 20
219.1946150564831
 10
328.8758903371204
 20
219.3932633347306
 10
328.5744141434986
 20
219.5181388628612
 10
328.2508903371206
 20
219.5607315799998
 10
327.9273665307423
 20
219.5181388628612
 10
327.6258903371204
 20
219.3932633347306
 10
327.3670068606373
 20
219.1946150564831
  0
LWPOLYLINE
  5
57
100
AcDbEntity
  8
0
  6
ByLayer
 62
  256
370
   -1
100
AcDbPolyline
 90
   25
 70
    0
 43
0
 10
316.29519714193
 20
356.8742508644257
 10
316.0363136654473
 20
357.0728991426729
 10
315.7348374718251
 20
357.1977746708037
 10
315.4113136654466
 20
357.2403673879423
 10
315.0877898590688
 20
357.1977746708037
 10
314.7863136654469
 20
357.0728991426729
 10
314.527430188964
 20
356.8742508644257
 10
314.3287819107161
 20
356.6153673879426
 10
314.2039063825855
 20
356.3138911943208
 10
314.1613136654469
 20
355.9903673879423
 10
314.2039063825855
 20
355.6668435815641
 10
314.3287819107161
 20
355.3653673879423
 10
314.527430188964
 20
355.1064839114592
 10
314.7863136654469
 20
354.907835633212
 10
315.0877898590688
 20
354.7829601050812
 10
315.4113136654466
 20
354.7403673879426
 10
315.7348374718251
 20
354.7829601050812
 10
316.0363136654473
 20
354.907835633212
 10
316.29519714193
 20
355.1064839114592
 10
316.4938454201772
 20
355.3653673879423
 10
316.6187209483085
 20
355.6668435815641
 10
316.6613136654471
 20
355.9903673879423
 10
316.6187209483085
 20
356.3138911943208
 10
316.4938454201772
 20
356.6153673879426
 10
316.29519714193
 20
356.8742508644257
  0
LWPOLYLINE
  5
58
100
AcDbEntity
  8
0
  6
ByLayer
 62
  256
370
   -1
100
AcDbPolyline
 90
   25
 70
    0
 43
0
 10
316.2951971419234
 20
374.8742508643654
 10
316.0363136654407
 20
375.0728991426131
 10
315.7348374718185
 20
375.1977746707437
 10
315.4113136654403
 20
375.2403673878823
 10
315.0877898590625
 20
375.1977746707437
 10
314.7863136654403
 20
375.0728991426131
 10
314.5274301889576
 20
374.8742508643654
 10
314.3287819107095
 20
374.6153673878825
 10
314.2039063825791
 20
374.3138911942606
 10
314.1613136654405
 20
373.9903673878823
 10
314.2039063825791
 20
373.6668435815043
 10
314.3287819107095
 20
373.3653673878823
 10
314.5274301889576
 20
373.1064839113992
 10
314.7863136654403
 20
372.9078356331518
 10
315.0877898590625
 20
372.7829601050212
 10
315.4113136654403
 20
372.7403673878825
 10
315.7348374718185
 20
372.7829601050212
 10
316.0363136654407
 20
372.9078356331518
 10
316.2951971419234
 20
373.1064839113992
 10
316.4938454201708
 20
373.3653673878823
 10
316.6187209483019
 20
373.6668435815043
 10
316.6613136654405
 20
373.9903673878823
 10
316.6187209483019
 20
374.3138911942606
 10
316.4938454201708
 20
374.6153673878825
 10
316.2951971419234
 20
374.8742508643654
  0
LWPOLYLINE
  5
59
100
AcDbEntity
  8
0
  6
ByLayer
 62
  256
370
   -1
100
AcDbPolyline
 90
   25
 70
    0
 43
0
 10
300.3267409550033
 20
387.3086256927547
 10
300.2841482378644
 20
386.9851018863765
 10
300.3267409550033
 20
386.6615780799984
 10
300.4516164831343
 20
386.3601018863762
 10
300.6502647613818
 20
386.1012184098934
 10
300.9091482378644
 20
385.9025701316459
 10
301.2106244314864
 20
385.7776946035151
 10
301.5341482378649
 20
385.7351018863765
 10
301.8576720442427
 20
385.7776946035151
 10
302.1591482378649
 20
385.9025701316459
 10
302.4180317143475
 20
386.1012184098934
 10
302.6166799925954
 20
386.3601018863765
 10
302.741555520726
 20
386.6615780799984
 10
302.7841482378647
 20
386.9851018863765
 10
302.741555520726
 20
387.3086256927547
 10
302.6166799925954
 20
387.6101018863765
 10
302.4180317143475
 20
387.8689853628596
 10
302.1591482378649
 20
388.0676336411072
 10
301.8576720442427
 20
388.1925091692378
 10
301.5341482378649
 20
388.2351018863765
 10
301.2106244314864
 20
388.1925091692378
 10
300.9091482378644
 20
388.0676336411072
 10
300.6502647613818
 20
387.8689853628596
 10
300.4516164831343
 20
387.6101018863765
 10
300.3267409550033
 20
387.3086256927547
  0
LWPOLYLINE
  5
5A
100
AcDbEntity
  8
0
  6
ByLayer
 62
  256
370
   -1
100
AcDbPolyline
 90
   25
 70
    0
 43
0
 10
285.1702807207437
 20
385.7776640143286
 10
285.4938045271222
 20
385.73507129719
 10
285.8173283334997
 20
385.7776640143286
 10
286.1188045271219
 20
385.9025395424594
 10
286.3776880036046
 20
386.1011878207066
 10
286.5763362818527
 20
386.36007129719
 10
286.7012118099831
 20
386.6615474908119
 10
286.7438045271217
 20
386.98507129719
 10
286.7012118099831
 20
387.3085951035682
 10
286.5763362818527
 20
387.61007129719
 10
286.3776880036046
 20
387.8689547736731
 10
286.1188045271219
 20
388.0676030519205
 10
285.8173283334997
 20
388.1924785800513
 10
285.4938045271222
 20
388.23507129719
 10
285.1702807207437
 20
388.1924785800513
 10
284.8688045271215
 20
388.0676030519205
 10
284.6099210506388
 20
387.8689547736731
 10
284.4112727723916
 20
387.61007129719
 10
284.2863972442603
 20
387.3085951035682
 10
284.2438045271217
 20
386.98507129719
 10
284.2863972442603
 20
386.6615474908119
 10
284.4112727723916
 20
386.3600712971897
 10
284.6099210506388
 20
386.1011878207066
 10
284.8688045271215
 20
385.9025395424594
 10
285.1702807207437
 20
385.7776640143286
  0
LWPOLYLINE
  5
5B
100
AcDbEntity
  8
0
  6
ByLayer
 62
  256
370
   -1
100
AcDbPolyline
 90
   25
 70
    0
 43
0
 10
223.0905725831065
 20
364.1177054690638
 10
223.34945605959
 20
363.9190571908166
 10
223.6509322532117
 20
363.7941816626858
 10
223.9744560595898
 20
363.7515889455469
 10
224.2979798659678
 20
363.7941816626858
 10
224.59945605959
 20
363.9190571908166
 10
224.8583395360731
 20
364.1177054690638
 10
225.0569878143203
 20
364.3765889455469
 10
225.1818633424512
 20
364.6780651391689
 10
225.2244560595898
 20
365.0015889455469
 10
225.1818633424512
 20
365.325112751925
 10
225.0569878143203
 20
365.6265889455469
 10
224.8583395360731
 20
365.88547242203
 10
224.5994560595896
 20
366.0841207002773
 10
224.2979798659678
 20
366.2089962284081
 10
223.9744560595898
 20
366.2515889455467
 10
223.6509322532117
 20
366.2089962284081
 10
223.34945605959
 20
366.0841207002773
 10
223.0905725831065
 20
365.88547242203
 10
222.8919243048592
 20
365.6265889455469
 10
222.7670487767286
 20
365.325112751925
 10
222.72445605959
 20
365.0015889455469
 10
222.7670487767286
 20
364.6780651391689
 10
222.8919243048592
 20
364.3765889455469
 10
223.0905725831065
 20
364.1177054690638
  0
LWPOLYLINE
  5
5C
100
AcDbEntity
  8
0
  6
ByLayer
 62
  256
370
   -1
100
AcDbPolyline
 90
   25
 70
    0
 43
0
 10
225.2120321921861
 20
389.6843125339124
 10
225.254624909325
 20
390.0078363402904
 10
225.2120321921861
 20
390.3313601466687
 10
225.0871566640553
 20
390.6328363402906
 10
224.8885083858081
 20
390.8917198167735
 10
224.629624909325
 20
391.0903680950212
 10
224.328148715703
 20
391.2152436231518
 10
224.0046249093248
 20
391.2578363402904
 10
223.6811011029467
 20
391.2152436231518
 10
223.379624909325
 20
391.0903680950212
 10
223.1207414328419
 20
390.8917198167735
 10
222.9220931545942
 20
390.6328363402906
 10
222.7972176264634
 20
390.3313601466687
 10
222.7546249093248
 20
390.0078363402904
 10
222.7972176264634
 20
389.6843125339124
 10
222.9220931545942
 20
389.3828363402904
 10
223.1207414328419
 20
389.1239528638073
 10
223.379624909325
 20
388.9253045855598
 10
223.6811011029467
 20
388.8004290574293
 10
224.0046249093248
 20
388.7578363402906
 10
224.328148715703
 20
388.8004290574293
 10
224.629624909325
 20
388.9253045855598
 10
224.8885083858081
 20
389.1239528638073
 10
225.0871566640553
 20
389.3828363402904
 10
225.2120321921861
 20
389.6843125339124
  0
LWPOLYLINE
  5
5D
100
AcDbEntity
  8
0
  6
ByLayer
 62
  256
370
   -1
100
AcDbPolyline
 90
   25
 70
    0
 43
0
 10
334.4117993875263
 20
63.87837929065438
 10
334.6104476657738
 20
63.61949581417139
 10
334.8693311422569
 20
63.42084753592394
 10
335.1708073358789
 20
63.29597200779324
 10
335.4943311422571
 20
63.25337929065461
 10
335.8178549486352
 20
63.29597200779324
 10
336.1193311422569
 20
63.42084753592394
 10
336.3782146187402
 20
63.61949581417139
 10
336.5768628969877
 20
63.87837929065438
 10
336.7017384251185
 20
64.17985548427635
 10
336.7443311422571
 20
64.50337929065449
 10
336.7017384251185
 20
64.82690309703264
 10
336.5768628969877
 20
65.12837929065449
 10
336.3782146187402
 20
65.3872627671376
 10
336.1193311422574
 20
65.58591104538505
 10
335.8178549486352
 20
65.71078657351575
 10
335.4943311422571
 20
65.75337929065438
 10
335.1708073358789
 20
65.71078657351575
 10
334.8693311422571
 20
65.58591104538505
 10
334.6104476657738
 20
65.3872627671376
 10
334.4117993875263
 20
65.12837929065449
 10
334.2869238593955
 20
64.82690309703264
 10
334.2443311422569
 20
64.50337929065449
 10
334.2869238593955
 20
64.17985548427635
 10
334.4117993875263
 20
63.87837929065438
  0
LWPOLYLINE
  5
5E
100
AcDbEntity
  8
0
  6
ByLayer
 62
  256
370
   -1
100
AcDbPolyline
 90
   25
 70
    0
 43
0
 10
320.3782402294764
 20
50.62027905327216
 10
320.5768885077239
 20
50.87916252975538
 10
320.7017640358545
 20
51.18063872337711
 10
320.7443567529931
 20
51.50416252975526
 10
320.7017640358545
 20
51.82768633613341
 10
320.5768885077239
 20
52.12916252975526
 10
320.3782402294764
 20
52.3880460062386
 10
320.1193567529933
 20
52.58669428448582
 10
319.8178805593711
 20
52.71156981261663
 10
319.4943567529933
 20
52.75416252975538
 10
319.1708329466148
 20
52.71156981261663
 10
318.8693567529931
 20
52.58669428448582
 10
318.6104732765102
 20
52.3880460062386
 10
318.4118249982628
 20
52.12916252975526
 10
318.286949470132
 20
51.82768633613341
 10
318.2443567529933
 20
51.50416252975526
 10
318.286949470132
 20
51.18063872337711
 10
318.4118249982628
 20
50.87916252975538
 10
318.6104732765102
 20
50.62027905327216
 10
318.8693567529931
 20
50.42163077502471
 10
319.1708329466148
 20
50.29675524689401
 10
319.4943567529933
 20
50.25416252975538
 10
319.8178805593711
 20
50.29675524689401
 10
320.1193567529933
 20
50.42163077502471
 10
320.3782402294764
 20
50.62027905327216
  0
LWPOLYLINE
  5
5F
100
AcDbEntity
  8
0
  6
ByLayer
 62
  256
370
   -1
100
AcDbPolyline
 90
   25
 70
    0
 43
0
 10
336.8604451509814
 20
85.87054906905803
 10
336.7191554546641
 20
86.21165257013001
 10
336.4943960055748
 20
86.50456478696935
 10
336.2014837887355
 20
86.72932423605891
 10
335.8603802876637
 20
86.87061393237582
 10
335.4943311422571
 20
86.91880521660835
 10
335.1282819968508
 20
86.87061393237582
 10
334.787178495779
 20
86.72932423605891
 10
334.4942662789397
 20
86.50456478696935
 10
334.2695068298499
 20
86.21165257013001
 10
334.1282171335329
 20
85.87054906905826
 10
334.0800258493005
 20
85.50449992365179
 10
334.1282171335329
 20
85.1384507782451
 10
334.2695068298499
 20
84.79734727717323
 10
334.4942662789397
 20
84.504435060334
 10
334.7871784957786
 20
84.27967561124433
 10
335.1282819968508
 20
84.13838591492754
 10
335.4943311422571
 20
84.09019463069501
 10
335.8603802876637
 20
84.13838591492754
 10
336.2014837887355
 20
84.27967561124433
 10
336.4943960055748
 20
84.504435060334
 10
336.7191554546641
 20
84.79734727717323
 10
336.8604451509814
 20
85.1384507782451
 10
336.9086364352136
 20
85.50449992365179
 10
336.8604451509814
 20
85.87054906905803
  0
LWPOLYLINE
  5
60
100
AcDbEntity
  8
0
  6
ByLayer
 62
  256
370
   -1
100
AcDbPolyline
 90
   25
 70
    0
 43
0
 10
318.6104732765102
 20
97.61983320806769
 10
318.8693567529931
 20
97.42118492982036
 10
319.1708329466153
 20
97.29630940168954
 10
319.4943567529933
 20
97.25371668455091
 10
319.8178805593716
 20
97.29630940168954
 10
320.1193567529933
 20
97.42118492982036
 10
320.3782402294767
 20
97.61983320806769
 10
320.5768885077239
 20
97.87871668455091
 10
320.7017640358545
 20
98.18019287817265
 10
320.7443567529931
 20
98.50371668455091
 10
320.7017640358545
 20
98.82724049092906
 10
320.5768885077239
 20
99.12871668455102
 10
320.3782402294767
 20
99.38760016103402
 10
320.1193567529933
 20
99.58624843928135
 10
319.8178805593716
 20
99.71112396741216
 10
319.4943567529933
 20
99.7537166845508
 10
319.1708329466153
 20
99.71112396741216
 10
318.8693567529936
 20
99.58624843928135
 10
318.6104732765102
 20
99.38760016103402
 10
318.4118249982628
 20
99.12871668455102
 10
318.286949470132
 20
98.82724049092906
 10
318.2443567529933
 20
98.50371668455091
 10
318.286949470132
 20
98.18019287817265
 10
318.4118249982628
 20
97.87871668455091
 10
318.6104732765102
 20
97.61983320806769
  0
LWPOLYLINE
  5
61
100
AcDbEntity
  8
0
  6
ByLayer
 62
  256
370
   -1
100
AcDbPolyline
 90
   25
 70
    0
 43
0
 10
302.4942097411597
 20
89.1160241525148
 10
302.2530287862626
 20
89.21592457501936
 10
301.9942097411597
 20
89.24999874873038
 10
301.7353906960575
 20
89.21592457501936
 10
301.4942097411599
 20
89.1160241525148
 10
301.2871029599735
 20
88.95710552991682
 10
301.1281843373754
 20
88.74999874873026
 10
301.0282839148706
 20
88.50881779383269
 10
300.9942097411599
 20
88.24999874873015
 10
301.0282839148706
 20
87.99117970362772
 10
301.1281843373754
 20
87.74999874873026
 10
301.2871029599735
 20
87.54289196754382
 10
301.4942097411599
 20
87.38397334494584
 10
301.7353906960575
 20
87.28407292244106
 10
301.9942097411597
 20
87.24999874873026
 10
302.2530287862626
 20
87.28407292244106
 10
302.4942097411601
 20
87.38397334494584
 10
302.7013165223466
 20
87.54289196754382
 10
302.8602351449445
 20
87.74999874873026
 10
302.960135567449
 20
87.99117970362772
 10
302.9942097411599
 20
88.24999874873015
 10
302.960135567449
 20
88.50881779383269
 10
302.8602351449445
 20
88.74999874873026
 10
302.7013165223466
 20
88.95710552991682
 10
302.4942097411597
 20
89.1160241525148
  0
LWPOLYLINE
  5
62
100
AcDbEntity
  8
0
  6
ByLayer
 62
  256
370
   -1
100
AcDbPolyline
 90
   25
 70
    0
 43
0
 10
301.028283914867
 20
122.9911797036278
 10
301.1281843373715
 20
122.7499987487303
 10
301.2871029599694
 20
122.5428919675438
 10
301.4942097411563
 20
122.3839733449458
 10
301.7353906960534
 20
122.2840729224413
 10
301.9942097411563
 20
122.2499987487303
 10
302.2530287862585
 20
122.2840729224413
 10
302.4942097411561
 20
122.3839733449458
 10
302.7013165223425
 20
122.5428919675438
 10
302.8602351449406
 20
122.7499987487303
 10
302.9601355674454
 20
122.9911797036278
 10
302.9942097411561
 20
123.2499987487304
 10
302.9601355674454
 20
123.5088177938329
 10
302.8602351449406
 20
123.7499987487304
 10
302.7013165223425
 20
123.9571055299169
 10
302.4942097411561
 20
124.1160241525148
 10
302.2530287862585
 20
124.2159245750195
 10
301.9942097411563
 20
124.2499987487303
 10
301.7353906960534
 20
124.2159245750195
 10
301.4942097411558
 20
124.1160241525148
 10
301.2871029599694
 20
123.9571055299169
 10
301.1281843373715
 20
123.7499987487304
 10
301.028283914867
 20
123.5088177938329
 10
300.9942097411561
 20
123.2499987487304
 10
301.028283914867
 20
122.9911797036278
  0
LWPOLYLINE
  5
63
100
AcDbEntity
  8
0
  6
ByLayer
 62
  256
370
   -1
100
AcDbPolyline
 90
   25
 70
    0
 43
0
 10
302.7013165223379
 20
158.0428916988119
 10
302.8602351449358
 20
158.2499984799986
 10
302.9601355674406
 20
158.4911794348959
 10
302.9942097411517
 20
158.7499984799986
 10
302.9601355674406
 20
159.008817525101
 10
302.8602351449358
 20
159.2499984799986
 10
302.7013165223379
 20
159.457105261185
 10
302.4942097411513
 20
159.6160238837829
 10
302.2530287862539
 20
159.7159243062877
 10
301.9942097411515
 20
159.7499984799986
 10
301.7353906960489
 20
159.7159243062877
 10
301.4942097411513
 20
159.6160238837829
 10
301.2871029599646
 20
159.457105261185
 10
301.1281843373672
 20
159.2499984799986
 10
301.0282839148624
 20
159.008817525101
 10
300.9942097411513
 20
158.7499984799986
 10
301.0282839148624
 20
158.4911794348959
 10
301.1281843373672
 20
158.2499984799986
 10
301.2871029599646
 20
158.0428916988119
 10
301.4942097411513
 20
157.883973076214
 10
301.7353906960489
 20
157.7840726537095
 10
301.9942097411515
 20
157.7499984799983
 10
302.2530287862539
 20
157.7840726537095
 10
302.4942097411513
 20
157.883973076214
 10
302.7013165223379
 20
158.0428916988119
  0
LWPOLYLINE
  5
64
100
AcDbEntity
  8
0
  6
ByLayer
 62
  256
370
   -1
100
AcDbPolyline
 90
   25
 70
    0
 43
0
 10
301.1281843373704
 20
193.2499984799983
 10
301.2871029599683
 20
193.0428916988117
 10
301.4942097411549
 20
192.883973076214
 10
301.7353906960525
 20
192.7840726537095
 10
301.9942097411547
 20
192.7499984799983
 10
302.2530287862573
 20
192.7840726537095
 10
302.4942097411549
 20
192.883973076214
 10
302.7013165223416
 20
193.0428916988117
 10
302.8602351449395
 20
193.2499984799983
 10
302.9601355674438
 20
193.4911794348957
 10
302.9942097411549
 20
193.7499984799986
 10
302.9601355674438
 20
194.0088175251008
 10
302.8602351449395
 20
194.2499984799983
 10
302.7013165223416
 20
194.457105261185
 10
302.4942097411547
 20
194.6160238837829
 10
302.2530287862573
 20
194.7159243062877
 10
301.9942097411547
 20
194.7499984799986
 10
301.7353906960525
 20
194.7159243062877
 10
301.4942097411549
 20
194.6160238837829
 10
301.2871029599683
 20
194.457105261185
 10
301.1281843373704
 20
194.2499984799983
 10
301.0282839148656
 20
194.0088175251008
 10
300.9942097411549
 20
193.7499984799986
 10
301.0282839148656
 20
193.4911794348957
 10
301.1281843373704
 20
193.2499984799983
  0
LWPOLYLINE
  5
65
100
AcDbEntity
  8
0
  6
ByLayer
 62
  256
370
   -1
100
AcDbPolyline
 90
   25
 70
    0
 43
0
 10
302.8602351449338
 20
254.7499987487313
 10
302.9601355674386
 20
254.9911797036286
 10
302.9942097411495
 20
255.2499987487313
 10
302.9601355674386
 20
255.5088177938337
 10
302.8602351449338
 20
255.7499987487313
 10
302.7013165223361
 20
255.9571055299177
 10
302.4942097411495
 20
256.1160241525158
 10
302.2530287862521
 20
256.2159245750204
 10
301.9942097411492
 20
256.2499987487313
 10
301.735390696047
 20
256.2159245750204
 10
301.4942097411495
 20
256.1160241525158
 10
301.287102959963
 20
255.9571055299177
 10
301.1281843373649
 20
255.7499987487313
 10
301.0282839148601
 20
255.5088177938337
 10
300.9942097411492
 20
255.2499987487313
 10
301.0282839148601
 20
254.9911797036286
 10
301.1281843373649
 20
254.7499987487313
 10
301.287102959963
 20
254.5428919675446
 10
301.4942097411495
 20
254.3839733449468
 10
301.735390696047
 20
254.284072922442
 10
301.9942097411492
 20
254.2499987487313
 10
302.2530287862521
 20
254.284072922442
 10
302.4942097411495
 20
254.3839733449468
 10
302.7013165223361
 20
254.5428919675446
 10
302.8602351449338
 20
254.7499987487313
  0
LWPOLYLINE
  5
66
100
AcDbEntity
  8
0
  6
ByLayer
 62
  256
370
   -1
100
AcDbPolyline
 90
   25
 70
    0
 43
0
 10
301.1281843373699
 20
291.2499984800008
 10
301.0282839148649
 20
291.0088175251035
 10
300.9942097411542
 20
290.7499984800011
 10
301.0282839148649
 20
290.4911794348984
 10
301.1281843373699
 20
290.2499984800008
 10
301.287102959968
 20
290.0428916988144
 10
301.4942097411542
 20
289.8839730762165
 10
301.7353906960516
 20
289.784072653712
 10
301.994209741154
 20
289.7499984800008
 10
302.2530287862571
 20
289.784072653712
 10
302.4942097411547
 20
289.8839730762165
 10
302.7013165223409
 20
290.0428916988144
 10
302.8602351449388
 20
290.2499984800008
 10
302.9601355674431
 20
290.4911794348984
 10
302.9942097411545
 20
290.7499984800011
 10
302.9601355674431
 20
291.0088175251035
 10
302.8602351449388
 20
291.2499984800008
 10
302.7013165223409
 20
291.4571052611875
 10
302.4942097411542
 20
291.6160238837854
 10
302.2530287862571
 20
291.7159243062902
 10
301.994209741154
 20
291.7499984800008
 10
301.7353906960516
 20
291.7159243062902
 10
301.4942097411542
 20
291.6160238837854
 10
301.287102959968
 20
291.4571052611875
 10
301.1281843373699
 20
291.2499984800008
  0
LWPOLYLINE
  5
67
100
AcDbEntity
  8
0
  6
ByLayer
 62
  256
370
   -1
100
AcDbPolyline
 90
   25
 70
    0
 43
0
 10
302.7013165223448
 20
326.4571052611873
 10
302.4942097411583
 20
326.6160238837851
 10
302.2530287862608
 20
326.7159243062897
 10
301.9942097411579
 20
326.7499984800008
 10
301.7353906960557
 20
326.7159243062897
 10
301.4942097411581
 20
326.6160238837851
 10
301.2871029599717
 20
326.4571052611873
 10
301.1281843373736
 20
326.2499984800006
 10
301.0282839148688
 20
326.0088175251033
 10
300.9942097411579
 20
325.7499984800006
 10
301.0282839148688
 20
325.4911794348982
 10
301.1281843373736
 20
325.2499984800006
 10
301.2871029599717
 20
325.0428916988142
 10
301.4942097411581
 20
324.8839730762163
 10
301.7353906960557
 20
324.7840726537115
 10
301.9942097411579
 20
324.7499984800006
 10
302.2530287862608
 20
324.7840726537115
 10
302.4942097411583
 20
324.8839730762163
 10
302.7013165223448
 20
325.0428916988142
 10
302.8602351449424
 20
325.2499984800006
 10
302.9601355674472
 20
325.4911794348982
 10
302.9942097411581
 20
325.7499984800006
 10
302.9601355674472
 20
326.0088175251033
 10
302.8602351449424
 20
326.2499984800006
 10
302.7013165223448
 20
326.4571052611873
  0
LWPOLYLINE
  5
68
100
AcDbEntity
  8
0
  6
ByLayer
 62
  256
370
   -1
100
AcDbPolyline
 90
   25
 70
    0
 43
0
 10
301.1281843373672
 20
219.7499987487315
 10
301.2871029599651
 20
219.5428919675448
 10
301.4942097411513
 20
219.383973344947
 10
301.7353906960489
 20
219.2840729224424
 10
301.9942097411511
 20
219.2499987487315
 10
302.2530287862542
 20
219.2840729224424
 10
302.4942097411517
 20
219.383973344947
 10
302.7013165223379
 20
219.5428919675448
 10
302.8602351449358
 20
219.7499987487315
 10
302.9601355674401
 20
219.9911797036289
 10
302.9942097411517
 20
220.2499987487315
 10
302.9601355674401
 20
220.5088177938339
 10
302.8602351449358
 20
220.7499987487315
 10
302.7013165223379
 20
220.957105529918
 10
302.4942097411513
 20
221.116024152516
 10
302.2530287862542
 20
221.2159245750206
 10
301.9942097411511
 20
221.2499987487315
 10
301.7353906960489
 20
221.2159245750206
 10
301.4942097411513
 20
221.116024152516
 10
301.2871029599651
 20
220.957105529918
 10
301.1281843373672
 20
220.7499987487315
 10
301.028283914862
 20
220.5088177938339
 10
300.9942097411513
 20
220.2499987487315
 10
301.028283914862
 20
219.9911797036289
 10
301.1281843373672
 20
219.7499987487315
  0
LWPOLYLINE
  5
69
100
AcDbEntity
  8
0
  6
ByLayer
 62
  256
370
   -1
100
AcDbPolyline
 90
   25
 70
    0
 43
0
 10
191.8659083313912
 20
328.2502213503083
 10
191.9658087538958
 20
328.4914023052058
 10
191.9998829276069
 20
328.7502213503085
 10
191.9658087538958
 20
329.0090403954109
 10
191.8659083313912
 20
329.2502213503085
 10
191.7069897087931
 20
329.4573281314949
 10
191.4998829276067
 20
329.6162467540928
 10
191.2587019727091
 20
329.7161471765976
 10
190.9998829276067
 20
329.7502213503085
 10
190.741063882504
 20
329.7161471765976
 10
190.4998829276064
 20
329.6162467540928
 10
190.29277614642
 20
329.4573281314949
 10
190.1338575238224
 20
329.2502213503085
 10
190.0339571013176
 20
329.0090403954109
 10
189.9998829276067
 20
328.7502213503085
 10
190.0339571013176
 20
328.4914023052058
 10
190.1338575238224
 20
328.2502213503083
 10
190.29277614642
 20
328.0431145691218
 10
190.4998829276064
 20
327.884195946524
 10
190.741063882504
 20
327.7842955240194
 10
190.9998829276067
 20
327.7502213503083
 10
191.2587019727091
 20
327.7842955240194
 10
191.4998829276067
 20
327.884195946524
 10
191.7069897087931
 20
328.0431145691218
 10
191.8659083313912
 20
328.2502213503083
  0
LWPOLYLINE
  5
6A
100
AcDbEntity
  8
0
  6
ByLayer
 62
  256
370
   -1
100
AcDbPolyline
 90
   25
 70
    0
 43
0
 10
191.4998829276099
 20
292.8841959465242
 10
191.7069897087968
 20
293.0431145691223
 10
191.8659083313948
 20
293.2502213503087
 10
191.9658087538992
 20
293.4914023052063
 10
191.9998829276101
 20
293.7502213503087
 10
191.9658087538992
 20
294.0090403954114
 10
191.8659083313948
 20
294.2502213503089
 10
191.7069897087968
 20
294.4573281314954
 10
191.4998829276103
 20
294.6162467540935
 10
191.2587019727127
 20
294.716147176598
 10
190.9998829276101
 20
294.7502213503087
 10
190.7410638825077
 20
294.716147176598
 10
190.4998829276101
 20
294.6162467540935
 10
190.2927761464236
 20
294.4573281314954
 10
190.1338575238256
 20
294.2502213503089
 10
190.0339571013208
 20
294.0090403954114
 10
189.9998829276103
 20
293.7502213503087
 10
190.0339571013208
 20
293.4914023052063
 10
190.1338575238256
 20
293.2502213503087
 10
190.2927761464236
 20
293.0431145691223
 10
190.4998829276101
 20
292.8841959465242
 10
190.7410638825077
 20
292.7842955240196
 10
190.9998829276101
 20
292.7502213503089
 10
191.2587019727127
 20
292.7842955240196
 10
191.4998829276099
 20
292.8841959465242
  0
LWPOLYLINE
  5
6B
100
AcDbEntity
  8
0
  6
ByLayer
 62
  256
370
   -1
100
AcDbPolyline
 90
   25
 70
    0
 43
0
 10
191.7069897087918
 20
257.5431148378541
 10
191.8659083313894
 20
257.7502216190405
 10
191.9658087538942
 20
257.9914025739381
 10
191.9998829276051
 20
258.2502216190408
 10
191.9658087538942
 20
258.5090406641432
 10
191.8659083313894
 20
258.7502216190405
 10
191.7069897087918
 20
258.9573284002272
 10
191.4998829276049
 20
259.1162470228251
 10
191.2587019727073
 20
259.2161474453299
 10
190.9998829276049
 20
259.2502216190405
 10
190.7410638825027
 20
259.2161474453299
 10
190.4998829276051
 20
259.1162470228251
 10
190.2927761464182
 20
258.9573284002272
 10
190.1338575238206
 20
258.7502216190405
 10
190.0339571013158
 20
258.5090406641432
 10
189.9998829276049
 20
258.2502216190408
 10
190.0339571013158
 20
257.9914025739381
 10
190.1338575238206
 20
257.7502216190405
 10
190.2927761464182
 20
257.5431148378541
 10
190.4998829276051
 20
257.384196215256
 10
190.7410638825027
 20
257.2842957927514
 10
190.9998829276049
 20
257.2502216190405
 10
191.2587019727073
 20
257.2842957927514
 10
191.4998829276049
 20
257.384196215256
 10
191.7069897087918
 20
257.5431148378541
  0
LWPOLYLINE
  5
6C
100
AcDbEntity
  8
0
  6
ByLayer
 62
  256
370
   -1
100
AcDbPolyline
 90
   25
 70
    0
 43
0
 10
191.7069897087877
 20
222.5431148378545
 10
191.8659083313858
 20
222.750221619041
 10
191.9658087538905
 20
222.9914025739386
 10
191.999882927601
 20
223.250221619041
 10
191.9658087538905
 20
223.5090406641436
 10
191.8659083313858
 20
223.750221619041
 10
191.7069897087877
 20
223.9573284002277
 10
191.4998829276012
 20
224.1162470228255
 10
191.2587019727036
 20
224.2161474453301
 10
190.9998829276012
 20
224.2502216190412
 10
190.7410638824986
 20
224.2161474453301
 10
190.499882927601
 20
224.1162470228255
 10
190.2927761464146
 20
223.9573284002277
 10
190.1338575238167
 20
223.750221619041
 10
190.0339571013121
 20
223.5090406641436
 10
189.9998829276012
 20
223.250221619041
 10
190.0339571013121
 20
222.9914025739386
 10
190.1338575238167
 20
222.750221619041
 10
190.2927761464146
 20
222.5431148378545
 10
190.499882927601
 20
222.3841962152567
 10
190.7410638824986
 20
222.2842957927519
 10
190.9998829276012
 20
222.250221619041
 10
191.2587019727036
 20
222.2842957927519
 10
191.4998829276012
 20
222.3841962152567
 10
191.7069897087877
 20
222.5431148378545
  0
LWPOLYLINE
  5
6D
100
AcDbEntity
  8
0
  6
ByLayer
 62
  256
370
   -1
100
AcDbPolyline
 90
   25
 70
    0
 43
0
 10
173.2157961685805
 20
201.7409404126088
 10
173.2498703422914
 20
201.9997594577112
 10
173.2157961685805
 20
202.2585785028139
 10
173.1158957460761
 20
202.4997594577112
 10
172.9569771234781
 20
202.7068662388979
 10
172.7498703422916
 20
202.8657848614957
 10
172.508689387394
 20
202.9656852840003
 10
172.2498703422914
 20
202.9997594577112
 10
171.991051297189
 20
202.9656852840003
 10
171.7498703422914
 20
202.8657848614957
 10
171.5427635611049
 20
202.7068662388979
 10
171.3838449385071
 20
202.4997594577112
 10
171.2839445160023
 20
202.2585785028139
 10
171.2498703422916
 20
201.9997594577112
 10
171.2839445160023
 20
201.7409404126088
 10
171.3838449385071
 20
201.4997594577112
 10
171.5427635611049
 20
201.2926526765248
 10
171.7498703422914
 20
201.1337340539267
 10
171.991051297189
 20
201.0338336314221
 10
172.2498703422914
 20
200.9997594577112
 10
172.508689387394
 20
201.0338336314221
 10
172.7498703422912
 20
201.1337340539267
 10
172.9569771234781
 20
201.2926526765248
 10
173.1158957460761
 20
201.4997594577112
 10
173.2157961685805
 20
201.7409404126088
  0
LWPOLYLINE
  5
6E
100
AcDbEntity
  8
0
  6
ByLayer
 62
  256
370
   -1
100
AcDbPolyline
 90
   25
 70
    0
 43
0
 10
98.7128973626227
 20
193.0428916988114
 10
98.87181598522102
 20
193.2499984799981
 10
98.97171640772558
 20
193.4911794348957
 10
99.00579058143649
 20
193.7499984799981
 10
98.97171640772558
 20
194.0088175251008
 10
98.87181598522102
 20
194.2499984799981
 10
98.7128973626227
 20
194.4571052611848
 10
98.50579058143649
 20
194.6160238837826
 10
98.26460962653891
 20
194.7159243062872
 10
98.00579058143649
 20
194.7499984799983
 10
97.7469715363336
 20
194.7159243062872
 10
97.50579058143603
 20
194.6160238837826
 10
97.29868380024982
 20
194.4571052611848
 10
97.13976517765195
 20
194.2499984799981
 10
97.03986475514739
 20
194.0088175251008
 10
97.00579058143649
 20
193.7499984799981
 10
97.03986475514739
 20
193.4911794348957
 10
97.13976517765195
 20
193.2499984799981
 10
97.29868380024982
 20
193.0428916988114
 10
97.50579058143603
 20
192.8839730762138
 10
97.7469715363336
 20
192.784072653709
 10
98.00579058143649
 20
192.7499984799981
 10
98.26460962653891
 20
192.784072653709
 10
98.50579058143649
 20
192.8839730762138
 10
98.7128973626227
 20
193.0428916988114
  0
LWPOLYLINE
  5
6F
100
AcDbEntity
  8
0
  6
ByLayer
 62
  256
370
   -1
100
AcDbPolyline
 90
   25
 70
    0
 43
0
 10
97.13976517765514
 20
158.2499984799983
 10
97.29868380025346
 20
158.0428916988117
 10
97.50579058143967
 20
157.8839730762138
 10
97.74697153633724
 20
157.784072653709
 10
98.00579058143967
 20
157.7499984799981
 10
98.26460962654255
 20
157.784072653709
 10
98.50579058143967
 20
157.8839730762138
 10
98.71289736262634
 20
158.0428916988117
 10
98.8718159852242
 20
158.2499984799983
 10
98.97171640772876
 20
158.4911794348957
 10
99.00579058143967
 20
158.7499984799981
 10
98.97171640772876
 20
159.0088175251008
 10
98.8718159852242
 20
159.2499984799983
 10
98.71289736262634
 20
159.4571052611848
 10
98.50579058144012
 20
159.6160238837826
 10
98.26460962654255
 20
159.7159243062872
 10
98.00579058143967
 20
159.7499984799983
 10
97.74697153633724
 20
159.7159243062872
 10
97.50579058143967
 20
159.6160238837826
 10
97.29868380025346
 20
159.4571052611848
 10
97.13976517765514
 20
159.2499984799983
 10
97.03986475515057
 20
159.0088175251008
 10
97.00579058144012
 20
158.7499984799981
 10
97.03986475515057
 20
158.4911794348957
 10
97.13976517765514
 20
158.2499984799983
  0
LWPOLYLINE
  5
70
100
AcDbEntity
  8
0
  6
ByLayer
 62
  256
370
   -1
100
AcDbPolyline
 90
   25
 70
    0
 43
0
 10
98.8718159852192
 20
122.7499987487301
 10
98.97171640772422
 20
122.9911797036275
 10
99.00579058143512
 20
123.24999874873
 10
98.97171640772422
 20
123.5088177938326
 10
98.8718159852192
 20
123.74999874873
 10
98.71289736262179
 20
123.9571055299166
 10
98.50579058143512
 20
124.1160241525146
 10
98.26460962653755
 20
124.2159245750191
 10
98.00579058143512
 20
124.2499987487301
 10
97.74697153633269
 20
124.2159245750191
 10
97.50579058143512
 20
124.1160241525146
 10
97.29868380024845
 20
123.9571055299166
 10
97.13976517765059
 20
123.74999874873
 10
97.03986475514603
 20
123.5088177938326
 10
97.00579058143467
 20
123.24999874873
 10
97.03986475514603
 20
122.9911797036275
 10
97.13976517765059
 20
122.7499987487301
 10
97.29868380024845
 20
122.5428919675434
 10
97.50579058143512
 20
122.3839733449456
 10
97.74697153633269
 20
122.2840729224411
 10
98.00579058143512
 20
122.24999874873
 10
98.26460962653755
 20
122.2840729224411
 10
98.50579058143512
 20
122.3839733449456
 10
98.71289736262179
 20
122.5428919675434
 10
98.8718159852192
 20
122.7499987487301
  0
LWPOLYLINE
  5
71
100
AcDbEntity
  8
0
  6
ByLayer
 62
  256
370
   -1
100
AcDbPolyline
 90
   25
 70
    0
 43
0
 10
97.7469715363286
 20
89.21592457501913
 10
97.50579058143103
 20
89.11602415251446
 10
97.29868380024482
 20
88.95710552991659
 10
97.13976517764695
 20
88.74999874873004
 10
97.03986475514239
 20
88.50881779383258
 10
97.00579058143103
 20
88.24999874873004
 10
97.03986475514239
 20
87.99117970362749
 10
97.13976517764695
 20
87.74999874872992
 10
97.29868380024482
 20
87.54289196754348
 10
97.50579058143103
 20
87.3839733449455
 10
97.7469715363286
 20
87.28407292244094
 10
98.00579058143148
 20
87.24999874872992
 10
98.26460962653391
 20
87.28407292244094
 10
98.50579058143148
 20
87.3839733449455
 10
98.7128973626177
 20
87.54289196754348
 10
98.87181598521556
 20
87.74999874872992
 10
98.97171640772058
 20
87.99117970362749
 10
99.00579058143148
 20
88.24999874873004
 10
98.97171640772058
 20
88.50881779383258
 10
98.87181598521556
 20
88.74999874873004
 10
98.7128973626177
 20
88.95710552991659
 10
98.50579058143148
 20
89.11602415251446
 10
98.26460962653391
 20
89.21592457501913
 10
98.00579058143148
 20
89.24999874872992
 10
97.7469715363286
 20
89.21592457501913
  0
LWPOLYLINE
  5
72
100
AcDbEntity
  8
0
  6
ByLayer
 62
  256
370
   -1
100
AcDbPolyline
 90
   25
 70
    0
 43
0
 10
81.13064356959785
 20
97.42118492982024
 10
81.38952704608118
 20
97.61983320806746
 10
81.5881753243284
 20
97.87871668455057
 10
81.71305085245922
 20
98.18019287817242
 10
81.75564356959785
 20
98.50371668455057
 10
81.71305085245922
 20
98.82724049092872
 10
81.5881753243284
 20
99.12871668455057
 10
81.38952704608118
 20
99.38760016103367
 10
81.13064356959785
 20
99.58624843928112
 10
80.82916737597589
 20
99.71112396741205
 10
80.50564356959785
 20
99.75371668455068
 10
80.18211976321982
 20
99.71112396741205
 10
79.88064356959785
 20
99.58624843928112
 10
79.62176009311497
 20
99.38760016103367
 10
79.4231118148673
 20
99.12871668455057
 10
79.29823628673648
 20
98.82724049092872
 10
79.25564356959785
 20
98.50371668455057
 10
79.29823628673648
 20
98.18019287817242
 10
79.4231118148673
 20
97.87871668455057
 10
79.62176009311497
 20
97.61983320806746
 10
79.88064356959785
 20
97.42118492982024
 10
80.18211976321982
 20
97.29630940168931
 10
80.50564356959785
 20
97.25371668455068
 10
80.82916737597589
 20
97.29630940168931
 10
81.13064356959785
 20
97.42118492982024
  0
LWPOLYLINE
  5
73
100
AcDbEntity
  8
0
  6
ByLayer
 62
  256
370
   -1
100
AcDbPolyline
 90
   25
 70
    0
 43
0
 10
63.28084486792659
 20
86.21165257012967
 10
63.13955517160957
 20
85.8705490690578
 10
63.09136388737716
 20
85.50449992365134
 10
63.13955517160957
 20
85.13845077824499
 10
63.28084486792659
 20
84.79734727717312
 10
63.50560431701615
 20
84.50443506033366
 10
63.79851653385549
 20
84.27967561124422
 10
64.1396200349277
 20
84.1383859149272
 10
64.50566918033428
 20
84.09019463069478
 10
64.8717183257404
 20
84.1383859149272
 10
65.21282182681216
 20
84.27967561124422
 10
65.50573404365196
 20
84.50443506033366
 10
65.73049349274152
 20
84.79734727717312
 10
65.87178318905808
 20
85.13845077824499
 10
65.91997447329095
 20
85.50449992365134
 10
65.87178318905808
 20
85.8705490690578
 10
65.73049349274152
 20
86.21165257012967
 10
65.50573404365196
 20
86.50456478696913
 10
65.21282182681216
 20
86.72932423605857
 10
64.8717183257404
 20
86.87061393237559
 10
64.50566918033428
 20
86.91880521660801
 10
64.1396200349277
 20
86.87061393237559
 10
63.79851653385549
 20
86.72932423605857
 10
63.50560431701615
 20
86.50456478696913
 10
63.28084486792659
 20
86.21165257012967
  0
LWPOLYLINE
  5
74
100
AcDbEntity
  8
0
  6
ByLayer
 62
  256
370
   -1
100
AcDbPolyline
 90
   25
 70
    0
 43
0
 10
79.42311181486775
 20
50.87916252975504
 10
79.62176009311497
 20
50.62027905327182
 10
79.88064356959785
 20
50.42163077502448
 10
80.18211976321982
 20
50.29675524689367
 10
80.50564356959831
 20
50.25416252975504
 10
80.82916737597589
 20
50.29675524689367
 10
81.13064356959785
 20
50.42163077502448
 10
81.38952704608118
 20
50.62027905327182
 10
81.58817532432886
 20
50.87916252975504
 10
81.71305085245922
 20
51.18063872337677
 10
81.75564356959785
 20
51.50416252975504
 10
81.71305085245922
 20
51.82768633613318
 10
81.58817532432886
 20
52.12916252975515
 10
81.38952704608118
 20
52.38804600623826
 10
81.13064356959785
 20
52.58669428448547
 10
80.82916737597589
 20
52.71156981261629
 10
80.50564356959831
 20
52.75416252975504
 10
80.18211976321982
 20
52.71156981261629
 10
79.88064356959785
 20
52.58669428448547
 10
79.62176009311497
 20
52.38804600623826
 10
79.42311181486775
 20
52.12916252975515
 10
79.29823628673694
 20
51.82768633613318
 10
79.25564356959785
 20
51.50416252975504
 10
79.29823628673694
 20
51.18063872337677
 10
79.42311181486775
 20
50.87916252975504
  0
LWPOLYLINE
  5
75
100
AcDbEntity
  8
0
  6
ByLayer
 62
  256
370
   -1
100
AcDbPolyline
 90
   25
 70
    0
 43
0
 10
65.38955265681761
 20
63.61949581417105
 10
65.58820093506483
 20
63.87837929065427
 10
65.71307646319565
 20
64.17985548427612
 10
65.75566918033428
 20
64.50337929065427
 10
65.71307646319565
 20
64.82690309703241
 10
65.58820093506483
 20
65.12837929065415
 10
65.38955265681761
 20
65.38726276713737
 10
65.13066918033383
 20
65.58591104538471
 10
64.82919298671231
 20
65.71078657351552
 10
64.50566918033428
 20
65.75337929065415
 10
64.18214537395625
 20
65.71078657351552
 10
63.88066918033428
 20
65.58591104538471
 10
63.62178570385095
 20
65.38726276713737
 10
63.42313742560373
 20
65.12837929065415
 10
63.29826189747291
 20
64.82690309703241
 10
63.25566918033428
 20
64.50337929065427
 10
63.29826189747291
 20
64.17985548427612
 10
63.42313742560373
 20
63.87837929065427
 10
63.62178570385095
 20
63.61949581417105
 10
63.88066918033428
 20
63.42084753592371
 10
64.18214537395625
 20
63.2959720077929
 10
64.50566918033428
 20
63.25337929065415
 10
64.82919298671231
 20
63.2959720077929
 10
65.13066918033383
 20
63.42084753592371
 10
65.38955265681761
 20
63.61949581417105
  0
LWPOLYLINE
  5
76
100
AcDbEntity
  8
0
  6
ByLayer
 62
  256
370
   -1
100
AcDbPolyline
 90
   25
 70
    0
 43
0
 10
195.0956272233561
 20
390.6327687484979
 10
194.8969789451087
 20
390.8916522249813
 10
194.6380954686254
 20
391.0903005032285
 10
194.3366192750036
 20
391.2151760313593
 10
194.0130954686256
 20
391.2577687484982
 10
193.6895716622473
 20
391.2151760313593
 10
193.3880954686254
 20
391.0903005032285
 10
193.1292119921422
 20
390.8916522249813
 10
192.9305637138948
 20
390.6327687484979
 10
192.805688185764
 20
390.3312925548762
 10
192.7630954686254
 20
390.0077687484979
 10
192.805688185764
 20
389.6842449421199
 10
192.9305637138948
 20
389.3827687484979
 10
193.1292119921422
 20
389.1238852720146
 10
193.3880954686256
 20
388.9252369937674
 10
193.6895716622473
 20
388.8003614656366
 10
194.0130954686256
 20
388.7577687484979
 10
194.3366192750036
 20
388.8003614656366
 10
194.6380954686256
 20
388.9252369937674
 10
194.8969789451087
 20
389.1238852720146
 10
195.0956272233561
 20
389.3827687484982
 10
195.2205027514869
 20
389.6842449421199
 10
195.2630954686256
 20
390.0077687484979
 10
195.2205027514869
 20
390.3312925548762
 10
195.0956272233561
 20
390.6327687484979
  0
LWPOLYLINE
  5
77
100
AcDbEntity
  8
0
  6
ByLayer
 62
  256
370
   -1
100
AcDbPolyline
 90
   25
 70
    0
 43
0
 10
194.607926618894
 20
363.918989599023
 10
194.8668100953769
 20
364.1176378772705
 10
195.0654583736243
 20
364.3765213537536
 10
195.1903339017551
 20
364.6779975473753
 10
195.2329266188938
 20
365.0015213537536
 10
195.1903339017551
 20
365.3250451601318
 10
195.0654583736243
 20
365.6265213537536
 10
194.8668100953769
 20
365.8854048302367
 10
194.6079266188935
 20
366.0840531084841
 10
194.3064504252718
 20
366.2089286366149
 10
193.9829266188938
 20
366.2515213537536
 10
193.6594028125155
 20
366.2089286366149
 10
193.3579266188935
 20
366.0840531084841
 10
193.0990431424104
 20
365.8854048302367
 10
192.900394864163
 20
365.6265213537536
 10
192.7755193360322
 20
365.3250451601318
 10
192.7329266188935
 20
365.0015213537536
 10
192.7755193360322
 20
364.6779975473753
 10
192.900394864163
 20
364.3765213537536
 10
193.0990431424104
 20
364.1176378772705
 10
193.3579266188938
 20
363.918989599023
 10
193.6594028125155
 20
363.7941140708922
 10
193.9829266188938
 20
363.7515213537536
 10
194.3064504252718
 20
363.7941140708922
 10
194.607926618894
 20
363.918989599023
  0
LWPOLYLINE
  5
78
100
AcDbEntity
  8
0
  6
ByLayer
 62
  256
370
   -1
100
AcDbPolyline
 90
   25
 70
    0
 43
0
 10
114.5061957954695
 20
385.7350712971895
 10
114.8297196018473
 20
385.7776640143281
 10
115.1311957954692
 20
385.902539542459
 10
115.3900792719528
 20
386.1011878207064
 10
115.5887275502
 20
386.3600712971895
 10
115.7136030783304
 20
386.6615474908115
 10
115.7561957954692
 20
386.9850712971897
 10
115.7136030783304
 20
387.3085951035678
 10
115.5887275502
 20
387.6100712971895
 10
115.3900792719528
 20
387.8689547736728
 10
115.1311957954692
 20
388.0676030519203
 10
114.8297196018473
 20
388.1924785800511
 10
114.5061957954695
 20
388.2350712971897
 10
114.182671989091
 20
388.1924785800511
 10
113.8811957954695
 20
388.0676030519203
 10
113.6223123189861
 20
387.8689547736728
 10
113.4236640407389
 20
387.6100712971897
 10
113.2987885126076
 20
387.3085951035678
 10
113.256195795469
 20
386.9850712971897
 10
113.2987885126076
 20
386.6615474908115
 10
113.4236640407389
 20
386.3600712971897
 10
113.6223123189861
 20
386.1011878207064
 10
113.8811957954695
 20
385.902539542459
 10
114.182671989091
 20
385.7776640143281
 10
114.5061957954695
 20
385.7350712971895
  0
LWPOLYLINE
  5
79
100
AcDbEntity
  8
0
  6
ByLayer
 62
  256
370
   -1
100
AcDbPolyline
 90
   25
 70
    0
 43
0
 10
99.71585208472607
 20
386.9851018863762
 10
99.67325936758743
 20
387.3086256927543
 10
99.54838383945707
 20
387.610101886376
 10
99.34973556120985
 20
387.8689853628596
 10
99.09085208472652
 20
388.0676336411068
 10
98.7893758911041
 20
388.1925091692376
 10
98.46585208472652
 20
388.2351018863762
 10
98.14232827834803
 20
388.1925091692376
 10
97.84085208472652
 20
388.0676336411068
 10
97.58196860824319
 20
387.8689853628596
 10
97.38332032999597
 20
387.6101018863762
 10
97.2584448018647
 20
387.3086256927543
 10
97.21585208472607
 20
386.9851018863762
 10
97.2584448018647
 20
386.661578079998
 10
97.38332032999597
 20
386.3601018863762
 10
97.58196860824319
 20
386.1012184098929
 10
97.84085208472652
 20
385.9025701316457
 10
98.14232827834803
 20
385.7776946035149
 10
98.46585208472652
 20
385.7351018863762
 10
98.7893758911041
 20
385.7776946035149
 10
99.09085208472652
 20
385.9025701316457
 10
99.34973556120985
 20
386.1012184098929
 10
99.54838383945707
 20
386.3601018863762
 10
99.67325936758743
 20
386.661578079998
 10
99.71585208472607
 20
386.9851018863762
  0
LWPOLYLINE
  5
7A
100
AcDbEntity
  8
0
  6
ByLayer
 62
  256
370
   -1
100
AcDbPolyline
 90
   25
 70
    0
 43
0
 10
83.9636866571509
 20
375.0728991426129
 10
83.70480318066757
 20
374.8742508643654
 10
83.50615490241989
 20
374.6153673878821
 10
83.38127937428953
 20
374.3138911942603
 10
83.3386866571509
 20
373.9903673878823
 10
83.38127937428953
 20
373.6668435815041
 10
83.50615490241989
 20
373.3653673878821
 10
83.70480318066757
 20
373.106483911399
 10
83.9636866571509
 20
372.9078356331518
 10
84.26516285077287
 20
372.7829601050207
 10
84.58868665715045
 20
372.7403673878821
 10
84.91221046352894
 20
372.7829601050207
 10
85.21368665715045
 20
372.9078356331518
 10
85.47257013363378
 20
373.106483911399
 10
85.671218411881
 20
373.3653673878821
 10
85.79609394001227
 20
373.6668435815041
 10
85.8386866571509
 20
373.9903673878823
 10
85.79609394001227
 20
374.3138911942603
 10
85.671218411881
 20
374.6153673878821
 10
85.47257013363378
 20
374.8742508643654
 10
85.21368665715045
 20
375.0728991426129
 10
84.91221046352894
 20
375.1977746707435
 10
84.58868665715045
 20
375.2403673878821
 10
84.26516285077287
 20
375.1977746707435
 10
83.9636866571509
 20
375.0728991426129
  0
LWPOLYLINE
  5
7B
100
AcDbEntity
  8
0
  6
ByLayer
 62
  256
370
   -1
100
AcDbPolyline
 90
   25
 70
    0
 43
0
 10
83.96368665714408
 20
357.0728991426727
 10
83.70480318066075
 20
356.8742508644254
 10
83.50615490241353
 20
356.6153673879421
 10
83.38127937428317
 20
356.3138911943204
 10
83.33868665714454
 20
355.9903673879423
 10
83.38127937428317
 20
355.6668435815641
 10
83.50615490241353
 20
355.3653673879423
 10
83.70480318066075
 20
355.106483911459
 10
83.96368665714408
 20
354.9078356332118
 10
84.2651628507665
 20
354.782960105081
 10
84.58868665714408
 20
354.7403673879421
 10
84.91221046352257
 20
354.782960105081
 10
85.21368665714408
 20
354.9078356332118
 10
85.47257013362741
 20
355.106483911459
 10
85.67121841187463
 20
355.3653673879423
 10
85.7960939400059
 20
355.6668435815641
 10
85.83868665714454
 20
355.9903673879423
 10
85.7960939400059
 20
356.3138911943204
 10
85.67121841187463
 20
356.6153673879421
 10
85.47257013362741
 20
356.8742508644254
 10
85.21368665714408
 20
357.0728991426727
 10
84.91221046352257
 20
357.1977746708035
 10
84.58868665714408
 20
357.2403673879421
 10
84.2651628507665
 20
357.1977746708035
 10
83.96368665714408
 20
357.0728991426727
  0
LWPOLYLINE
  5
7C
100
AcDbEntity
  8
0
  6
ByLayer
 62
  256
370
   -1
100
AcDbPolyline
 90
   25
 70
    0
 43
0
 10
72.83164174020112
 20
218.9357315799996
 10
72.6329934619539
 20
219.1946150564829
 10
72.37410998547102
 20
219.3932633347304
 10
72.0726337918486
 20
219.518138862861
 10
71.74910998547057
 20
219.5607315799998
 10
71.42558617909253
 20
219.518138862861
 10
71.12410998547057
 20
219.3932633347304
 10
70.86522650898723
 20
219.1946150564829
 10
70.66657823074001
 20
218.9357315799996
 10
70.54170270260965
 20
218.6342553863778
 10
70.49910998547102
 20
218.3107315799998
 10
70.54170270260965
 20
217.9872077736218
 10
70.66657823074001
 20
217.6857315799998
 10
70.86522650898723
 20
217.4268481035165
 10
71.12410998547057
 20
217.2281998252693
 10
71.42558617909253
 20
217.1033242971384
 10
71.74910998547057
 20
217.0607315799998
 10
72.0726337918486
 20
217.1033242971384
 10
72.37410998547057
 20
217.2281998252693
 10
72.6329934619539
 20
217.4268481035165
 10
72.83164174020112
 20
217.6857315799998
 10
72.95651726833194
 20
217.9872077736218
 10
72.99910998547057
 20
218.3107315799998
 10
72.95651726833194
 20
218.6342553863778
 10
72.83164174020112
 20
218.9357315799996
  0
LWPOLYLINE
  5
7D
100
AcDbEntity
  8
0
  6
ByLayer
 62
  256
370
   -1
100
AcDbPolyline
 90
   25
 70
    0
 43
0
 10
72.99910998547057
 20
180.202620157728
 10
72.95651726833194
 20
180.5261439641063
 10
72.83164174020112
 20
180.827620157728
 10
72.6329934619539
 20
181.0865036342111
 10
72.37410998547102
 20
181.2851519124583
 10
72.0726337918486
 20
181.4100274405891
 10
71.74910998547057
 20
181.4526201577278
 10
71.42558617909253
 20
181.4100274405891
 10
71.12410998547057
 20
181.2851519124583
 10
70.86522650898723
 20
181.0865036342111
 10
70.66657823074001
 20
180.827620157728
 10
70.54170270260965
 20
180.5261439641063
 10
70.49910998547102
 20
180.202620157728
 10
70.54170270260965
 20
179.8790963513497
 10
70.66657823074001
 20
179.577620157728
 10
70.86522650898723
 20
179.3187366812449
 10
71.12410998547057
 20
179.1200884029977
 10
71.42558617909253
 20
178.9952128748669
 10
71.74910998547057
 20
178.952620157728
 10
72.0726337918486
 20
178.9952128748669
 10
72.37410998547057
 20
179.1200884029977
 10
72.6329934619539
 20
179.3187366812449
 10
72.83164174020112
 20
179.577620157728
 10
72.95651726833194
 20
179.8790963513497
 10
72.99910998547057
 20
180.202620157728
  0
LWPOLYLINE
  5
7E
100
AcDbEntity
  8
0
  6
ByLayer
 62
  256
370
   -1
100
AcDbPolyline
 90
   25
 70
    0
 43
0
 10
25.04708608979354
 20
180.6122815899685
 10
24.92221056166272
 20
180.9137577835902
 10
24.7235622834155
 20
181.1726412600733
 10
24.46467880693217
 20
181.3712895383208
 10
24.1632026133102
 20
181.4961650664516
 10
23.83967880693217
 20
181.5387577835904
 10
23.51615500055414
 20
181.4961650664516
 10
23.21467880693217
 20
181.3712895383208
 10
22.95579533044884
 20
181.1726412600733
 10
22.75714705220162
 20
180.9137577835902
 10
22.63227152407126
 20
180.6122815899685
 10
22.58967880693262
 20
180.2887577835902
 10
22.63227152407126
 20
179.9652339772122
 10
22.75714705220162
 20
179.6637577835902
 10
22.95579533044884
 20
179.4048743071069
 10
23.21467880693217
 20
179.2062260288596
 10
23.51615500055414
 20
179.0813505007288
 10
23.83967880693217
 20
179.0387577835902
 10
24.1632026133102
 20
179.0813505007288
 10
24.46467880693217
 20
179.2062260288596
 10
24.7235622834155
 20
179.4048743071069
 10
24.92221056166272
 20
179.6637577835902
 10
25.04708608979354
 20
179.9652339772122
 10
25.08967880693217
 20
180.2887577835902
 10
25.04708608979354
 20
180.6122815899685
  0
LWPOLYLINE
  5
7F
100
AcDbEntity
  8
0
  6
ByLayer
 62
  256
370
   -1
100
AcDbPolyline
 90
   25
 70
    0
 43
0
 10
22.75713290140766
 20
202.9294973222595
 10
22.95578117965488
 20
202.6706138457764
 10
23.21466465613821
 20
202.471965567529
 10
23.51614084976018
 20
202.3470900393982
 10
23.83966465613821
 20
202.3044973222595
 10
24.16318846251625
 20
202.3470900393982
 10
24.46466465613821
 20
202.471965567529
 10
24.72354813262109
 20
202.6706138457764
 10
24.92219641086876
 20
202.9294973222595
 10
25.04707193899958
 20
203.2309735158813
 10
25.08966465613821
 20
203.5544973222595
 10
25.04707193899958
 20
203.8780211286376
 10
24.92219641086876
 20
204.1794973222595
 10
24.72354813262109
 20
204.4383807987426
 10
24.46466465613821
 20
204.6370290769898
 10
24.16318846251625
 20
204.7619046051207
 10
23.83966465613821
 20
204.8044973222595
 10
23.51614084976018
 20
204.7619046051207
 10
23.21466465613821
 20
204.6370290769898
 10
22.95578117965488
 20
204.4383807987426
 10
22.75713290140766
 20
204.1794973222595
 10
22.63225737327684
 20
203.8780211286376
 10
22.58966465613821
 20
203.5544973222595
 10
22.63225737327684
 20
203.2309735158813
 10
22.75713290140766
 20
202.9294973222595
  0
LWPOLYLINE
  5
80
100
AcDbEntity
  8
0
  6
ByLayer
 62
  256
370
   -1
100
AcDbPolyline
 90
   25
 70
    0
 43
0
 10
42.37410998547102
 20
70.70025147163108
 10
42.6329934619539
 20
70.89889974987841
 10
42.83164174020112
 20
71.1577832263614
 10
42.95651726833194
 20
71.45925941998337
 10
42.99910998547057
 20
71.78278322636163
 10
42.95651726833194
 20
72.10630703273978
 10
42.83164174020112
 20
72.40778322636152
 10
42.6329934619539
 20
72.66666670284474
 10
42.37410998547102
 20
72.86531498109207
 10
42.0726337918486
 20
72.99019050922288
 10
41.74910998547057
 20
73.03278322636163
 10
41.42558617909253
 20
72.99019050922288
 10
41.12410998547057
 20
72.86531498109207
 10
40.86522650898769
 20
72.66666670284474
 10
40.66657823074001
 20
72.40778322636152
 10
40.5417027026092
 20
72.10630703273978
 10
40.49910998547057
 20
71.78278322636163
 10
40.5417027026092
 20
71.45925941998337
 10
40.66657823074001
 20
71.1577832263614
 10
40.86522650898769
 20
70.89889974987841
 10
41.12410998547057
 20
70.70025147163108
 10
41.42558617909253
 20
70.57537594350026
 10
41.74910998547057
 20
70.53278322636163
 10
42.0726337918486
 20
70.57537594350026
 10
42.37410998547102
 20
70.70025147163108
  0
LWPOLYLINE
  5
81
100
AcDbEntity
  8
0
  6
ByLayer
 62
  256
370
   -1
100
AcDbPolyline
 90
   25
 70
    0
 43
0
 10
23.51618817908229
 20
72.99019050922277
 10
23.21471198546078
 20
72.86531498109184
 10
22.95582850897699
 20
72.66666670284462
 10
22.75718023072977
 20
72.4077832263614
 10
22.63230470259896
 20
72.10630703273944
 10
22.58971198546033
 20
71.78278322636129
 10
22.63230470259896
 20
71.45925941998314
 10
22.75718023072977
 20
71.1577832263614
 10
22.95582850897699
 20
70.89889974987818
 10
23.21471198546033
 20
70.70025147163096
 10
23.51618817908229
 20
70.57537594350003
 10
23.83971198546033
 20
70.5327832263614
 10
24.16323579183882
 20
70.57537594350003
 10
24.46471198546033
 20
70.70025147163096
 10
24.72359546194366
 20
70.89889974987818
 10
24.92224374019088
 20
71.1577832263614
 10
25.04711926832169
 20
71.45925941998314
 10
25.08971198546033
 20
71.78278322636129
 10
25.04711926832169
 20
72.10630703273944
 10
24.92224374019088
 20
72.4077832263614
 10
24.72359546194366
 20
72.66666670284462
 10
24.46471198546033
 20
72.86531498109184
 10
24.16323579183882
 20
72.99019050922277
 10
23.83971198546033
 20
73.0327832263614
 10
23.51618817908229
 20
72.99019050922277
  0
LWPOLYLINE
  5
82
100
AcDbEntity
  8
0
  6
ByLayer
 62
  256
370
   -1
100
AcDbPolyline
 90
   25
 70
    0
 43
0
 10
25.08967880693217
 20
34.71814783815978
 10
25.04708608979354
 20
35.04167164453793
 10
24.92221056166272
 20
35.34314783815978
 10
24.7235622834155
 20
35.602031314643
 10
24.46467880693217
 20
35.80067959289033
 10
24.1632026133102
 20
35.92555512102115
 10
23.83967880693217
 20
35.96814783815978
 10
23.51615500055414
 20
35.92555512102115
 10
23.21467880693217
 20
35.80067959289033
 10
22.95579533044884
 20
35.602031314643
 10
22.75714705220162
 20
35.34314783815978
 10
22.63227152407126
 20
35.04167164453793
 10
22.58967880693262
 20
34.71814783815978
 10
22.63227152407126
 20
34.39462403178163
 10
22.75714705220162
 20
34.09314783815967
 10
22.95579533044884
 20
33.83426436167667
 10
23.21467880693217
 20
33.63561608342923
 10
23.51615500055414
 20
33.51074055529853
 10
23.83967880693217
 20
33.46814783815989
 10
24.1632026133102
 20
33.51074055529853
 10
24.46467880693217
 20
33.63561608342923
 10
24.7235622834155
 20
33.83426436167667
 10
24.92221056166272
 20
34.09314783815967
 10
25.04708608979354
 20
34.39462403178163
 10
25.08967880693217
 20
34.71814783815978
  0
LWPOLYLINE
  5
83
100
AcDbEntity
  8
0
  6
ByLayer
 62
  256
370
   -1
100
AcDbPolyline
 90
   25
 70
    0
 43
0
 10
42.99910998547057
 20
34.78551871973764
 10
42.95651726833194
 20
35.10904252611579
 10
42.83164174020112
 20
35.41051871973775
 10
42.6329934619539
 20
35.66940219622074
 10
42.37410998547102
 20
35.86805047446808
 10
42.0726337918486
 20
35.99292600259889
 10
41.74910998547057
 20
36.03551871973752
 10
41.42558617909253
 20
35.99292600259889
 10
41.12410998547057
 20
35.86805047446808
 10
40.86522650898769
 20
35.66940219622074
 10
40.66657823074001
 20
35.41051871973775
 10
40.5417027026092
 20
35.10904252611579
 10
40.49910998547057
 20
34.78551871973764
 10
40.5417027026092
 20
34.4619949133596
 10
40.66657823074001
 20
34.16051871973764
 10
40.86522650898769
 20
33.90163524325442
 10
41.12410998547057
 20
33.70298696500709
 10
41.42558617909253
 20
33.57811143687627
 10
41.74910998547057
 20
33.53551871973764
 10
42.0726337918486
 20
33.57811143687627
 10
42.37410998547102
 20
33.70298696500709
 10
42.6329934619539
 20
33.90163524325442
 10
42.83164174020112
 20
34.16051871973764
 10
42.95651726833194
 20
34.4619949133596
 10
42.99910998547057
 20
34.78551871973764
  0
LWPOLYLINE
  5
84
100
AcDbEntity
  8
0
  6
ByLayer
 62
  256
370
   -1
100
AcDbPolyline
 90
   25
 70
    0
 43
0
 10
360.3936220090816
 20
160.3228271514288
 10
360.6348029639792
 20
160.4227275739333
 10
360.841909745166
 20
160.5816461965312
 10
361.0008283677637
 20
160.7887529777176
 10
361.1007287902682
 20
161.0299339326152
 10
361.1348029639789
 20
161.2887529777176
 10
361.1007287902682
 20
161.5475720228201
 10
361.0008283677637
 20
161.7887529777174
 10
360.841909745166
 20
161.9958597589041
 10
360.6348029639792
 20
162.154778381502
 10
360.3936220090816
 20
162.2546788040065
 10
360.1348029639792
 20
162.2887529777176
 10
359.875983918877
 20
162.2546788040065
 10
359.6348029639794
 20
162.154778381502
 10
359.4276961827925
 20
161.9958597589041
 10
359.2687775601948
 20
161.7887529777174
 10
359.1688771376901
 20
161.5475720228201
 10
359.1348029639794
 20
161.2887529777176
 10
359.1688771376901
 20
161.0299339326152
 10
359.2687775601948
 20
160.7887529777176
 10
359.4276961827925
 20
160.5816461965312
 10
359.6348029639794
 20
160.4227275739333
 10
359.875983918877
 20
160.3228271514288
 10
360.1348029639792
 20
160.2887529777176
 10
360.3936220090816
 20
160.3228271514288
  0
LWPOLYLINE
  5
85
100
AcDbEntity
  8
0
  6
ByLayer
 62
  256
370
   -1
100
AcDbPolyline
 90
   25
 70
    0
 43
0
 10
312.3749796879902
 20
152.0340720396694
 10
312.6337987330928
 20
151.9999978659584
 10
312.8926177781952
 20
152.0340720396694
 10
313.1337987330928
 20
152.1339724621741
 10
313.3409055142793
 20
152.292891084772
 10
313.4998241368769
 20
152.4999978659584
 10
313.5997245593817
 20
152.741178820856
 10
313.6337987330926
 20
152.9999978659587
 10
313.5997245593817
 20
153.2588169110609
 10
313.4998241368769
 20
153.4999978659584
 10
313.3409055142793
 20
153.7071046471449
 10
313.1337987330928
 20
153.866023269743
 10
312.8926177781952
 20
153.9659236922475
 10
312.6337987330928
 20
153.9999978659584
 10
312.3749796879902
 20
153.9659236922475
 10
312.133798733093
 20
153.866023269743
 10
311.9266919519062
 20
153.7071046471449
 10
311.7677733293081
 20
153.4999978659584
 10
311.6678729068037
 20
153.2588169110609
 10
311.6337987330928
 20
152.9999978659587
 10
311.6678729068037
 20
152.741178820856
 10
311.7677733293081
 20
152.4999978659584
 10
311.9266919519062
 20
152.292891084772
 10
312.1337987330926
 20
152.1339724621741
 10
312.3749796879902
 20
152.0340720396694
  0
LWPOLYLINE
  5
86
100
AcDbEntity
  8
0
  6
ByLayer
 62
  256
370
   -1
100
AcDbPolyline
 90
   25
 70
    0
 43
0
 10
86.86620194532634
 20
152.1339724621741
 10
87.10738290022391
 20
152.0340720396696
 10
87.36620194532679
 20
151.9999978659587
 10
87.62502099042922
 20
152.0340720396696
 10
87.86620194532634
 20
152.1339724621741
 10
88.07330872651301
 20
152.2928910847722
 10
88.23222734911087
 20
152.4999978659587
 10
88.33212777161589
 20
152.7411788208562
 10
88.36620194532634
 20
152.9999978659587
 10
88.33212777161589
 20
153.2588169110613
 10
88.23222734911087
 20
153.4999978659587
 10
88.07330872651301
 20
153.7071046471451
 10
87.86620194532634
 20
153.8660232697432
 10
87.62502099042922
 20
153.9659236922478
 10
87.36620194532679
 20
153.9999978659587
 10
87.10738290022391
 20
153.9659236922478
 10
86.86620194532634
 20
153.8660232697432
 10
86.65909516413967
 20
153.7071046471451
 10
86.5001765415418
 20
153.4999978659587
 10
86.4002761190377
 20
153.2588169110613
 10
86.36620194532634
 20
152.9999978659587
 10
86.4002761190377
 20
152.7411788208562
 10
86.5001765415418
 20
152.4999978659587
 10
86.65909516413967
 20
152.2928910847722
 10
86.86620194532634
 20
152.1339724621741
  0
LWPOLYLINE
  5
87
100
AcDbEntity
  8
0
  6
ByLayer
 62
  256
370
   -1
100
AcDbPolyline
 90
   25
 70
    0
 43
0
 10
40.8311235407291
 20
161.0299339326152
 10
40.86519771444
 20
161.2887529777179
 10
40.8311235407291
 20
161.5475720228203
 10
40.73122311822408
 20
161.7887529777179
 10
40.57230449562621
 20
161.9958597589043
 10
40.36519771444
 20
162.1547783815024
 10
40.12401675954243
 20
162.254678804007
 10
39.86519771444
 20
162.2887529777179
 10
39.60637866933712
 20
162.254678804007
 10
39.36519771444
 20
162.1547783815024
 10
39.15809093325333
 20
161.9958597589043
 10
38.99917231065547
 20
161.7887529777179
 10
38.89927188815091
 20
161.5475720228203
 10
38.86519771444
 20
161.2887529777179
 10
38.89927188815091
 20
161.0299339326152
 10
38.99917231065547
 20
160.7887529777176
 10
39.15809093325333
 20
160.5816461965312
 10
39.36519771443955
 20
160.4227275739333
 10
39.60637866933712
 20
160.3228271514288
 10
39.86519771444
 20
160.2887529777179
 10
40.12401675954243
 20
160.3228271514288
 10
40.36519771444
 20
160.4227275739333
 10
40.57230449562621
 20
160.5816461965312
 10
40.73122311822408
 20
160.7887529777176
 10
40.8311235407291
 20
161.0299339326152
  0
LWPOLYLINE
  5
88
100
AcDbEntity
  8
0
  6
ByLayer
 62
  256
370
   -1
100
AcDbPolyline
 90
   25
 70
    0
 43
0
 10
61.49644449252264
 20
111.3251386192343
 10
61.33752586992523
 20
111.1180318380476
 10
61.23762544742067
 20
110.8768508831503
 10
61.20355127370931
 20
110.6180318380477
 10
61.23762544742067
 20
110.3592127929452
 10
61.33752586992523
 20
110.1180318380476
 10
61.49644449252264
 20
109.9109250568611
 10
61.70355127370976
 20
109.7520064342632
 10
61.94473222860734
 20
109.6521060117586
 10
62.20355127370976
 20
109.6180318380476
 10
62.46237031881219
 20
109.6521060117586
 10
62.70355127370931
 20
109.7520064342632
 10
62.91065805489643
 20
109.9109250568611
 10
63.06957667749384
 20
110.1180318380476
 10
63.16947709999886
 20
110.3592127929452
 10
63.20355127370976
 20
110.6180318380477
 10
63.16947709999886
 20
110.8768508831503
 10
63.06957667749384
 20
111.1180318380476
 10
62.91065805489643
 20
111.3251386192343
 10
62.70355127370931
 20
111.4840572418321
 10
62.46237031881219
 20
111.5839576643367
 10
62.20355127370976
 20
111.6180318380476
 10
61.94473222860734
 20
111.5839576643367
 10
61.70355127370976
 20
111.4840572418321
 10
61.49644449252264
 20
111.3251386192343
  0
LWPOLYLINE
  5
89
100
AcDbEntity
  8
0
  6
ByLayer
 62
  256
370
   -1
100
AcDbPolyline
 90
   25
 70
    0
 43
0
 10
51.10348292807885
 20
109.7520064342632
 10
51.34466388297642
 20
109.6521060117586
 10
51.60348292807885
 20
109.6180318380476
 10
51.86230197318127
 20
109.6521060117586
 10
52.10348292807885
 20
109.7520064342632
 10
52.31058970926551
 20
109.9109250568611
 10
52.46950833186338
 20
110.1180318380476
 10
52.56940875436794
 20
110.3592127929452
 10
52.60348292807885
 20
110.6180318380477
 10
52.56940875436794
 20
110.8768508831503
 10
52.46950833186338
 20
111.1180318380476
 10
52.31058970926551
 20
111.3251386192343
 10
52.10348292807885
 20
111.4840572418321
 10
51.86230197318127
 20
111.5839576643367
 10
51.60348292807885
 20
111.6180318380476
 10
51.34466388297642
 20
111.5839576643367
 10
51.10348292807885
 20
111.4840572418321
 10
50.89637614689218
 20
111.3251386192343
 10
50.73745752429431
 20
111.1180318380476
 10
50.63755710178975
 20
110.8768508831503
 10
50.60348292807885
 20
110.6180318380477
 10
50.63755710178975
 20
110.3592127929452
 10
50.73745752429431
 20
110.1180318380476
 10
50.89637614689218
 20
109.9109250568611
 10
51.10348292807885
 20
109.7520064342632
  0
LWPOLYLINE
  5
8A
100
AcDbEntity
  8
0
  6
ByLayer
 62
  256
370
   -1
100
AcDbPolyline
 90
   25
 70
    0
 43
0
 10
86.92331904118009
 20
14.12500693252446
 10
86.79844351304928
 20
13.82353073890249
 10
86.75585079591065
 20
13.50000693252434
 10
86.79844351304928
 20
13.17648312614631
 10
86.92331904118009
 20
12.87500693252434
 10
87.12196731942731
 20
12.61612345604112
 10
87.38085079591065
 20
12.41747517779379
 10
87.68232698953261
 20
12.29259964966298
 10
88.00585079591065
 20
12.25000693252434
 10
88.32937460228868
 20
12.29259964966298
 10
88.63085079591065
 20
12.41747517779379
 10
88.88973427239398
 20
12.61612345604112
 10
89.0883825506412
 20
12.87500693252434
 10
89.21325807877201
 20
13.17648312614631
 10
89.25585079591065
 20
13.50000693252434
 10
89.21325807877201
 20
13.82353073890249
 10
89.0883825506412
 20
14.12500693252446
 10
88.88973427239398
 20
14.38389040900745
 10
88.6308507959111
 20
14.5825386872549
 10
88.32937460228868
 20
14.7074142153856
 10
88.00585079591065
 20
14.75000693252423
 10
87.68232698953261
 20
14.7074142153856
 10
87.38085079591065
 20
14.5825386872549
 10
87.12196731942731
 20
14.38389040900745
 10
86.92331904118009
 20
14.12500693252446
  0
LWPOLYLINE
  5
8B
100
AcDbEntity
  8
0
  6
ByLayer
 62
  256
370
   -1
100
AcDbPolyline
 90
   25
 70
    0
 43
0
 10
199.1161165497804
 20
12.61626697762267
 10
199.3750000262635
 20
12.41761869937523
 10
199.6764762198854
 20
12.29274317124452
 10
200.0000000262637
 20
12.25015045410589
 10
200.3235238326417
 20
12.29274317124452
 10
200.6250000262635
 20
12.41761869937523
 10
200.8838835027466
 20
12.61626697762267
 10
201.0825317809943
 20
12.87515045410578
 10
201.2074073091251
 20
13.17662664772763
 10
201.2500000262637
 20
13.50015045410578
 10
201.2074073091251
 20
13.82367426048393
 10
201.0825317809943
 20
14.12515045410578
 10
200.8838835027466
 20
14.38403393058888
 10
200.6250000262635
 20
14.58268220883633
 10
200.3235238326417
 20
14.70755773696715
 10
200.0000000262637
 20
14.75015045410589
 10
199.6764762198854
 20
14.70755773696715
 10
199.3750000262635
 20
14.58268220883633
 10
199.1161165497804
 20
14.38403393058888
 10
198.9174682715332
 20
14.12515045410578
 10
198.7925927434023
 20
13.82367426048393
 10
198.7500000262637
 20
13.50015045410578
 10
198.7925927434023
 20
13.17662664772763
 10
198.9174682715332
 20
12.87515045410578
 10
199.1161165497804
 20
12.61626697762267
  0
LWPOLYLINE
  5
8C
100
AcDbEntity
  8
0
  6
ByLayer
 62
  256
370
   -1
100
AcDbPolyline
 90
   25
 70
    0
 43
0
 10
194.2637443570723
 20
33.22042065753908
 10
194.0048608805891
 20
33.02177237929186
 10
193.8062126023419
 20
32.76288890280864
 10
193.6813370742111
 20
32.4614127091869
 10
193.6387443570725
 20
32.13788890280853
 10
193.6813370742111
 20
31.81436509643038
 10
193.8062126023419
 20
31.51288890280864
 10
194.0048608805891
 20
31.25400542632542
 10
194.2637443570723
 20
31.0553571480782
 10
194.565220550694
 20
30.93048161994727
 10
194.8887443570725
 20
30.88788890280864
 10
195.2122681634503
 20
30.93048161994727
 10
195.5137443570723
 20
31.0553571480782
 10
195.7726278335554
 20
31.25400542632542
 10
195.971276111803
 20
31.51288890280864
 10
196.0961516399336
 20
31.81436509643038
 10
196.1387443570723
 20
32.13788890280853
 10
196.0961516399336
 20
32.4614127091869
 10
195.971276111803
 20
32.76288890280864
 10
195.7726278335554
 20
33.02177237929186
 10
195.5137443570723
 20
33.22042065753908
 10
195.2122681634503
 20
33.34529618567001
 10
194.8887443570725
 20
33.38788890280864
 10
194.565220550694
 20
33.34529618567001
 10
194.2637443570723
 20
33.22042065753908
  0
LWPOLYLINE
  5
8D
100
AcDbEntity
  8
0
  6
ByLayer
 62
  256
370
   -1
100
AcDbPolyline
 90
   25
 70
    0
 43
0
 10
219.1034959598746
 20
33.34529618567001
 10
218.7799721534964
 20
33.38788890280864
 10
218.4564483471183
 20
33.34529618567001
 10
218.1549721534966
 20
33.22042065753908
 10
217.896088677013
 20
33.02177237929186
 10
217.6974403987658
 20
32.76288890280864
 10
217.572564870635
 20
32.4614127091869
 10
217.5299721534964
 20
32.13788890280853
 10
217.572564870635
 20
31.81436509643038
 10
217.6974403987658
 20
31.51288890280864
 10
217.896088677013
 20
31.25400542632542
 10
218.1549721534961
 20
31.0553571480782
 10
218.4564483471183
 20
30.93048161994727
 10
218.7799721534964
 20
30.88788890280864
 10
219.1034959598746
 20
30.93048161994727
 10
219.4049721534964
 20
31.0553571480782
 10
219.6638556299797
 20
31.25400542632542
 10
219.8625039082269
 20
31.51288890280864
 10
219.9873794363577
 20
31.81436509643038
 10
220.0299721534966
 20
32.13788890280853
 10
219.9873794363577
 20
32.4614127091869
 10
219.8625039082269
 20
32.76288890280864
 10
219.6638556299797
 20
33.02177237929186
 10
219.4049721534966
 20
33.22042065753908
 10
219.1034959598746
 20
33.34529618567001
  0
LWPOLYLINE
  5
8E
100
AcDbEntity
  8
0
  6
ByLayer
 62
  256
370
   -1
100
AcDbPolyline
 90
   25
 70
    0
 43
0
 10
195.2918688115894
 20
101.3883528686605
 10
194.9683450052114
 20
101.4309455857991
 10
194.6448211988334
 20
101.3883528686605
 10
194.3433450052116
 20
101.2634773405296
 10
194.0844615287281
 20
101.0648290622823
 10
193.8858132504809
 20
100.8059455857992
 10
193.76093772235
 20
100.5044693921773
 10
193.7183450052114
 20
100.1809455857992
 10
193.76093772235
 20
99.85742177942109
 10
193.8858132504809
 20
99.55594558579912
 10
194.0844615287281
 20
99.2970621093159
 10
194.3433450052112
 20
99.09841383106868
 10
194.6448211988334
 20
98.97353830293775
 10
194.9683450052114
 20
98.93094558579912
 10
195.2918688115894
 20
98.97353830293775
 10
195.5933450052112
 20
99.09841383106868
 10
195.8522284816947
 20
99.2970621093159
 10
196.050876759942
 20
99.55594558579912
 10
196.1757522880728
 20
99.85742177942086
 10
196.2183450052114
 20
100.1809455857992
 10
196.1757522880728
 20
100.5044693921773
 10
196.050876759942
 20
100.8059455857992
 10
195.8522284816947
 20
101.0648290622823
 10
195.5933450052116
 20
101.2634773405296
 10
195.2918688115894
 20
101.3883528686605
  0
LWPOLYLINE
  5
8F
100
AcDbEntity
  8
0
  6
ByLayer
 62
  256
370
   -1
100
AcDbPolyline
 90
   25
 70
    0
 43
0
 10
219.7458736868853
 20
101.0648290622823
 10
219.4869902104022
 20
101.2634773405296
 10
219.18551401678
 20
101.3883528686605
 10
218.8619902104019
 20
101.4309455857991
 10
218.5384664040237
 20
101.3883528686605
 10
218.2369902104019
 20
101.2634773405296
 10
217.9781067339186
 20
101.0648290622823
 10
217.7794584556714
 20
100.8059455857992
 10
217.6545829275406
 20
100.5044693921773
 10
217.6119902104017
 20
100.1809455857992
 10
217.6545829275406
 20
99.85742177942109
 10
217.7794584556714
 20
99.55594558579912
 10
217.9781067339186
 20
99.2970621093159
 10
218.2369902104017
 20
99.09841383106868
 10
218.5384664040237
 20
98.97353830293775
 10
218.8619902104019
 20
98.93094558579912
 10
219.18551401678
 20
98.97353830293775
 10
219.4869902104017
 20
99.09841383106868
 10
219.7458736868853
 20
99.2970621093159
 10
219.9445219651325
 20
99.55594558579912
 10
220.0693974932633
 20
99.85742177942086
 10
220.1119902104019
 20
100.1809455857992
 10
220.0693974932633
 20
100.5044693921773
 10
219.9445219651325
 20
100.8059455857992
 10
219.7458736868853
 20
101.0648290622823
  0
LWPOLYLINE
  5
90
100
AcDbEntity
  8
0
  6
ByLayer
 62
  256
370
   -1
100
AcDbPolyline
 90
   25
 70
    0
 43
0
 10
311.1102660501972
 20
14.44565250892776
 10
310.91161777195
 20
14.18676903244443
 10
310.7867422438192
 20
13.88529283882258
 10
310.7441495266805
 20
13.56176903244443
 10
310.7867422438192
 20
13.23824522606628
 10
310.91161777195
 20
12.93676903244443
 10
311.1102660501972
 20
12.67788555596132
 10
311.3691495266803
 20
12.47923727771388
 10
311.6706257203023
 20
12.35436174958306
 10
311.9941495266805
 20
12.31176903244432
 10
312.3176733330586
 20
12.35436174958306
 10
312.6191495266803
 20
12.47923727771388
 10
312.8780330031639
 20
12.67788555596132
 10
313.0766812814111
 20
12.93676903244443
 10
313.2015568095414
 20
13.23824522606628
 10
313.2441495266803
 20
13.56176903244443
 10
313.2015568095414
 20
13.88529283882258
 10
313.0766812814111
 20
14.18676903244443
 10
312.8780330031639
 20
14.44565250892776
 10
312.6191495266803
 20
14.64430078717498
 10
312.3176733330586
 20
14.7691763153058
 10
311.9941495266805
 20
14.81176903244454
 10
311.6706257203023
 20
14.7691763153058
 10
311.3691495266808
 20
14.64430078717498
 10
311.1102660501972
 20
14.44565250892776
  0
LWPOLYLINE
  5
91
100
AcDbEntity
  8
0
  6
ByLayer
 62
  256
370
   -1
100
AcDbPolyline
 90
   25
 70
    0
 43
0
 10
238.1338683566387
 20
336.5001885305755
 10
238.2927869792368
 20
336.2930817493891
 10
238.4998937604232
 20
336.1341631267912
 10
238.7410747153208
 20
336.0342627042864
 10
238.9998937604232
 20
336.0001885305755
 10
239.2587128055259
 20
336.0342627042864
 10
239.4998937604234
 20
336.1341631267912
 10
239.7070005416099
 20
336.2930817493891
 10
239.8659191642075
 20
336.5001885305755
 10
239.9658195867123
 20
336.7413694854731
 10
239.9998937604232
 20
337.0001885305755
 10
239.9658195867123
 20
337.2590075756782
 10
239.8659191642075
 20
337.5001885305755
 10
239.7070005416099
 20
337.7072953117622
 10
239.4998937604234
 20
337.8662139343601
 10
239.2587128055259
 20
337.9661143568646
 10
238.9998937604232
 20
338.0001885305758
 10
238.7410747153208
 20
337.9661143568646
 10
238.4998937604232
 20
337.8662139343601
 10
238.2927869792368
 20
337.7072953117622
 10
238.1338683566387
 20
337.5001885305755
 10
238.0339679341341
 20
337.2590075756782
 10
237.999893760423
 20
337.0001885305755
 10
238.0339679341341
 20
336.7413694854731
 10
238.1338683566387
 20
336.5001885305755
  0
ENDSEC
  0
SECTION
  2
OBJECTS
  0
DICTIONARY
  5
C
330
0
100
AcDbDictionary
281
    1
  3
ACAD_GROUP
350
D
  0
DICTIONARY
  5
D
330
C
100
AcDbDictionary
281
    1
  0
ENDSEC
  0
EOF
