999
dxfrw 0.6.3
  0
SECTION
  2
HEADER
  9
$ACADVER
  1
AC1021
  9
$DWGCODEPAGE
  3
ANSI_1252
  9
$INSBASE
 10
0
 20
0
 30
0
  9
$EXTMIN
 10
0
 20
-5.306930006554467e-07
 30
0
  9
$EXTMAX
 10
609.8123665335165
 20
99.00000421842788
 30
0
  9
$LIMMIN
 10
0
 20
0
  9
$LIMMAX
 10
420
 20
297
  9
$ORTHOMODE
 70
    0
  9
$REGENMODE
 70
    1
  9
$FILLMODE
 70
    1
  9
$QTEXTMODE
 70
    0
  9
$MIRRTEXT
 70
    0
  9
$LTSCALE
 40
1
  9
$ATTMODE
 70
    0
  9
$TEXTSIZE
 40
2.5
  9
$TRACEWID
 40
15.68
  9
$TEXTSTYLE
  7
STANDARD
  9
$CLAYER
  8
0
  9
$CELTYPE
  6
BYLAYER
  9
$CECOLOR
 62
  256
  9
$CELTSCALE
 40
1
  9
$DISPSILH
 70
    0
  9
$DIMSCALE
 40
2.5
  9
$DIMASZ
 40
2.5
  9
$DIMEXO
 40
0.625
  9
$DIMDLI
 40
3.75
  9
$DIMRND
 40
0
  9
$DIMDLE
 40
0
  9
$DIMEXE
 40
1.25
  9
$DIMTP
 40
0
  9
$DIMTM
 40
0
  9
$DIMTXT
 40
2.5
  9
$DIMCEN
 40
2.5
  9
$DIMTSZ
 40
0
  9
$DIMTOL
 70
    0
  9
$DIMLIM
 70
    0
  9
$DIMTIH
 70
    0
  9
$DIMTOH
 70
    0
  9
$DIMSE1
 70
    0
  9
$DIMSE2
 70
    0
  9
$DIMTAD
 70
    1
  9
$DIMZIN
 70
    8
  9
$DIMBLK
  1

  9
$DIMASO
 70
    1
  9
$DIMSHO
 70
    1
  9
$DIMPOST
  1

  9
$DIMAPOST
  1

  9
$DIMALT
 70
    0
  9
$DIMALTD
 70
    3
  9
$DIMALTF
 40
0.03937
  9
$DIMLFAC
 40
1
  9
$DIMTOFL
 70
    1
  9
$DIMTVP
 40
0
  9
$DIMTIX
 70
    0
  9
$DIMSOXD
 70
    0
  9
$DIMSAH
 70
    0
  9
$DIMBLK1
  1

  9
$DIMBLK2
  1

  9
$DIMSTYLE
  2
Standard
  9
$DIMCLRD
 70
    0
  9
$DIMCLRE
 70
    0
  9
$DIMCLRT
 70
    0
  9
$DIMTFAC
 40
1
  9
$DIMGAP
 40
0.625
  9
$DIMJUST
 70
    0
  9
$DIMSD1
 70
    0
  9
$DIMSD2
 70
    0
  9
$DIMTOLJ
 70
    0
  9
$DIMTZIN
 70
    8
  9
$DIMALTZ
 70
    0
  9
$DIMALTTZ
 70
    0
  9
$DIMUPT
 70
    0
  9
$DIMDEC
 70
    2
  9
$DIMTDEC
 70
    2
  9
$DIMALTU
 70
    2
  9
$DIMALTTD
 70
    3
  9
$DIMTXSTY
  7
STANDARD
  9
$DIMAUNIT
 70
    0
  9
$DIMADEC
 70
    0
  9
$DIMALTRND
 40
0
  9
$DIMAZIN
 70
    0
  9
$DIMDSEP
 70
   44
  9
$DIMATFIT
 70
    3
  9
$DIMFRAC
 70
    0
  9
$DIMLDRBLK
  1
STANDARD
  9
$DIMLUNIT
 70
    2
  9
$DIMLWD
 70
   -2
  9
$DIMLWE
 70
   -2
  9
$DIMTMOVE
 70
    0
  9
$DIMFXL
 40
1
  9
$DIMFXLON
 70
    0
  9
$DIMJOGANG
 40
0.7854
  9
$DIMTFILL
 70
    0
  9
$DIMTFILLCLR
 70
    0
  9
$DIMARCSYM
 70
    0
  9
$DIMLTYPE
  6

  9
$DIMLTEX1
  6

  9
$DIMLTEX2
  6

  9
$LUNITS
 70
    2
  9
$LUPREC
 70
    4
  9
$SKETCHINC
 40
1
  9
$FILLETRAD
 40
0
  9
$AUNITS
 70
    0
  9
$AUPREC
 70
    2
  9
$MENU
  1
.
  9
$ELEVATION
 40
0
  9
$PELEVATION
 40
0
  9
$THICKNESS
 40
0
  9
$LIMCHECK
 70
    0
  9
$CHAMFERA
 40
0
  9
$CHAMFERB
 40
0
  9
$CHAMFERC
 40
0
  9
$CHAMFERD
 40
0
  9
$SKPOLY
 70
    0
  9
$USRTIMER
 70
    1
  9
$ANGBASE
 50
0
  9
$ANGDIR
 70
    0
  9
$PDMODE
 70
   34
  9
$PDSIZE
 40
0
  9
$PLINEWID
 40
0
  9
$SPLFRAME
 70
    0
  9
$SPLINETYPE
 70
    2
  9
$SPLINESEGS
 70
    8
  9
$HANDSEED
  5
20000
  9
$SURFTAB1
 70
    6
  9
$SURFTAB2
 70
    6
  9
$SURFTYPE
 70
    6
  9
$SURFU
 70
    6
  9
$SURFV
 70
    6
  9
$UCSBASE
  2

  9
$UCSNAME
  2

  9
$UCSORG
 10
0
 20
0
 30
0
  9
$UCSXDIR
 10
1
 20
0
 30
0
  9
$UCSYDIR
 10
0
 20
1
 30
0
  9
$UCSORTHOREF
  2

  9
$UCSORTHOVIEW
 70
    0
  9
$UCSORGTOP
 10
0
 20
0
 30
0
  9
$UCSORGBOTTOM
 10
0
 20
0
 30
0
  9
$UCSORGLEFT
 10
0
 20
0
 30
0
  9
$UCSORGRIGHT
 10
0
 20
0
 30
0
  9
$UCSORGFRONT
 10
0
 20
0
 30
0
  9
$UCSORGBACK
 10
0
 20
0
 30
0
  9
$PUCSBASE
  2

  9
$PUCSNAME
  2

  9
$PUCSORG
 10
0
 20
0
 30
0
  9
$PUCSXDIR
 10
1
 20
0
 30
0
  9
$PUCSYDIR
 10
0
 20
1
 30
0
  9
$PUCSORTHOREF
  2

  9
$PUCSORTHOVIEW
 70
    0
  9
$PUCSORGTOP
 10
0
 20
0
 30
0
  9
$PUCSORGBOTTOM
 10
0
 20
0
 30
0
  9
$PUCSORGLEFT
 10
0
 20
0
 30
0
  9
$PUCSORGRIGHT
 10
0
 20
0
 30
0
  9
$PUCSORGFRONT
 10
0
 20
0
 30
0
  9
$PUCSORGBACK
 10
0
 20
0
 30
0
  9
$USERI1
 70
    0
  9
$USERI2
 70
    0
  9
$USERI3
 70
    0
  9
$USERI4
 70
    0
  9
$USERI5
 70
    0
  9
$USERR1
 40
0
  9
$USERR2
 40
0
  9
$USERR3
 40
0
  9
$USERR4
 40
0
  9
$USERR5
 40
0
  9
$WORLDVIEW
 70
    1
  9
$SHADEDGE
 70
    3
  9
$SHADEDIF
 70
   70
  9
$TILEMODE
 70
    1
  9
$MAXACTVP
 70
   64
  9
$PINSBASE
 10
0
 20
0
 30
0
  9
$PLIMCHECK
 70
    0
  9
$PEXTMIN
 10
0
 20
0
 30
0
  9
$PEXTMAX
 10
0
 20
0
 30
0
  9
$GRIDMODE
 70
    1
  9
$SNAPSTYLE
 70
    0
  9
$PLIMMIN
 10
0
 20
0
  9
$PLIMMAX
 10
210
 20
297
  9
$UNITMODE
 70
    0
  9
$VISRETAIN
 70
    1
  9
$PLINEGEN
 70
    0
  9
$PSLTSCALE
 70
    1
  9
$TREEDEPTH
 70
 3020
  9
$CMLSTYLE
  2
Standard
  9
$CMLJUST
 70
    0
  9
$CMLSCALE
 40
20
  9
$PROXYGRAPHICS
 70
    1
  9
$MEASUREMENT
 70
    1
  9
$CELWEIGHT
370
   -1
  9
$ENDCAPS
280
    0
  9
$JOINSTYLE
280
    0
  9
$LWDISPLAY
290
    0
  9
$INSUNITS
 70
    4
  9
$HYPERLINKBASE
  1

  9
$STYLESHEET
  1

  9
$XEDIT
290
    1
  9
$CEPSNTYPE
380
    0
  9
$PSTYLEMODE
290
    1
  9
$EXTNAMES
290
    1
  9
$PSVPSCALE
 40
1
  9
$OLESTARTUP
290
    0
  9
$SORTENTS
280
  127
  9
$INDEXCTL
280
    0
  9
$HIDETEXT
280
    1
  9
$XCLIPFRAME
290
    0
  9
$HALOGAP
280
    0
  9
$OBSCOLOR
 70
  257
  9
$OBSLTYPE
280
    0
  9
$INTERSECTIONDISPLAY
280
    0
  9
$INTERSECTIONCOLOR
 70
  257
  9
$DIMASSOC
280
    1
  9
$PROJECTNAME
  1

  9
$CAMERADISPLAY
290
    0
  9
$LENSLENGTH
 40
50
  9
$CAMERAHEIGHT
 40
0
  9
$STEPSPERSEC
 40
2
  9
$STEPSIZE
 40
50
  9
$3DDWFPREC
 40
2
  9
$PSOLWIDTH
 40
5
  9
$PSOLHEIGHT
 40
80
  9
$LOFTANG1
 40
1.570796326794897
  9
$LOFTANG2
 40
1.570796326794897
  9
$LOFTMAG1
 40
0
  9
$LOFTMAG2
 40
0
  9
$LOFTPARAM
 70
    7
  9
$LOFTNORMALS
280
    1
  9
$LATITUDE
 40
1
  9
$LONGITUDE
 40
1
  9
$NORTHDIRECTION
 40
0
  9
$TIMEZONE
 70
-8000
  9
$LIGHTGLYPHDISPLAY
280
    1
  9
$TILEMODELIGHTSYNCH
280
    1
  9
$SOLIDHIST
280
    1
  9
$SHOWHIST
280
    1
  9
$DWFFRAME
280
    2
  9
$DGNFRAME
280
    0
  9
$REALWORLDSCALE
290
    1
  9
$INTERFERECOLOR
 62
    1
  9
$CSHADOW
280
    0
  9
$SHADOWPLANELOCATION
 40
0
  0
ENDSEC
  0
SECTION
  2
CLASSES
  0
ENDSEC
  0
SECTION
  2
TABLES
  0
TABLE
  2
VPORT
  5
8
330
0
100
AcDbSymbolTable
 70
    1
  0
VPORT
  5
31
330
2
100
AcDbSymbolTableRecord
100
AcDbViewportTableRecord
  2
*ACTIVE
 70
    0
 10
0
 20
0
 11
1
 21
1
 12
275.335860724943
 22
149.5651589123147
 13
0
 23
0
 14
10
 24
10
 15
10
 25
10
 16
0
 26
0
 36
1
 17
0
 27
0
 37
0
 40
552.9378602212846
 41
1.259562841530055
 42
50
 43
0
 44
0
 50
0
 51
0
 71
    0
 72
  100
 73
    1
 74
    3
 75
    0
 76
    1
 77
    0
 78
    0
281
    0
 65
    1
110
0
120
0
130
0
111
1
121
0
131
0
112
0
122
1
132
0
 79
    0
146
0
348
10020
 60
    7
 61
    5
292
1
282
    1
141
0
142
0
 63
  250
421
3358443
  0
ENDTAB
  0
TABLE
  2
LTYPE
  5
5
330
0
100
AcDbSymbolTable
 70
    4
  0
LTYPE
  5
14
330
5
100
AcDbSymbolTableRecord
100
AcDbLinetypeTableRecord
  2
ByBlock
 70
    0
  3

 72
   65
 73
    0
 40
0
  0
LTYPE
  5
15
330
5
100
AcDbSymbolTableRecord
100
AcDbLinetypeTableRecord
  2
ByLayer
 70
    0
  3

 72
   65
 73
    0
 40
0
  0
LTYPE
  5
16
330
5
100
AcDbSymbolTableRecord
100
AcDbLinetypeTableRecord
  2
Continuous
 70
    0
  3
Solid line
 72
   65
 73
    0
 40
0
  0
LTYPE
  5
32
330
5
100
AcDbSymbolTableRecord
100
AcDbLinetypeTableRecord
  2
DOT
 70
    0
  3
Dot . . . . . . . . . . . . . . . . . . . . . .
 72
   65
 73
    2
 40
6.35
 49
0
 74
    0
 49
-6.35
 74
    0
  0
LTYPE
  5
33
330
5
100
AcDbSymbolTableRecord
100
AcDbLinetypeTableRecord
  2
DOTTINY
 70
    0
  3
Dot (.15x) .....................................
 72
   65
 73
    2
 40
0.9525
 49
0
 74
    0
 49
-0.9525
 74
    0
  0
LTYPE
  5
34
330
5
100
AcDbSymbolTableRecord
100
AcDbLinetypeTableRecord
  2
DOT2
 70
    0
  3
Dot (.5x) .....................................
 72
   65
 73
    2
 40
3.175
 49
0
 74
    0
 49
-3.175
 74
    0
  0
LTYPE
  5
35
330
5
100
AcDbSymbolTableRecord
100
AcDbLinetypeTableRecord
  2
DOTX2
 70
    0
  3
Dot (2x) .  .  .  .  .  .  .  .  .  .  .  .  .
 72
   65
 73
    2
 40
12.7
 49
0
 74
    0
 49
-12.7
 74
    0
  0
LTYPE
  5
36
330
5
100
AcDbSymbolTableRecord
100
AcDbLinetypeTableRecord
  2
DASHED
 70
    0
  3
Dashed _ _ _ _ _ _ _ _ _ _ _ _ _ _ _ _ _
 72
   65
 73
    2
 40
19.05
 49
12.7
 74
    0
 49
-6.35
 74
    0
  0
LTYPE
  5
37
330
5
100
AcDbSymbolTableRecord
100
AcDbLinetypeTableRecord
  2
DASHEDTINY
 70
    0
  3
Dashed (.15x) _ _ _ _ _ _ _ _ _ _ _ _ _ _ _ _ _
 72
   65
 73
    2
 40
2.8575
 49
1.905
 74
    0
 49
-0.9525
 74
    0
  0
LTYPE
  5
38
330
5
100
AcDbSymbolTableRecord
100
AcDbLinetypeTableRecord
  2
DASHED2
 70
    0
  3
Dashed (.5x) _ _ _ _ _ _ _ _ _ _ _ _ _ _ _ _ _
 72
   65
 73
    2
 40
9.524999999999999
 49
6.35
 74
    0
 49
-3.175
 74
    0
  0
LTYPE
  5
39
330
5
100
AcDbSymbolTableRecord
100
AcDbLinetypeTableRecord
  2
DASHEDX2
 70
    0
  3
Dashed (2x) ____  ____  ____  ____  ____  ___
 72
   65
 73
    2
 40
38.09999999999999
 49
25.4
 74
    0
 49
-12.7
 74
    0
  0
LTYPE
  5
3A
330
5
100
AcDbSymbolTableRecord
100
AcDbLinetypeTableRecord
  2
DASHDOT
 70
    0
  3
Dash dot __ . __ . __ . __ . __ . __ . __ . __
 72
   65
 73
    4
 40
25.4
 49
12.7
 74
    0
 49
-6.35
 74
    0
 49
0
 74
    0
 49
-6.35
 74
    0
  0
LTYPE
  5
3B
330
5
100
AcDbSymbolTableRecord
100
AcDbLinetypeTableRecord
  2
DASHDOTTINY
 70
    0
  3
Dash dot (.15x) _._._._._._._._._._._._._._._.
 72
   65
 73
    4
 40
3.81
 49
1.905
 74
    0
 49
-0.9525
 74
    0
 49
0
 74
    0
 49
-0.9525
 74
    0
  0
LTYPE
  5
3C
330
5
100
AcDbSymbolTableRecord
100
AcDbLinetypeTableRecord
  2
DASHDOT2
 70
    0
  3
Dash dot (.5x) _._._._._._._._._._._._._._._.
 72
   65
 73
    4
 40
12.7
 49
6.35
 74
    0
 49
-3.175
 74
    0
 49
0
 74
    0
 49
-3.175
 74
    0
  0
LTYPE
  5
3D
330
5
100
AcDbSymbolTableRecord
100
AcDbLinetypeTableRecord
  2
DASHDOTX2
 70
    0
  3
Dash dot (2x) ____  .  ____  .  ____  .  ___
 72
   65
 73
    4
 40
50.8
 49
25.4
 74
    0
 49
-12.7
 74
    0
 49
0
 74
    0
 49
-12.7
 74
    0
  0
LTYPE
  5
3E
330
5
100
AcDbSymbolTableRecord
100
AcDbLinetypeTableRecord
  2
DIVIDE
 70
    0
  3
Divide ____ . . ____ . . ____ . . ____ . . ____
 72
   65
 73
    6
 40
31.75
 49
12.7
 74
    0
 49
-6.35
 74
    0
 49
0
 74
    0
 49
-6.35
 74
    0
 49
0
 74
    0
 49
-6.35
 74
    0
  0
LTYPE
  5
3F
330
5
100
AcDbSymbolTableRecord
100
AcDbLinetypeTableRecord
  2
DIVIDETINY
 70
    0
  3
Divide (.15x) __..__..__..__..__..__..__..__.._
 72
   65
 73
    6
 40
4.7625
 49
1.905
 74
    0
 49
-0.9525
 74
    0
 49
0
 74
    0
 49
-0.9525
 74
    0
 49
0
 74
    0
 49
-0.9525
 74
    0
  0
LTYPE
  5
40
330
5
100
AcDbSymbolTableRecord
100
AcDbLinetypeTableRecord
  2
DIVIDE2
 70
    0
  3
Divide (.5x) __..__..__..__..__..__..__..__.._
 72
   65
 73
    6
 40
15.875
 49
6.35
 74
    0
 49
-3.175
 74
    0
 49
0
 74
    0
 49
-3.175
 74
    0
 49
0
 74
    0
 49
-3.175
 74
    0
  0
LTYPE
  5
41
330
5
100
AcDbSymbolTableRecord
100
AcDbLinetypeTableRecord
  2
DIVIDEX2
 70
    0
  3
Divide (2x) ________  .  .  ________  .  .  _
 72
   65
 73
    6
 40
63.5
 49
25.4
 74
    0
 49
-12.7
 74
    0
 49
0
 74
    0
 49
-12.7
 74
    0
 49
0
 74
    0
 49
-12.7
 74
    0
  0
LTYPE
  5
42
330
5
100
AcDbSymbolTableRecord
100
AcDbLinetypeTableRecord
  2
BORDER
 70
    0
  3
Border __ __ . __ __ . __ __ . __ __ . __ __ .
 72
   65
 73
    6
 40
44.45
 49
12.7
 74
    0
 49
-6.35
 74
    0
 49
12.7
 74
    0
 49
-6.35
 74
    0
 49
0
 74
    0
 49
-6.35
 74
    0
  0
LTYPE
  5
43
330
5
100
AcDbSymbolTableRecord
100
AcDbLinetypeTableRecord
  2
BORDERTINY
 70
    0
  3
Border (.15x) __.__.__.__.__.__.__.__.__.__.__.
 72
   65
 73
    6
 40
6.6675
 49
1.905
 74
    0
 49
-0.9525
 74
    0
 49
1.905
 74
    0
 49
-0.9525
 74
    0
 49
0
 74
    0
 49
-0.9525
 74
    0
  0
LTYPE
  5
44
330
5
100
AcDbSymbolTableRecord
100
AcDbLinetypeTableRecord
  2
BORDER2
 70
    0
  3
Border (.5x) __.__.__.__.__.__.__.__.__.__.__.
 72
   65
 73
    6
 40
22.225
 49
6.35
 74
    0
 49
-3.175
 74
    0
 49
6.35
 74
    0
 49
-3.175
 74
    0
 49
0
 74
    0
 49
-3.175
 74
    0
  0
LTYPE
  5
45
330
5
100
AcDbSymbolTableRecord
100
AcDbLinetypeTableRecord
  2
BORDERX2
 70
    0
  3
Border (2x) ____  ____  .  ____  ____  .  ___
 72
   65
 73
    6
 40
88.89999999999999
 49
25.4
 74
    0
 49
-12.7
 74
    0
 49
25.4
 74
    0
 49
-12.7
 74
    0
 49
0
 74
    0
 49
-12.7
 74
    0
  0
LTYPE
  5
46
330
5
100
AcDbSymbolTableRecord
100
AcDbLinetypeTableRecord
  2
CENTER
 70
    0
  3
Center ____ _ ____ _ ____ _ ____ _ ____ _ ____
 72
   65
 73
    4
 40
50.8
 49
31.75
 74
    0
 49
-6.35
 74
    0
 49
6.35
 74
    0
 49
-6.35
 74
    0
  0
LTYPE
  5
47
330
5
100
AcDbSymbolTableRecord
100
AcDbLinetypeTableRecord
  2
CENTERTINY
 70
    0
  3
Center (.15x) ___ _ ___ _ ___ _ ___ _ ___ _ ___
 72
   65
 73
    4
 40
7.619999999999999
 49
4.7625
 74
    0
 49
-0.9525
 74
    0
 49
0.9525
 74
    0
 49
-0.9525
 74
    0
  0
LTYPE
  5
48
330
5
100
AcDbSymbolTableRecord
100
AcDbLinetypeTableRecord
  2
CENTER2
 70
    0
  3
Center (.5x) ___ _ ___ _ ___ _ ___ _ ___ _ ___
 72
   65
 73
    4
 40
28.575
 49
19.05
 74
    0
 49
-3.175
 74
    0
 49
3.175
 74
    0
 49
-3.175
 74
    0
  0
LTYPE
  5
49
330
5
100
AcDbSymbolTableRecord
100
AcDbLinetypeTableRecord
  2
CENTERX2
 70
    0
  3
Center (2x) ________  __  ________  __  _____
 72
   65
 73
    4
 40
101.6
 49
63.5
 74
    0
 49
-12.7
 74
    0
 49
12.7
 74
    0
 49
-12.7
 74
    0
  0
ENDTAB
  0
TABLE
  2
LAYER
  5
2
330
0
100
AcDbSymbolTable
 70
    1
  0
LAYER
  5
10
330
2
100
AcDbSymbolTableRecord
100
AcDbLayerTableRecord
  2
0
 70
    0
 62
    7
  6
CONTINUOUS
370
    0
390
F
  0
LAYER
  5
4A
330
2
100
AcDbSymbolTableRecord
100
AcDbLayerTableRecord
  2
Component#125
 70
    0
 62
    7
  6
CONTINUOUS
370
   -3
390
F
  0
ENDTAB
  0
TABLE
  2
STYLE
  5
3
330
0
100
AcDbSymbolTable
 70
    3
  0
STYLE
  5
4B
330
2
100
AcDbSymbolTableRecord
100
AcDbTextStyleTableRecord
  2
Standard
 70
    0
 40
0
 41
1
 50
0
 71
    0
 42
1
  3
txt
  4

  0
ENDTAB
  0
TABLE
  2
VIEW
  5
6
330
0
100
AcDbSymbolTable
 70
    0
  0
ENDTAB
  0
TABLE
  2
UCS
  5
7
330
0
100
AcDbSymbolTable
 70
    0
  0
ENDTAB
  0
TABLE
  2
APPID
  5
9
330
0
100
AcDbSymbolTable
 70
    1
  0
APPID
  5
12
330
9
100
AcDbSymbolTableRecord
100
AcDbRegAppTableRecord
  2
ACAD
 70
    0
  0
APPID
  5
4C
330
9
100
AcDbSymbolTableRecord
100
AcDbRegAppTableRecord
  2
LibreCad
 70
    0
  0
ENDTAB
  0
TABLE
  2
DIMSTYLE
  5
A
330
0
100
AcDbSymbolTable
 70
    1
100
AcDbDimStyleTable
 71
    1
  0
DIMSTYLE
105
4D
330
A
100
AcDbSymbolTableRecord
100
AcDbDimStyleTableRecord
  2
Standard
 70
    0
 40
2.5
 41
2.5
 42
0.625
 43
0.38
 44
1.25
 45
0
 46
0
 47
0
 48
0
 49
1
140
2.5
141
0.09
142
0
143
25.4
144
1
145
0
146
1
147
0.625
148
0
 71
    0
 72
    0
 73
    0
 74
    1
 75
    0
 76
    0
 77
    0
 78
    8
 79
    0
170
    0
171
    2
172
    0
173
    0
174
    0
175
    0
176
    0
177
    0
178
    0
179
    0
271
    2
272
    4
273
    2
274
    2
275
    0
276
    0
277
    2
278
   44
279
    0
280
    0
281
    0
282
    0
283
    1
284
    0
285
    0
286
    0
288
    0
289
    3
340
STANDARD
341

371
   -2
372
   -2
  0
ENDTAB
  0
TABLE
  2
BLOCK_RECORD
  5
1
330
0
100
AcDbSymbolTable
 70
    2
  0
BLOCK_RECORD
  5
1F
330
1
100
AcDbSymbolTableRecord
100
AcDbBlockTableRecord
  2
*Model_Space
 70
    0
280
    1
281
    0
  0
BLOCK_RECORD
  5
1E
330
1
100
AcDbSymbolTableRecord
100
AcDbBlockTableRecord
  2
*Paper_Space
 70
    0
280
    1
281
    0
  0
ENDTAB
  0
ENDSEC
  0
SECTION
  2
BLOCKS
  0
BLOCK
  5
20
330
1F
100
AcDbEntity
  8
0
100
AcDbBlockBegin
  2
*Model_Space
 70
    0
 10
0
 20
0
 30
0
  3
*Model_Space
  1

  0
ENDBLK
  5
21
330
1F
100
AcDbEntity
  8
0
100
AcDbBlockEnd
  0
BLOCK
  5
1C
330
1B
100
AcDbEntity
  8
0
100
AcDbBlockBegin
  2
*Paper_Space
 70
    0
 10
0
 20
0
 30
0
  3
*Paper_Space
  1

  0
ENDBLK
  5
1D
330
1F
100
AcDbEntity
  8
0
100
AcDbBlockEnd
  0
ENDSEC
  0
SECTION
  2
ENTITIES
  0
LINE
  5
4E
100
AcDbEntity
  8
0
  6
ByLayer
 62
  256
370
   -1
100
AcDbLine
 10
89.91609160087319
 20
58.54329603125052
 11
89.7536614712451
 21
58.85295699940878
  0
LINE
  5
4F
100
AcDbEntity
  8
0
  6
ByLayer
 62
  256
370
   -1
100
AcDbLine
 10
89.7536614712451
 20
58.85295699940878
 11
89.63122200095131
 21
59.17368913161681
  0
LINE
  5
50
100
AcDbEntity
  8
0
  6
ByLayer
 62
  256
370
   -1
100
AcDbLine
 10
90.11573316528461
 20
58.25000461216166
 11
89.91609160087319
 21
58.54329603125052
  0
LINE
  5
51
100
AcDbEntity
  8
0
  6
ByLayer
 62
  256
370
   -1
100
AcDbLine
 10
90.6124086577986
 20
57.73223765918999
 11
90.34917024196079
 21
57.97810103963752
  0
LINE
  5
52
100
AcDbEntity
  8
0
  6
ByLayer
 62
  256
370
   -1
100
AcDbLine
 10
90.90094433052059
 20
57.51662126142537
 11
90.6124086577986
 21
57.73223765918999
  0
LINE
  5
53
100
AcDbEntity
  8
0
  6
ByLayer
 62
  256
370
   -1
100
AcDbLine
 10
91.20984033476839
 20
57.33494110268907
 11
90.90094433052059
 21
57.51662126142537
  0
LINE
  5
54
100
AcDbEntity
  8
0
  6
ByLayer
 62
  256
370
   -1
100
AcDbLine
 10
91.53381137426709
 20
57.19030578086904
 11
91.20984033476839
 21
57.33494110268907
  0
LINE
  5
55
100
AcDbEntity
  8
0
  6
ByLayer
 62
  256
370
   -1
100
AcDbLine
 10
5.948889245899181
 20
84.38823162742256
 11
6.000000506466449
 21
84.00000305976869
  0
LINE
  5
56
100
AcDbEntity
  8
0
  6
ByLayer
 62
  256
370
   -1
100
AcDbLine
 10
91.86731421470995
 20
57.0851900464213
 11
91.53381137426709
 21
57.19030578086904
  0
LINE
  5
57
100
AcDbEntity
  8
0
  6
ByLayer
 62
  256
370
   -1
100
AcDbLine
 10
92.20464253003115
 20
57.02139245870558
 11
91.86731421470995
 21
57.0851900464213
  0
LINE
  5
58
100
AcDbEntity
  8
0
  6
ByLayer
 62
  256
370
   -1
100
AcDbLine
 10
89.63122200095131
 20
59.17368913161681
 11
89.55086816327685
 21
59.50000461216734
  0
LINE
  5
59
100
AcDbEntity
  8
0
  6
ByLayer
 62
  256
370
   -1
100
AcDbLine
 10
5.250000506468041
 20
82.70096495409109
 11
4.888229074122819
 21
82.55111432033334
  0
LINE
  5
5A
100
AcDbEntity
  8
0
  6
ByLayer
 62
  256
370
   -1
100
AcDbLine
 10
5.560660678247586
 20
82.93934288798857
 11
5.250000506468041
 21
82.70096495409109
  0
LINE
  5
5B
100
AcDbEntity
  8
0
  6
ByLayer
 62
  256
370
   -1
100
AcDbLine
 10
5.799038612144841
 20
83.25000305976869
 11
5.560660678247586
 21
82.93934288798857
  0
LINE
  5
5C
100
AcDbEntity
  8
0
  6
ByLayer
 62
  256
370
   -1
100
AcDbLine
 10
6.000000506466449
 20
84.00000305976869
 11
5.948889245901228
 21
83.61177449211482
  0
LINE
  5
5D
100
AcDbEntity
  8
0
  6
ByLayer
 62
  256
370
   -1
100
AcDbLine
 10
3.750000506468041
 20
82.7009649540887
 11
3.43934033468804
 21
82.93934288798528
  0
LINE
  5
5E
100
AcDbEntity
  8
0
  6
ByLayer
 62
  256
370
   -1
100
AcDbLine
 10
5.799038612142112
 20
84.75000305976869
 11
5.948889245899181
 21
84.38823162742256
  0
LINE
  5
5F
100
AcDbEntity
  8
0
  6
ByLayer
 62
  256
370
   -1
100
AcDbLine
 10
5.560660678244403
 20
85.06066323154835
 11
5.799038612142112
 21
84.75000305976869
  0
LINE
  5
60
100
AcDbEntity
  8
0
  6
ByLayer
 62
  256
370
   -1
100
AcDbLine
 10
5.25000050646463
 20
85.29904116544458
 11
5.560660678244403
 21
85.06066323154835
  0
LINE
  5
61
100
AcDbEntity
  8
0
  6
ByLayer
 62
  256
370
   -1
100
AcDbLine
 10
4.888229074118499
 20
85.44889179920074
 11
5.25000050646463
 21
85.29904116544458
  0
LINE
  5
62
100
AcDbEntity
  8
0
  6
ByLayer
 62
  256
370
   -1
100
AcDbLine
 10
4.500000506464175
 20
85.50000305976675
 11
4.888229074118499
 21
85.44889179920074
  0
LINE
  5
63
100
AcDbEntity
  8
0
  6
ByLayer
 62
  256
370
   -1
100
AcDbLine
 10
4.111771938810534
 20
85.44889179919983
 11
4.500000506464175
 21
85.50000305976675
  0
LINE
  5
64
100
AcDbEntity
  8
0
  6
ByLayer
 62
  256
370
   -1
100
AcDbLine
 10
3.051111767033944
 20
83.61177449211084
 11
3.000000506466222
 21
84.00000305976425
  0
LINE
  5
65
100
AcDbEntity
  8
0
  6
ByLayer
 62
  256
370
   -1
100
AcDbLine
 10
3.200962400791241
 20
83.25000305976471
 11
3.051111767033944
 21
83.61177449211084
  0
LINE
  5
66
100
AcDbEntity
  8
0
  6
ByLayer
 62
  256
370
   -1
100
AcDbLine
 10
3.43934033468804
 20
82.93934288798528
 11
3.200962400791241
 21
83.25000305976471
  0
LINE
  5
67
100
AcDbEntity
  8
0
  6
ByLayer
 62
  256
370
   -1
100
AcDbLine
 10
3.051111767096927
 20
23.61177217478325
 11
3.000000506529886
 21
24.00000074243701
  0
LINE
  5
68
100
AcDbEntity
  8
0
  6
ByLayer
 62
  256
370
   -1
100
AcDbLine
 10
4.111771938814854
 20
82.55111432033254
 11
3.750000506468041
 21
82.7009649540887
  0
LINE
  5
69
100
AcDbEntity
  8
0
  6
ByLayer
 62
  256
370
   -1
100
AcDbLine
 10
4.888229074122819
 20
82.55111432033334
 11
4.50000050646895
 21
82.50000305976653
  0
LINE
  5
6A
100
AcDbEntity
  8
0
  6
ByLayer
 62
  256
370
   -1
100
AcDbLine
 10
200.0000008786967
 20
57.00000461103252
 11
92.54002453923295
 21
57.00000461213654
  0
LINE
  5
6B
100
AcDbEntity
  8
0
  6
ByLayer
 62
  256
370
   -1
100
AcDbLine
 10
5.948889245901228
 20
83.61177449211482
 11
5.799038612144841
 21
83.25000305976869
  0
LINE
  5
6C
100
AcDbEntity
  8
0
  6
ByLayer
 62
  256
370
   -1
100
AcDbLine
 10
5.560660678308523
 20
25.06066091421997
 11
5.799038612206004
 21
24.75000074244053
  0
LINE
  5
6D
100
AcDbEntity
  8
0
  6
ByLayer
 62
  256
370
   -1
100
AcDbLine
 10
5.250000506527613
 20
25.29903884811642
 11
5.560660678308523
 21
25.06066091421997
  0
LINE
  5
6E
100
AcDbEntity
  8
0
  6
ByLayer
 62
  256
370
   -1
100
AcDbLine
 10
4.888229074181936
 20
25.44888948187349
 11
5.250000506527613
 21
25.29903884811642
  0
LINE
  5
6F
100
AcDbEntity
  8
0
  6
ByLayer
 62
  256
370
   -1
100
AcDbLine
 10
4.500000506528067
 20
25.50000074243894
 11
4.888229074181936
 21
25.44888948187349
  0
LINE
  5
70
100
AcDbEntity
  8
0
  6
ByLayer
 62
  256
370
   -1
100
AcDbLine
 10
4.111771938874199
 20
25.44888948187213
 11
4.500000506528067
 21
25.50000074243894
  0
LINE
  5
71
100
AcDbEntity
  8
0
  6
ByLayer
 62
  256
370
   -1
100
AcDbLine
 10
3.750000506527613
 20
25.29903884811461
 11
4.111771938874199
 21
25.44888948187213
  0
LINE
  5
72
100
AcDbEntity
  8
0
  6
ByLayer
 62
  256
370
   -1
100
AcDbLine
 10
3.439340334748294
 20
25.0606609142169
 11
3.750000506527613
 21
25.29903884811461
  0
LINE
  5
73
100
AcDbEntity
  8
0
  6
ByLayer
 62
  256
370
   -1
100
AcDbLine
 10
3.200962400852632
 20
24.75000074243701
 11
3.439340334748294
 21
25.0606609142169
  0
LINE
  5
74
100
AcDbEntity
  8
0
  6
ByLayer
 62
  256
370
   -1
100
AcDbLine
 10
3.051111767096018
 20
24.38822931009031
 11
3.200962400852632
 21
24.75000074243701
  0
LINE
  5
75
100
AcDbEntity
  8
0
  6
ByLayer
 62
  256
370
   -1
100
AcDbLine
 10
3.000000506529886
 20
24.00000074243701
 11
3.051111767096018
 21
24.38822931009031
  0
LINE
  5
76
100
AcDbEntity
  8
0
  6
ByLayer
 62
  256
370
   -1
100
AcDbLine
 10
31.91745475917173
 20
33.46034164089372
 11
31.79257923104137
 21
33.15886544727141
  0
LINE
  5
77
100
AcDbEntity
  8
0
  6
ByLayer
 62
  256
370
   -1
100
AcDbLine
 10
31.79257923104137
 20
33.15886544727141
 11
31.74998651390229
 21
32.83534164089326
  0
LINE
  5
78
100
AcDbEntity
  8
0
  6
ByLayer
 62
  256
370
   -1
100
AcDbLine
 10
3.200962400854451
 20
23.2500007424369
 11
3.051111767096927
 21
23.61177217478325
  0
LINE
  5
79
100
AcDbEntity
  8
0
  6
ByLayer
 62
  256
370
   -1
100
AcDbLine
 10
3.439340334751478
 20
22.93934057065712
 11
3.200962400854451
 21
23.2500007424369
  0
LINE
  5
7A
100
AcDbEntity
  8
0
  6
ByLayer
 62
  256
370
   -1
100
AcDbLine
 10
3.750000506531023
 20
22.70096263676123
 11
3.439340334751478
 21
22.93934057065712
  0
LINE
  5
7B
100
AcDbEntity
  8
0
  6
ByLayer
 62
  256
370
   -1
100
AcDbLine
 10
4.111771938878064
 20
22.55111200300485
 11
3.750000506531023
 21
22.70096263676123
  0
LINE
  5
7C
100
AcDbEntity
  8
0
  6
ByLayer
 62
  256
370
   -1
100
AcDbLine
 10
4.500000506531933
 20
22.50000074243906
 11
4.111771938878064
 21
22.55111200300485
  0
LINE
  5
7D
100
AcDbEntity
  8
0
  6
ByLayer
 62
  256
370
   -1
100
AcDbLine
 10
4.888229074185801
 20
22.55111200300576
 11
4.500000506531933
 21
22.50000074243906
  0
LINE
  5
7E
100
AcDbEntity
  8
0
  6
ByLayer
 62
  256
370
   -1
100
AcDbLine
 10
5.250000506531023
 20
22.70096263676305
 11
4.888229074185801
 21
22.55111200300576
  0
LINE
  5
7F
100
AcDbEntity
  8
0
  6
ByLayer
 62
  256
370
   -1
100
AcDbLine
 10
5.560660678311024
 20
22.93934057066076
 11
5.250000506531023
 21
22.70096263676305
  0
LINE
  5
80
100
AcDbEntity
  8
0
  6
ByLayer
 62
  256
370
   -1
100
AcDbLine
 10
5.799038612207823
 20
23.25000074244088
 11
5.560660678311024
 21
22.93934057066076
  0
LINE
  5
81
100
AcDbEntity
  8
0
  6
ByLayer
 62
  256
370
   -1
100
AcDbLine
 10
5.94888924596421
 20
23.61177217478735
 11
5.799038612207823
 21
23.25000074244088
  0
LINE
  5
82
100
AcDbEntity
  8
0
  6
ByLayer
 62
  256
370
   -1
100
AcDbLine
 10
6.000000506529432
 20
24.0000007424411
 11
5.94888924596421
 21
23.61177217478735
  0
LINE
  5
83
100
AcDbEntity
  8
0
  6
ByLayer
 62
  256
370
   -1
100
AcDbLine
 10
5.948889245963073
 20
24.38822931009463
 11
6.000000506529432
 21
24.0000007424411
  0
LINE
  5
84
100
AcDbEntity
  8
0
  6
ByLayer
 62
  256
370
   -1
100
AcDbLine
 10
5.799038612206004
 20
24.75000074244053
 11
5.948889245963073
 21
24.38822931009463
  0
LINE
  5
85
100
AcDbEntity
  8
0
  6
ByLayer
 62
  256
370
   -1
100
AcDbLine
 10
82.45457133073364
 20
99.0000042165442
 11
5.064382548880531e-07
 21
99.00000421842788
  0
LINE
  5
86
100
AcDbEntity
  8
0
  6
ByLayer
 62
  256
370
   -1
100
AcDbLine
 10
89.55086816327685
 20
59.50000461216734
 11
82.45457133073364
 21
99.0000042165442
  0
LINE
  5
87
100
AcDbEntity
  8
0
  6
ByLayer
 62
  256
370
   -1
100
AcDbLine
 10
90.34917024196079
 20
57.97810103963752
 11
90.11573316528461
 21
58.25000461216166
  0
LINE
  5
88
100
AcDbEntity
  8
0
  6
ByLayer
 62
  256
370
   -1
100
AcDbLine
 10
92.54002453923295
 20
57.00000461213654
 11
92.20464253003115
 21
57.02139245870558
  0
LINE
  5
89
100
AcDbEntity
  8
0
  6
ByLayer
 62
  256
370
   -1
100
AcDbLine
 10
0
 20
0
 11
5.064382548880531e-07
 21
99.00000421842788
  0
LINE
  5
8A
100
AcDbEntity
  8
0
  6
ByLayer
 62
  256
370
   -1
100
AcDbLine
 10
3.000000506466222
 20
84.00000305976425
 11
3.051111767032353
 21
84.38823162741824
  0
LINE
  5
8B
100
AcDbEntity
  8
0
  6
ByLayer
 62
  256
370
   -1
100
AcDbLine
 10
3.051111767032353
 20
84.38823162741824
 11
3.20096240078874
 21
84.75000305976494
  0
LINE
  5
8C
100
AcDbEntity
  8
0
  6
ByLayer
 62
  256
370
   -1
100
AcDbLine
 10
3.20096240078874
 20
84.75000305976494
 11
3.439340334684402
 21
85.06066323154494
  0
LINE
  5
8D
100
AcDbEntity
  8
0
  6
ByLayer
 62
  256
370
   -1
100
AcDbLine
 10
3.439340334684402
 20
85.06066323154494
 11
3.750000506464403
 21
85.29904116544242
  0
LINE
  5
8E
100
AcDbEntity
  8
0
  6
ByLayer
 62
  256
370
   -1
100
AcDbLine
 10
3.750000506464403
 20
85.29904116544242
 11
4.111771938810534
 21
85.44889179919983
  0
LINE
  5
8F
100
AcDbEntity
  8
0
  6
ByLayer
 62
  256
370
   -1
100
AcDbLine
 10
0
 20
0
 11
200.0000016783933
 21
-5.306930006554467e-07
  0
LINE
  5
90
100
AcDbEntity
  8
0
  6
ByLayer
 62
  256
370
   -1
100
AcDbLine
 10
32.11610303741872
 20
33.7192251173766
 11
31.91745475917173
 21
33.46034164089372
  0
LINE
  5
91
100
AcDbEntity
  8
0
  6
ByLayer
 62
  256
370
   -1
100
AcDbLine
 10
31.74998651390229
 20
32.83534164089326
 11
31.79257923104205
 21
32.51181783451534
  0
LINE
  5
92
100
AcDbEntity
  8
0
  6
ByLayer
 62
  256
370
   -1
100
AcDbLine
 10
31.79257923104205
 20
32.51181783451534
 11
31.91745475917287
 21
32.21034164089303
  0
LINE
  5
93
100
AcDbEntity
  8
0
  6
ByLayer
 62
  256
370
   -1
100
AcDbLine
 10
31.91745475917287
 20
32.21034164089303
 11
32.11610303742009
 21
31.95145816441016
  0
LINE
  5
94
100
AcDbEntity
  8
0
  6
ByLayer
 62
  256
370
   -1
100
AcDbLine
 10
32.11610303742009
 20
31.95145816441016
 11
32.3749865139032
 21
31.75280988616271
  0
LINE
  5
95
100
AcDbEntity
  8
0
  6
ByLayer
 62
  256
370
   -1
100
AcDbLine
 10
32.3749865139032
 20
31.75280988616271
 11
32.67646270752539
 21
31.62793435803235
  0
LINE
  5
96
100
AcDbEntity
  8
0
  6
ByLayer
 62
  256
370
   -1
100
AcDbLine
 10
32.67646270752539
 20
31.62793435803235
 11
32.99998651390388
 21
31.58534164089428
  0
LINE
  5
97
100
AcDbEntity
  8
0
  6
ByLayer
 62
  256
370
   -1
100
AcDbLine
 10
32.99998651390388
 20
31.58534164089428
 11
33.32351032028168
 21
31.62793435803314
  0
LINE
  5
98
100
AcDbEntity
  8
0
  6
ByLayer
 62
  256
370
   -1
100
AcDbLine
 10
33.32351032028168
 20
31.62793435803314
 11
33.62498651390342
 21
31.75280988616396
  0
LINE
  5
99
100
AcDbEntity
  8
0
  6
ByLayer
 62
  256
370
   -1
100
AcDbLine
 10
33.62498651390342
 20
31.75280988616396
 11
33.88386999038676
 21
31.95145816441163
  0
LINE
  5
9A
100
AcDbEntity
  8
0
  6
ByLayer
 62
  256
370
   -1
100
AcDbLine
 10
33.88386999038676
 20
31.95145816441163
 11
34.08251826863329
 21
32.21034164089394
  0
LINE
  5
9B
100
AcDbEntity
  8
0
  6
ByLayer
 62
  256
370
   -1
100
AcDbLine
 10
34.08251826863329
 20
32.21034164089394
 11
34.20739379676456
 21
32.51181783451727
  0
LINE
  5
9C
100
AcDbEntity
  8
0
  6
ByLayer
 62
  256
370
   -1
100
AcDbLine
 10
34.20739379676456
 20
32.51181783451727
 11
34.2499865139032
 21
32.83534164089508
  0
LINE
  5
9D
100
AcDbEntity
  8
0
  6
ByLayer
 62
  256
370
   -1
100
AcDbLine
 10
34.2499865139032
 20
32.83534164089508
 11
34.20739379676388
 21
33.15886544727209
  0
LINE
  5
9E
100
AcDbEntity
  8
0
  6
ByLayer
 62
  256
370
   -1
100
AcDbLine
 10
34.20739379676388
 20
33.15886544727209
 11
34.08251826863261
 21
33.4603416408944
  0
LINE
  5
9F
100
AcDbEntity
  8
0
  6
ByLayer
 62
  256
370
   -1
100
AcDbLine
 10
34.08251826863261
 20
33.4603416408944
 11
33.88386999038539
 21
33.71922511737762
  0
LINE
  5
A0
100
AcDbEntity
  8
0
  6
ByLayer
 62
  256
370
   -1
100
AcDbLine
 10
33.88386999038539
 20
33.71922511737762
 11
33.62498651390229
 21
33.91787339562472
  0
LINE
  5
A1
100
AcDbEntity
  8
0
  6
ByLayer
 62
  256
370
   -1
100
AcDbLine
 10
33.62498651390229
 20
33.91787339562472
 11
33.32351032028009
 21
34.04274892375554
  0
LINE
  5
A2
100
AcDbEntity
  8
0
  6
ByLayer
 62
  256
370
   -1
100
AcDbLine
 10
33.32351032028009
 20
34.04274892375554
 11
32.99998651390206
 21
34.08534164089383
  0
LINE
  5
A3
100
AcDbEntity
  8
0
  6
ByLayer
 62
  256
370
   -1
100
AcDbLine
 10
32.99998651390206
 20
34.08534164089383
 11
32.6764627075238
 21
34.04274892375543
  0
LINE
  5
A4
100
AcDbEntity
  8
0
  6
ByLayer
 62
  256
370
   -1
100
AcDbLine
 10
32.6764627075238
 20
34.04274892375543
 11
32.37498651390251
 21
33.91787339562461
  0
LINE
  5
A5
100
AcDbEntity
  8
0
  6
ByLayer
 62
  256
370
   -1
100
AcDbLine
 10
32.37498651390251
 20
33.91787339562461
 11
32.11610303741872
 21
33.7192251173766
  0
LINE
  5
A6
100
AcDbEntity
  8
0
  6
ByLayer
 62
  256
370
   -1
100
AcDbLine
 10
156.9584533855432
 20
47.51763488401161
 11
157.0266017329657
 21
46.99999679380676
  0
LINE
  5
A7
100
AcDbEntity
  8
0
  6
ByLayer
 62
  256
370
   -1
100
AcDbLine
 10
153.0266017329652
 20
46.9999967938071
 11
153.094750080387
 21
47.51763488401184
  0
LINE
  5
A8
100
AcDbEntity
  8
0
  6
ByLayer
 62
  256
370
   -1
100
AcDbLine
 10
155.5442398231705
 20
48.93184844638517
 11
156.026601732965
 21
48.73204760137605
  0
LINE
  5
A9
100
AcDbEntity
  8
0
  6
ByLayer
 62
  256
370
   -1
100
AcDbLine
 10
153.094750080387
 20
46.48235870360168
 11
153.0266017329652
 21
46.9999967938071
  0
LINE
  5
AA
100
AcDbEntity
  8
0
  6
ByLayer
 62
  256
370
   -1
100
AcDbLine
 10
156.026601732965
 20
48.73204760137605
 11
156.4408152953388
 21
48.41421035617986
  0
LINE
  5
AB
100
AcDbEntity
  8
0
  6
ByLayer
 62
  256
370
   -1
100
AcDbLine
 10
199.999999711599
 20
2.999994108887222
 11
199.999999734745
 21
1.499994108886995
  0
LINE
  5
AC
100
AcDbEntity
  8
0
  6
ByLayer
 62
  256
370
   -1
100
AcDbLine
 10
154.5089636427604
 20
48.93184844638552
 11
155.0266017329652
 21
48.99999679380721
  0
LINE
  5
AD
100
AcDbEntity
  8
0
  6
ByLayer
 62
  256
370
   -1
100
AcDbLine
 10
153.6123881705923
 20
48.41421035618009
 11
154.0266017329654
 21
48.73204760137571
  0
LINE
  5
AE
100
AcDbEntity
  8
0
  6
ByLayer
 62
  256
370
   -1
100
AcDbLine
 10
153.6123881705926
 20
45.58578323143388
 11
153.2945509253962
 21
45.9999967938071
  0
LINE
  5
AF
100
AcDbEntity
  8
0
  6
ByLayer
 62
  256
370
   -1
100
AcDbLine
 10
155.5442398231703
 20
45.0681451412288
 11
155.0266017329652
 21
44.99999679380687
  0
LINE
  5
B0
100
AcDbEntity
  8
0
  6
ByLayer
 62
  256
370
   -1
100
AcDbLine
 10
156.7586525405341
 20
47.9999967938071
 11
156.9584533855432
 21
47.51763488401161
  0
LINE
  5
B1
100
AcDbEntity
  8
0
  6
ByLayer
 62
  256
370
   -1
100
AcDbLine
 10
156.7586525405341
 20
45.99999679380699
 11
156.4408152953386
 21
45.58578323143411
  0
LINE
  5
B2
100
AcDbEntity
  8
0
  6
ByLayer
 62
  256
370
   -1
100
AcDbLine
 10
156.4408152953388
 20
48.41421035617986
 11
156.7586525405341
 21
47.9999967938071
  0
LINE
  5
B3
100
AcDbEntity
  8
0
  6
ByLayer
 62
  256
370
   -1
100
AcDbLine
 10
156.0266017329654
 20
45.26794598623815
 11
155.5442398231703
 21
45.0681451412288
  0
LINE
  5
B4
100
AcDbEntity
  8
0
  6
ByLayer
 62
  256
370
   -1
100
AcDbLine
 10
153.094750080387
 20
47.51763488401184
 11
153.2945509253962
 21
47.99999679380721
  0
LINE
  5
B5
100
AcDbEntity
  8
0
  6
ByLayer
 62
  256
370
   -1
100
AcDbLine
 10
155.0266017329652
 20
44.99999679380687
 11
154.5089636427604
 21
45.06814514122868
  0
LINE
  5
B6
100
AcDbEntity
  8
0
  6
ByLayer
 62
  256
370
   -1
100
AcDbLine
 10
156.9584533855436
 20
46.48235870360179
 11
156.7586525405341
 21
45.99999679380699
  0
LINE
  5
B7
100
AcDbEntity
  8
0
  6
ByLayer
 62
  256
370
   -1
100
AcDbLine
 10
154.0266017329654
 20
48.73204760137571
 11
154.5089636427604
 21
48.93184844638552
  0
LINE
  5
B8
100
AcDbEntity
  8
0
  6
ByLayer
 62
  256
370
   -1
100
AcDbLine
 10
157.0266017329657
 20
46.99999679380676
 11
156.9584533855436
 21
46.48235870360179
  0
LINE
  5
B9
100
AcDbEntity
  8
0
  6
ByLayer
 62
  256
370
   -1
100
AcDbLine
 10
154.5089636427604
 20
45.06814514122868
 11
154.0266017329654
 21
45.26794598623815
  0
LINE
  5
BA
100
AcDbEntity
  8
0
  6
ByLayer
 62
  256
370
   -1
100
AcDbLine
 10
154.0266017329654
 20
45.26794598623815
 11
153.6123881705926
 21
45.58578323143388
  0
LINE
  5
BB
100
AcDbEntity
  8
0
  6
ByLayer
 62
  256
370
   -1
100
AcDbLine
 10
153.2945509253962
 20
45.9999967938071
 11
153.094750080387
 21
46.48235870360168
  0
LINE
  5
BC
100
AcDbEntity
  8
0
  6
ByLayer
 62
  256
370
   -1
100
AcDbLine
 10
111.0205584377813
 20
45.26794602073119
 11
110.538196527986
 21
45.06814517572172
  0
LINE
  5
BD
100
AcDbEntity
  8
0
  6
ByLayer
 62
  256
370
   -1
100
AcDbLine
 10
153.2945509253962
 20
47.99999679380721
 11
153.6123881705923
 21
48.41421035618009
  0
LINE
  5
BE
100
AcDbEntity
  8
0
  6
ByLayer
 62
  256
370
   -1
100
AcDbLine
 10
156.4408152953386
 20
45.58578323143411
 11
156.0266017329654
 21
45.26794598623815
  0
LINE
  5
BF
100
AcDbEntity
  8
0
  6
ByLayer
 62
  256
370
   -1
100
AcDbLine
 10
155.0266017329652
 20
48.99999679380721
 11
155.5442398231705
 21
48.93184844638517
  0
LINE
  5
C0
100
AcDbEntity
  8
0
  6
ByLayer
 62
  256
370
   -1
100
AcDbLine
 10
111.4347720001542
 20
45.58578326592681
 11
111.0205584377813
 21
45.26794602073119
  0
LINE
  5
C1
100
AcDbEntity
  8
0
  6
ByLayer
 62
  256
370
   -1
100
AcDbLine
 10
111.75260924535
 20
45.99999682830003
 11
111.4347720001542
 21
45.58578326592681
  0
LINE
  5
C2
100
AcDbEntity
  8
0
  6
ByLayer
 62
  256
370
   -1
100
AcDbLine
 10
111.9524100903591
 20
46.48235873809517
 11
111.75260924535
 21
45.99999682830003
  0
LINE
  5
C3
100
AcDbEntity
  8
0
  6
ByLayer
 62
  256
370
   -1
100
AcDbLine
 10
112.0205584377809
 20
46.9999968282998
 11
111.9524100903591
 21
46.48235873809517
  0
LINE
  5
C4
100
AcDbEntity
  8
0
  6
ByLayer
 62
  256
370
   -1
100
AcDbLine
 10
111.9524100903593
 20
47.51763491850488
 11
112.0205584377809
 21
46.9999968282998
  0
LINE
  5
C5
100
AcDbEntity
  8
0
  6
ByLayer
 62
  256
370
   -1
100
AcDbLine
 10
111.75260924535
 20
47.99999682830014
 11
111.9524100903593
 21
47.51763491850488
  0
LINE
  5
C6
100
AcDbEntity
  8
0
  6
ByLayer
 62
  256
370
   -1
100
AcDbLine
 10
111.4347720001545
 20
48.41421039067302
 11
111.75260924535
 21
47.99999682830014
  0
LINE
  5
C7
100
AcDbEntity
  8
0
  6
ByLayer
 62
  256
370
   -1
100
AcDbLine
 10
111.0205584377813
 20
48.73204763586875
 11
111.4347720001545
 21
48.41421039067302
  0
LINE
  5
C8
100
AcDbEntity
  8
0
  6
ByLayer
 62
  256
370
   -1
100
AcDbLine
 10
110.5381965279862
 20
48.93184848087787
 11
111.0205584377813
 21
48.73204763586875
  0
LINE
  5
C9
100
AcDbEntity
  8
0
  6
ByLayer
 62
  256
370
   -1
100
AcDbLine
 10
110.0205584377809
 20
48.99999682829991
 11
110.5381965279862
 21
48.93184848087787
  0
LINE
  5
CA
100
AcDbEntity
  8
0
  6
ByLayer
 62
  256
370
   -1
100
AcDbLine
 10
109.502920347576
 20
48.93184848087787
 11
110.0205584377809
 21
48.99999682829991
  0
LINE
  5
CB
100
AcDbEntity
  8
0
  6
ByLayer
 62
  256
370
   -1
100
AcDbLine
 10
109.0205584377811
 20
48.73204763586875
 11
109.502920347576
 21
48.93184848087787
  0
LINE
  5
CC
100
AcDbEntity
  8
0
  6
ByLayer
 62
  256
370
   -1
100
AcDbLine
 10
108.606344875408
 20
48.41421039067325
 11
109.0205584377811
 21
48.73204763586875
  0
LINE
  5
CD
100
AcDbEntity
  8
0
  6
ByLayer
 62
  256
370
   -1
100
AcDbLine
 10
108.2885076302121
 20
47.99999682830003
 11
108.606344875408
 21
48.41421039067325
  0
LINE
  5
CE
100
AcDbEntity
  8
0
  6
ByLayer
 62
  256
370
   -1
100
AcDbLine
 10
108.0887067852029
 20
47.51763491850511
 11
108.2885076302121
 21
47.99999682830003
  0
LINE
  5
CF
100
AcDbEntity
  8
0
  6
ByLayer
 62
  256
370
   -1
100
AcDbLine
 10
108.0205584377807
 20
46.99999682830025
 11
108.0887067852029
 21
47.51763491850511
  0
LINE
  5
D0
100
AcDbEntity
  8
0
  6
ByLayer
 62
  256
370
   -1
100
AcDbLine
 10
108.0887067852029
 20
46.48235873809472
 11
108.0205584377807
 21
46.99999682830025
  0
LINE
  5
D1
100
AcDbEntity
  8
0
  6
ByLayer
 62
  256
370
   -1
100
AcDbLine
 10
108.2885076302121
 20
45.99999682829969
 11
108.0887067852029
 21
46.48235873809472
  0
LINE
  5
D2
100
AcDbEntity
  8
0
  6
ByLayer
 62
  256
370
   -1
100
AcDbLine
 10
108.606344875408
 20
45.58578326592703
 11
108.2885076302121
 21
45.99999682829969
  0
LINE
  5
D3
100
AcDbEntity
  8
0
  6
ByLayer
 62
  256
370
   -1
100
AcDbLine
 10
109.0205584377811
 20
45.26794602073119
 11
108.606344875408
 21
45.58578326592703
  0
LINE
  5
D4
100
AcDbEntity
  8
0
  6
ByLayer
 62
  256
370
   -1
100
AcDbLine
 10
109.5029203475758
 20
45.06814517572172
 11
109.0205584377811
 21
45.26794602073119
  0
LINE
  5
D5
100
AcDbEntity
  8
0
  6
ByLayer
 62
  256
370
   -1
100
AcDbLine
 10
110.0205584377809
 20
44.99999682830014
 11
109.5029203475758
 21
45.06814517572172
  0
LINE
  5
D6
100
AcDbEntity
  8
0
  6
ByLayer
 62
  256
370
   -1
100
AcDbLine
 10
110.538196527986
 20
45.06814517572172
 11
110.0205584377809
 21
44.99999682830014
  0
LINE
  5
D7
100
AcDbEntity
  8
0
  6
ByLayer
 62
  256
370
   -1
100
AcDbLine
 10
4.500000506530114
 20
24.00000074243917
 11
3.000000506529886
 21
24.00000074243701
  0
LINE
  5
D8
100
AcDbEntity
  8
0
  6
ByLayer
 62
  256
370
   -1
100
AcDbLine
 10
3.000000506529886
 20
24.00000074243701
 11
1.500000506530114
 21
24.00000074243917
  0
LINE
  5
D9
100
AcDbEntity
  8
0
  6
ByLayer
 62
  256
370
   -1
100
AcDbLine
 10
4.500000506530114
 20
21.00000074243906
 11
4.500000506531933
 21
22.50000074243906
  0
LINE
  5
DA
100
AcDbEntity
  8
0
  6
ByLayer
 62
  256
370
   -1
100
AcDbLine
 10
4.500000506531933
 20
22.50000074243906
 11
4.500000506530114
 21
24.00000074243917
  0
LINE
  5
DB
100
AcDbEntity
  8
0
  6
ByLayer
 62
  256
370
   -1
100
AcDbLine
 10
7.500000506530341
 20
24.00000074243917
 11
6.000000506529432
 21
24.0000007424411
  0
LINE
  5
DC
100
AcDbEntity
  8
0
  6
ByLayer
 62
  256
370
   -1
100
AcDbLine
 10
6.000000506529432
 20
24.0000007424411
 11
4.500000506530114
 21
24.00000074243917
  0
LINE
  5
DD
100
AcDbEntity
  8
0
  6
ByLayer
 62
  256
370
   -1
100
AcDbLine
 10
4.500000506530114
 20
24.00000074243917
 11
4.500000506528067
 21
25.50000074243894
  0
LINE
  5
DE
100
AcDbEntity
  8
0
  6
ByLayer
 62
  256
370
   -1
100
AcDbLine
 10
4.500000506528067
 20
25.50000074243894
 11
4.500000506530114
 21
27.00000074243917
  0
LINE
  5
DF
100
AcDbEntity
  8
0
  6
ByLayer
 62
  256
370
   -1
100
AcDbLine
 10
4.50000050646895
 20
82.50000305976653
 11
4.500000506466222
 21
84.00000305976653
  0
LINE
  5
E0
100
AcDbEntity
  8
0
  6
ByLayer
 62
  256
370
   -1
100
AcDbLine
 10
4.50000050646895
 20
82.50000305976653
 11
4.111771938814854
 21
82.55111432033254
  0
LINE
  5
E1
100
AcDbEntity
  8
0
  6
ByLayer
 62
  256
370
   -1
100
AcDbLine
 10
4.500000506466222
 20
84.00000305976653
 11
3.000000506466222
 21
84.00000305976425
  0
LINE
  5
E2
100
AcDbEntity
  8
0
  6
ByLayer
 62
  256
370
   -1
100
AcDbLine
 10
4.500000506466222
 20
81.00000305976653
 11
4.50000050646895
 21
82.50000305976653
  0
LINE
  5
E3
100
AcDbEntity
  8
0
  6
ByLayer
 62
  256
370
   -1
100
AcDbLine
 10
6.000000506466449
 20
84.00000305976869
 11
4.500000506466222
 21
84.00000305976653
  0
LINE
  5
E4
100
AcDbEntity
  8
0
  6
ByLayer
 62
  256
370
   -1
100
AcDbLine
 10
7.500000506466449
 20
84.00000305976653
 11
6.000000506466449
 21
84.00000305976869
  0
LINE
  5
E5
100
AcDbEntity
  8
0
  6
ByLayer
 62
  256
370
   -1
100
AcDbLine
 10
4.500000506464175
 20
85.50000305976675
 11
4.500000506466222
 21
87.00000305976664
  0
LINE
  5
E6
100
AcDbEntity
  8
0
  6
ByLayer
 62
  256
370
   -1
100
AcDbLine
 10
4.500000506466222
 20
84.00000305976653
 11
4.500000506464175
 21
85.50000305976675
  0
LINE
  5
E7
100
AcDbEntity
  8
0
  6
ByLayer
 62
  256
370
   -1
100
AcDbLine
 10
3.000000506466222
 20
84.00000305976425
 11
1.500000506466222
 21
84.00000305976653
  0
LINE
  5
E8
100
AcDbEntity
  8
0
  6
ByLayer
 62
  256
370
   -1
100
AcDbLine
 10
25.00000048782454
 20
2.999996862962348
 11
25.00000051097095
 21
4.499996862962007
  0
LINE
  5
E9
100
AcDbEntity
  8
0
  6
ByLayer
 62
  256
370
   -1
100
AcDbLine
 10
25.00000048782454
 20
2.999996862962348
 11
24.6117719209592
 21
3.051108129519093
  0
LINE
  5
EA
100
AcDbEntity
  8
0
  6
ByLayer
 62
  256
370
   -1
100
AcDbLine
 10
24.6117719209592
 20
3.051108129519093
 11
24.25000049092569
 21
3.200958768858186
  0
LINE
  5
EB
100
AcDbEntity
  8
0
  6
ByLayer
 62
  256
370
   -1
100
AcDbLine
 10
24.25000049092569
 20
3.200958768858186
 11
23.93934032282368
 21
3.439336707548819
  0
LINE
  5
EC
100
AcDbEntity
  8
0
  6
ByLayer
 62
  256
370
   -1
100
AcDbLine
 10
23.93934032282368
 20
3.439336707548819
 11
23.70096239372106
 21
3.749996883007043
  0
LINE
  5
ED
100
AcDbEntity
  8
0
  6
ByLayer
 62
  256
370
   -1
100
AcDbLine
 10
23.70096239372106
 20
3.749996883007043
 11
23.55111176554647
 21
4.111768317665451
  0
LINE
  5
EE
100
AcDbEntity
  8
0
  6
ByLayer
 62
  256
370
   -1
100
AcDbLine
 10
23.55111176554647
 20
4.111768317665451
 11
23.50000051097095
 21
4.499996886107738
  0
LINE
  5
EF
100
AcDbEntity
  8
0
  6
ByLayer
 62
  256
370
   -1
100
AcDbLine
 10
25.00000051097095
 20
4.499996862962007
 11
23.50000051097095
 21
4.499996886107738
  0
LINE
  5
F0
100
AcDbEntity
  8
0
  6
ByLayer
 62
  256
370
   -1
100
AcDbLine
 10
23.93934035555685
 20
5.560657051108819
 11
24.25000053101553
 21
5.799034980211559
  0
LINE
  5
F1
100
AcDbEntity
  8
0
  6
ByLayer
 62
  256
370
   -1
100
AcDbLine
 10
24.25000053101553
 20
5.799034980211559
 11
24.61177196567382
 21
5.94888560838649
  0
LINE
  5
F2
100
AcDbEntity
  8
0
  6
ByLayer
 62
  256
370
   -1
100
AcDbLine
 10
23.50000051097095
 20
4.499996886107738
 11
22.00000051097095
 21
4.499996862962007
  0
LINE
  5
F3
100
AcDbEntity
  8
0
  6
ByLayer
 62
  256
370
   -1
100
AcDbLine
 10
25.00000051097095
 20
1.499996862961893
 11
25.00000048782454
 21
2.999996862962348
  0
LINE
  5
F4
100
AcDbEntity
  8
0
  6
ByLayer
 62
  256
370
   -1
100
AcDbLine
 10
26.50000051097095
 20
4.49999683981639
 11
25.00000051097095
 21
4.499996862962007
  0
LINE
  5
F5
100
AcDbEntity
  8
0
  6
ByLayer
 62
  256
370
   -1
100
AcDbLine
 10
26.50000051097095
 20
4.49999683981639
 11
26.44888924441352
 21
4.111768272951394
  0
LINE
  5
F6
100
AcDbEntity
  8
0
  6
ByLayer
 62
  256
370
   -1
100
AcDbLine
 10
26.44888924441352
 20
4.111768272951394
 11
26.29903860507443
 21
3.749996842917199
  0
LINE
  5
F7
100
AcDbEntity
  8
0
  6
ByLayer
 62
  256
370
   -1
100
AcDbLine
 10
26.29903860507443
 20
3.749996842917199
 11
26.06066066638346
 21
3.439336674816104
  0
LINE
  5
F8
100
AcDbEntity
  8
0
  6
ByLayer
 62
  256
370
   -1
100
AcDbLine
 10
26.06066066638346
 20
3.439336674816104
 11
25.75000049092569
 21
3.200958745712455
  0
LINE
  5
F9
100
AcDbEntity
  8
0
  6
ByLayer
 62
  256
370
   -1
100
AcDbLine
 10
25.75000049092569
 20
3.200958745712455
 11
25.38822905626694
 21
3.051108117537638
  0
LINE
  5
FA
100
AcDbEntity
  8
0
  6
ByLayer
 62
  256
370
   -1
100
AcDbLine
 10
25.38822905626694
 20
3.051108117537638
 11
25.00000048782454
 21
2.999996862962348
  0
LINE
  5
FB
100
AcDbEntity
  8
0
  6
ByLayer
 62
  256
370
   -1
100
AcDbLine
 10
25.00000053411623
 20
5.999996862961666
 11
25.00000051097095
 21
7.499996862962007
  0
LINE
  5
FC
100
AcDbEntity
  8
0
  6
ByLayer
 62
  256
370
   -1
100
AcDbLine
 10
28.00000051097095
 20
4.499996862962007
 11
26.50000051097095
 21
4.49999683981639
  0
LINE
  5
FD
100
AcDbEntity
  8
0
  6
ByLayer
 62
  256
370
   -1
100
AcDbLine
 10
25.00000051097095
 20
4.499996862962007
 11
25.00000053411623
 21
5.999996862961666
  0
LINE
  5
FE
100
AcDbEntity
  8
0
  6
ByLayer
 62
  256
370
   -1
100
AcDbLine
 10
25.00000053411623
 20
5.999996862961666
 11
25.38822910098156
 21
5.948885596405034
  0
LINE
  5
FF
100
AcDbEntity
  8
0
  6
ByLayer
 62
  256
370
   -1
100
AcDbLine
 10
25.38822910098156
 20
5.948885596405034
 11
25.75000053101576
 21
5.799034957065828
  0
LINE
  5
100
100
AcDbEntity
  8
0
  6
ByLayer
 62
  256
370
   -1
100
AcDbLine
 10
25.75000053101576
 20
5.799034957065828
 11
26.06066069911685
 21
5.56065701837565
  0
LINE
  5
101
100
AcDbEntity
  8
0
  6
ByLayer
 62
  256
370
   -1
100
AcDbLine
 10
26.06066069911685
 20
5.56065701837565
 11
26.29903862821948
 21
5.249996842917426
  0
LINE
  5
102
100
AcDbEntity
  8
0
  6
ByLayer
 62
  256
370
   -1
100
AcDbLine
 10
26.29903862821948
 20
5.249996842917426
 11
26.44888925639475
 21
4.888225408258222
  0
LINE
  5
103
100
AcDbEntity
  8
0
  6
ByLayer
 62
  256
370
   -1
100
AcDbLine
 10
26.44888925639475
 20
4.888225408258222
 11
26.50000051097095
 21
4.49999683981639
  0
LINE
  5
104
100
AcDbEntity
  8
0
  6
ByLayer
 62
  256
370
   -1
100
AcDbLine
 10
24.61177196567382
 20
5.94888560838649
 11
25.00000053411623
 21
5.999996862961666
  0
LINE
  5
105
100
AcDbEntity
  8
0
  6
ByLayer
 62
  256
370
   -1
100
AcDbLine
 10
23.50000051097095
 20
4.499996886107738
 11
23.55111177752769
 21
4.888225452972733
  0
LINE
  5
106
100
AcDbEntity
  8
0
  6
ByLayer
 62
  256
370
   -1
100
AcDbLine
 10
23.55111177752769
 20
4.888225452972733
 11
23.70096241686633
 21
5.249996883006702
  0
LINE
  5
107
100
AcDbEntity
  8
0
  6
ByLayer
 62
  256
370
   -1
100
AcDbLine
 10
23.70096241686633
 20
5.249996883006702
 11
23.93934035555685
 21
5.560657051108819
  0
LINE
  5
108
100
AcDbEntity
  8
0
  6
ByLayer
 62
  256
370
   -1
100
AcDbLine
 10
110.0000004994586
 20
2.999995497633222
 11
110.0000005226048
 21
4.499995497633108
  0
LINE
  5
109
100
AcDbEntity
  8
0
  6
ByLayer
 62
  256
370
   -1
100
AcDbLine
 10
110.0000004994586
 20
2.999995497633222
 11
109.6117719325939
 21
3.051106764190195
  0
LINE
  5
10A
100
AcDbEntity
  8
0
  6
ByLayer
 62
  256
370
   -1
100
AcDbLine
 10
109.6117719325939
 20
3.051106764190195
 11
109.2500005025595
 21
3.200957403529287
  0
LINE
  5
10B
100
AcDbEntity
  8
0
  6
ByLayer
 62
  256
370
   -1
100
AcDbLine
 10
109.2500005025595
 20
3.200957403529287
 11
108.9393403344579
 21
3.43933534221992
  0
LINE
  5
10C
100
AcDbEntity
  8
0
  6
ByLayer
 62
  256
370
   -1
100
AcDbLine
 10
108.9393403344579
 20
3.43933534221992
 11
108.7009624053553
 21
3.74999551767803
  0
LINE
  5
10D
100
AcDbEntity
  8
0
  6
ByLayer
 62
  256
370
   -1
100
AcDbLine
 10
108.7009624053553
 20
3.74999551767803
 11
108.55111177718
 21
4.111766952336779
  0
LINE
  5
10E
100
AcDbEntity
  8
0
  6
ByLayer
 62
  256
370
   -1
100
AcDbLine
 10
108.55111177718
 20
4.111766952336779
 11
108.500000522605
 21
4.499995520779066
  0
LINE
  5
10F
100
AcDbEntity
  8
0
  6
ByLayer
 62
  256
370
   -1
100
AcDbLine
 10
110.0000005226048
 20
4.499995497633108
 11
108.500000522605
 21
4.499995520779066
  0
LINE
  5
110
100
AcDbEntity
  8
0
  6
ByLayer
 62
  256
370
   -1
100
AcDbLine
 10
108.5511117891613
 20
4.888224087643835
 11
108.7009624285006
 21
5.24999551767803
  0
LINE
  5
111
100
AcDbEntity
  8
0
  6
ByLayer
 62
  256
370
   -1
100
AcDbLine
 10
108.7009624285006
 20
5.24999551767803
 11
108.9393403671909
 21
5.560655685779921
  0
LINE
  5
112
100
AcDbEntity
  8
0
  6
ByLayer
 62
  256
370
   -1
100
AcDbLine
 10
108.9393403671909
 20
5.560655685779921
 11
109.2500005426498
 21
5.799033614882774
  0
LINE
  5
113
100
AcDbEntity
  8
0
  6
ByLayer
 62
  256
370
   -1
100
AcDbLine
 10
109.2500005426498
 20
5.799033614882774
 11
109.6117719773081
 21
5.94888424305725
  0
LINE
  5
114
100
AcDbEntity
  8
0
  6
ByLayer
 62
  256
370
   -1
100
AcDbLine
 10
108.500000522605
 20
4.499995520779066
 11
107.0000005226045
 21
4.499995497633108
  0
LINE
  5
115
100
AcDbEntity
  8
0
  6
ByLayer
 62
  256
370
   -1
100
AcDbLine
 10
110.0000005226048
 20
1.499995497633108
 11
110.0000004994586
 21
2.999995497633222
  0
LINE
  5
116
100
AcDbEntity
  8
0
  6
ByLayer
 62
  256
370
   -1
100
AcDbLine
 10
111.5000005226048
 20
4.499995474487946
 11
110.0000005226048
 21
4.499995497633108
  0
LINE
  5
117
100
AcDbEntity
  8
0
  6
ByLayer
 62
  256
370
   -1
100
AcDbLine
 10
111.5000005226048
 20
4.499995474487946
 11
111.4488892560476
 21
4.111766907622155
  0
LINE
  5
118
100
AcDbEntity
  8
0
  6
ByLayer
 62
  256
370
   -1
100
AcDbLine
 10
111.4488892560476
 20
4.111766907622155
 11
111.2990386167085
 21
3.749995477588868
  0
LINE
  5
119
100
AcDbEntity
  8
0
  6
ByLayer
 62
  256
370
   -1
100
AcDbLine
 10
111.2990386167085
 20
3.749995477588868
 11
111.0606606780173
 21
3.439335309487205
  0
LINE
  5
11A
100
AcDbEntity
  8
0
  6
ByLayer
 62
  256
370
   -1
100
AcDbLine
 10
111.0606606780173
 20
3.439335309487205
 11
110.7500005025599
 21
3.200957380383898
  0
LINE
  5
11B
100
AcDbEntity
  8
0
  6
ByLayer
 62
  256
370
   -1
100
AcDbLine
 10
110.7500005025599
 20
3.200957380383898
 11
110.3882290679014
 21
3.051106752209307
  0
LINE
  5
11C
100
AcDbEntity
  8
0
  6
ByLayer
 62
  256
370
   -1
100
AcDbLine
 10
110.3882290679014
 20
3.051106752209307
 11
110.0000004994586
 21
2.999995497633222
  0
LINE
  5
11D
100
AcDbEntity
  8
0
  6
ByLayer
 62
  256
370
   -1
100
AcDbLine
 10
111.4488892680292
 20
4.888224042929437
 11
111.5000005226048
 21
4.499995474487946
  0
LINE
  5
11E
100
AcDbEntity
  8
0
  6
ByLayer
 62
  256
370
   -1
100
AcDbLine
 10
110.00000054575
 20
5.999995497633108
 11
110.0000005226048
 21
7.499995497633108
  0
LINE
  5
11F
100
AcDbEntity
  8
0
  6
ByLayer
 62
  256
370
   -1
100
AcDbLine
 10
113.0000005226048
 20
4.499995497633108
 11
111.5000005226048
 21
4.499995474487946
  0
LINE
  5
120
100
AcDbEntity
  8
0
  6
ByLayer
 62
  256
370
   -1
100
AcDbLine
 10
110.0000005226048
 20
4.499995497633108
 11
110.00000054575
 21
5.999995497633108
  0
LINE
  5
121
100
AcDbEntity
  8
0
  6
ByLayer
 62
  256
370
   -1
100
AcDbLine
 10
110.00000054575
 20
5.999995497633108
 11
110.3882291126156
 21
5.948884231076249
  0
LINE
  5
122
100
AcDbEntity
  8
0
  6
ByLayer
 62
  256
370
   -1
100
AcDbLine
 10
110.3882291126156
 20
5.948884231076249
 11
110.7500005426491
 21
5.79903359173727
  0
LINE
  5
123
100
AcDbEntity
  8
0
  6
ByLayer
 62
  256
370
   -1
100
AcDbLine
 10
110.7500005426491
 20
5.79903359173727
 11
111.0606607107502
 21
5.560655653046865
  0
LINE
  5
124
100
AcDbEntity
  8
0
  6
ByLayer
 62
  256
370
   -1
100
AcDbLine
 10
111.0606607107502
 20
5.560655653046865
 11
111.299038639854
 21
5.2499954775883
  0
LINE
  5
125
100
AcDbEntity
  8
0
  6
ByLayer
 62
  256
370
   -1
100
AcDbLine
 10
111.299038639854
 20
5.2499954775883
 11
111.4488892680292
 21
4.888224042929437
  0
LINE
  5
126
100
AcDbEntity
  8
0
  6
ByLayer
 62
  256
370
   -1
100
AcDbLine
 10
109.6117719773081
 20
5.94888424305725
 11
110.00000054575
 21
5.999995497633108
  0
LINE
  5
127
100
AcDbEntity
  8
0
  6
ByLayer
 62
  256
370
   -1
100
AcDbLine
 10
108.500000522605
 20
4.499995520779066
 11
108.5511117891613
 21
4.888224087643835
  0
LINE
  5
128
100
AcDbEntity
  8
0
  6
ByLayer
 62
  256
370
   -1
100
AcDbLine
 10
32.99998651390274
 20
32.83534164089303
 11
33.88386999038539
 21
33.71922511737762
  0
LINE
  5
129
100
AcDbEntity
  8
0
  6
ByLayer
 62
  256
370
   -1
100
AcDbLine
 10
33.88386999038539
 20
33.71922511737762
 11
35.12130685746206
 21
34.95666198445326
  0
LINE
  5
12A
100
AcDbEntity
  8
0
  6
ByLayer
 62
  256
370
   -1
100
AcDbLine
 10
30.87866617034274
 20
30.71402129733372
 11
32.11610303742009
 21
31.95145816441016
  0
LINE
  5
12B
100
AcDbEntity
  8
0
  6
ByLayer
 62
  256
370
   -1
100
AcDbLine
 10
32.11610303742009
 20
31.95145816441016
 11
32.99998651390274
 21
32.83534164089303
  0
LINE
  5
12C
100
AcDbEntity
  8
0
  6
ByLayer
 62
  256
370
   -1
100
AcDbLine
 10
30.87866617034251
 20
34.95666198445326
 11
32.11610303741872
 21
33.7192251173766
  0
LINE
  5
12D
100
AcDbEntity
  8
0
  6
ByLayer
 62
  256
370
   -1
100
AcDbLine
 10
32.11610303741872
 20
33.7192251173766
 11
32.99998651390274
 21
32.83534164089303
  0
LINE
  5
12E
100
AcDbEntity
  8
0
  6
ByLayer
 62
  256
370
   -1
100
AcDbLine
 10
32.99998651390274
 20
32.83534164089303
 11
33.88386999038676
 21
31.95145816441163
  0
LINE
  5
12F
100
AcDbEntity
  8
0
  6
ByLayer
 62
  256
370
   -1
100
AcDbLine
 10
33.88386999038676
 20
31.95145816441163
 11
35.12130685746229
 21
30.71402129733383
  0
LINE
  5
130
100
AcDbEntity
  8
0
  6
ByLayer
 62
  256
370
   -1
100
AcDbLine
 10
199.999999711599
 20
2.999994108887222
 11
199.999999734745
 21
4.499994108887108
  0
LINE
  5
131
100
AcDbEntity
  8
0
  6
ByLayer
 62
  256
370
   -1
100
AcDbLine
 10
199.999999711599
 20
2.999994108887222
 11
199.6117711447339
 21
3.051105375443967
  0
LINE
  5
132
100
AcDbEntity
  8
0
  6
ByLayer
 62
  256
370
   -1
100
AcDbLine
 10
199.6117711447339
 20
3.051105375443967
 11
199.2499997147002
 21
3.20095601478306
  0
LINE
  5
133
100
AcDbEntity
  8
0
  6
ByLayer
 62
  256
370
   -1
100
AcDbLine
 10
199.2499997147002
 20
3.20095601478306
 11
198.9393395465977
 21
3.439333953473692
  0
LINE
  5
134
100
AcDbEntity
  8
0
  6
ByLayer
 62
  256
370
   -1
100
AcDbLine
 10
198.9393395465977
 20
3.439333953473692
 11
198.7009616174953
 21
3.749994128931803
  0
LINE
  5
135
100
AcDbEntity
  8
0
  6
ByLayer
 62
  256
370
   -1
100
AcDbLine
 10
198.7009616174953
 20
3.749994128931803
 11
198.5511109893203
 21
4.111765563589984
  0
LINE
  5
136
100
AcDbEntity
  8
0
  6
ByLayer
 62
  256
370
   -1
100
AcDbLine
 10
198.5511109893203
 20
4.111765563589984
 11
198.4999997347452
 21
4.499994132032839
  0
LINE
  5
137
100
AcDbEntity
  8
0
  6
ByLayer
 62
  256
370
   -1
100
AcDbLine
 10
199.999999734745
 20
4.499994108887108
 11
198.4999997347452
 21
4.499994132032839
  0
LINE
  5
138
100
AcDbEntity
  8
0
  6
ByLayer
 62
  256
370
   -1
100
AcDbLine
 10
198.4999997347452
 20
4.499994132032839
 11
198.5511110013017
 21
4.888222698898176
  0
LINE
  5
139
100
AcDbEntity
  8
0
  6
ByLayer
 62
  256
370
   -1
100
AcDbLine
 10
198.5511110013017
 20
4.888222698898176
 11
198.7009616406406
 21
5.24999412893203
  0
LINE
  5
13A
100
AcDbEntity
  8
0
  6
ByLayer
 62
  256
370
   -1
100
AcDbLine
 10
198.7009616406406
 20
5.24999412893203
 11
198.9393395793315
 21
5.560654297033125
  0
LINE
  5
13B
100
AcDbEntity
  8
0
  6
ByLayer
 62
  256
370
   -1
100
AcDbLine
 10
198.9393395793315
 20
5.560654297033125
 11
199.2499997547893
 21
5.799032226136546
  0
LINE
  5
13C
100
AcDbEntity
  8
0
  6
ByLayer
 62
  256
370
   -1
100
AcDbLine
 10
199.2499997547893
 20
5.799032226136546
 11
199.6117711894483
 21
5.948882854311478
  0
LINE
  5
13D
100
AcDbEntity
  8
0
  6
ByLayer
 62
  256
370
   -1
100
AcDbLine
 10
198.4999997347452
 20
4.499994132032839
 11
196.999999734745
 21
4.499994108887108
  0
LINE
  5
13E
100
AcDbEntity
  8
0
  6
ByLayer
 62
  256
370
   -1
100
AcDbLine
 10
199.999999734745
 20
4.499994108887108
 11
199.9999997578905
 21
5.999994108887449
  0
LINE
  5
13F
100
AcDbEntity
  8
0
  6
ByLayer
 62
  256
370
   -1
100
AcDbLine
 10
199.6117711894483
 20
5.948882854311478
 11
199.9999997578905
 21
5.999994108887449
  0
LINE
  5
140
100
AcDbEntity
  8
0
  6
ByLayer
 62
  256
370
   -1
100
AcDbLine
 10
199.999999734745
 20
7.499994108887108
 11
199.9999997578905
 21
5.999994108887449
  0
LINE
  5
141
100
AcDbEntity
  8
0
  6
ByLayer
 62
  256
370
   -1
100
AcDbLine
 10
110.0205584377809
 20
46.9999968282998
 11
110.0205584377809
 21
44.99999682830014
  0
LINE
  5
142
100
AcDbEntity
  8
0
  6
ByLayer
 62
  256
370
   -1
100
AcDbLine
 10
110.0205584377809
 20
44.99999682830014
 11
110.0205584377809
 21
42.9999968282998
  0
LINE
  5
143
100
AcDbEntity
  8
0
  6
ByLayer
 62
  256
370
   -1
100
AcDbLine
 10
110.0205584377809
 20
50.9999968282998
 11
110.0205584377809
 21
48.99999682829991
  0
LINE
  5
144
100
AcDbEntity
  8
0
  6
ByLayer
 62
  256
370
   -1
100
AcDbLine
 10
110.0205584377809
 20
48.99999682829991
 11
110.0205584377809
 21
46.9999968282998
  0
LINE
  5
145
100
AcDbEntity
  8
0
  6
ByLayer
 62
  256
370
   -1
100
AcDbLine
 10
106.0205584377811
 20
46.9999968282998
 11
108.0205584377807
 21
46.99999682830025
  0
LINE
  5
146
100
AcDbEntity
  8
0
  6
ByLayer
 62
  256
370
   -1
100
AcDbLine
 10
108.0205584377807
 20
46.99999682830025
 11
110.0205584377809
 21
46.9999968282998
  0
LINE
  5
147
100
AcDbEntity
  8
0
  6
ByLayer
 62
  256
370
   -1
100
AcDbLine
 10
110.0205584377809
 20
46.9999968282998
 11
112.0205584377809
 21
46.9999968282998
  0
LINE
  5
148
100
AcDbEntity
  8
0
  6
ByLayer
 62
  256
370
   -1
100
AcDbLine
 10
112.0205584377809
 20
46.9999968282998
 11
114.0205584377809
 21
46.9999968282998
  0
LINE
  5
149
100
AcDbEntity
  8
0
  6
ByLayer
 62
  256
370
   -1
100
AcDbLine
 10
155.0266017329652
 20
46.99999679380687
 11
153.0266017329652
 21
46.9999967938071
  0
LINE
  5
14A
100
AcDbEntity
  8
0
  6
ByLayer
 62
  256
370
   -1
100
AcDbLine
 10
153.0266017329652
 20
46.9999967938071
 11
151.0266017329652
 21
46.99999679380687
  0
LINE
  5
14B
100
AcDbEntity
  8
0
  6
ByLayer
 62
  256
370
   -1
100
AcDbLine
 10
159.0266017329652
 20
46.99999679380687
 11
157.0266017329657
 21
46.99999679380676
  0
LINE
  5
14C
100
AcDbEntity
  8
0
  6
ByLayer
 62
  256
370
   -1
100
AcDbLine
 10
157.0266017329657
 20
46.99999679380676
 11
155.0266017329652
 21
46.99999679380687
  0
LINE
  5
14D
100
AcDbEntity
  8
0
  6
ByLayer
 62
  256
370
   -1
100
AcDbLine
 10
155.0266017329652
 20
50.99999679380687
 11
155.0266017329652
 21
48.99999679380721
  0
LINE
  5
14E
100
AcDbEntity
  8
0
  6
ByLayer
 62
  256
370
   -1
100
AcDbLine
 10
155.0266017329652
 20
48.99999679380721
 11
155.0266017329652
 21
46.99999679380687
  0
LINE
  5
14F
100
AcDbEntity
  8
0
  6
ByLayer
 62
  256
370
   -1
100
AcDbLine
 10
155.0266017329652
 20
46.99999679380687
 11
155.0266017329652
 21
44.99999679380687
  0
LINE
  5
150
100
AcDbEntity
  8
0
  6
ByLayer
 62
  256
370
   -1
100
AcDbLine
 10
155.0266017329652
 20
44.99999679380687
 11
155.0266017329652
 21
42.99999679380687
  0
LINE
  5
151
100
AcDbEntity
  8
0
  6
ByLayer
 62
  256
370
   -1
100
AcDbLine
 10
7.500000506466449
 20
84.00000305976653
 11
7.397777985333505
 21
84.77646019507415
  0
LINE
  5
152
100
AcDbEntity
  8
0
  6
ByLayer
 62
  256
370
   -1
100
AcDbLine
 10
7.397777985333505
 20
84.77646019507415
 11
7.098076717819595
 21
85.50000305976653
  0
LINE
  5
153
100
AcDbEntity
  8
0
  6
ByLayer
 62
  256
370
   -1
100
AcDbLine
 10
7.098076717819595
 20
85.50000305976653
 11
6.621320850025995
 21
86.12132340332619
  0
LINE
  5
154
100
AcDbEntity
  8
0
  6
ByLayer
 62
  256
370
   -1
100
AcDbLine
 10
6.621320850025995
 20
86.12132340332619
 11
6.000000506466449
 21
86.5980792711199
  0
LINE
  5
155
100
AcDbEntity
  8
0
  6
ByLayer
 62
  256
370
   -1
100
AcDbLine
 10
6.000000506466449
 20
86.5980792711199
 11
5.276457641773959
 21
86.8977805386337
  0
LINE
  5
156
100
AcDbEntity
  8
0
  6
ByLayer
 62
  256
370
   -1
100
AcDbLine
 10
5.276457641773959
 20
86.8977805386337
 11
4.500000506466222
 21
87.00000305976664
  0
LINE
  5
157
100
AcDbEntity
  8
0
  6
ByLayer
 62
  256
370
   -1
100
AcDbLine
 10
4.500000506466222
 20
87.00000305976664
 11
3.723543371158712
 21
86.8977805386337
  0
LINE
  5
158
100
AcDbEntity
  8
0
  6
ByLayer
 62
  256
370
   -1
100
AcDbLine
 10
3.723543371158712
 20
86.8977805386337
 11
3.000000506466222
 21
86.5980792711199
  0
LINE
  5
159
100
AcDbEntity
  8
0
  6
ByLayer
 62
  256
370
   -1
100
AcDbLine
 10
3.000000506466222
 20
86.5980792711199
 11
2.378680162906676
 21
86.12132340332619
  0
LINE
  5
15A
100
AcDbEntity
  8
0
  6
ByLayer
 62
  256
370
   -1
100
AcDbLine
 10
2.378680162906676
 20
86.12132340332619
 11
1.901924295113076
 21
85.50000305976653
  0
LINE
  5
15B
100
AcDbEntity
  8
0
  6
ByLayer
 62
  256
370
   -1
100
AcDbLine
 10
1.901924295113076
 20
85.50000305976653
 11
1.602223027599166
 21
84.77646019507415
  0
LINE
  5
15C
100
AcDbEntity
  8
0
  6
ByLayer
 62
  256
370
   -1
100
AcDbLine
 10
1.602223027599166
 20
84.77646019507415
 11
1.500000506466222
 21
84.00000305976653
  0
LINE
  5
15D
100
AcDbEntity
  8
0
  6
ByLayer
 62
  256
370
   -1
100
AcDbLine
 10
1.500000506466222
 20
84.00000305976653
 11
1.602223027599166
 21
83.2235459244589
  0
LINE
  5
15E
100
AcDbEntity
  8
0
  6
ByLayer
 62
  256
370
   -1
100
AcDbLine
 10
1.602223027599166
 20
83.2235459244589
 11
1.901924295113076
 21
82.50000305976653
  0
LINE
  5
15F
100
AcDbEntity
  8
0
  6
ByLayer
 62
  256
370
   -1
100
AcDbLine
 10
1.901924295113076
 20
82.50000305976653
 11
2.378680162906676
 21
81.87868271620698
  0
LINE
  5
160
100
AcDbEntity
  8
0
  6
ByLayer
 62
  256
370
   -1
100
AcDbLine
 10
2.378680162906676
 20
81.87868271620698
 11
3.000000506466222
 21
81.40192684841315
  0
LINE
  5
161
100
AcDbEntity
  8
0
  6
ByLayer
 62
  256
370
   -1
100
AcDbLine
 10
3.000000506466222
 20
81.40192684841315
 11
3.723543371158712
 21
81.10222558089936
  0
LINE
  5
162
100
AcDbEntity
  8
0
  6
ByLayer
 62
  256
370
   -1
100
AcDbLine
 10
3.723543371158712
 20
81.10222558089936
 11
4.500000506466222
 21
81.00000305976653
  0
LINE
  5
163
100
AcDbEntity
  8
0
  6
ByLayer
 62
  256
370
   -1
100
AcDbLine
 10
4.500000506466222
 20
81.00000305976653
 11
5.276457641773959
 21
81.10222558089936
  0
LINE
  5
164
100
AcDbEntity
  8
0
  6
ByLayer
 62
  256
370
   -1
100
AcDbLine
 10
5.276457641773959
 20
81.10222558089936
 11
6.000000506466449
 21
81.40192684841315
  0
LINE
  5
165
100
AcDbEntity
  8
0
  6
ByLayer
 62
  256
370
   -1
100
AcDbLine
 10
6.000000506466449
 20
81.40192684841315
 11
6.621320850025995
 21
81.87868271620698
  0
LINE
  5
166
100
AcDbEntity
  8
0
  6
ByLayer
 62
  256
370
   -1
100
AcDbLine
 10
6.621320850025995
 20
81.87868271620698
 11
7.098076717819595
 21
82.50000305976653
  0
LINE
  5
167
100
AcDbEntity
  8
0
  6
ByLayer
 62
  256
370
   -1
100
AcDbLine
 10
7.098076717819595
 20
82.50000305976653
 11
7.397777985333505
 21
83.2235459244589
  0
LINE
  5
168
100
AcDbEntity
  8
0
  6
ByLayer
 62
  256
370
   -1
100
AcDbLine
 10
7.397777985333505
 20
83.2235459244589
 11
7.500000506466449
 21
84.00000305976653
  0
LINE
  5
169
100
AcDbEntity
  8
0
  6
ByLayer
 62
  256
370
   -1
100
AcDbLine
 10
7.500000506530341
 20
24.00000074243917
 11
7.397777985397397
 21
24.77645787774668
  0
LINE
  5
16A
100
AcDbEntity
  8
0
  6
ByLayer
 62
  256
370
   -1
100
AcDbLine
 10
7.397777985397397
 20
24.77645787774668
 11
7.098076717883487
 21
25.50000074243917
  0
LINE
  5
16B
100
AcDbEntity
  8
0
  6
ByLayer
 62
  256
370
   -1
100
AcDbLine
 10
7.098076717883487
 20
25.50000074243917
 11
6.621320850089887
 21
26.12132108599872
  0
LINE
  5
16C
100
AcDbEntity
  8
0
  6
ByLayer
 62
  256
370
   -1
100
AcDbLine
 10
6.621320850089887
 20
26.12132108599872
 11
6.000000506530341
 21
26.59807695379243
  0
LINE
  5
16D
100
AcDbEntity
  8
0
  6
ByLayer
 62
  256
370
   -1
100
AcDbLine
 10
6.000000506530341
 20
26.59807695379243
 11
5.276457641837851
 21
26.89777822130634
  0
LINE
  5
16E
100
AcDbEntity
  8
0
  6
ByLayer
 62
  256
370
   -1
100
AcDbLine
 10
5.276457641837851
 20
26.89777822130634
 11
4.500000506530114
 21
27.00000074243917
  0
LINE
  5
16F
100
AcDbEntity
  8
0
  6
ByLayer
 62
  256
370
   -1
100
AcDbLine
 10
4.500000506530114
 20
27.00000074243917
 11
3.723543371222604
 21
26.89777822130634
  0
LINE
  5
170
100
AcDbEntity
  8
0
  6
ByLayer
 62
  256
370
   -1
100
AcDbLine
 10
3.723543371222604
 20
26.89777822130634
 11
3.000000506530114
 21
26.59807695379243
  0
LINE
  5
171
100
AcDbEntity
  8
0
  6
ByLayer
 62
  256
370
   -1
100
AcDbLine
 10
3.000000506530114
 20
26.59807695379243
 11
2.378680162970568
 21
26.12132108599872
  0
LINE
  5
172
100
AcDbEntity
  8
0
  6
ByLayer
 62
  256
370
   -1
100
AcDbLine
 10
2.378680162970568
 20
26.12132108599872
 11
1.901924295176968
 21
25.50000074243917
  0
LINE
  5
173
100
AcDbEntity
  8
0
  6
ByLayer
 62
  256
370
   -1
100
AcDbLine
 10
1.901924295176968
 20
25.50000074243917
 11
1.602223027663058
 21
24.77645787774668
  0
LINE
  5
174
100
AcDbEntity
  8
0
  6
ByLayer
 62
  256
370
   -1
100
AcDbLine
 10
1.602223027663058
 20
24.77645787774668
 11
1.500000506530114
 21
24.00000074243917
  0
LINE
  5
175
100
AcDbEntity
  8
0
  6
ByLayer
 62
  256
370
   -1
100
AcDbLine
 10
1.500000506530114
 20
24.00000074243917
 11
1.602223027663058
 21
23.22354360713155
  0
LINE
  5
176
100
AcDbEntity
  8
0
  6
ByLayer
 62
  256
370
   -1
100
AcDbLine
 10
1.602223027663058
 20
23.22354360713155
 11
1.901924295176968
 21
22.50000074243906
  0
LINE
  5
177
100
AcDbEntity
  8
0
  6
ByLayer
 62
  256
370
   -1
100
AcDbLine
 10
1.901924295176968
 20
22.50000074243906
 11
2.378680162970568
 21
21.87868039887951
  0
LINE
  5
178
100
AcDbEntity
  8
0
  6
ByLayer
 62
  256
370
   -1
100
AcDbLine
 10
2.378680162970568
 20
21.87868039887951
 11
3.000000506530114
 21
21.4019245310858
  0
LINE
  5
179
100
AcDbEntity
  8
0
  6
ByLayer
 62
  256
370
   -1
100
AcDbLine
 10
3.000000506530114
 20
21.4019245310858
 11
3.723543371222604
 21
21.10222326357189
  0
LINE
  5
17A
100
AcDbEntity
  8
0
  6
ByLayer
 62
  256
370
   -1
100
AcDbLine
 10
3.723543371222604
 20
21.10222326357189
 11
4.500000506530114
 21
21.00000074243906
  0
LINE
  5
17B
100
AcDbEntity
  8
0
  6
ByLayer
 62
  256
370
   -1
100
AcDbLine
 10
4.500000506530114
 20
21.00000074243906
 11
5.276457641837851
 21
21.10222326357189
  0
LINE
  5
17C
100
AcDbEntity
  8
0
  6
ByLayer
 62
  256
370
   -1
100
AcDbLine
 10
5.276457641837851
 20
21.10222326357189
 11
6.000000506530341
 21
21.4019245310858
  0
LINE
  5
17D
100
AcDbEntity
  8
0
  6
ByLayer
 62
  256
370
   -1
100
AcDbLine
 10
6.000000506530341
 20
21.4019245310858
 11
6.621320850089887
 21
21.87868039887951
  0
LINE
  5
17E
100
AcDbEntity
  8
0
  6
ByLayer
 62
  256
370
   -1
100
AcDbLine
 10
6.621320850089887
 20
21.87868039887951
 11
7.098076717883487
 21
22.50000074243906
  0
LINE
  5
17F
100
AcDbEntity
  8
0
  6
ByLayer
 62
  256
370
   -1
100
AcDbLine
 10
7.098076717883487
 20
22.50000074243906
 11
7.397777985397397
 21
23.22354360713155
  0
LINE
  5
180
100
AcDbEntity
  8
0
  6
ByLayer
 62
  256
370
   -1
100
AcDbLine
 10
7.397777985397397
 20
23.22354360713155
 11
7.500000506530341
 21
24.00000074243917
  0
LINE
  5
181
100
AcDbEntity
  8
0
  6
ByLayer
 62
  256
370
   -1
100
AcDbLine
 10
28.00000051097095
 20
4.499996862962007
 11
27.897777989838
 21
5.276453998269631
  0
LINE
  5
182
100
AcDbEntity
  8
0
  6
ByLayer
 62
  256
370
   -1
100
AcDbLine
 10
27.897777989838
 20
5.276453998269631
 11
27.59807672232432
 21
5.999996862962007
  0
LINE
  5
183
100
AcDbEntity
  8
0
  6
ByLayer
 62
  256
370
   -1
100
AcDbLine
 10
27.59807672232432
 20
5.999996862962007
 11
27.1213208545305
 21
6.621317206521553
  0
LINE
  5
184
100
AcDbEntity
  8
0
  6
ByLayer
 62
  256
370
   -1
100
AcDbLine
 10
27.1213208545305
 20
6.621317206521553
 11
26.50000051097095
 21
7.098073074315266
  0
LINE
  5
185
100
AcDbEntity
  8
0
  6
ByLayer
 62
  256
370
   -1
100
AcDbLine
 10
26.50000051097095
 20
7.098073074315266
 11
25.77645764627846
 21
7.397774341829177
  0
LINE
  5
186
100
AcDbEntity
  8
0
  6
ByLayer
 62
  256
370
   -1
100
AcDbLine
 10
25.77645764627846
 20
7.397774341829177
 11
25.00000051097095
 21
7.499996862962007
  0
LINE
  5
187
100
AcDbEntity
  8
0
  6
ByLayer
 62
  256
370
   -1
100
AcDbLine
 10
25.00000051097095
 20
7.499996862962007
 11
24.22354337566321
 21
7.397774341829177
  0
LINE
  5
188
100
AcDbEntity
  8
0
  6
ByLayer
 62
  256
370
   -1
100
AcDbLine
 10
24.22354337566321
 20
7.397774341829177
 11
23.50000051097095
 21
7.098073074315266
  0
LINE
  5
189
100
AcDbEntity
  8
0
  6
ByLayer
 62
  256
370
   -1
100
AcDbLine
 10
23.50000051097095
 20
7.098073074315266
 11
22.8786801674114
 21
6.621317206521553
  0
LINE
  5
18A
100
AcDbEntity
  8
0
  6
ByLayer
 62
  256
370
   -1
100
AcDbLine
 10
22.8786801674114
 20
6.621317206521553
 11
22.40192429961758
 21
5.999996862962007
  0
LINE
  5
18B
100
AcDbEntity
  8
0
  6
ByLayer
 62
  256
370
   -1
100
AcDbLine
 10
22.40192429961758
 20
5.999996862962007
 11
22.10222303210367
 21
5.276453998269631
  0
LINE
  5
18C
100
AcDbEntity
  8
0
  6
ByLayer
 62
  256
370
   -1
100
AcDbLine
 10
22.10222303210367
 20
5.276453998269631
 11
22.00000051097095
 21
4.499996862962007
  0
LINE
  5
18D
100
AcDbEntity
  8
0
  6
ByLayer
 62
  256
370
   -1
100
AcDbLine
 10
22.00000051097095
 20
4.499996862962007
 11
22.10222303210367
 21
3.723539727654384
  0
LINE
  5
18E
100
AcDbEntity
  8
0
  6
ByLayer
 62
  256
370
   -1
100
AcDbLine
 10
22.10222303210367
 20
3.723539727654384
 11
22.40192429961758
 21
2.999996862962007
  0
LINE
  5
18F
100
AcDbEntity
  8
0
  6
ByLayer
 62
  256
370
   -1
100
AcDbLine
 10
22.40192429961758
 20
2.999996862962007
 11
22.8786801674114
 21
2.378676519402347
  0
LINE
  5
190
100
AcDbEntity
  8
0
  6
ByLayer
 62
  256
370
   -1
100
AcDbLine
 10
22.8786801674114
 20
2.378676519402347
 11
23.50000051097095
 21
1.901920651608634
  0
LINE
  5
191
100
AcDbEntity
  8
0
  6
ByLayer
 62
  256
370
   -1
100
AcDbLine
 10
23.50000051097095
 20
1.901920651608634
 11
24.22354337566321
 21
1.602219384094724
  0
LINE
  5
192
100
AcDbEntity
  8
0
  6
ByLayer
 62
  256
370
   -1
100
AcDbLine
 10
24.22354337566321
 20
1.602219384094724
 11
25.00000051097095
 21
1.499996862961893
  0
LINE
  5
193
100
AcDbEntity
  8
0
  6
ByLayer
 62
  256
370
   -1
100
AcDbLine
 10
25.00000051097095
 20
1.499996862961893
 11
25.77645764627846
 21
1.602219384094724
  0
LINE
  5
194
100
AcDbEntity
  8
0
  6
ByLayer
 62
  256
370
   -1
100
AcDbLine
 10
25.77645764627846
 20
1.602219384094724
 11
26.50000051097095
 21
1.901920651608634
  0
LINE
  5
195
100
AcDbEntity
  8
0
  6
ByLayer
 62
  256
370
   -1
100
AcDbLine
 10
26.50000051097095
 20
1.901920651608634
 11
27.1213208545305
 21
2.378676519402347
  0
LINE
  5
196
100
AcDbEntity
  8
0
  6
ByLayer
 62
  256
370
   -1
100
AcDbLine
 10
27.1213208545305
 20
2.378676519402347
 11
27.59807672232432
 21
2.999996862962007
  0
LINE
  5
197
100
AcDbEntity
  8
0
  6
ByLayer
 62
  256
370
   -1
100
AcDbLine
 10
27.59807672232432
 20
2.999996862962007
 11
27.897777989838
 21
3.723539727654384
  0
LINE
  5
198
100
AcDbEntity
  8
0
  6
ByLayer
 62
  256
370
   -1
100
AcDbLine
 10
27.897777989838
 20
3.723539727654384
 11
28.00000051097095
 21
4.499996862962007
  0
LINE
  5
199
100
AcDbEntity
  8
0
  6
ByLayer
 62
  256
370
   -1
100
AcDbLine
 10
113.0000005226048
 20
4.499995497633108
 11
112.8977780014718
 21
5.276452632940732
  0
LINE
  5
19A
100
AcDbEntity
  8
0
  6
ByLayer
 62
  256
370
   -1
100
AcDbLine
 10
112.8977780014718
 20
5.276452632940732
 11
112.5980767339579
 21
5.999995497633108
  0
LINE
  5
19B
100
AcDbEntity
  8
0
  6
ByLayer
 62
  256
370
   -1
100
AcDbLine
 10
112.5980767339579
 20
5.999995497633108
 11
112.1213208661643
 21
6.621315841192654
  0
LINE
  5
19C
100
AcDbEntity
  8
0
  6
ByLayer
 62
  256
370
   -1
100
AcDbLine
 10
112.1213208661643
 20
6.621315841192654
 11
111.5000005226048
 21
7.098071708986481
  0
LINE
  5
19D
100
AcDbEntity
  8
0
  6
ByLayer
 62
  256
370
   -1
100
AcDbLine
 10
111.5000005226048
 20
7.098071708986481
 11
110.7764576579123
 21
7.397772976500278
  0
LINE
  5
19E
100
AcDbEntity
  8
0
  6
ByLayer
 62
  256
370
   -1
100
AcDbLine
 10
110.7764576579123
 20
7.397772976500278
 11
110.0000005226048
 21
7.499995497633108
  0
LINE
  5
19F
100
AcDbEntity
  8
0
  6
ByLayer
 62
  256
370
   -1
100
AcDbLine
 10
110.0000005226048
 20
7.499995497633108
 11
109.223543387297
 21
7.397772976500278
  0
LINE
  5
1A0
100
AcDbEntity
  8
0
  6
ByLayer
 62
  256
370
   -1
100
AcDbLine
 10
109.223543387297
 20
7.397772976500278
 11
108.5000005226048
 21
7.098071708986481
  0
LINE
  5
1A1
100
AcDbEntity
  8
0
  6
ByLayer
 62
  256
370
   -1
100
AcDbLine
 10
108.5000005226048
 20
7.098071708986481
 11
107.878680179045
 21
6.621315841192654
  0
LINE
  5
1A2
100
AcDbEntity
  8
0
  6
ByLayer
 62
  256
370
   -1
100
AcDbLine
 10
107.878680179045
 20
6.621315841192654
 11
107.4019243112514
 21
5.999995497633108
  0
LINE
  5
1A3
100
AcDbEntity
  8
0
  6
ByLayer
 62
  256
370
   -1
100
AcDbLine
 10
107.4019243112514
 20
5.999995497633108
 11
107.1022230437375
 21
5.276452632940732
  0
LINE
  5
1A4
100
AcDbEntity
  8
0
  6
ByLayer
 62
  256
370
   -1
100
AcDbLine
 10
107.1022230437375
 20
5.276452632940732
 11
107.0000005226045
 21
4.499995497633108
  0
LINE
  5
1A5
100
AcDbEntity
  8
0
  6
ByLayer
 62
  256
370
   -1
100
AcDbLine
 10
107.0000005226045
 20
4.499995497633108
 11
107.1022230437375
 21
3.723538362325485
  0
LINE
  5
1A6
100
AcDbEntity
  8
0
  6
ByLayer
 62
  256
370
   -1
100
AcDbLine
 10
107.1022230437375
 20
3.723538362325485
 11
107.4019243112514
 21
2.999995497633108
  0
LINE
  5
1A7
100
AcDbEntity
  8
0
  6
ByLayer
 62
  256
370
   -1
100
AcDbLine
 10
107.4019243112514
 20
2.999995497633108
 11
107.878680179045
 21
2.378675154073449
  0
LINE
  5
1A8
100
AcDbEntity
  8
0
  6
ByLayer
 62
  256
370
   -1
100
AcDbLine
 10
107.878680179045
 20
2.378675154073449
 11
108.5000005226048
 21
1.901919286279735
  0
LINE
  5
1A9
100
AcDbEntity
  8
0
  6
ByLayer
 62
  256
370
   -1
100
AcDbLine
 10
108.5000005226048
 20
1.901919286279735
 11
109.223543387297
 21
1.602218018765939
  0
LINE
  5
1AA
100
AcDbEntity
  8
0
  6
ByLayer
 62
  256
370
   -1
100
AcDbLine
 10
109.223543387297
 20
1.602218018765939
 11
110.0000005226048
 21
1.499995497633108
  0
LINE
  5
1AB
100
AcDbEntity
  8
0
  6
ByLayer
 62
  256
370
   -1
100
AcDbLine
 10
110.0000005226048
 20
1.499995497633108
 11
110.7764576579123
 21
1.602218018765939
  0
LINE
  5
1AC
100
AcDbEntity
  8
0
  6
ByLayer
 62
  256
370
   -1
100
AcDbLine
 10
110.7764576579123
 20
1.602218018765939
 11
111.5000005226048
 21
1.901919286279735
  0
LINE
  5
1AD
100
AcDbEntity
  8
0
  6
ByLayer
 62
  256
370
   -1
100
AcDbLine
 10
111.5000005226048
 20
1.901919286279735
 11
112.1213208661643
 21
2.378675154073449
  0
LINE
  5
1AE
100
AcDbEntity
  8
0
  6
ByLayer
 62
  256
370
   -1
100
AcDbLine
 10
112.1213208661643
 20
2.378675154073449
 11
112.5980767339579
 21
2.999995497633108
  0
LINE
  5
1AF
100
AcDbEntity
  8
0
  6
ByLayer
 62
  256
370
   -1
100
AcDbLine
 10
112.5980767339579
 20
2.999995497633108
 11
112.8977780014718
 21
3.723538362325485
  0
LINE
  5
1B0
100
AcDbEntity
  8
0
  6
ByLayer
 62
  256
370
   -1
100
AcDbLine
 10
112.8977780014718
 20
3.723538362325485
 11
113.0000005226048
 21
4.499995497633108
  0
LINE
  5
1B1
100
AcDbEntity
  8
0
  6
ByLayer
 62
  256
370
   -1
100
AcDbLine
 10
196.999999734745
 20
4.499994108887108
 11
197.1022222558777
 21
3.723536973579485
  0
LINE
  5
1B2
100
AcDbEntity
  8
0
  6
ByLayer
 62
  256
370
   -1
100
AcDbLine
 10
197.1022222558777
 20
3.723536973579485
 11
197.4019235233916
 21
2.999994108886995
  0
LINE
  5
1B3
100
AcDbEntity
  8
0
  6
ByLayer
 62
  256
370
   -1
100
AcDbLine
 10
197.4019235233916
 20
2.999994108886995
 11
197.8786793911854
 21
2.378673765327449
  0
LINE
  5
1B4
100
AcDbEntity
  8
0
  6
ByLayer
 62
  256
370
   -1
100
AcDbLine
 10
197.8786793911854
 20
2.378673765327449
 11
198.499999734745
 21
1.901917897533735
  0
LINE
  5
1B5
100
AcDbEntity
  8
0
  6
ByLayer
 62
  256
370
   -1
100
AcDbLine
 10
198.499999734745
 20
1.901917897533735
 11
199.2235425994372
 21
1.602216630019825
  0
LINE
  5
1B6
100
AcDbEntity
  8
0
  6
ByLayer
 62
  256
370
   -1
100
AcDbLine
 10
199.2235425994372
 20
1.602216630019825
 11
199.999999734745
 21
1.499994108886995
  0
LINE
  5
1B7
100
AcDbEntity
  8
0
  6
ByLayer
 62
  256
370
   -1
100
AcDbLine
 10
199.999999734745
 20
7.499994108887108
 11
199.2235425994372
 21
7.397771587754278
  0
LINE
  5
1B8
100
AcDbEntity
  8
0
  6
ByLayer
 62
  256
370
   -1
100
AcDbLine
 10
199.2235425994372
 20
7.397771587754278
 11
198.499999734745
 21
7.098070320240367
  0
LINE
  5
1B9
100
AcDbEntity
  8
0
  6
ByLayer
 62
  256
370
   -1
100
AcDbLine
 10
198.499999734745
 20
7.098070320240367
 11
197.8786793911854
 21
6.621314452446654
  0
LINE
  5
1BA
100
AcDbEntity
  8
0
  6
ByLayer
 62
  256
370
   -1
100
AcDbLine
 10
197.8786793911854
 20
6.621314452446654
 11
197.4019235233916
 21
5.999994108887108
  0
LINE
  5
1BB
100
AcDbEntity
  8
0
  6
ByLayer
 62
  256
370
   -1
100
AcDbLine
 10
197.4019235233916
 20
5.999994108887108
 11
197.1022222558777
 21
5.276451244194618
  0
LINE
  5
1BC
100
AcDbEntity
  8
0
  6
ByLayer
 62
  256
370
   -1
100
AcDbLine
 10
197.1022222558777
 20
5.276451244194618
 11
196.999999734745
 21
4.499994108887108
  0
LINE
  5
1BD
100
AcDbEntity
  8
0
  6
ByLayer
 62
  256
370
   -1
100
AcDbLine
 10
310.0839117559133
 20
58.54329603125053
 11
310.2463418855414
 21
58.85295699940878
  0
LINE
  5
1BE
100
AcDbEntity
  8
0
  6
ByLayer
 62
  256
370
   -1
100
AcDbLine
 10
310.2463418855414
 20
58.85295699940878
 11
310.3687813558352
 21
59.17368913161681
  0
LINE
  5
1BF
100
AcDbEntity
  8
0
  6
ByLayer
 62
  256
370
   -1
100
AcDbLine
 10
309.8842701915019
 20
58.25000461216166
 11
310.0839117559133
 21
58.54329603125053
  0
LINE
  5
1C0
100
AcDbEntity
  8
0
  6
ByLayer
 62
  256
370
   -1
100
AcDbLine
 10
309.3875946989879
 20
57.73223765918999
 11
309.6508331148257
 21
57.97810103963752
  0
LINE
  5
1C1
100
AcDbEntity
  8
0
  6
ByLayer
 62
  256
370
   -1
100
AcDbLine
 10
309.0990590262659
 20
57.51662126142539
 11
309.3875946989879
 21
57.73223765918999
  0
LINE
  5
1C2
100
AcDbEntity
  8
0
  6
ByLayer
 62
  256
370
   -1
100
AcDbLine
 10
308.7901630220181
 20
57.33494110268907
 11
309.0990590262659
 21
57.51662126142539
  0
LINE
  5
1C3
100
AcDbEntity
  8
0
  6
ByLayer
 62
  256
370
   -1
100
AcDbLine
 10
308.4661919825194
 20
57.19030578086902
 11
308.7901630220181
 21
57.33494110268907
  0
LINE
  5
1C4
100
AcDbEntity
  8
0
  6
ByLayer
 62
  256
370
   -1
100
AcDbLine
 10
394.0511141108873
 20
84.38823162742256
 11
394.0000028503201
 21
84.00000305976866
  0
LINE
  5
1C5
100
AcDbEntity
  8
0
  6
ByLayer
 62
  256
370
   -1
100
AcDbLine
 10
308.1326891420766
 20
57.08519004642129
 11
308.4661919825194
 21
57.19030578086902
  0
LINE
  5
1C6
100
AcDbEntity
  8
0
  6
ByLayer
 62
  256
370
   -1
100
AcDbLine
 10
307.7953608267554
 20
57.02139245870559
 11
308.1326891420766
 21
57.08519004642129
  0
LINE
  5
1C7
100
AcDbEntity
  8
0
  6
ByLayer
 62
  256
370
   -1
100
AcDbLine
 10
310.3687813558352
 20
59.17368913161681
 11
310.4491351935097
 21
59.50000461216735
  0
LINE
  5
1C8
100
AcDbEntity
  8
0
  6
ByLayer
 62
  256
370
   -1
100
AcDbLine
 10
394.7500028503185
 20
82.70096495409109
 11
395.1117742826637
 21
82.55111432033337
  0
LINE
  5
1C9
100
AcDbEntity
  8
0
  6
ByLayer
 62
  256
370
   -1
100
AcDbLine
 10
394.4393426785389
 20
82.93934288798857
 11
394.7500028503185
 21
82.70096495409109
  0
LINE
  5
1CA
100
AcDbEntity
  8
0
  6
ByLayer
 62
  256
370
   -1
100
AcDbLine
 10
394.2009647446417
 20
83.25000305976866
 11
394.4393426785389
 21
82.93934288798857
  0
LINE
  5
1CB
100
AcDbEntity
  8
0
  6
ByLayer
 62
  256
370
   -1
100
AcDbLine
 10
394.0000028503201
 20
84.00000305976866
 11
394.0511141108853
 21
83.61177449211482
  0
LINE
  5
1CC
100
AcDbEntity
  8
0
  6
ByLayer
 62
  256
370
   -1
100
AcDbLine
 10
396.2500028503185
 20
82.7009649540887
 11
396.5606630220985
 21
82.93934288798528
  0
LINE
  5
1CD
100
AcDbEntity
  8
0
  6
ByLayer
 62
  256
370
   -1
100
AcDbLine
 10
394.2009647446444
 20
84.75000305976866
 11
394.0511141108873
 21
84.38823162742256
  0
LINE
  5
1CE
100
AcDbEntity
  8
0
  6
ByLayer
 62
  256
370
   -1
100
AcDbLine
 10
394.4393426785421
 20
85.06066323154835
 11
394.2009647446444
 21
84.75000305976866
  0
LINE
  5
1CF
100
AcDbEntity
  8
0
  6
ByLayer
 62
  256
370
   -1
100
AcDbLine
 10
394.7500028503219
 20
85.29904116544458
 11
394.4393426785421
 21
85.06066323154835
  0
LINE
  5
1D0
100
AcDbEntity
  8
0
  6
ByLayer
 62
  256
370
   -1
100
AcDbLine
 10
395.111774282668
 20
85.44889179920074
 11
394.7500028503219
 21
85.29904116544458
  0
LINE
  5
1D1
100
AcDbEntity
  8
0
  6
ByLayer
 62
  256
370
   -1
100
AcDbLine
 10
395.5000028503223
 20
85.50000305976673
 11
395.111774282668
 21
85.44889179920074
  0
LINE
  5
1D2
100
AcDbEntity
  8
0
  6
ByLayer
 62
  256
370
   -1
100
AcDbLine
 10
395.888231417976
 20
85.44889179919983
 11
395.5000028503223
 21
85.50000305976673
  0
LINE
  5
1D3
100
AcDbEntity
  8
0
  6
ByLayer
 62
  256
370
   -1
100
AcDbLine
 10
396.9488915897526
 20
83.61177449211084
 11
397.0000028503203
 21
84.00000305976425
  0
LINE
  5
1D4
100
AcDbEntity
  8
0
  6
ByLayer
 62
  256
370
   -1
100
AcDbLine
 10
396.7990409559953
 20
83.25000305976474
 11
396.9488915897526
 21
83.61177449211084
  0
LINE
  5
1D5
100
AcDbEntity
  8
0
  6
ByLayer
 62
  256
370
   -1
100
AcDbLine
 10
396.5606630220985
 20
82.93934288798528
 11
396.7990409559953
 21
83.25000305976474
  0
LINE
  5
1D6
100
AcDbEntity
  8
0
  6
ByLayer
 62
  256
370
   -1
100
AcDbLine
 10
396.9488915896896
 20
23.61177217478324
 11
397.0000028502566
 21
24.00000074243701
  0
LINE
  5
1D7
100
AcDbEntity
  8
0
  6
ByLayer
 62
  256
370
   -1
100
AcDbLine
 10
395.8882314179717
 20
82.55111432033254
 11
396.2500028503185
 21
82.7009649540887
  0
LINE
  5
1D8
100
AcDbEntity
  8
0
  6
ByLayer
 62
  256
370
   -1
100
AcDbLine
 10
395.1117742826637
 20
82.55111432033337
 11
395.5000028503176
 21
82.50000305976656
  0
LINE
  5
1D9
100
AcDbEntity
  8
0
  6
ByLayer
 62
  256
370
   -1
100
AcDbLine
 10
200.0000024780899
 20
57.00000461103252
 11
307.4599788175536
 21
57.00000461213653
  0
LINE
  5
1DA
100
AcDbEntity
  8
0
  6
ByLayer
 62
  256
370
   -1
100
AcDbLine
 10
394.0511141108853
 20
83.61177449211482
 11
394.2009647446417
 21
83.25000305976866
  0
LINE
  5
1DB
100
AcDbEntity
  8
0
  6
ByLayer
 62
  256
370
   -1
100
AcDbLine
 10
394.439342678478
 20
25.06066091421997
 11
394.2009647445805
 21
24.75000074244052
  0
LINE
  5
1DC
100
AcDbEntity
  8
0
  6
ByLayer
 62
  256
370
   -1
100
AcDbLine
 10
394.7500028502589
 20
25.29903884811642
 11
394.439342678478
 21
25.06066091421997
  0
LINE
  5
1DD
100
AcDbEntity
  8
0
  6
ByLayer
 62
  256
370
   -1
100
AcDbLine
 10
395.1117742826046
 20
25.44888948187349
 11
394.7500028502589
 21
25.29903884811642
  0
LINE
  5
1DE
100
AcDbEntity
  8
0
  6
ByLayer
 62
  256
370
   -1
100
AcDbLine
 10
395.5000028502585
 20
25.50000074243894
 11
395.1117742826046
 21
25.44888948187349
  0
LINE
  5
1DF
100
AcDbEntity
  8
0
  6
ByLayer
 62
  256
370
   -1
100
AcDbLine
 10
395.8882314179123
 20
25.44888948187213
 11
395.5000028502585
 21
25.50000074243894
  0
LINE
  5
1E0
100
AcDbEntity
  8
0
  6
ByLayer
 62
  256
370
   -1
100
AcDbLine
 10
396.2500028502589
 20
25.29903884811461
 11
395.8882314179123
 21
25.44888948187213
  0
LINE
  5
1E1
100
AcDbEntity
  8
0
  6
ByLayer
 62
  256
370
   -1
100
AcDbLine
 10
396.5606630220382
 20
25.0606609142169
 11
396.2500028502589
 21
25.29903884811461
  0
LINE
  5
1E2
100
AcDbEntity
  8
0
  6
ByLayer
 62
  256
370
   -1
100
AcDbLine
 10
396.7990409559339
 20
24.75000074243701
 11
396.5606630220382
 21
25.0606609142169
  0
LINE
  5
1E3
100
AcDbEntity
  8
0
  6
ByLayer
 62
  256
370
   -1
100
AcDbLine
 10
396.9488915896905
 20
24.38822931009031
 11
396.7990409559339
 21
24.75000074243701
  0
LINE
  5
1E4
100
AcDbEntity
  8
0
  6
ByLayer
 62
  256
370
   -1
100
AcDbLine
 10
397.0000028502566
 20
24.00000074243701
 11
396.9488915896905
 21
24.38822931009031
  0
LINE
  5
1E5
100
AcDbEntity
  8
0
  6
ByLayer
 62
  256
370
   -1
100
AcDbLine
 10
368.0825485976148
 20
33.46034164089372
 11
368.2074241257451
 21
33.15886544727141
  0
LINE
  5
1E6
100
AcDbEntity
  8
0
  6
ByLayer
 62
  256
370
   -1
100
AcDbLine
 10
368.2074241257451
 20
33.15886544727141
 11
368.2500168428842
 21
32.83534164089326
  0
LINE
  5
1E7
100
AcDbEntity
  8
0
  6
ByLayer
 62
  256
370
   -1
100
AcDbLine
 10
396.7990409559321
 20
23.25000074243691
 11
396.9488915896896
 21
23.61177217478324
  0
LINE
  5
1E8
100
AcDbEntity
  8
0
  6
ByLayer
 62
  256
370
   -1
100
AcDbLine
 10
396.560663022035
 20
22.93934057065712
 11
396.7990409559321
 21
23.25000074243691
  0
LINE
  5
1E9
100
AcDbEntity
  8
0
  6
ByLayer
 62
  256
370
   -1
100
AcDbLine
 10
396.2500028502555
 20
22.70096263676123
 11
396.560663022035
 21
22.93934057065712
  0
LINE
  5
1EA
100
AcDbEntity
  8
0
  6
ByLayer
 62
  256
370
   -1
100
AcDbLine
 10
395.8882314179085
 20
22.55111200300485
 11
396.2500028502555
 21
22.70096263676123
  0
LINE
  5
1EB
100
AcDbEntity
  8
0
  6
ByLayer
 62
  256
370
   -1
100
AcDbLine
 10
395.5000028502546
 20
22.50000074243906
 11
395.8882314179085
 21
22.55111200300485
  0
LINE
  5
1EC
100
AcDbEntity
  8
0
  6
ByLayer
 62
  256
370
   -1
100
AcDbLine
 10
395.1117742826007
 20
22.55111200300576
 11
395.5000028502546
 21
22.50000074243906
  0
LINE
  5
1ED
100
AcDbEntity
  8
0
  6
ByLayer
 62
  256
370
   -1
100
AcDbLine
 10
394.7500028502555
 20
22.70096263676305
 11
395.1117742826007
 21
22.55111200300576
  0
LINE
  5
1EE
100
AcDbEntity
  8
0
  6
ByLayer
 62
  256
370
   -1
100
AcDbLine
 10
394.4393426784755
 20
22.93934057066076
 11
394.7500028502555
 21
22.70096263676305
  0
LINE
  5
1EF
100
AcDbEntity
  8
0
  6
ByLayer
 62
  256
370
   -1
100
AcDbLine
 10
394.2009647445787
 20
23.25000074244088
 11
394.4393426784755
 21
22.93934057066076
  0
LINE
  5
1F0
100
AcDbEntity
  8
0
  6
ByLayer
 62
  256
370
   -1
100
AcDbLine
 10
394.0511141108223
 20
23.61177217478735
 11
394.2009647445787
 21
23.25000074244088
  0
LINE
  5
1F1
100
AcDbEntity
  8
0
  6
ByLayer
 62
  256
370
   -1
100
AcDbLine
 10
394.0000028502571
 20
24.0000007424411
 11
394.0511141108223
 21
23.61177217478735
  0
LINE
  5
1F2
100
AcDbEntity
  8
0
  6
ByLayer
 62
  256
370
   -1
100
AcDbLine
 10
394.0511141108234
 20
24.38822931009463
 11
394.0000028502571
 21
24.0000007424411
  0
LINE
  5
1F3
100
AcDbEntity
  8
0
  6
ByLayer
 62
  256
370
   -1
100
AcDbLine
 10
394.2009647445805
 20
24.75000074244052
 11
394.0511141108234
 21
24.38822931009463
  0
LINE
  5
1F4
100
AcDbEntity
  8
0
  6
ByLayer
 62
  256
370
   -1
100
AcDbLine
 10
317.5454320260529
 20
99.0000042165442
 11
400.0000028503483
 21
99.00000421842788
  0
LINE
  5
1F5
100
AcDbEntity
  8
0
  6
ByLayer
 62
  256
370
   -1
100
AcDbLine
 10
310.4491351935097
 20
59.50000461216735
 11
317.5454320260529
 21
99.0000042165442
  0
LINE
  5
1F6
100
AcDbEntity
  8
0
  6
ByLayer
 62
  256
370
   -1
100
AcDbLine
 10
309.6508331148257
 20
57.97810103963752
 11
309.8842701915019
 21
58.25000461216166
  0
LINE
  5
1F7
100
AcDbEntity
  8
0
  6
ByLayer
 62
  256
370
   -1
100
AcDbLine
 10
307.4599788175536
 20
57.00000461213653
 11
307.7953608267554
 21
57.02139245870559
  0
LINE
  5
1F8
100
AcDbEntity
  8
0
  6
ByLayer
 62
  256
370
   -1
100
AcDbLine
 10
400.0000033567865
 20
0
 11
400.0000028503483
 21
99.00000421842788
  0
LINE
  5
1F9
100
AcDbEntity
  8
0
  6
ByLayer
 62
  256
370
   -1
100
AcDbLine
 10
397.0000028503203
 20
84.00000305976425
 11
396.9488915897542
 21
84.38823162741824
  0
LINE
  5
1FA
100
AcDbEntity
  8
0
  6
ByLayer
 62
  256
370
   -1
100
AcDbLine
 10
396.9488915897542
 20
84.38823162741824
 11
396.7990409559978
 21
84.75000305976491
  0
LINE
  5
1FB
100
AcDbEntity
  8
0
  6
ByLayer
 62
  256
370
   -1
100
AcDbLine
 10
396.7990409559978
 20
84.75000305976491
 11
396.5606630221021
 21
85.06066323154494
  0
LINE
  5
1FC
100
AcDbEntity
  8
0
  6
ByLayer
 62
  256
370
   -1
100
AcDbLine
 10
396.5606630221021
 20
85.06066323154494
 11
396.2500028503221
 21
85.29904116544242
  0
LINE
  5
1FD
100
AcDbEntity
  8
0
  6
ByLayer
 62
  256
370
   -1
100
AcDbLine
 10
396.2500028503221
 20
85.29904116544242
 11
395.888231417976
 21
85.44889179919983
  0
LINE
  5
1FE
100
AcDbEntity
  8
0
  6
ByLayer
 62
  256
370
   -1
100
AcDbLine
 10
400.0000033567865
 20
0
 11
200.0000016783933
 21
-5.306930006554467e-07
  0
LINE
  5
1FF
100
AcDbEntity
  8
0
  6
ByLayer
 62
  256
370
   -1
100
AcDbLine
 10
367.8839003193678
 20
33.7192251173766
 11
368.0825485976148
 21
33.46034164089372
  0
LINE
  5
200
100
AcDbEntity
  8
0
  6
ByLayer
 62
  256
370
   -1
100
AcDbLine
 10
368.2500168428842
 20
32.83534164089326
 11
368.2074241257445
 21
32.51181783451534
  0
LINE
  5
201
100
AcDbEntity
  8
0
  6
ByLayer
 62
  256
370
   -1
100
AcDbLine
 10
368.2074241257445
 20
32.51181783451534
 11
368.0825485976137
 21
32.21034164089303
  0
LINE
  5
202
100
AcDbEntity
  8
0
  6
ByLayer
 62
  256
370
   -1
100
AcDbLine
 10
368.0825485976137
 20
32.21034164089303
 11
367.8839003193664
 21
31.95145816441016
  0
LINE
  5
203
100
AcDbEntity
  8
0
  6
ByLayer
 62
  256
370
   -1
100
AcDbLine
 10
367.8839003193664
 20
31.95145816441016
 11
367.6250168428833
 21
31.75280988616272
  0
LINE
  5
204
100
AcDbEntity
  8
0
  6
ByLayer
 62
  256
370
   -1
100
AcDbLine
 10
367.6250168428833
 20
31.75280988616272
 11
367.3235406492611
 21
31.62793435803236
  0
LINE
  5
205
100
AcDbEntity
  8
0
  6
ByLayer
 62
  256
370
   -1
100
AcDbLine
 10
367.3235406492611
 20
31.62793435803236
 11
367.0000168428826
 21
31.58534164089427
  0
LINE
  5
206
100
AcDbEntity
  8
0
  6
ByLayer
 62
  256
370
   -1
100
AcDbLine
 10
367.0000168428826
 20
31.58534164089427
 11
366.6764930365048
 21
31.62793435803314
  0
LINE
  5
207
100
AcDbEntity
  8
0
  6
ByLayer
 62
  256
370
   -1
100
AcDbLine
 10
366.6764930365048
 20
31.62793435803314
 11
366.3750168428831
 21
31.75280988616397
  0
LINE
  5
208
100
AcDbEntity
  8
0
  6
ByLayer
 62
  256
370
   -1
100
AcDbLine
 10
366.3750168428831
 20
31.75280988616397
 11
366.1161333663998
 21
31.95145816441162
  0
LINE
  5
209
100
AcDbEntity
  8
0
  6
ByLayer
 62
  256
370
   -1
100
AcDbLine
 10
366.1161333663998
 20
31.95145816441162
 11
365.9174850881532
 21
32.21034164089394
  0
LINE
  5
20A
100
AcDbEntity
  8
0
  6
ByLayer
 62
  256
370
   -1
100
AcDbLine
 10
365.9174850881532
 20
32.21034164089394
 11
365.792609560022
 21
32.51181783451727
  0
LINE
  5
20B
100
AcDbEntity
  8
0
  6
ByLayer
 62
  256
370
   -1
100
AcDbLine
 10
365.792609560022
 20
32.51181783451727
 11
365.7500168428833
 21
32.83534164089508
  0
LINE
  5
20C
100
AcDbEntity
  8
0
  6
ByLayer
 62
  256
370
   -1
100
AcDbLine
 10
365.7500168428833
 20
32.83534164089508
 11
365.7926095600226
 21
33.15886544727209
  0
LINE
  5
20D
100
AcDbEntity
  8
0
  6
ByLayer
 62
  256
370
   -1
100
AcDbLine
 10
365.7926095600226
 20
33.15886544727209
 11
365.9174850881539
 21
33.4603416408944
  0
LINE
  5
20E
100
AcDbEntity
  8
0
  6
ByLayer
 62
  256
370
   -1
100
AcDbLine
 10
365.9174850881539
 20
33.4603416408944
 11
366.1161333664011
 21
33.71922511737762
  0
LINE
  5
20F
100
AcDbEntity
  8
0
  6
ByLayer
 62
  256
370
   -1
100
AcDbLine
 10
366.1161333664011
 20
33.71922511737762
 11
366.3750168428842
 21
33.91787339562472
  0
LINE
  5
210
100
AcDbEntity
  8
0
  6
ByLayer
 62
  256
370
   -1
100
AcDbLine
 10
366.3750168428842
 20
33.91787339562472
 11
366.6764930365064
 21
34.04274892375554
  0
LINE
  5
211
100
AcDbEntity
  8
0
  6
ByLayer
 62
  256
370
   -1
100
AcDbLine
 10
366.6764930365064
 20
34.04274892375554
 11
367.0000168428845
 21
34.08534164089383
  0
LINE
  5
212
100
AcDbEntity
  8
0
  6
ByLayer
 62
  256
370
   -1
100
AcDbLine
 10
367.0000168428845
 20
34.08534164089383
 11
367.3235406492627
 21
34.04274892375545
  0
LINE
  5
213
100
AcDbEntity
  8
0
  6
ByLayer
 62
  256
370
   -1
100
AcDbLine
 10
367.3235406492627
 20
34.04274892375545
 11
367.625016842884
 21
33.91787339562461
  0
LINE
  5
214
100
AcDbEntity
  8
0
  6
ByLayer
 62
  256
370
   -1
100
AcDbLine
 10
367.625016842884
 20
33.91787339562461
 11
367.8839003193678
 21
33.7192251173766
  0
LINE
  5
215
100
AcDbEntity
  8
0
  6
ByLayer
 62
  256
370
   -1
100
AcDbLine
 10
243.0415499712433
 20
47.51763488401161
 11
242.9734016238208
 21
46.99999679380676
  0
LINE
  5
216
100
AcDbEntity
  8
0
  6
ByLayer
 62
  256
370
   -1
100
AcDbLine
 10
246.9734016238214
 20
46.99999679380709
 11
246.9052532763996
 21
47.51763488401184
  0
LINE
  5
217
100
AcDbEntity
  8
0
  6
ByLayer
 62
  256
370
   -1
100
AcDbLine
 10
244.4557635336161
 20
48.93184844638517
 11
243.9734016238216
 21
48.73204760137605
  0
LINE
  5
218
100
AcDbEntity
  8
0
  6
ByLayer
 62
  256
370
   -1
100
AcDbLine
 10
246.9052532763996
 20
46.48235870360168
 11
246.9734016238214
 21
46.99999679380709
  0
LINE
  5
219
100
AcDbEntity
  8
0
  6
ByLayer
 62
  256
370
   -1
100
AcDbLine
 10
243.9734016238216
 20
48.73204760137605
 11
243.5591880614477
 21
48.41421035617986
  0
LINE
  5
21A
100
AcDbEntity
  8
0
  6
ByLayer
 62
  256
370
   -1
100
AcDbLine
 10
200.0000036451876
 20
2.999994108887222
 11
200.0000036220416
 21
1.499994108886995
  0
LINE
  5
21B
100
AcDbEntity
  8
0
  6
ByLayer
 62
  256
370
   -1
100
AcDbLine
 10
245.4910397140262
 20
48.93184844638552
 11
244.9734016238214
 21
48.99999679380721
  0
LINE
  5
21C
100
AcDbEntity
  8
0
  6
ByLayer
 62
  256
370
   -1
100
AcDbLine
 10
246.3876151861943
 20
48.41421035618009
 11
245.9734016238212
 21
48.7320476013757
  0
LINE
  5
21D
100
AcDbEntity
  8
0
  6
ByLayer
 62
  256
370
   -1
100
AcDbLine
 10
246.387615186194
 20
45.58578323143388
 11
246.7054524313904
 21
45.99999679380709
  0
LINE
  5
21E
100
AcDbEntity
  8
0
  6
ByLayer
 62
  256
370
   -1
100
AcDbLine
 10
244.4557635336163
 20
45.0681451412288
 11
244.9734016238214
 21
44.99999679380689
  0
LINE
  5
21F
100
AcDbEntity
  8
0
  6
ByLayer
 62
  256
370
   -1
100
AcDbLine
 10
243.2413508162525
 20
47.99999679380709
 11
243.0415499712433
 21
47.51763488401161
  0
LINE
  5
220
100
AcDbEntity
  8
0
  6
ByLayer
 62
  256
370
   -1
100
AcDbLine
 10
243.2413508162525
 20
45.99999679380699
 11
243.559188061448
 21
45.58578323143411
  0
LINE
  5
221
100
AcDbEntity
  8
0
  6
ByLayer
 62
  256
370
   -1
100
AcDbLine
 10
243.5591880614477
 20
48.41421035617986
 11
243.2413508162525
 21
47.99999679380709
  0
LINE
  5
222
100
AcDbEntity
  8
0
  6
ByLayer
 62
  256
370
   -1
100
AcDbLine
 10
243.9734016238212
 20
45.26794598623815
 11
244.4557635336163
 21
45.0681451412288
  0
LINE
  5
223
100
AcDbEntity
  8
0
  6
ByLayer
 62
  256
370
   -1
100
AcDbLine
 10
246.9052532763996
 20
47.51763488401184
 11
246.7054524313904
 21
47.99999679380721
  0
LINE
  5
224
100
AcDbEntity
  8
0
  6
ByLayer
 62
  256
370
   -1
100
AcDbLine
 10
244.9734016238214
 20
44.99999679380689
 11
245.4910397140262
 21
45.0681451412287
  0
LINE
  5
225
100
AcDbEntity
  8
0
  6
ByLayer
 62
  256
370
   -1
100
AcDbLine
 10
243.041549971243
 20
46.48235870360178
 11
243.2413508162525
 21
45.99999679380699
  0
LINE
  5
226
100
AcDbEntity
  8
0
  6
ByLayer
 62
  256
370
   -1
100
AcDbLine
 10
245.9734016238212
 20
48.7320476013757
 11
245.4910397140262
 21
48.93184844638552
  0
LINE
  5
227
100
AcDbEntity
  8
0
  6
ByLayer
 62
  256
370
   -1
100
AcDbLine
 10
242.9734016238208
 20
46.99999679380676
 11
243.041549971243
 21
46.48235870360178
  0
LINE
  5
228
100
AcDbEntity
  8
0
  6
ByLayer
 62
  256
370
   -1
100
AcDbLine
 10
245.4910397140262
 20
45.0681451412287
 11
245.9734016238212
 21
45.26794598623815
  0
LINE
  5
229
100
AcDbEntity
  8
0
  6
ByLayer
 62
  256
370
   -1
100
AcDbLine
 10
245.9734016238212
 20
45.26794598623815
 11
246.387615186194
 21
45.58578323143388
  0
LINE
  5
22A
100
AcDbEntity
  8
0
  6
ByLayer
 62
  256
370
   -1
100
AcDbLine
 10
246.7054524313904
 20
45.99999679380709
 11
246.9052532763996
 21
46.48235870360168
  0
LINE
  5
22B
100
AcDbEntity
  8
0
  6
ByLayer
 62
  256
370
   -1
100
AcDbLine
 10
288.9794449190053
 20
45.26794602073119
 11
289.4618068288005
 21
45.06814517572172
  0
LINE
  5
22C
100
AcDbEntity
  8
0
  6
ByLayer
 62
  256
370
   -1
100
AcDbLine
 10
246.7054524313904
 20
47.99999679380721
 11
246.3876151861943
 21
48.41421035618009
  0
LINE
  5
22D
100
AcDbEntity
  8
0
  6
ByLayer
 62
  256
370
   -1
100
AcDbLine
 10
243.559188061448
 20
45.58578323143411
 11
243.9734016238212
 21
45.26794598623815
  0
LINE
  5
22E
100
AcDbEntity
  8
0
  6
ByLayer
 62
  256
370
   -1
100
AcDbLine
 10
244.9734016238214
 20
48.99999679380721
 11
244.4557635336161
 21
48.93184844638517
  0
LINE
  5
22F
100
AcDbEntity
  8
0
  6
ByLayer
 62
  256
370
   -1
100
AcDbLine
 10
288.5652313566324
 20
45.58578326592681
 11
288.9794449190053
 21
45.26794602073119
  0
LINE
  5
230
100
AcDbEntity
  8
0
  6
ByLayer
 62
  256
370
   -1
100
AcDbLine
 10
288.2473941114366
 20
45.99999682830003
 11
288.5652313566324
 21
45.58578326592681
  0
LINE
  5
231
100
AcDbEntity
  8
0
  6
ByLayer
 62
  256
370
   -1
100
AcDbLine
 10
288.0475932664275
 20
46.48235873809517
 11
288.2473941114366
 21
45.99999682830003
  0
LINE
  5
232
100
AcDbEntity
  8
0
  6
ByLayer
 62
  256
370
   -1
100
AcDbLine
 10
287.9794449190057
 20
46.9999968282998
 11
288.0475932664275
 21
46.48235873809517
  0
LINE
  5
233
100
AcDbEntity
  8
0
  6
ByLayer
 62
  256
370
   -1
100
AcDbLine
 10
288.0475932664273
 20
47.51763491850488
 11
287.9794449190057
 21
46.9999968282998
  0
LINE
  5
234
100
AcDbEntity
  8
0
  6
ByLayer
 62
  256
370
   -1
100
AcDbLine
 10
288.2473941114366
 20
47.99999682830013
 11
288.0475932664273
 21
47.51763491850488
  0
LINE
  5
235
100
AcDbEntity
  8
0
  6
ByLayer
 62
  256
370
   -1
100
AcDbLine
 10
288.5652313566321
 20
48.41421039067301
 11
288.2473941114366
 21
47.99999682830013
  0
LINE
  5
236
100
AcDbEntity
  8
0
  6
ByLayer
 62
  256
370
   -1
100
AcDbLine
 10
288.9794449190053
 20
48.73204763586875
 11
288.5652313566321
 21
48.41421039067301
  0
LINE
  5
237
100
AcDbEntity
  8
0
  6
ByLayer
 62
  256
370
   -1
100
AcDbLine
 10
289.4618068288004
 20
48.93184848087787
 11
288.9794449190053
 21
48.73204763586875
  0
LINE
  5
238
100
AcDbEntity
  8
0
  6
ByLayer
 62
  256
370
   -1
100
AcDbLine
 10
289.9794449190057
 20
48.99999682829993
 11
289.4618068288004
 21
48.93184848087787
  0
LINE
  5
239
100
AcDbEntity
  8
0
  6
ByLayer
 62
  256
370
   -1
100
AcDbLine
 10
290.4970830092106
 20
48.93184848087787
 11
289.9794449190057
 21
48.99999682829993
  0
LINE
  5
23A
100
AcDbEntity
  8
0
  6
ByLayer
 62
  256
370
   -1
100
AcDbLine
 10
290.9794449190055
 20
48.73204763586875
 11
290.4970830092106
 21
48.93184848087787
  0
LINE
  5
23B
100
AcDbEntity
  8
0
  6
ByLayer
 62
  256
370
   -1
100
AcDbLine
 10
291.3936584813786
 20
48.41421039067326
 11
290.9794449190055
 21
48.73204763586875
  0
LINE
  5
23C
100
AcDbEntity
  8
0
  6
ByLayer
 62
  256
370
   -1
100
AcDbLine
 10
291.7114957265745
 20
47.99999682830003
 11
291.3936584813786
 21
48.41421039067326
  0
LINE
  5
23D
100
AcDbEntity
  8
0
  6
ByLayer
 62
  256
370
   -1
100
AcDbLine
 10
291.9112965715837
 20
47.51763491850511
 11
291.7114957265745
 21
47.99999682830003
  0
LINE
  5
23E
100
AcDbEntity
  8
0
  6
ByLayer
 62
  256
370
   -1
100
AcDbLine
 10
291.9794449190059
 20
46.99999682830025
 11
291.9112965715837
 21
47.51763491850511
  0
LINE
  5
23F
100
AcDbEntity
  8
0
  6
ByLayer
 62
  256
370
   -1
100
AcDbLine
 10
291.9112965715837
 20
46.48235873809472
 11
291.9794449190059
 21
46.99999682830025
  0
LINE
  5
240
100
AcDbEntity
  8
0
  6
ByLayer
 62
  256
370
   -1
100
AcDbLine
 10
291.7114957265745
 20
45.99999682829969
 11
291.9112965715837
 21
46.48235873809472
  0
LINE
  5
241
100
AcDbEntity
  8
0
  6
ByLayer
 62
  256
370
   -1
100
AcDbLine
 10
291.3936584813786
 20
45.58578326592704
 11
291.7114957265745
 21
45.99999682829969
  0
LINE
  5
242
100
AcDbEntity
  8
0
  6
ByLayer
 62
  256
370
   -1
100
AcDbLine
 10
290.9794449190055
 20
45.26794602073119
 11
291.3936584813786
 21
45.58578326592704
  0
LINE
  5
243
100
AcDbEntity
  8
0
  6
ByLayer
 62
  256
370
   -1
100
AcDbLine
 10
290.4970830092108
 20
45.06814517572172
 11
290.9794449190055
 21
45.26794602073119
  0
LINE
  5
244
100
AcDbEntity
  8
0
  6
ByLayer
 62
  256
370
   -1
100
AcDbLine
 10
289.9794449190057
 20
44.99999682830013
 11
290.4970830092108
 21
45.06814517572172
  0
LINE
  5
245
100
AcDbEntity
  8
0
  6
ByLayer
 62
  256
370
   -1
100
AcDbLine
 10
289.4618068288005
 20
45.06814517572172
 11
289.9794449190057
 21
44.99999682830013
  0
LINE
  5
246
100
AcDbEntity
  8
0
  6
ByLayer
 62
  256
370
   -1
100
AcDbLine
 10
395.5000028502564
 20
24.00000074243917
 11
397.0000028502566
 21
24.00000074243701
  0
LINE
  5
247
100
AcDbEntity
  8
0
  6
ByLayer
 62
  256
370
   -1
100
AcDbLine
 10
397.0000028502566
 20
24.00000074243701
 11
398.5000028502564
 21
24.00000074243917
  0
LINE
  5
248
100
AcDbEntity
  8
0
  6
ByLayer
 62
  256
370
   -1
100
AcDbLine
 10
395.5000028502564
 20
21.00000074243906
 11
395.5000028502546
 21
22.50000074243906
  0
LINE
  5
249
100
AcDbEntity
  8
0
  6
ByLayer
 62
  256
370
   -1
100
AcDbLine
 10
395.5000028502546
 20
22.50000074243906
 11
395.5000028502564
 21
24.00000074243917
  0
LINE
  5
24A
100
AcDbEntity
  8
0
  6
ByLayer
 62
  256
370
   -1
100
AcDbLine
 10
392.5000028502562
 20
24.00000074243917
 11
394.0000028502571
 21
24.0000007424411
  0
LINE
  5
24B
100
AcDbEntity
  8
0
  6
ByLayer
 62
  256
370
   -1
100
AcDbLine
 10
394.0000028502571
 20
24.0000007424411
 11
395.5000028502564
 21
24.00000074243917
  0
LINE
  5
24C
100
AcDbEntity
  8
0
  6
ByLayer
 62
  256
370
   -1
100
AcDbLine
 10
395.5000028502564
 20
24.00000074243917
 11
395.5000028502585
 21
25.50000074243894
  0
LINE
  5
24D
100
AcDbEntity
  8
0
  6
ByLayer
 62
  256
370
   -1
100
AcDbLine
 10
395.5000028502585
 20
25.50000074243894
 11
395.5000028502564
 21
27.00000074243917
  0
LINE
  5
24E
100
AcDbEntity
  8
0
  6
ByLayer
 62
  256
370
   -1
100
AcDbLine
 10
395.5000028503176
 20
82.50000305976656
 11
395.5000028503203
 21
84.00000305976656
  0
LINE
  5
24F
100
AcDbEntity
  8
0
  6
ByLayer
 62
  256
370
   -1
100
AcDbLine
 10
395.5000028503176
 20
82.50000305976656
 11
395.8882314179717
 21
82.55111432033254
  0
LINE
  5
250
100
AcDbEntity
  8
0
  6
ByLayer
 62
  256
370
   -1
100
AcDbLine
 10
395.5000028503203
 20
84.00000305976656
 11
397.0000028503203
 21
84.00000305976425
  0
LINE
  5
251
100
AcDbEntity
  8
0
  6
ByLayer
 62
  256
370
   -1
100
AcDbLine
 10
395.5000028503203
 20
81.00000305976656
 11
395.5000028503176
 21
82.50000305976656
  0
LINE
  5
252
100
AcDbEntity
  8
0
  6
ByLayer
 62
  256
370
   -1
100
AcDbLine
 10
394.0000028503201
 20
84.00000305976866
 11
395.5000028503203
 21
84.00000305976656
  0
LINE
  5
253
100
AcDbEntity
  8
0
  6
ByLayer
 62
  256
370
   -1
100
AcDbLine
 10
392.5000028503201
 20
84.00000305976656
 11
394.0000028503201
 21
84.00000305976866
  0
LINE
  5
254
100
AcDbEntity
  8
0
  6
ByLayer
 62
  256
370
   -1
100
AcDbLine
 10
395.5000028503223
 20
85.50000305976673
 11
395.5000028503203
 21
87.00000305976664
  0
LINE
  5
255
100
AcDbEntity
  8
0
  6
ByLayer
 62
  256
370
   -1
100
AcDbLine
 10
395.5000028503203
 20
84.00000305976656
 11
395.5000028503223
 21
85.50000305976673
  0
LINE
  5
256
100
AcDbEntity
  8
0
  6
ByLayer
 62
  256
370
   -1
100
AcDbLine
 10
397.0000028503203
 20
84.00000305976425
 11
398.5000028503203
 21
84.00000305976656
  0
LINE
  5
257
100
AcDbEntity
  8
0
  6
ByLayer
 62
  256
370
   -1
100
AcDbLine
 10
375.000002868962
 20
2.999996862962348
 11
375.0000028458156
 21
4.499996862962007
  0
LINE
  5
258
100
AcDbEntity
  8
0
  6
ByLayer
 62
  256
370
   -1
100
AcDbLine
 10
375.000002868962
 20
2.999996862962348
 11
375.3882314358273
 21
3.051108129519093
  0
LINE
  5
259
100
AcDbEntity
  8
0
  6
ByLayer
 62
  256
370
   -1
100
AcDbLine
 10
375.3882314358273
 20
3.051108129519093
 11
375.7500028658608
 21
3.200958768858186
  0
LINE
  5
25A
100
AcDbEntity
  8
0
  6
ByLayer
 62
  256
370
   -1
100
AcDbLine
 10
375.7500028658608
 20
3.200958768858186
 11
376.0606630339628
 21
3.439336707548819
  0
LINE
  5
25B
100
AcDbEntity
  8
0
  6
ByLayer
 62
  256
370
   -1
100
AcDbLine
 10
376.0606630339628
 20
3.439336707548819
 11
376.2990409630655
 21
3.749996883007043
  0
LINE
  5
25C
100
AcDbEntity
  8
0
  6
ByLayer
 62
  256
370
   -1
100
AcDbLine
 10
376.2990409630655
 20
3.749996883007043
 11
376.4488915912401
 21
4.111768317665451
  0
LINE
  5
25D
100
AcDbEntity
  8
0
  6
ByLayer
 62
  256
370
   -1
100
AcDbLine
 10
376.4488915912401
 20
4.111768317665451
 11
376.5000028458156
 21
4.499996886107738
  0
LINE
  5
25E
100
AcDbEntity
  8
0
  6
ByLayer
 62
  256
370
   -1
100
AcDbLine
 10
375.0000028458156
 20
4.499996862962007
 11
376.5000028458156
 21
4.499996886107738
  0
LINE
  5
25F
100
AcDbEntity
  8
0
  6
ByLayer
 62
  256
370
   -1
100
AcDbLine
 10
376.0606630012297
 20
5.560657051108819
 11
375.750002825771
 21
5.799034980211559
  0
LINE
  5
260
100
AcDbEntity
  8
0
  6
ByLayer
 62
  256
370
   -1
100
AcDbLine
 10
375.750002825771
 20
5.799034980211559
 11
375.3882313911127
 21
5.94888560838649
  0
LINE
  5
261
100
AcDbEntity
  8
0
  6
ByLayer
 62
  256
370
   -1
100
AcDbLine
 10
376.5000028458156
 20
4.499996886107738
 11
378.0000028458156
 21
4.499996862962007
  0
LINE
  5
262
100
AcDbEntity
  8
0
  6
ByLayer
 62
  256
370
   -1
100
AcDbLine
 10
375.0000028458156
 20
1.499996862961893
 11
375.000002868962
 21
2.999996862962348
  0
LINE
  5
263
100
AcDbEntity
  8
0
  6
ByLayer
 62
  256
370
   -1
100
AcDbLine
 10
373.5000028458156
 20
4.49999683981639
 11
375.0000028458156
 21
4.499996862962007
  0
LINE
  5
264
100
AcDbEntity
  8
0
  6
ByLayer
 62
  256
370
   -1
100
AcDbLine
 10
373.5000028458156
 20
4.49999683981639
 11
373.551114112373
 21
4.111768272951392
  0
LINE
  5
265
100
AcDbEntity
  8
0
  6
ByLayer
 62
  256
370
   -1
100
AcDbLine
 10
373.551114112373
 20
4.111768272951392
 11
373.7009647517121
 21
3.749996842917199
  0
LINE
  5
266
100
AcDbEntity
  8
0
  6
ByLayer
 62
  256
370
   -1
100
AcDbLine
 10
373.7009647517121
 20
3.749996842917199
 11
373.9393426904031
 21
3.439336674816104
  0
LINE
  5
267
100
AcDbEntity
  8
0
  6
ByLayer
 62
  256
370
   -1
100
AcDbLine
 10
373.9393426904031
 20
3.439336674816104
 11
374.2500028658608
 21
3.200958745712455
  0
LINE
  5
268
100
AcDbEntity
  8
0
  6
ByLayer
 62
  256
370
   -1
100
AcDbLine
 10
374.2500028658608
 20
3.200958745712455
 11
374.6117743005196
 21
3.051108117537638
  0
LINE
  5
269
100
AcDbEntity
  8
0
  6
ByLayer
 62
  256
370
   -1
100
AcDbLine
 10
374.6117743005196
 20
3.051108117537638
 11
375.000002868962
 21
2.999996862962348
  0
LINE
  5
26A
100
AcDbEntity
  8
0
  6
ByLayer
 62
  256
370
   -1
100
AcDbLine
 10
375.0000028226703
 20
5.999996862961666
 11
375.0000028458156
 21
7.499996862962007
  0
LINE
  5
26B
100
AcDbEntity
  8
0
  6
ByLayer
 62
  256
370
   -1
100
AcDbLine
 10
372.0000028458156
 20
4.499996862962007
 11
373.5000028458156
 21
4.49999683981639
  0
LINE
  5
26C
100
AcDbEntity
  8
0
  6
ByLayer
 62
  256
370
   -1
100
AcDbLine
 10
375.0000028458156
 20
4.499996862962007
 11
375.0000028226703
 21
5.999996862961666
  0
LINE
  5
26D
100
AcDbEntity
  8
0
  6
ByLayer
 62
  256
370
   -1
100
AcDbLine
 10
375.0000028226703
 20
5.999996862961666
 11
374.611774255805
 21
5.948885596405032
  0
LINE
  5
26E
100
AcDbEntity
  8
0
  6
ByLayer
 62
  256
370
   -1
100
AcDbLine
 10
374.611774255805
 20
5.948885596405032
 11
374.2500028257708
 21
5.799034957065828
  0
LINE
  5
26F
100
AcDbEntity
  8
0
  6
ByLayer
 62
  256
370
   -1
100
AcDbLine
 10
374.2500028257708
 20
5.799034957065828
 11
373.9393426576697
 21
5.56065701837565
  0
LINE
  5
270
100
AcDbEntity
  8
0
  6
ByLayer
 62
  256
370
   -1
100
AcDbLine
 10
373.9393426576697
 20
5.56065701837565
 11
373.700964728567
 21
5.249996842917426
  0
LINE
  5
271
100
AcDbEntity
  8
0
  6
ByLayer
 62
  256
370
   -1
100
AcDbLine
 10
373.700964728567
 20
5.249996842917426
 11
373.5511141003918
 21
4.888225408258222
  0
LINE
  5
272
100
AcDbEntity
  8
0
  6
ByLayer
 62
  256
370
   -1
100
AcDbLine
 10
373.5511141003918
 20
4.888225408258222
 11
373.5000028458156
 21
4.49999683981639
  0
LINE
  5
273
100
AcDbEntity
  8
0
  6
ByLayer
 62
  256
370
   -1
100
AcDbLine
 10
375.3882313911127
 20
5.94888560838649
 11
375.0000028226703
 21
5.999996862961666
  0
LINE
  5
274
100
AcDbEntity
  8
0
  6
ByLayer
 62
  256
370
   -1
100
AcDbLine
 10
376.5000028458156
 20
4.499996886107738
 11
376.4488915792588
 21
4.888225452972733
  0
LINE
  5
275
100
AcDbEntity
  8
0
  6
ByLayer
 62
  256
370
   -1
100
AcDbLine
 10
376.4488915792588
 20
4.888225452972733
 11
376.2990409399202
 21
5.249996883006702
  0
LINE
  5
276
100
AcDbEntity
  8
0
  6
ByLayer
 62
  256
370
   -1
100
AcDbLine
 10
376.2990409399202
 20
5.249996883006702
 11
376.0606630012297
 21
5.560657051108819
  0
LINE
  5
277
100
AcDbEntity
  8
0
  6
ByLayer
 62
  256
370
   -1
100
AcDbLine
 10
290.000002857328
 20
2.999995497633222
 11
290.0000028341818
 21
4.499995497633108
  0
LINE
  5
278
100
AcDbEntity
  8
0
  6
ByLayer
 62
  256
370
   -1
100
AcDbLine
 10
290.000002857328
 20
2.999995497633222
 11
290.3882314241927
 21
3.051106764190195
  0
LINE
  5
279
100
AcDbEntity
  8
0
  6
ByLayer
 62
  256
370
   -1
100
AcDbLine
 10
290.3882314241927
 20
3.051106764190195
 11
290.7500028542271
 21
3.200957403529287
  0
LINE
  5
27A
100
AcDbEntity
  8
0
  6
ByLayer
 62
  256
370
   -1
100
AcDbLine
 10
290.7500028542271
 20
3.200957403529287
 11
291.0606630223287
 21
3.43933534221992
  0
LINE
  5
27B
100
AcDbEntity
  8
0
  6
ByLayer
 62
  256
370
   -1
100
AcDbLine
 10
291.0606630223287
 20
3.43933534221992
 11
291.2990409514313
 21
3.74999551767803
  0
LINE
  5
27C
100
AcDbEntity
  8
0
  6
ByLayer
 62
  256
370
   -1
100
AcDbLine
 10
291.2990409514313
 20
3.74999551767803
 11
291.4488915796066
 21
4.111766952336779
  0
LINE
  5
27D
100
AcDbEntity
  8
0
  6
ByLayer
 62
  256
370
   -1
100
AcDbLine
 10
291.4488915796066
 20
4.111766952336779
 11
291.5000028341815
 21
4.499995520779066
  0
LINE
  5
27E
100
AcDbEntity
  8
0
  6
ByLayer
 62
  256
370
   -1
100
AcDbLine
 10
290.0000028341818
 20
4.499995497633108
 11
291.5000028341815
 21
4.499995520779066
  0
LINE
  5
27F
100
AcDbEntity
  8
0
  6
ByLayer
 62
  256
370
   -1
100
AcDbLine
 10
291.4488915676253
 20
4.888224087643835
 11
291.299040928286
 21
5.24999551767803
  0
LINE
  5
280
100
AcDbEntity
  8
0
  6
ByLayer
 62
  256
370
   -1
100
AcDbLine
 10
291.299040928286
 20
5.24999551767803
 11
291.0606629895957
 21
5.560655685779921
  0
LINE
  5
281
100
AcDbEntity
  8
0
  6
ByLayer
 62
  256
370
   -1
100
AcDbLine
 10
291.0606629895957
 20
5.560655685779921
 11
290.7500028141368
 21
5.799033614882774
  0
LINE
  5
282
100
AcDbEntity
  8
0
  6
ByLayer
 62
  256
370
   -1
100
AcDbLine
 10
290.7500028141368
 20
5.799033614882774
 11
290.3882313794785
 21
5.94888424305725
  0
LINE
  5
283
100
AcDbEntity
  8
0
  6
ByLayer
 62
  256
370
   -1
100
AcDbLine
 10
291.5000028341815
 20
4.499995520779066
 11
293.0000028341821
 21
4.499995497633108
  0
LINE
  5
284
100
AcDbEntity
  8
0
  6
ByLayer
 62
  256
370
   -1
100
AcDbLine
 10
290.0000028341818
 20
1.499995497633108
 11
290.000002857328
 21
2.999995497633222
  0
LINE
  5
285
100
AcDbEntity
  8
0
  6
ByLayer
 62
  256
370
   -1
100
AcDbLine
 10
288.5000028341818
 20
4.499995474487946
 11
290.0000028341818
 21
4.499995497633108
  0
LINE
  5
286
100
AcDbEntity
  8
0
  6
ByLayer
 62
  256
370
   -1
100
AcDbLine
 10
288.5000028341818
 20
4.499995474487946
 11
288.551114100739
 21
4.111766907622155
  0
LINE
  5
287
100
AcDbEntity
  8
0
  6
ByLayer
 62
  256
370
   -1
100
AcDbLine
 10
288.551114100739
 20
4.111766907622155
 11
288.7009647400781
 21
3.749995477588868
  0
LINE
  5
288
100
AcDbEntity
  8
0
  6
ByLayer
 62
  256
370
   -1
100
AcDbLine
 10
288.7009647400781
 20
3.749995477588868
 11
288.9393426787693
 21
3.439335309487205
  0
LINE
  5
289
100
AcDbEntity
  8
0
  6
ByLayer
 62
  256
370
   -1
100
AcDbLine
 10
288.9393426787693
 20
3.439335309487205
 11
289.2500028542267
 21
3.200957380383899
  0
LINE
  5
28A
100
AcDbEntity
  8
0
  6
ByLayer
 62
  256
370
   -1
100
AcDbLine
 10
289.2500028542267
 20
3.200957380383899
 11
289.6117742888852
 21
3.051106752209307
  0
LINE
  5
28B
100
AcDbEntity
  8
0
  6
ByLayer
 62
  256
370
   -1
100
AcDbLine
 10
289.6117742888852
 20
3.051106752209307
 11
290.000002857328
 21
2.999995497633222
  0
LINE
  5
28C
100
AcDbEntity
  8
0
  6
ByLayer
 62
  256
370
   -1
100
AcDbLine
 10
288.5511140887574
 20
4.888224042929437
 11
288.5000028341818
 21
4.499995474487946
  0
LINE
  5
28D
100
AcDbEntity
  8
0
  6
ByLayer
 62
  256
370
   -1
100
AcDbLine
 10
290.0000028110366
 20
5.999995497633108
 11
290.0000028341818
 21
7.499995497633108
  0
LINE
  5
28E
100
AcDbEntity
  8
0
  6
ByLayer
 62
  256
370
   -1
100
AcDbLine
 10
287.0000028341818
 20
4.499995497633108
 11
288.5000028341818
 21
4.499995474487946
  0
LINE
  5
28F
100
AcDbEntity
  8
0
  6
ByLayer
 62
  256
370
   -1
100
AcDbLine
 10
290.0000028341818
 20
4.499995497633108
 11
290.0000028110366
 21
5.999995497633108
  0
LINE
  5
290
100
AcDbEntity
  8
0
  6
ByLayer
 62
  256
370
   -1
100
AcDbLine
 10
290.0000028110366
 20
5.999995497633108
 11
289.611774244171
 21
5.948884231076249
  0
LINE
  5
291
100
AcDbEntity
  8
0
  6
ByLayer
 62
  256
370
   -1
100
AcDbLine
 10
289.611774244171
 20
5.948884231076249
 11
289.2500028141375
 21
5.79903359173727
  0
LINE
  5
292
100
AcDbEntity
  8
0
  6
ByLayer
 62
  256
370
   -1
100
AcDbLine
 10
289.2500028141375
 20
5.79903359173727
 11
288.9393426460364
 21
5.560655653046865
  0
LINE
  5
293
100
AcDbEntity
  8
0
  6
ByLayer
 62
  256
370
   -1
100
AcDbLine
 10
288.9393426460364
 20
5.560655653046865
 11
288.7009647169326
 21
5.2499954775883
  0
LINE
  5
294
100
AcDbEntity
  8
0
  6
ByLayer
 62
  256
370
   -1
100
AcDbLine
 10
288.7009647169326
 20
5.2499954775883
 11
288.5511140887574
 21
4.888224042929437
  0
LINE
  5
295
100
AcDbEntity
  8
0
  6
ByLayer
 62
  256
370
   -1
100
AcDbLine
 10
290.3882313794785
 20
5.94888424305725
 11
290.0000028110366
 21
5.999995497633108
  0
LINE
  5
296
100
AcDbEntity
  8
0
  6
ByLayer
 62
  256
370
   -1
100
AcDbLine
 10
291.5000028341815
 20
4.499995520779066
 11
291.4488915676253
 21
4.888224087643835
  0
LINE
  5
297
100
AcDbEntity
  8
0
  6
ByLayer
 62
  256
370
   -1
100
AcDbLine
 10
367.0000168428838
 20
32.83534164089303
 11
366.1161333664011
 21
33.71922511737762
  0
LINE
  5
298
100
AcDbEntity
  8
0
  6
ByLayer
 62
  256
370
   -1
100
AcDbLine
 10
366.1161333664011
 20
33.71922511737762
 11
364.8786964993245
 21
34.95666198445326
  0
LINE
  5
299
100
AcDbEntity
  8
0
  6
ByLayer
 62
  256
370
   -1
100
AcDbLine
 10
369.1213371864438
 20
30.71402129733373
 11
367.8839003193664
 21
31.95145816441016
  0
LINE
  5
29A
100
AcDbEntity
  8
0
  6
ByLayer
 62
  256
370
   -1
100
AcDbLine
 10
367.8839003193664
 20
31.95145816441016
 11
367.0000168428838
 21
32.83534164089303
  0
LINE
  5
29B
100
AcDbEntity
  8
0
  6
ByLayer
 62
  256
370
   -1
100
AcDbLine
 10
369.121337186444
 20
34.95666198445326
 11
367.8839003193678
 21
33.7192251173766
  0
LINE
  5
29C
100
AcDbEntity
  8
0
  6
ByLayer
 62
  256
370
   -1
100
AcDbLine
 10
367.8839003193678
 20
33.7192251173766
 11
367.0000168428838
 21
32.83534164089303
  0
LINE
  5
29D
100
AcDbEntity
  8
0
  6
ByLayer
 62
  256
370
   -1
100
AcDbLine
 10
367.0000168428838
 20
32.83534164089303
 11
366.1161333663998
 21
31.95145816441162
  0
LINE
  5
29E
100
AcDbEntity
  8
0
  6
ByLayer
 62
  256
370
   -1
100
AcDbLine
 10
366.1161333663998
 20
31.95145816441162
 11
364.8786964993242
 21
30.71402129733384
  0
LINE
  5
29F
100
AcDbEntity
  8
0
  6
ByLayer
 62
  256
370
   -1
100
AcDbLine
 10
200.0000036451876
 20
2.999994108887222
 11
200.0000036220416
 21
4.499994108887108
  0
LINE
  5
2A0
100
AcDbEntity
  8
0
  6
ByLayer
 62
  256
370
   -1
100
AcDbLine
 10
200.0000036451876
 20
2.999994108887222
 11
200.3882322120527
 21
3.051105375443967
  0
LINE
  5
2A1
100
AcDbEntity
  8
0
  6
ByLayer
 62
  256
370
   -1
100
AcDbLine
 10
200.3882322120527
 20
3.051105375443967
 11
200.7500036420864
 21
3.20095601478306
  0
LINE
  5
2A2
100
AcDbEntity
  8
0
  6
ByLayer
 62
  256
370
   -1
100
AcDbLine
 10
200.7500036420864
 20
3.20095601478306
 11
201.0606638101889
 21
3.439333953473691
  0
LINE
  5
2A3
100
AcDbEntity
  8
0
  6
ByLayer
 62
  256
370
   -1
100
AcDbLine
 10
201.0606638101889
 20
3.439333953473691
 11
201.2990417392913
 21
3.749994128931802
  0
LINE
  5
2A4
100
AcDbEntity
  8
0
  6
ByLayer
 62
  256
370
   -1
100
AcDbLine
 10
201.2990417392913
 20
3.749994128931802
 11
201.4488923674663
 21
4.111765563589984
  0
LINE
  5
2A5
100
AcDbEntity
  8
0
  6
ByLayer
 62
  256
370
   -1
100
AcDbLine
 10
201.4488923674663
 20
4.111765563589984
 11
201.5000036220414
 21
4.499994132032839
  0
LINE
  5
2A6
100
AcDbEntity
  8
0
  6
ByLayer
 62
  256
370
   -1
100
AcDbLine
 10
200.0000036220416
 20
4.499994108887108
 11
201.5000036220414
 21
4.499994132032839
  0
LINE
  5
2A7
100
AcDbEntity
  8
0
  6
ByLayer
 62
  256
370
   -1
100
AcDbLine
 10
201.5000036220414
 20
4.499994132032839
 11
201.4488923554849
 21
4.888222698898176
  0
LINE
  5
2A8
100
AcDbEntity
  8
0
  6
ByLayer
 62
  256
370
   -1
100
AcDbLine
 10
201.4488923554849
 20
4.888222698898176
 11
201.299041716146
 21
5.24999412893203
  0
LINE
  5
2A9
100
AcDbEntity
  8
0
  6
ByLayer
 62
  256
370
   -1
100
AcDbLine
 10
201.299041716146
 20
5.24999412893203
 11
201.0606637774551
 21
5.560654297033125
  0
LINE
  5
2AA
100
AcDbEntity
  8
0
  6
ByLayer
 62
  256
370
   -1
100
AcDbLine
 10
201.0606637774551
 20
5.560654297033125
 11
200.7500036019973
 21
5.799032226136546
  0
LINE
  5
2AB
100
AcDbEntity
  8
0
  6
ByLayer
 62
  256
370
   -1
100
AcDbLine
 10
200.7500036019973
 20
5.799032226136546
 11
200.3882321673383
 21
5.948882854311478
  0
LINE
  5
2AC
100
AcDbEntity
  8
0
  6
ByLayer
 62
  256
370
   -1
100
AcDbLine
 10
201.5000036220414
 20
4.499994132032839
 11
203.0000036220416
 21
4.499994108887108
  0
LINE
  5
2AD
100
AcDbEntity
  8
0
  6
ByLayer
 62
  256
370
   -1
100
AcDbLine
 10
200.0000036220416
 20
4.499994108887108
 11
200.0000035988961
 21
5.999994108887449
  0
LINE
  5
2AE
100
AcDbEntity
  8
0
  6
ByLayer
 62
  256
370
   -1
100
AcDbLine
 10
200.3882321673383
 20
5.948882854311478
 11
200.0000035988961
 21
5.999994108887449
  0
LINE
  5
2AF
100
AcDbEntity
  8
0
  6
ByLayer
 62
  256
370
   -1
100
AcDbLine
 10
200.0000036220416
 20
7.499994108887108
 11
200.0000035988961
 21
5.999994108887449
  0
LINE
  5
2B0
100
AcDbEntity
  8
0
  6
ByLayer
 62
  256
370
   -1
100
AcDbLine
 10
289.9794449190057
 20
46.9999968282998
 11
289.9794449190057
 21
44.99999682830013
  0
LINE
  5
2B1
100
AcDbEntity
  8
0
  6
ByLayer
 62
  256
370
   -1
100
AcDbLine
 10
289.9794449190057
 20
44.99999682830013
 11
289.9794449190057
 21
42.9999968282998
  0
LINE
  5
2B2
100
AcDbEntity
  8
0
  6
ByLayer
 62
  256
370
   -1
100
AcDbLine
 10
289.9794449190057
 20
50.9999968282998
 11
289.9794449190057
 21
48.99999682829993
  0
LINE
  5
2B3
100
AcDbEntity
  8
0
  6
ByLayer
 62
  256
370
   -1
100
AcDbLine
 10
289.9794449190057
 20
48.99999682829993
 11
289.9794449190057
 21
46.9999968282998
  0
LINE
  5
2B4
100
AcDbEntity
  8
0
  6
ByLayer
 62
  256
370
   -1
100
AcDbLine
 10
293.9794449190055
 20
46.9999968282998
 11
291.9794449190059
 21
46.99999682830025
  0
LINE
  5
2B5
100
AcDbEntity
  8
0
  6
ByLayer
 62
  256
370
   -1
100
AcDbLine
 10
291.9794449190059
 20
46.99999682830025
 11
289.9794449190057
 21
46.9999968282998
  0
LINE
  5
2B6
100
AcDbEntity
  8
0
  6
ByLayer
 62
  256
370
   -1
100
AcDbLine
 10
289.9794449190057
 20
46.9999968282998
 11
287.9794449190057
 21
46.9999968282998
  0
LINE
  5
2B7
100
AcDbEntity
  8
0
  6
ByLayer
 62
  256
370
   -1
100
AcDbLine
 10
287.9794449190057
 20
46.9999968282998
 11
285.9794449190057
 21
46.9999968282998
  0
LINE
  5
2B8
100
AcDbEntity
  8
0
  6
ByLayer
 62
  256
370
   -1
100
AcDbLine
 10
244.9734016238214
 20
46.99999679380689
 11
246.9734016238214
 21
46.99999679380709
  0
LINE
  5
2B9
100
AcDbEntity
  8
0
  6
ByLayer
 62
  256
370
   -1
100
AcDbLine
 10
246.9734016238214
 20
46.99999679380709
 11
248.9734016238214
 21
46.99999679380689
  0
LINE
  5
2BA
100
AcDbEntity
  8
0
  6
ByLayer
 62
  256
370
   -1
100
AcDbLine
 10
240.9734016238214
 20
46.99999679380689
 11
242.9734016238208
 21
46.99999679380676
  0
LINE
  5
2BB
100
AcDbEntity
  8
0
  6
ByLayer
 62
  256
370
   -1
100
AcDbLine
 10
242.9734016238208
 20
46.99999679380676
 11
244.9734016238214
 21
46.99999679380689
  0
LINE
  5
2BC
100
AcDbEntity
  8
0
  6
ByLayer
 62
  256
370
   -1
100
AcDbLine
 10
244.9734016238214
 20
50.99999679380689
 11
244.9734016238214
 21
48.99999679380721
  0
LINE
  5
2BD
100
AcDbEntity
  8
0
  6
ByLayer
 62
  256
370
   -1
100
AcDbLine
 10
244.9734016238214
 20
48.99999679380721
 11
244.9734016238214
 21
46.99999679380689
  0
LINE
  5
2BE
100
AcDbEntity
  8
0
  6
ByLayer
 62
  256
370
   -1
100
AcDbLine
 10
244.9734016238214
 20
46.99999679380689
 11
244.9734016238214
 21
44.99999679380689
  0
LINE
  5
2BF
100
AcDbEntity
  8
0
  6
ByLayer
 62
  256
370
   -1
100
AcDbLine
 10
244.9734016238214
 20
44.99999679380689
 11
244.9734016238214
 21
42.99999679380689
  0
LINE
  5
2C0
100
AcDbEntity
  8
0
  6
ByLayer
 62
  256
370
   -1
100
AcDbLine
 10
392.5000028503201
 20
84.00000305976656
 11
392.602225371453
 21
84.77646019507412
  0
LINE
  5
2C1
100
AcDbEntity
  8
0
  6
ByLayer
 62
  256
370
   -1
100
AcDbLine
 10
392.602225371453
 20
84.77646019507412
 11
392.9019266389669
 21
85.50000305976656
  0
LINE
  5
2C2
100
AcDbEntity
  8
0
  6
ByLayer
 62
  256
370
   -1
100
AcDbLine
 10
392.9019266389669
 20
85.50000305976656
 11
393.3786825067605
 21
86.12132340332619
  0
LINE
  5
2C3
100
AcDbEntity
  8
0
  6
ByLayer
 62
  256
370
   -1
100
AcDbLine
 10
393.3786825067605
 20
86.12132340332619
 11
394.0000028503201
 21
86.59807927111987
  0
LINE
  5
2C4
100
AcDbEntity
  8
0
  6
ByLayer
 62
  256
370
   -1
100
AcDbLine
 10
394.0000028503201
 20
86.59807927111987
 11
394.7235457150126
 21
86.89778053863373
  0
LINE
  5
2C5
100
AcDbEntity
  8
0
  6
ByLayer
 62
  256
370
   -1
100
AcDbLine
 10
394.7235457150126
 20
86.89778053863373
 11
395.5000028503203
 21
87.00000305976664
  0
LINE
  5
2C6
100
AcDbEntity
  8
0
  6
ByLayer
 62
  256
370
   -1
100
AcDbLine
 10
395.5000028503203
 20
87.00000305976664
 11
396.2764599856278
 21
86.89778053863373
  0
LINE
  5
2C7
100
AcDbEntity
  8
0
  6
ByLayer
 62
  256
370
   -1
100
AcDbLine
 10
396.2764599856278
 20
86.89778053863373
 11
397.0000028503203
 21
86.59807927111987
  0
LINE
  5
2C8
100
AcDbEntity
  8
0
  6
ByLayer
 62
  256
370
   -1
100
AcDbLine
 10
397.0000028503203
 20
86.59807927111987
 11
397.6213231938798
 21
86.12132340332619
  0
LINE
  5
2C9
100
AcDbEntity
  8
0
  6
ByLayer
 62
  256
370
   -1
100
AcDbLine
 10
397.6213231938798
 20
86.12132340332619
 11
398.0980790616734
 21
85.50000305976656
  0
LINE
  5
2CA
100
AcDbEntity
  8
0
  6
ByLayer
 62
  256
370
   -1
100
AcDbLine
 10
398.0980790616734
 20
85.50000305976656
 11
398.3977803291874
 21
84.77646019507412
  0
LINE
  5
2CB
100
AcDbEntity
  8
0
  6
ByLayer
 62
  256
370
   -1
100
AcDbLine
 10
398.3977803291874
 20
84.77646019507412
 11
398.5000028503203
 21
84.00000305976656
  0
LINE
  5
2CC
100
AcDbEntity
  8
0
  6
ByLayer
 62
  256
370
   -1
100
AcDbLine
 10
398.5000028503203
 20
84.00000305976656
 11
398.3977803291874
 21
83.2235459244589
  0
LINE
  5
2CD
100
AcDbEntity
  8
0
  6
ByLayer
 62
  256
370
   -1
100
AcDbLine
 10
398.3977803291874
 20
83.2235459244589
 11
398.0980790616734
 21
82.50000305976656
  0
LINE
  5
2CE
100
AcDbEntity
  8
0
  6
ByLayer
 62
  256
370
   -1
100
AcDbLine
 10
398.0980790616734
 20
82.50000305976656
 11
397.6213231938798
 21
81.87868271620698
  0
LINE
  5
2CF
100
AcDbEntity
  8
0
  6
ByLayer
 62
  256
370
   -1
100
AcDbLine
 10
397.6213231938798
 20
81.87868271620698
 11
397.0000028503203
 21
81.40192684841315
  0
LINE
  5
2D0
100
AcDbEntity
  8
0
  6
ByLayer
 62
  256
370
   -1
100
AcDbLine
 10
397.0000028503203
 20
81.40192684841315
 11
396.2764599856278
 21
81.10222558089936
  0
LINE
  5
2D1
100
AcDbEntity
  8
0
  6
ByLayer
 62
  256
370
   -1
100
AcDbLine
 10
396.2764599856278
 20
81.10222558089936
 11
395.5000028503203
 21
81.00000305976656
  0
LINE
  5
2D2
100
AcDbEntity
  8
0
  6
ByLayer
 62
  256
370
   -1
100
AcDbLine
 10
395.5000028503203
 20
81.00000305976656
 11
394.7235457150126
 21
81.10222558089936
  0
LINE
  5
2D3
100
AcDbEntity
  8
0
  6
ByLayer
 62
  256
370
   -1
100
AcDbLine
 10
394.7235457150126
 20
81.10222558089936
 11
394.0000028503201
 21
81.40192684841315
  0
LINE
  5
2D4
100
AcDbEntity
  8
0
  6
ByLayer
 62
  256
370
   -1
100
AcDbLine
 10
394.0000028503201
 20
81.40192684841315
 11
393.3786825067605
 21
81.87868271620698
  0
LINE
  5
2D5
100
AcDbEntity
  8
0
  6
ByLayer
 62
  256
370
   -1
100
AcDbLine
 10
393.3786825067605
 20
81.87868271620698
 11
392.9019266389669
 21
82.50000305976656
  0
LINE
  5
2D6
100
AcDbEntity
  8
0
  6
ByLayer
 62
  256
370
   -1
100
AcDbLine
 10
392.9019266389669
 20
82.50000305976656
 11
392.602225371453
 21
83.2235459244589
  0
LINE
  5
2D7
100
AcDbEntity
  8
0
  6
ByLayer
 62
  256
370
   -1
100
AcDbLine
 10
392.602225371453
 20
83.2235459244589
 11
392.5000028503201
 21
84.00000305976656
  0
LINE
  5
2D8
100
AcDbEntity
  8
0
  6
ByLayer
 62
  256
370
   -1
100
AcDbLine
 10
392.5000028502562
 20
24.00000074243917
 11
392.6022253713891
 21
24.77645787774668
  0
LINE
  5
2D9
100
AcDbEntity
  8
0
  6
ByLayer
 62
  256
370
   -1
100
AcDbLine
 10
392.6022253713891
 20
24.77645787774668
 11
392.901926638903
 21
25.50000074243917
  0
LINE
  5
2DA
100
AcDbEntity
  8
0
  6
ByLayer
 62
  256
370
   -1
100
AcDbLine
 10
392.901926638903
 20
25.50000074243917
 11
393.3786825066966
 21
26.12132108599873
  0
LINE
  5
2DB
100
AcDbEntity
  8
0
  6
ByLayer
 62
  256
370
   -1
100
AcDbLine
 10
393.3786825066966
 20
26.12132108599873
 11
394.0000028502562
 21
26.59807695379242
  0
LINE
  5
2DC
100
AcDbEntity
  8
0
  6
ByLayer
 62
  256
370
   -1
100
AcDbLine
 10
394.0000028502562
 20
26.59807695379242
 11
394.7235457149487
 21
26.89777822130634
  0
LINE
  5
2DD
100
AcDbEntity
  8
0
  6
ByLayer
 62
  256
370
   -1
100
AcDbLine
 10
394.7235457149487
 20
26.89777822130634
 11
395.5000028502564
 21
27.00000074243917
  0
LINE
  5
2DE
100
AcDbEntity
  8
0
  6
ByLayer
 62
  256
370
   -1
100
AcDbLine
 10
395.5000028502564
 20
27.00000074243917
 11
396.2764599855639
 21
26.89777822130634
  0
LINE
  5
2DF
100
AcDbEntity
  8
0
  6
ByLayer
 62
  256
370
   -1
100
AcDbLine
 10
396.2764599855639
 20
26.89777822130634
 11
397.0000028502564
 21
26.59807695379242
  0
LINE
  5
2E0
100
AcDbEntity
  8
0
  6
ByLayer
 62
  256
370
   -1
100
AcDbLine
 10
397.0000028502564
 20
26.59807695379242
 11
397.621323193816
 21
26.12132108599873
  0
LINE
  5
2E1
100
AcDbEntity
  8
0
  6
ByLayer
 62
  256
370
   -1
100
AcDbLine
 10
397.621323193816
 20
26.12132108599873
 11
398.0980790616096
 21
25.50000074243917
  0
LINE
  5
2E2
100
AcDbEntity
  8
0
  6
ByLayer
 62
  256
370
   -1
100
AcDbLine
 10
398.0980790616096
 20
25.50000074243917
 11
398.3977803291235
 21
24.77645787774668
  0
LINE
  5
2E3
100
AcDbEntity
  8
0
  6
ByLayer
 62
  256
370
   -1
100
AcDbLine
 10
398.3977803291235
 20
24.77645787774668
 11
398.5000028502564
 21
24.00000074243917
  0
LINE
  5
2E4
100
AcDbEntity
  8
0
  6
ByLayer
 62
  256
370
   -1
100
AcDbLine
 10
398.5000028502564
 20
24.00000074243917
 11
398.3977803291235
 21
23.22354360713156
  0
LINE
  5
2E5
100
AcDbEntity
  8
0
  6
ByLayer
 62
  256
370
   -1
100
AcDbLine
 10
398.3977803291235
 20
23.22354360713156
 11
398.0980790616096
 21
22.50000074243906
  0
LINE
  5
2E6
100
AcDbEntity
  8
0
  6
ByLayer
 62
  256
370
   -1
100
AcDbLine
 10
398.0980790616096
 20
22.50000074243906
 11
397.621323193816
 21
21.87868039887951
  0
LINE
  5
2E7
100
AcDbEntity
  8
0
  6
ByLayer
 62
  256
370
   -1
100
AcDbLine
 10
397.621323193816
 20
21.87868039887951
 11
397.0000028502564
 21
21.4019245310858
  0
LINE
  5
2E8
100
AcDbEntity
  8
0
  6
ByLayer
 62
  256
370
   -1
100
AcDbLine
 10
397.0000028502564
 20
21.4019245310858
 11
396.2764599855639
 21
21.10222326357189
  0
LINE
  5
2E9
100
AcDbEntity
  8
0
  6
ByLayer
 62
  256
370
   -1
100
AcDbLine
 10
396.2764599855639
 20
21.10222326357189
 11
395.5000028502564
 21
21.00000074243906
  0
LINE
  5
2EA
100
AcDbEntity
  8
0
  6
ByLayer
 62
  256
370
   -1
100
AcDbLine
 10
395.5000028502564
 20
21.00000074243906
 11
394.7235457149487
 21
21.10222326357189
  0
LINE
  5
2EB
100
AcDbEntity
  8
0
  6
ByLayer
 62
  256
370
   -1
100
AcDbLine
 10
394.7235457149487
 20
21.10222326357189
 11
394.0000028502562
 21
21.4019245310858
  0
LINE
  5
2EC
100
AcDbEntity
  8
0
  6
ByLayer
 62
  256
370
   -1
100
AcDbLine
 10
394.0000028502562
 20
21.4019245310858
 11
393.3786825066966
 21
21.87868039887951
  0
LINE
  5
2ED
100
AcDbEntity
  8
0
  6
ByLayer
 62
  256
370
   -1
100
AcDbLine
 10
393.3786825066966
 20
21.87868039887951
 11
392.901926638903
 21
22.50000074243906
  0
LINE
  5
2EE
100
AcDbEntity
  8
0
  6
ByLayer
 62
  256
370
   -1
100
AcDbLine
 10
392.901926638903
 20
22.50000074243906
 11
392.6022253713891
 21
23.22354360713156
  0
LINE
  5
2EF
100
AcDbEntity
  8
0
  6
ByLayer
 62
  256
370
   -1
100
AcDbLine
 10
392.6022253713891
 20
23.22354360713156
 11
392.5000028502562
 21
24.00000074243917
  0
LINE
  5
2F0
100
AcDbEntity
  8
0
  6
ByLayer
 62
  256
370
   -1
100
AcDbLine
 10
372.0000028458156
 20
4.499996862962007
 11
372.1022253669485
 21
5.276453998269631
  0
LINE
  5
2F1
100
AcDbEntity
  8
0
  6
ByLayer
 62
  256
370
   -1
100
AcDbLine
 10
372.1022253669485
 20
5.276453998269631
 11
372.4019266344622
 21
5.999996862962007
  0
LINE
  5
2F2
100
AcDbEntity
  8
0
  6
ByLayer
 62
  256
370
   -1
100
AcDbLine
 10
372.4019266344622
 20
5.999996862962007
 11
372.878682502256
 21
6.621317206521553
  0
LINE
  5
2F3
100
AcDbEntity
  8
0
  6
ByLayer
 62
  256
370
   -1
100
AcDbLine
 10
372.878682502256
 20
6.621317206521553
 11
373.5000028458156
 21
7.098073074315264
  0
LINE
  5
2F4
100
AcDbEntity
  8
0
  6
ByLayer
 62
  256
370
   -1
100
AcDbLine
 10
373.5000028458156
 20
7.098073074315264
 11
374.2235457105081
 21
7.397774341829177
  0
LINE
  5
2F5
100
AcDbEntity
  8
0
  6
ByLayer
 62
  256
370
   -1
100
AcDbLine
 10
374.2235457105081
 20
7.397774341829177
 11
375.0000028458156
 21
7.499996862962007
  0
LINE
  5
2F6
100
AcDbEntity
  8
0
  6
ByLayer
 62
  256
370
   -1
100
AcDbLine
 10
375.0000028458156
 20
7.499996862962007
 11
375.7764599811233
 21
7.397774341829177
  0
LINE
  5
2F7
100
AcDbEntity
  8
0
  6
ByLayer
 62
  256
370
   -1
100
AcDbLine
 10
375.7764599811233
 20
7.397774341829177
 11
376.5000028458156
 21
7.098073074315264
  0
LINE
  5
2F8
100
AcDbEntity
  8
0
  6
ByLayer
 62
  256
370
   -1
100
AcDbLine
 10
376.5000028458156
 20
7.098073074315264
 11
377.1213231893751
 21
6.621317206521553
  0
LINE
  5
2F9
100
AcDbEntity
  8
0
  6
ByLayer
 62
  256
370
   -1
100
AcDbLine
 10
377.1213231893751
 20
6.621317206521553
 11
377.5980790571689
 21
5.999996862962007
  0
LINE
  5
2FA
100
AcDbEntity
  8
0
  6
ByLayer
 62
  256
370
   -1
100
AcDbLine
 10
377.5980790571689
 20
5.999996862962007
 11
377.8977803246829
 21
5.276453998269631
  0
LINE
  5
2FB
100
AcDbEntity
  8
0
  6
ByLayer
 62
  256
370
   -1
100
AcDbLine
 10
377.8977803246829
 20
5.276453998269631
 11
378.0000028458156
 21
4.499996862962007
  0
LINE
  5
2FC
100
AcDbEntity
  8
0
  6
ByLayer
 62
  256
370
   -1
100
AcDbLine
 10
378.0000028458156
 20
4.499996862962007
 11
377.8977803246829
 21
3.723539727654385
  0
LINE
  5
2FD
100
AcDbEntity
  8
0
  6
ByLayer
 62
  256
370
   -1
100
AcDbLine
 10
377.8977803246829
 20
3.723539727654385
 11
377.5980790571689
 21
2.999996862962007
  0
LINE
  5
2FE
100
AcDbEntity
  8
0
  6
ByLayer
 62
  256
370
   -1
100
AcDbLine
 10
377.5980790571689
 20
2.999996862962007
 11
377.1213231893751
 21
2.378676519402347
  0
LINE
  5
2FF
100
AcDbEntity
  8
0
  6
ByLayer
 62
  256
370
   -1
100
AcDbLine
 10
377.1213231893751
 20
2.378676519402347
 11
376.5000028458156
 21
1.901920651608634
  0
LINE
  5
300
100
AcDbEntity
  8
0
  6
ByLayer
 62
  256
370
   -1
100
AcDbLine
 10
376.5000028458156
 20
1.901920651608634
 11
375.7764599811233
 21
1.602219384094725
  0
LINE
  5
301
100
AcDbEntity
  8
0
  6
ByLayer
 62
  256
370
   -1
100
AcDbLine
 10
375.7764599811233
 20
1.602219384094725
 11
375.0000028458156
 21
1.499996862961893
  0
LINE
  5
302
100
AcDbEntity
  8
0
  6
ByLayer
 62
  256
370
   -1
100
AcDbLine
 10
375.0000028458156
 20
1.499996862961893
 11
374.2235457105081
 21
1.602219384094725
  0
LINE
  5
303
100
AcDbEntity
  8
0
  6
ByLayer
 62
  256
370
   -1
100
AcDbLine
 10
374.2235457105081
 20
1.602219384094725
 11
373.5000028458156
 21
1.901920651608634
  0
LINE
  5
304
100
AcDbEntity
  8
0
  6
ByLayer
 62
  256
370
   -1
100
AcDbLine
 10
373.5000028458156
 20
1.901920651608634
 11
372.878682502256
 21
2.378676519402347
  0
LINE
  5
305
100
AcDbEntity
  8
0
  6
ByLayer
 62
  256
370
   -1
100
AcDbLine
 10
372.878682502256
 20
2.378676519402347
 11
372.4019266344622
 21
2.999996862962007
  0
LINE
  5
306
100
AcDbEntity
  8
0
  6
ByLayer
 62
  256
370
   -1
100
AcDbLine
 10
372.4019266344622
 20
2.999996862962007
 11
372.1022253669485
 21
3.723539727654385
  0
LINE
  5
307
100
AcDbEntity
  8
0
  6
ByLayer
 62
  256
370
   -1
100
AcDbLine
 10
372.1022253669485
 20
3.723539727654385
 11
372.0000028458156
 21
4.499996862962007
  0
LINE
  5
308
100
AcDbEntity
  8
0
  6
ByLayer
 62
  256
370
   -1
100
AcDbLine
 10
287.0000028341818
 20
4.499995497633108
 11
287.1022253553148
 21
5.276452632940732
  0
LINE
  5
309
100
AcDbEntity
  8
0
  6
ByLayer
 62
  256
370
   -1
100
AcDbLine
 10
287.1022253553148
 20
5.276452632940732
 11
287.4019266228287
 21
5.999995497633108
  0
LINE
  5
30A
100
AcDbEntity
  8
0
  6
ByLayer
 62
  256
370
   -1
100
AcDbLine
 10
287.4019266228287
 20
5.999995497633108
 11
287.8786824906223
 21
6.621315841192654
  0
LINE
  5
30B
100
AcDbEntity
  8
0
  6
ByLayer
 62
  256
370
   -1
100
AcDbLine
 10
287.8786824906223
 20
6.621315841192654
 11
288.5000028341818
 21
7.098071708986479
  0
LINE
  5
30C
100
AcDbEntity
  8
0
  6
ByLayer
 62
  256
370
   -1
100
AcDbLine
 10
288.5000028341818
 20
7.098071708986479
 11
289.2235456988743
 21
7.397772976500278
  0
LINE
  5
30D
100
AcDbEntity
  8
0
  6
ByLayer
 62
  256
370
   -1
100
AcDbLine
 10
289.2235456988743
 20
7.397772976500278
 11
290.0000028341818
 21
7.499995497633108
  0
LINE
  5
30E
100
AcDbEntity
  8
0
  6
ByLayer
 62
  256
370
   -1
100
AcDbLine
 10
290.0000028341818
 20
7.499995497633108
 11
290.7764599694896
 21
7.397772976500278
  0
LINE
  5
30F
100
AcDbEntity
  8
0
  6
ByLayer
 62
  256
370
   -1
100
AcDbLine
 10
290.7764599694896
 20
7.397772976500278
 11
291.5000028341818
 21
7.098071708986479
  0
LINE
  5
310
100
AcDbEntity
  8
0
  6
ByLayer
 62
  256
370
   -1
100
AcDbLine
 10
291.5000028341818
 20
7.098071708986479
 11
292.1213231777415
 21
6.621315841192654
  0
LINE
  5
311
100
AcDbEntity
  8
0
  6
ByLayer
 62
  256
370
   -1
100
AcDbLine
 10
292.1213231777415
 20
6.621315841192654
 11
292.5980790455351
 21
5.999995497633108
  0
LINE
  5
312
100
AcDbEntity
  8
0
  6
ByLayer
 62
  256
370
   -1
100
AcDbLine
 10
292.5980790455351
 20
5.999995497633108
 11
292.8977803130491
 21
5.276452632940732
  0
LINE
  5
313
100
AcDbEntity
  8
0
  6
ByLayer
 62
  256
370
   -1
100
AcDbLine
 10
292.8977803130491
 20
5.276452632940732
 11
293.0000028341821
 21
4.499995497633108
  0
LINE
  5
314
100
AcDbEntity
  8
0
  6
ByLayer
 62
  256
370
   -1
100
AcDbLine
 10
293.0000028341821
 20
4.499995497633108
 11
292.8977803130491
 21
3.723538362325486
  0
LINE
  5
315
100
AcDbEntity
  8
0
  6
ByLayer
 62
  256
370
   -1
100
AcDbLine
 10
292.8977803130491
 20
3.723538362325486
 11
292.5980790455351
 21
2.999995497633107
  0
LINE
  5
316
100
AcDbEntity
  8
0
  6
ByLayer
 62
  256
370
   -1
100
AcDbLine
 10
292.5980790455351
 20
2.999995497633107
 11
292.1213231777415
 21
2.378675154073449
  0
LINE
  5
317
100
AcDbEntity
  8
0
  6
ByLayer
 62
  256
370
   -1
100
AcDbLine
 10
292.1213231777415
 20
2.378675154073449
 11
291.5000028341818
 21
1.901919286279735
  0
LINE
  5
318
100
AcDbEntity
  8
0
  6
ByLayer
 62
  256
370
   -1
100
AcDbLine
 10
291.5000028341818
 20
1.901919286279735
 11
290.7764599694896
 21
1.602218018765939
  0
LINE
  5
319
100
AcDbEntity
  8
0
  6
ByLayer
 62
  256
370
   -1
100
AcDbLine
 10
290.7764599694896
 20
1.602218018765939
 11
290.0000028341818
 21
1.499995497633108
  0
LINE
  5
31A
100
AcDbEntity
  8
0
  6
ByLayer
 62
  256
370
   -1
100
AcDbLine
 10
290.0000028341818
 20
1.499995497633108
 11
289.2235456988743
 21
1.602218018765939
  0
LINE
  5
31B
100
AcDbEntity
  8
0
  6
ByLayer
 62
  256
370
   -1
100
AcDbLine
 10
289.2235456988743
 20
1.602218018765939
 11
288.5000028341818
 21
1.901919286279735
  0
LINE
  5
31C
100
AcDbEntity
  8
0
  6
ByLayer
 62
  256
370
   -1
100
AcDbLine
 10
288.5000028341818
 20
1.901919286279735
 11
287.8786824906223
 21
2.378675154073449
  0
LINE
  5
31D
100
AcDbEntity
  8
0
  6
ByLayer
 62
  256
370
   -1
100
AcDbLine
 10
287.8786824906223
 20
2.378675154073449
 11
287.4019266228287
 21
2.999995497633107
  0
LINE
  5
31E
100
AcDbEntity
  8
0
  6
ByLayer
 62
  256
370
   -1
100
AcDbLine
 10
287.4019266228287
 20
2.999995497633107
 11
287.1022253553148
 21
3.723538362325486
  0
LINE
  5
31F
100
AcDbEntity
  8
0
  6
ByLayer
 62
  256
370
   -1
100
AcDbLine
 10
287.1022253553148
 20
3.723538362325486
 11
287.0000028341818
 21
4.499995497633108
  0
LINE
  5
320
100
AcDbEntity
  8
0
  6
ByLayer
 62
  256
370
   -1
100
AcDbLine
 10
203.0000036220416
 20
4.499994108887108
 11
202.8977811009088
 21
3.723536973579486
  0
LINE
  5
321
100
AcDbEntity
  8
0
  6
ByLayer
 62
  256
370
   -1
100
AcDbLine
 10
202.8977811009088
 20
3.723536973579486
 11
202.598079833395
 21
2.999994108886996
  0
LINE
  5
322
100
AcDbEntity
  8
0
  6
ByLayer
 62
  256
370
   -1
100
AcDbLine
 10
202.598079833395
 20
2.999994108886996
 11
202.1213239656012
 21
2.37867376532745
  0
LINE
  5
323
100
AcDbEntity
  8
0
  6
ByLayer
 62
  256
370
   -1
100
AcDbLine
 10
202.1213239656012
 20
2.37867376532745
 11
201.5000036220416
 21
1.901917897533735
  0
LINE
  5
324
100
AcDbEntity
  8
0
  6
ByLayer
 62
  256
370
   -1
100
AcDbLine
 10
201.5000036220416
 20
1.901917897533735
 11
200.7764607573494
 21
1.602216630019825
  0
LINE
  5
325
100
AcDbEntity
  8
0
  6
ByLayer
 62
  256
370
   -1
100
AcDbLine
 10
200.7764607573494
 20
1.602216630019825
 11
200.0000036220416
 21
1.499994108886995
  0
LINE
  5
326
100
AcDbEntity
  8
0
  6
ByLayer
 62
  256
370
   -1
100
AcDbLine
 10
200.0000036220416
 20
7.499994108887108
 11
200.7764607573494
 21
7.397771587754278
  0
LINE
  5
327
100
AcDbEntity
  8
0
  6
ByLayer
 62
  256
370
   -1
100
AcDbLine
 10
200.7764607573494
 20
7.397771587754278
 11
201.5000036220416
 21
7.098070320240367
  0
LINE
  5
328
100
AcDbEntity
  8
0
  6
ByLayer
 62
  256
370
   -1
100
AcDbLine
 10
201.5000036220416
 20
7.098070320240367
 11
202.1213239656012
 21
6.621314452446653
  0
LINE
  5
329
100
AcDbEntity
  8
0
  6
ByLayer
 62
  256
370
   -1
100
AcDbLine
 10
202.1213239656012
 20
6.621314452446653
 11
202.598079833395
 21
5.999994108887108
  0
LINE
  5
32A
100
AcDbEntity
  8
0
  6
ByLayer
 62
  256
370
   -1
100
AcDbLine
 10
202.598079833395
 20
5.999994108887108
 11
202.8977811009088
 21
5.276451244194618
  0
LINE
  5
32B
100
AcDbEntity
  8
0
  6
ByLayer
 62
  256
370
   -1
100
AcDbLine
 10
202.8977811009088
 20
5.276451244194618
 11
203.0000036220416
 21
4.499994108887108
  0
ENDSEC
  0
SECTION
  2
OBJECTS
  0
DICTIONARY
  5
C
330
0
100
AcDbDictionary
281
    1
  3
ACAD_GROUP
350
D
  0
DICTIONARY
  5
D
330
C
100
AcDbDictionary
281
    1
  0
ENDSEC
  0
EOF
