999
dxfrw 0.6.3
  0
SECTION
  2
HEADER
  9
$ACADVER
  1
AC1021
  9
$DWGCODEPAGE
  3
ANSI_1252
  9
$INSBASE
 10
0
 20
0
 30
0
  9
$EXTMIN
 10
0
 20
0
 30
0
  9
$EXTMAX
 10
700.0000062161006
 20
400.0033173169121
 30
0
  9
$LIMMIN
 10
0
 20
0
  9
$LIMMAX
 10
420
 20
297
  9
$ORTHOMODE
 70
    0
  9
$REGENMODE
 70
    1
  9
$FILLMODE
 70
    1
  9
$QTEXTMODE
 70
    0
  9
$MIRRTEXT
 70
    0
  9
$LTSCALE
 40
1
  9
$ATTMODE
 70
    0
  9
$TEXTSIZE
 40
2.5
  9
$TRACEWID
 40
15.68
  9
$TEXTSTYLE
  7
STANDARD
  9
$CLAYER
  8
0
  9
$CELTYPE
  6
BYLAYER
  9
$CECOLOR
 62
  256
  9
$CELTSCALE
 40
1
  9
$DISPSILH
 70
    0
  9
$DIMSCALE
 40
2.5
  9
$DIMASZ
 40
2.5
  9
$DIMEXO
 40
0.625
  9
$DIMDLI
 40
3.75
  9
$DIMRND
 40
0
  9
$DIMDLE
 40
0
  9
$DIMEXE
 40
1.25
  9
$DIMTP
 40
0
  9
$DIMTM
 40
0
  9
$DIMTXT
 40
2.5
  9
$DIMCEN
 40
2.5
  9
$DIMTSZ
 40
0
  9
$DIMTOL
 70
    0
  9
$DIMLIM
 70
    0
  9
$DIMTIH
 70
    0
  9
$DIMTOH
 70
    0
  9
$DIMSE1
 70
    0
  9
$DIMSE2
 70
    0
  9
$DIMTAD
 70
    1
  9
$DIMZIN
 70
    8
  9
$DIMBLK
  1

  9
$DIMASO
 70
    1
  9
$DIMSHO
 70
    1
  9
$DIMPOST
  1

  9
$DIMAPOST
  1

  9
$DIMALT
 70
    0
  9
$DIMALTD
 70
    3
  9
$DIMALTF
 40
0.03937
  9
$DIMLFAC
 40
1
  9
$DIMTOFL
 70
    1
  9
$DIMTVP
 40
0
  9
$DIMTIX
 70
    0
  9
$DIMSOXD
 70
    0
  9
$DIMSAH
 70
    0
  9
$DIMBLK1
  1

  9
$DIMBLK2
  1

  9
$DIMSTYLE
  2
Standard
  9
$DIMCLRD
 70
    0
  9
$DIMCLRE
 70
    0
  9
$DIMCLRT
 70
    0
  9
$DIMTFAC
 40
1
  9
$DIMGAP
 40
0.625
  9
$DIMJUST
 70
    0
  9
$DIMSD1
 70
    0
  9
$DIMSD2
 70
    0
  9
$DIMTOLJ
 70
    0
  9
$DIMTZIN
 70
    8
  9
$DIMALTZ
 70
    0
  9
$DIMALTTZ
 70
    0
  9
$DIMUPT
 70
    0
  9
$DIMDEC
 70
    2
  9
$DIMTDEC
 70
    2
  9
$DIMALTU
 70
    2
  9
$DIMALTTD
 70
    3
  9
$DIMTXSTY
  7
STANDARD
  9
$DIMAUNIT
 70
    0
  9
$DIMADEC
 70
    0
  9
$DIMALTRND
 40
0
  9
$DIMAZIN
 70
    0
  9
$DIMDSEP
 70
   44
  9
$DIMATFIT
 70
    3
  9
$DIMFRAC
 70
    0
  9
$DIMLDRBLK
  1
STANDARD
  9
$DIMLUNIT
 70
    2
  9
$DIMLWD
 70
   -2
  9
$DIMLWE
 70
   -2
  9
$DIMTMOVE
 70
    0
  9
$DIMFXL
 40
1
  9
$DIMFXLON
 70
    0
  9
$DIMJOGANG
 40
0.7854
  9
$DIMTFILL
 70
    0
  9
$DIMTFILLCLR
 70
    0
  9
$DIMARCSYM
 70
    0
  9
$DIMLTYPE
  6

  9
$DIMLTEX1
  6

  9
$DIMLTEX2
  6

  9
$LUNITS
 70
    2
  9
$LUPREC
 70
    4
  9
$SKETCHINC
 40
1
  9
$FILLETRAD
 40
0
  9
$AUNITS
 70
    0
  9
$AUPREC
 70
    2
  9
$MENU
  1
.
  9
$ELEVATION
 40
0
  9
$PELEVATION
 40
0
  9
$THICKNESS
 40
0
  9
$LIMCHECK
 70
    0
  9
$CHAMFERA
 40
0
  9
$CHAMFERB
 40
0
  9
$CHAMFERC
 40
0
  9
$CHAMFERD
 40
0
  9
$SKPOLY
 70
    0
  9
$USRTIMER
 70
    1
  9
$ANGBASE
 50
0
  9
$ANGDIR
 70
    0
  9
$PDMODE
 70
   34
  9
$PDSIZE
 40
0
  9
$PLINEWID
 40
0
  9
$SPLFRAME
 70
    0
  9
$SPLINETYPE
 70
    2
  9
$SPLINESEGS
 70
    8
  9
$HANDSEED
  5
20000
  9
$SURFTAB1
 70
    6
  9
$SURFTAB2
 70
    6
  9
$SURFTYPE
 70
    6
  9
$SURFU
 70
    6
  9
$SURFV
 70
    6
  9
$UCSBASE
  2

  9
$UCSNAME
  2

  9
$UCSORG
 10
0
 20
0
 30
0
  9
$UCSXDIR
 10
1
 20
0
 30
0
  9
$UCSYDIR
 10
0
 20
1
 30
0
  9
$UCSORTHOREF
  2

  9
$UCSORTHOVIEW
 70
    0
  9
$UCSORGTOP
 10
0
 20
0
 30
0
  9
$UCSORGBOTTOM
 10
0
 20
0
 30
0
  9
$UCSORGLEFT
 10
0
 20
0
 30
0
  9
$UCSORGRIGHT
 10
0
 20
0
 30
0
  9
$UCSORGFRONT
 10
0
 20
0
 30
0
  9
$UCSORGBACK
 10
0
 20
0
 30
0
  9
$PUCSBASE
  2

  9
$PUCSNAME
  2

  9
$PUCSORG
 10
0
 20
0
 30
0
  9
$PUCSXDIR
 10
1
 20
0
 30
0
  9
$PUCSYDIR
 10
0
 20
1
 30
0
  9
$PUCSORTHOREF
  2

  9
$PUCSORTHOVIEW
 70
    0
  9
$PUCSORGTOP
 10
0
 20
0
 30
0
  9
$PUCSORGBOTTOM
 10
0
 20
0
 30
0
  9
$PUCSORGLEFT
 10
0
 20
0
 30
0
  9
$PUCSORGRIGHT
 10
0
 20
0
 30
0
  9
$PUCSORGFRONT
 10
0
 20
0
 30
0
  9
$PUCSORGBACK
 10
0
 20
0
 30
0
  9
$USERI1
 70
    0
  9
$USERI2
 70
    0
  9
$USERI3
 70
    0
  9
$USERI4
 70
    0
  9
$USERI5
 70
    0
  9
$USERR1
 40
0
  9
$USERR2
 40
0
  9
$USERR3
 40
0
  9
$USERR4
 40
0
  9
$USERR5
 40
0
  9
$WORLDVIEW
 70
    1
  9
$SHADEDGE
 70
    3
  9
$SHADEDIF
 70
   70
  9
$TILEMODE
 70
    1
  9
$MAXACTVP
 70
   64
  9
$PINSBASE
 10
0
 20
0
 30
0
  9
$PLIMCHECK
 70
    0
  9
$PEXTMIN
 10
0
 20
0
 30
0
  9
$PEXTMAX
 10
0
 20
0
 30
0
  9
$GRIDMODE
 70
    1
  9
$SNAPSTYLE
 70
    0
  9
$PLIMMIN
 10
0
 20
0
  9
$PLIMMAX
 10
210
 20
297
  9
$UNITMODE
 70
    0
  9
$VISRETAIN
 70
    1
  9
$PLINEGEN
 70
    0
  9
$PSLTSCALE
 70
    1
  9
$TREEDEPTH
 70
 3020
  9
$CMLSTYLE
  2
Standard
  9
$CMLJUST
 70
    0
  9
$CMLSCALE
 40
20
  9
$PROXYGRAPHICS
 70
    1
  9
$MEASUREMENT
 70
    1
  9
$CELWEIGHT
370
   -1
  9
$ENDCAPS
280
    0
  9
$JOINSTYLE
280
    0
  9
$LWDISPLAY
290
    0
  9
$INSUNITS
 70
    4
  9
$HYPERLINKBASE
  1

  9
$STYLESHEET
  1

  9
$XEDIT
290
    1
  9
$CEPSNTYPE
380
    0
  9
$PSTYLEMODE
290
    1
  9
$EXTNAMES
290
    1
  9
$PSVPSCALE
 40
1
  9
$OLESTARTUP
290
    0
  9
$SORTENTS
280
  127
  9
$INDEXCTL
280
    0
  9
$HIDETEXT
280
    1
  9
$XCLIPFRAME
290
    0
  9
$HALOGAP
280
    0
  9
$OBSCOLOR
 70
  257
  9
$OBSLTYPE
280
    0
  9
$INTERSECTIONDISPLAY
280
    0
  9
$INTERSECTIONCOLOR
 70
  257
  9
$DIMASSOC
280
    1
  9
$PROJECTNAME
  1

  9
$CAMERADISPLAY
290
    0
  9
$LENSLENGTH
 40
50
  9
$CAMERAHEIGHT
 40
0
  9
$STEPSPERSEC
 40
2
  9
$STEPSIZE
 40
50
  9
$3DDWFPREC
 40
2
  9
$PSOLWIDTH
 40
5
  9
$PSOLHEIGHT
 40
80
  9
$LOFTANG1
 40
1.570796326794897
  9
$LOFTANG2
 40
1.570796326794897
  9
$LOFTMAG1
 40
0
  9
$LOFTMAG2
 40
0
  9
$LOFTPARAM
 70
    7
  9
$LOFTNORMALS
280
    1
  9
$LATITUDE
 40
1
  9
$LONGITUDE
 40
1
  9
$NORTHDIRECTION
 40
0
  9
$TIMEZONE
 70
-8000
  9
$LIGHTGLYPHDISPLAY
280
    1
  9
$TILEMODELIGHTSYNCH
280
    1
  9
$SOLIDHIST
280
    1
  9
$SHOWHIST
280
    1
  9
$DWFFRAME
280
    2
  9
$DGNFRAME
280
    0
  9
$REALWORLDSCALE
290
    1
  9
$INTERFERECOLOR
 62
    1
  9
$CSHADOW
280
    0
  9
$SHADOWPLANELOCATION
 40
0
  0
ENDSEC
  0
SECTION
  2
CLASSES
  0
ENDSEC
  0
SECTION
  2
TABLES
  0
TABLE
  2
VPORT
  5
8
330
0
100
AcDbSymbolTable
 70
    1
  0
VPORT
  5
31
330
2
100
AcDbSymbolTableRecord
100
AcDbViewportTableRecord
  2
*ACTIVE
 70
    0
 10
0
 20
0
 11
1
 21
1
 12
315.6948745287031
 22
279.7886628023957
 13
0
 23
0
 14
10
 24
10
 15
10
 25
10
 16
0
 26
0
 36
1
 17
0
 27
0
 37
0
 40
682.6843372378454
 41
1.259562841530055
 42
50
 43
0
 44
0
 50
0
 51
0
 71
    0
 72
  100
 73
    1
 74
    3
 75
    0
 76
    1
 77
    0
 78
    0
281
    0
 65
    1
110
0
120
0
130
0
111
1
121
0
131
0
112
0
122
1
132
0
 79
    0
146
0
348
10020
 60
    7
 61
    5
292
1
282
    1
141
0
142
0
 63
  250
421
3358443
  0
ENDTAB
  0
TABLE
  2
LTYPE
  5
5
330
0
100
AcDbSymbolTable
 70
    4
  0
LTYPE
  5
14
330
5
100
AcDbSymbolTableRecord
100
AcDbLinetypeTableRecord
  2
ByBlock
 70
    0
  3

 72
   65
 73
    0
 40
0
  0
LTYPE
  5
15
330
5
100
AcDbSymbolTableRecord
100
AcDbLinetypeTableRecord
  2
ByLayer
 70
    0
  3

 72
   65
 73
    0
 40
0
  0
LTYPE
  5
16
330
5
100
AcDbSymbolTableRecord
100
AcDbLinetypeTableRecord
  2
Continuous
 70
    0
  3
Solid line
 72
   65
 73
    0
 40
0
  0
LTYPE
  5
32
330
5
100
AcDbSymbolTableRecord
100
AcDbLinetypeTableRecord
  2
DOT
 70
    0
  3
Dot . . . . . . . . . . . . . . . . . . . . . .
 72
   65
 73
    2
 40
6.35
 49
0
 74
    0
 49
-6.35
 74
    0
  0
LTYPE
  5
33
330
5
100
AcDbSymbolTableRecord
100
AcDbLinetypeTableRecord
  2
DOTTINY
 70
    0
  3
Dot (.15x) .....................................
 72
   65
 73
    2
 40
0.9525
 49
0
 74
    0
 49
-0.9525
 74
    0
  0
LTYPE
  5
34
330
5
100
AcDbSymbolTableRecord
100
AcDbLinetypeTableRecord
  2
DOT2
 70
    0
  3
Dot (.5x) .....................................
 72
   65
 73
    2
 40
3.175
 49
0
 74
    0
 49
-3.175
 74
    0
  0
LTYPE
  5
35
330
5
100
AcDbSymbolTableRecord
100
AcDbLinetypeTableRecord
  2
DOTX2
 70
    0
  3
Dot (2x) .  .  .  .  .  .  .  .  .  .  .  .  .
 72
   65
 73
    2
 40
12.7
 49
0
 74
    0
 49
-12.7
 74
    0
  0
LTYPE
  5
36
330
5
100
AcDbSymbolTableRecord
100
AcDbLinetypeTableRecord
  2
DASHED
 70
    0
  3
Dashed _ _ _ _ _ _ _ _ _ _ _ _ _ _ _ _ _
 72
   65
 73
    2
 40
19.05
 49
12.7
 74
    0
 49
-6.35
 74
    0
  0
LTYPE
  5
37
330
5
100
AcDbSymbolTableRecord
100
AcDbLinetypeTableRecord
  2
DASHEDTINY
 70
    0
  3
Dashed (.15x) _ _ _ _ _ _ _ _ _ _ _ _ _ _ _ _ _
 72
   65
 73
    2
 40
2.8575
 49
1.905
 74
    0
 49
-0.9525
 74
    0
  0
LTYPE
  5
38
330
5
100
AcDbSymbolTableRecord
100
AcDbLinetypeTableRecord
  2
DASHED2
 70
    0
  3
Dashed (.5x) _ _ _ _ _ _ _ _ _ _ _ _ _ _ _ _ _
 72
   65
 73
    2
 40
9.524999999999999
 49
6.35
 74
    0
 49
-3.175
 74
    0
  0
LTYPE
  5
39
330
5
100
AcDbSymbolTableRecord
100
AcDbLinetypeTableRecord
  2
DASHEDX2
 70
    0
  3
Dashed (2x) ____  ____  ____  ____  ____  ___
 72
   65
 73
    2
 40
38.09999999999999
 49
25.4
 74
    0
 49
-12.7
 74
    0
  0
LTYPE
  5
3A
330
5
100
AcDbSymbolTableRecord
100
AcDbLinetypeTableRecord
  2
DASHDOT
 70
    0
  3
Dash dot __ . __ . __ . __ . __ . __ . __ . __
 72
   65
 73
    4
 40
25.4
 49
12.7
 74
    0
 49
-6.35
 74
    0
 49
0
 74
    0
 49
-6.35
 74
    0
  0
LTYPE
  5
3B
330
5
100
AcDbSymbolTableRecord
100
AcDbLinetypeTableRecord
  2
DASHDOTTINY
 70
    0
  3
Dash dot (.15x) _._._._._._._._._._._._._._._.
 72
   65
 73
    4
 40
3.81
 49
1.905
 74
    0
 49
-0.9525
 74
    0
 49
0
 74
    0
 49
-0.9525
 74
    0
  0
LTYPE
  5
3C
330
5
100
AcDbSymbolTableRecord
100
AcDbLinetypeTableRecord
  2
DASHDOT2
 70
    0
  3
Dash dot (.5x) _._._._._._._._._._._._._._._.
 72
   65
 73
    4
 40
12.7
 49
6.35
 74
    0
 49
-3.175
 74
    0
 49
0
 74
    0
 49
-3.175
 74
    0
  0
LTYPE
  5
3D
330
5
100
AcDbSymbolTableRecord
100
AcDbLinetypeTableRecord
  2
DASHDOTX2
 70
    0
  3
Dash dot (2x) ____  .  ____  .  ____  .  ___
 72
   65
 73
    4
 40
50.8
 49
25.4
 74
    0
 49
-12.7
 74
    0
 49
0
 74
    0
 49
-12.7
 74
    0
  0
LTYPE
  5
3E
330
5
100
AcDbSymbolTableRecord
100
AcDbLinetypeTableRecord
  2
DIVIDE
 70
    0
  3
Divide ____ . . ____ . . ____ . . ____ . . ____
 72
   65
 73
    6
 40
31.75
 49
12.7
 74
    0
 49
-6.35
 74
    0
 49
0
 74
    0
 49
-6.35
 74
    0
 49
0
 74
    0
 49
-6.35
 74
    0
  0
LTYPE
  5
3F
330
5
100
AcDbSymbolTableRecord
100
AcDbLinetypeTableRecord
  2
DIVIDETINY
 70
    0
  3
Divide (.15x) __..__..__..__..__..__..__..__.._
 72
   65
 73
    6
 40
4.7625
 49
1.905
 74
    0
 49
-0.9525
 74
    0
 49
0
 74
    0
 49
-0.9525
 74
    0
 49
0
 74
    0
 49
-0.9525
 74
    0
  0
LTYPE
  5
40
330
5
100
AcDbSymbolTableRecord
100
AcDbLinetypeTableRecord
  2
DIVIDE2
 70
    0
  3
Divide (.5x) __..__..__..__..__..__..__..__.._
 72
   65
 73
    6
 40
15.875
 49
6.35
 74
    0
 49
-3.175
 74
    0
 49
0
 74
    0
 49
-3.175
 74
    0
 49
0
 74
    0
 49
-3.175
 74
    0
  0
LTYPE
  5
41
330
5
100
AcDbSymbolTableRecord
100
AcDbLinetypeTableRecord
  2
DIVIDEX2
 70
    0
  3
Divide (2x) ________  .  .  ________  .  .  _
 72
   65
 73
    6
 40
63.5
 49
25.4
 74
    0
 49
-12.7
 74
    0
 49
0
 74
    0
 49
-12.7
 74
    0
 49
0
 74
    0
 49
-12.7
 74
    0
  0
LTYPE
  5
42
330
5
100
AcDbSymbolTableRecord
100
AcDbLinetypeTableRecord
  2
BORDER
 70
    0
  3
Border __ __ . __ __ . __ __ . __ __ . __ __ .
 72
   65
 73
    6
 40
44.45
 49
12.7
 74
    0
 49
-6.35
 74
    0
 49
12.7
 74
    0
 49
-6.35
 74
    0
 49
0
 74
    0
 49
-6.35
 74
    0
  0
LTYPE
  5
43
330
5
100
AcDbSymbolTableRecord
100
AcDbLinetypeTableRecord
  2
BORDERTINY
 70
    0
  3
Border (.15x) __.__.__.__.__.__.__.__.__.__.__.
 72
   65
 73
    6
 40
6.6675
 49
1.905
 74
    0
 49
-0.9525
 74
    0
 49
1.905
 74
    0
 49
-0.9525
 74
    0
 49
0
 74
    0
 49
-0.9525
 74
    0
  0
LTYPE
  5
44
330
5
100
AcDbSymbolTableRecord
100
AcDbLinetypeTableRecord
  2
BORDER2
 70
    0
  3
Border (.5x) __.__.__.__.__.__.__.__.__.__.__.
 72
   65
 73
    6
 40
22.225
 49
6.35
 74
    0
 49
-3.175
 74
    0
 49
6.35
 74
    0
 49
-3.175
 74
    0
 49
0
 74
    0
 49
-3.175
 74
    0
  0
LTYPE
  5
45
330
5
100
AcDbSymbolTableRecord
100
AcDbLinetypeTableRecord
  2
BORDERX2
 70
    0
  3
Border (2x) ____  ____  .  ____  ____  .  ___
 72
   65
 73
    6
 40
88.89999999999999
 49
25.4
 74
    0
 49
-12.7
 74
    0
 49
25.4
 74
    0
 49
-12.7
 74
    0
 49
0
 74
    0
 49
-12.7
 74
    0
  0
LTYPE
  5
46
330
5
100
AcDbSymbolTableRecord
100
AcDbLinetypeTableRecord
  2
CENTER
 70
    0
  3
Center ____ _ ____ _ ____ _ ____ _ ____ _ ____
 72
   65
 73
    4
 40
50.8
 49
31.75
 74
    0
 49
-6.35
 74
    0
 49
6.35
 74
    0
 49
-6.35
 74
    0
  0
LTYPE
  5
47
330
5
100
AcDbSymbolTableRecord
100
AcDbLinetypeTableRecord
  2
CENTERTINY
 70
    0
  3
Center (.15x) ___ _ ___ _ ___ _ ___ _ ___ _ ___
 72
   65
 73
    4
 40
7.619999999999999
 49
4.7625
 74
    0
 49
-0.9525
 74
    0
 49
0.9525
 74
    0
 49
-0.9525
 74
    0
  0
LTYPE
  5
48
330
5
100
AcDbSymbolTableRecord
100
AcDbLinetypeTableRecord
  2
CENTER2
 70
    0
  3
Center (.5x) ___ _ ___ _ ___ _ ___ _ ___ _ ___
 72
   65
 73
    4
 40
28.575
 49
19.05
 74
    0
 49
-3.175
 74
    0
 49
3.175
 74
    0
 49
-3.175
 74
    0
  0
LTYPE
  5
49
330
5
100
AcDbSymbolTableRecord
100
AcDbLinetypeTableRecord
  2
CENTERX2
 70
    0
  3
Center (2x) ________  __  ________  __  _____
 72
   65
 73
    4
 40
101.6
 49
63.5
 74
    0
 49
-12.7
 74
    0
 49
12.7
 74
    0
 49
-12.7
 74
    0
  0
ENDTAB
  0
TABLE
  2
LAYER
  5
2
330
0
100
AcDbSymbolTable
 70
    1
  0
LAYER
  5
10
330
2
100
AcDbSymbolTableRecord
100
AcDbLayerTableRecord
  2
0
 70
    0
 62
    7
  6
CONTINUOUS
370
    0
390
F
  0
LAYER
  5
4A
330
2
100
AcDbSymbolTableRecord
100
AcDbLayerTableRecord
  2
Component#135
 70
    0
 62
    7
  6
CONTINUOUS
370
   -3
390
F
  0
ENDTAB
  0
TABLE
  2
STYLE
  5
3
330
0
100
AcDbSymbolTable
 70
    3
  0
STYLE
  5
4B
330
2
100
AcDbSymbolTableRecord
100
AcDbTextStyleTableRecord
  2
Standard
 70
    0
 40
0
 41
1
 50
0
 71
    0
 42
1
  3
txt
  4

  0
ENDTAB
  0
TABLE
  2
VIEW
  5
6
330
0
100
AcDbSymbolTable
 70
    0
  0
ENDTAB
  0
TABLE
  2
UCS
  5
7
330
0
100
AcDbSymbolTable
 70
    0
  0
ENDTAB
  0
TABLE
  2
APPID
  5
9
330
0
100
AcDbSymbolTable
 70
    1
  0
APPID
  5
12
330
9
100
AcDbSymbolTableRecord
100
AcDbRegAppTableRecord
  2
ACAD
 70
    0
  0
APPID
  5
4C
330
9
100
AcDbSymbolTableRecord
100
AcDbRegAppTableRecord
  2
LibreCad
 70
    0
  0
ENDTAB
  0
TABLE
  2
DIMSTYLE
  5
A
330
0
100
AcDbSymbolTable
 70
    1
100
AcDbDimStyleTable
 71
    1
  0
DIMSTYLE
105
4D
330
A
100
AcDbSymbolTableRecord
100
AcDbDimStyleTableRecord
  2
Standard
 70
    0
 40
2.5
 41
2.5
 42
0.625
 43
0.38
 44
1.25
 45
0
 46
0
 47
0
 48
0
 49
1
140
2.5
141
0.09
142
0
143
25.4
144
1
145
0
146
1
147
0.625
148
0
 71
    0
 72
    0
 73
    0
 74
    1
 75
    0
 76
    0
 77
    0
 78
    8
 79
    0
170
    0
171
    2
172
    0
173
    0
174
    0
175
    0
176
    0
177
    0
178
    0
179
    0
271
    2
272
    4
273
    2
274
    2
275
    0
276
    0
277
    2
278
   44
279
    0
280
    0
281
    0
282
    0
283
    1
284
    0
285
    0
286
    0
288
    0
289
    3
340
STANDARD
341

371
   -2
372
   -2
  0
ENDTAB
  0
TABLE
  2
BLOCK_RECORD
  5
1
330
0
100
AcDbSymbolTable
 70
    2
  0
BLOCK_RECORD
  5
1F
330
1
100
AcDbSymbolTableRecord
100
AcDbBlockTableRecord
  2
*Model_Space
 70
    0
280
    1
281
    0
  0
BLOCK_RECORD
  5
1E
330
1
100
AcDbSymbolTableRecord
100
AcDbBlockTableRecord
  2
*Paper_Space
 70
    0
280
    1
281
    0
  0
ENDTAB
  0
ENDSEC
  0
SECTION
  2
BLOCKS
  0
BLOCK
  5
20
330
1F
100
AcDbEntity
  8
0
100
AcDbBlockBegin
  2
*Model_Space
 70
    0
 10
0
 20
0
 30
0
  3
*Model_Space
  1

  0
ENDBLK
  5
21
330
1F
100
AcDbEntity
  8
0
100
AcDbBlockEnd
  0
BLOCK
  5
1C
330
1B
100
AcDbEntity
  8
0
100
AcDbBlockBegin
  2
*Paper_Space
 70
    0
 10
0
 20
0
 30
0
  3
*Paper_Space
  1

  0
ENDBLK
  5
1D
330
1F
100
AcDbEntity
  8
0
100
AcDbBlockEnd
  0
ENDSEC
  0
SECTION
  2
ENTITIES
  0
LINE
  5
4E
100
AcDbEntity
  8
0
  6
ByLayer
 62
  256
370
   -1
100
AcDbLine
 10
4.500000241487896
 20
194.5000001988506
 11
4.888228809095608
 21
194.4488889379359
  0
LINE
  5
4F
100
AcDbEntity
  8
0
  6
ByLayer
 62
  256
370
   -1
100
AcDbLine
 10
4.888228809095608
 20
194.4488889379359
 11
5.250000241308044
 21
194.2990383038543
  0
LINE
  5
50
100
AcDbEntity
  8
0
  6
ByLayer
 62
  256
370
   -1
100
AcDbLine
 10
70.00000077062145
 20
280.003240350585
 11
70.00000048450011
 21
2.122400474036112e-06
  0
LINE
  5
51
100
AcDbEntity
  8
0
  6
ByLayer
 62
  256
370
   -1
100
AcDbLine
 10
0
 20
0
 11
70.00000048450011
 21
2.122400474036112e-06
  0
LINE
  5
52
100
AcDbEntity
  8
0
  6
ByLayer
 62
  256
370
   -1
100
AcDbLine
 10
3.344866854604334e-07
 20
390.0033141291683
 11
0
 21
0
  0
LINE
  5
53
100
AcDbEntity
  8
0
  6
ByLayer
 62
  256
370
   -1
100
AcDbLine
 10
199.9999994652692
 20
390.0033119797597
 11
3.344866854604334e-07
 21
390.0033141291683
  0
LINE
  5
54
100
AcDbEntity
  8
0
  6
ByLayer
 62
  256
370
   -1
100
AcDbLine
 10
200.0000008526956
 20
283.0032458319886
 11
73.00000077404229
 21
283.0032404770693
  0
LINE
  5
55
100
AcDbEntity
  8
0
  6
ByLayer
 62
  256
370
   -1
100
AcDbLine
 10
73.00000077404229
 20
283.0032404770693
 11
72.22354363861814
 21
282.9010179232
  0
LINE
  5
56
100
AcDbEntity
  8
0
  6
ByLayer
 62
  256
370
   -1
100
AcDbLine
 10
72.22354363861814
 20
282.9010179232
 11
71.50000077358413
 21
282.6013166251805
  0
LINE
  5
57
100
AcDbEntity
  8
0
  6
ByLayer
 62
  256
370
   -1
100
AcDbLine
 10
71.50000077358413
 20
282.6013166251805
 11
70.87868042948071
 21
282.124560731191
  0
LINE
  5
58
100
AcDbEntity
  8
0
  6
ByLayer
 62
  256
370
   -1
100
AcDbLine
 10
70.87868042948071
 20
282.124560731191
 11
70.40192456097861
 21
281.5032403675305
  0
LINE
  5
59
100
AcDbEntity
  8
0
  6
ByLayer
 62
  256
370
   -1
100
AcDbLine
 10
70.40192456097861
 20
281.5032403675305
 11
70.10222329263956
 21
280.7796974902024
  0
LINE
  5
5A
100
AcDbEntity
  8
0
  6
ByLayer
 62
  256
370
   -1
100
AcDbLine
 10
70.10222329263956
 20
280.7796974902024
 11
70.00000077062145
 21
280.003240350585
  0
LINE
  5
5B
100
AcDbEntity
  8
0
  6
ByLayer
 62
  256
370
   -1
100
AcDbLine
 10
3.750000389340585
 20
368.3059411277291
 11
4.111771821821549
 21
368.4557917611614
  0
LINE
  5
5C
100
AcDbEntity
  8
0
  6
ByLayer
 62
  256
370
   -1
100
AcDbLine
 10
3.200962283171748
 20
367.756903022545
 11
3.43934021734708
 21
368.067563194111
  0
LINE
  5
5D
100
AcDbEntity
  8
0
  6
ByLayer
 62
  256
370
   -1
100
AcDbLine
 10
3.750000387010232
 20
365.7078649163757
 11
3.439340215443963
 21
365.9462428505515
  0
LINE
  5
5E
100
AcDbEntity
  8
0
  6
ByLayer
 62
  256
370
   -1
100
AcDbLine
 10
5.560660560906626
 20
368.0675631922081
 11
5.799038494525348
 21
367.7569030202144
  0
LINE
  5
5F
100
AcDbEntity
  8
0
  6
ByLayer
 62
  256
370
   -1
100
AcDbLine
 10
3.439340156806338
 20
280.0606602253986
 11
3.750000315191755
 21
280.2990381767513
  0
LINE
  5
60
100
AcDbEntity
  8
0
  6
ByLayer
 62
  256
370
   -1
100
AcDbLine
 10
3.051111626936972
 20
279.3882285994584
 11
3.200962240365925
 21
279.7500000402247
  0
LINE
  5
61
100
AcDbEntity
  8
0
  6
ByLayer
 62
  256
370
   -1
100
AcDbLine
 10
3.000000388185072
 20
279.0000000289328
 11
3.051111626936972
 21
279.3882285994584
  0
LINE
  5
62
100
AcDbEntity
  8
0
  6
ByLayer
 62
  256
370
   -1
100
AcDbLine
 10
3.439340276003804
 20
277.9393398818402
 11
3.200962324650845
 21
278.2500000402254
  0
LINE
  5
63
100
AcDbEntity
  8
0
  6
ByLayer
 62
  256
370
   -1
100
AcDbLine
 10
5.560660619562213
 20
277.9393400010376
 11
5.250000461177251
 21
277.7009620496849
  0
LINE
  5
64
100
AcDbEntity
  8
0
  6
ByLayer
 62
  256
370
   -1
100
AcDbLine
 10
5.799038536003081
 20
278.2500001862118
 11
5.560660619562213
 21
277.9393400010376
  0
LINE
  5
65
100
AcDbEntity
  8
0
  6
ByLayer
 62
  256
370
   -1
100
AcDbLine
 10
3.750000241307589
 20
194.2990383052002
 11
4.111771673788098
 21
194.4488889386325
  0
LINE
  5
66
100
AcDbEntity
  8
0
  6
ByLayer
 62
  256
370
   -1
100
AcDbLine
 10
3.439340069314085
 20
194.0606603715821
 11
3.750000241307589
 21
194.2990383052002
  0
LINE
  5
67
100
AcDbEntity
  8
0
  6
ByLayer
 62
  256
370
   -1
100
AcDbLine
 10
3.750000238976327
 20
191.700962093847
 11
3.439340067410967
 21
191.9393400280226
  0
LINE
  5
68
100
AcDbEntity
  8
0
  6
ByLayer
 62
  256
370
   -1
100
AcDbLine
 10
5.250000238976554
 20
191.700962092501
 11
4.88822880649559
 21
191.5511114590686
  0
LINE
  5
69
100
AcDbEntity
  8
0
  6
ByLayer
 62
  256
370
   -1
100
AcDbLine
 10
3.051111426356783
 20
106.6117716324952
 11
3.000000166138761
 21
107.0000002001948
  0
LINE
  5
6A
100
AcDbEntity
  8
0
  6
ByLayer
 62
  256
370
   -1
100
AcDbLine
 10
3.200962059788935
 20
106.2500002000147
 11
3.051111426356783
 21
106.6117716324952
  0
LINE
  5
6B
100
AcDbEntity
  8
0
  6
ByLayer
 62
  256
370
   -1
100
AcDbLine
 10
5.948888905920057
 20
107.3882287652032
 11
6.000000166138079
 21
107.0000001975034
  0
LINE
  5
6C
100
AcDbEntity
  8
0
  6
ByLayer
 62
  256
370
   -1
100
AcDbLine
 10
3.439340035135729
 20
23.93933984511489
 11
3.200962089292716
 21
24.25000000772798
  0
LINE
  5
6D
100
AcDbEntity
  8
0
  6
ByLayer
 62
  256
370
   -1
100
AcDbLine
 10
4.500000223810048
 20
23.50000005768152
 11
4.111771654190534
 21
23.55111130331886
  0
LINE
  5
6E
100
AcDbEntity
  8
0
  6
ByLayer
 62
  256
370
   -1
100
AcDbLine
 10
4.888228789498271
 20
23.551111333177
 11
4.500000223810048
 21
23.50000005768152
  0
LINE
  5
6F
100
AcDbEntity
  8
0
  6
ByLayer
 62
  256
370
   -1
100
AcDbLine
 10
5.799038300645861
 20
24.25000010763495
 11
5.560660378695502
 21
23.93933992668849
  0
LINE
  5
70
100
AcDbEntity
  8
0
  6
ByLayer
 62
  256
370
   -1
100
AcDbLine
 10
6.000000166128757
 20
25.00000011536281
 11
5.948888920491527
 21
24.61177154574352
  0
LINE
  5
71
100
AcDbEntity
  8
0
  6
ByLayer
 62
  256
370
   -1
100
AcDbLine
 10
5.560660297122013
 20
26.06066027024804
 11
5.799038242965025
 21
25.75000010763495
  0
LINE
  5
72
100
AcDbEntity
  8
0
  6
ByLayer
 62
  256
370
   -1
100
AcDbLine
 10
5.250000116175215
 20
26.29903819219885
 11
5.560660297122013
 21
26.06066027024804
  0
LINE
  5
73
100
AcDbEntity
  8
0
  6
ByLayer
 62
  256
370
   -1
100
AcDbLine
 10
4.888228678066525
 20
26.44888881204406
 11
5.250000116175215
 21
26.29903819219885
  0
LINE
  5
74
100
AcDbEntity
  8
0
  6
ByLayer
 62
  256
370
   -1
100
AcDbLine
 10
3.750000116175215
 20
26.29903813451756
 11
4.11177154275947
 21
26.44888878218615
  0
LINE
  5
75
100
AcDbEntity
  8
0
  6
ByLayer
 62
  256
370
   -1
100
AcDbLine
 10
3.439339953562239
 20
26.06066018867443
 11
3.750000116175215
 21
26.29903813451756
  0
LINE
  5
76
100
AcDbEntity
  8
0
  6
ByLayer
 62
  256
370
   -1
100
AcDbLine
 10
3.200962031611652
 20
25.75000000772798
 11
3.439339953562239
 21
26.06066018867443
  0
LINE
  5
77
100
AcDbEntity
  8
0
  6
ByLayer
 62
  256
370
   -1
100
AcDbLine
 10
54.91734608562933
 20
9.395116720080068
 11
54.79247054833763
 21
9.696592909907622
  0
LINE
  5
78
100
AcDbEntity
  8
0
  6
ByLayer
 62
  256
370
   -1
100
AcDbLine
 10
55.11599437174277
 20
9.136233249632937
 11
54.91734608562933
 21
9.395116720080068
  0
LINE
  5
79
100
AcDbEntity
  8
0
  6
ByLayer
 62
  256
370
   -1
100
AcDbLine
 10
56.62487785426219
 20
8.937585017233687
 11
56.32340166443441
 21
8.812709479942328
  0
LINE
  5
7A
100
AcDbEntity
  8
0
  6
ByLayer
 62
  256
370
   -1
100
AcDbLine
 10
57.24987782136895
 20
10.02011679095517
 11
57.2072851140606
 21
9.696592983282812
  0
LINE
  5
7B
100
AcDbEntity
  8
0
  6
ByLayer
 62
  256
370
   -1
100
AcDbLine
 10
56.88376127099491
 20
10.90400025631379
 11
57.08240955710858
 21
10.64511678586666
  0
LINE
  5
7C
100
AcDbEntity
  8
0
  6
ByLayer
 62
  256
370
   -1
100
AcDbLine
 10
56.32340159105911
 20
11.22752404566518
 11
56.62487778847549
 21
11.10264852669502
  0
LINE
  5
7D
100
AcDbEntity
  8
0
  6
ByLayer
 62
  256
370
   -1
100
AcDbLine
 10
55.67635397830281
 20
11.2275240260044
 11
55.99987778338686
 21
11.27011675297354
  0
LINE
  5
7E
100
AcDbEntity
  8
0
  6
ByLayer
 62
  256
370
   -1
100
AcDbLine
 10
27.08128554628638
 20
10.64511587418895
 11
27.20616108356194
 21
10.34363968439959
  0
LINE
  5
7F
100
AcDbEntity
  8
0
  6
ByLayer
 62
  256
370
   -1
100
AcDbLine
 10
26.88263726019795
 20
10.90399934460322
 11
27.08128554628638
 21
10.64511587418895
  0
LINE
  5
80
100
AcDbEntity
  8
0
  6
ByLayer
 62
  256
370
   -1
100
AcDbLine
 10
26.6237537777115
 20
11.1026476149591
 11
26.88263726019795
 21
10.90399934460322
  0
LINE
  5
81
100
AcDbEntity
  8
0
  6
ByLayer
 62
  256
370
   -1
100
AcDbLine
 10
26.32227758033332
 20
11.22752313391379
 11
26.6237537777115
 21
11.1026476149591
  0
LINE
  5
82
100
AcDbEntity
  8
0
  6
ByLayer
 62
  256
370
   -1
100
AcDbLine
 10
25.99875377270223
 20
11.27011584121658
 11
26.32227758033332
 21
11.22752313391379
  0
LINE
  5
83
100
AcDbEntity
  8
0
  6
ByLayer
 62
  256
370
   -1
100
AcDbLine
 10
25.67522996765888
 20
11.22752311425279
 11
25.99875377270223
 21
11.27011584121658
  0
LINE
  5
84
100
AcDbEntity
  8
0
  6
ByLayer
 62
  256
370
   -1
100
AcDbLine
 10
25.37375377786975
 20
11.10264757697735
 11
25.67522996765888
 21
11.22752311425279
  0
LINE
  5
85
100
AcDbEntity
  8
0
  6
ByLayer
 62
  256
370
   -1
100
AcDbLine
 10
24.91622203709949
 20
10.64511580840258
 11
25.11487030745548
 21
10.90399929088892
  0
LINE
  5
86
100
AcDbEntity
  8
0
  6
ByLayer
 62
  256
370
   -1
100
AcDbLine
 10
25.37375384365623
 20
8.937584067790681
 11
25.11487036117001
 21
9.136232338146669
  0
LINE
  5
87
100
AcDbEntity
  8
0
  6
ByLayer
 62
  256
370
   -1
100
AcDbLine
 10
26.32227765370862
 20
8.812708568496987
 11
25.99875384866573
 21
8.770115841533311
  0
LINE
  5
88
100
AcDbEntity
  8
0
  6
ByLayer
 62
  256
370
   -1
100
AcDbLine
 10
26.88263731391248
 20
9.136232391860972
 11
26.62375384349775
 21
8.93758410577243
  0
LINE
  5
89
100
AcDbEntity
  8
0
  6
ByLayer
 62
  256
370
   -1
100
AcDbLine
 10
27.20616110322248
 20
9.696592071725263
 11
27.08128558426847
 21
9.395115874347312
  0
LINE
  5
8A
100
AcDbEntity
  8
0
  6
ByLayer
 62
  256
370
   -1
100
AcDbLine
 10
27.24875381052584
 20
10.02011587935669
 11
27.20616110322248
 21
9.696592071725263
  0
LINE
  5
8B
100
AcDbEntity
  8
0
  6
ByLayer
 62
  256
370
   -1
100
AcDbLine
 10
27.20616108356194
 20
10.34363968439959
 11
27.24875381052584
 21
10.02011587935669
  0
LINE
  5
8C
100
AcDbEntity
  8
0
  6
ByLayer
 62
  256
370
   -1
100
AcDbLine
 10
42.81038888280477
 20
51.23838832191154
 11
42.5089126853884
 21
51.36326384088193
  0
LINE
  5
8D
100
AcDbEntity
  8
0
  6
ByLayer
 62
  256
370
   -1
100
AcDbLine
 10
44.01779610212134
 20
53.3296791179439
 11
44.216444388235
 21
53.07079564749665
  0
LINE
  5
8E
100
AcDbEntity
  8
0
  6
ByLayer
 62
  256
370
   -1
100
AcDbLine
 10
43.45743642218554
 20
53.65320290729528
 11
43.75891261960169
 21
53.52832738832512
  0
LINE
  5
8F
100
AcDbEntity
  8
0
  6
ByLayer
 62
  256
370
   -1
100
AcDbLine
 10
43.13391261451352
 20
53.69579561460364
 11
43.45743642218554
 21
53.65320290729528
  0
LINE
  5
90
100
AcDbEntity
  8
0
  6
ByLayer
 62
  256
370
   -1
100
AcDbLine
 10
42.81038880942947
 20
53.65320288763428
 11
43.13391261451352
 21
53.69579561460364
  0
LINE
  5
91
100
AcDbEntity
  8
0
  6
ByLayer
 62
  256
370
   -1
100
AcDbLine
 10
42.25002920286943
 20
51.56191211126293
 11
42.05138091675576
 21
51.82079558171017
  0
LINE
  5
92
100
AcDbEntity
  8
0
  6
ByLayer
 62
  256
370
   -1
100
AcDbLine
 10
36.0248181174909
 20
377.8548201144476
 11
35.89994260632943
 21
378.156296315098
  0
LINE
  5
93
100
AcDbEntity
  8
0
  6
ByLayer
 62
  256
370
   -1
100
AcDbLine
 10
36.22346638116687
 20
377.5959366267832
 11
36.0248181174909
 21
377.8548201144476
  0
LINE
  5
94
100
AcDbEntity
  8
0
  6
ByLayer
 62
  256
370
   -1
100
AcDbLine
 10
36.48234984646933
 20
377.3972883339645
 11
36.22346638116687
 21
377.5959366267832
  0
LINE
  5
95
100
AcDbEntity
  8
0
  6
ByLayer
 62
  256
370
   -1
100
AcDbLine
 10
37.10734983704356
 20
377.2298200535163
 11
36.7838260330625
 21
377.2724127888648
  0
LINE
  5
96
100
AcDbEntity
  8
0
  6
ByLayer
 62
  256
370
   -1
100
AcDbLine
 10
38.1898816973096
 20
379.1048199925851
 11
38.31475720847197
 21
378.8033437919346
  0
LINE
  5
97
100
AcDbEntity
  8
0
  6
ByLayer
 62
  256
370
   -1
100
AcDbLine
 10
37.10734997775785
 20
379.7298200535165
 11
37.43087378173891
 21
379.687227318168
  0
LINE
  5
98
100
AcDbEntity
  8
0
  6
ByLayer
 62
  256
370
   -1
100
AcDbLine
 10
36.78382616898261
 20
379.6872273545875
 11
37.10734997775785
 21
379.7298200535165
  0
LINE
  5
99
100
AcDbEntity
  8
0
  6
ByLayer
 62
  256
370
   -1
100
AcDbLine
 10
3.723543030821475
 20
27.89777753654857
 11
3.000000166128984
 21
27.59807626903478
  0
LINE
  5
9A
100
AcDbEntity
  8
0
  6
ByLayer
 62
  256
370
   -1
100
AcDbLine
 10
5.276457301436722
 20
27.89777753654857
 11
4.500000166128984
 21
28.0000000576814
  0
LINE
  5
9B
100
AcDbEntity
  8
0
  6
ByLayer
 62
  256
370
   -1
100
AcDbLine
 10
4.500000223810048
 20
23.50000005768152
 11
4.500000166128984
 21
25.0000000576814
  0
LINE
  5
9C
100
AcDbEntity
  8
0
  6
ByLayer
 62
  256
370
   -1
100
AcDbLine
 10
6.000000166128757
 20
25.00000011536281
 11
4.500000166128984
 21
25.0000000576814
  0
LINE
  5
9D
100
AcDbEntity
  8
0
  6
ByLayer
 62
  256
370
   -1
100
AcDbLine
 10
5.948888920491527
 20
24.61177154574352
 11
5.799038300645861
 21
24.25000010763495
  0
LINE
  5
9E
100
AcDbEntity
  8
0
  6
ByLayer
 62
  256
370
   -1
100
AcDbLine
 10
5.560660378695502
 20
23.93933992668849
 11
5.250000216082299
 21
23.70096198084548
  0
LINE
  5
9F
100
AcDbEntity
  8
0
  6
ByLayer
 62
  256
370
   -1
100
AcDbLine
 10
5.250000216082299
 20
23.70096198084548
 11
4.888228789498271
 21
23.551111333177
  0
LINE
  5
A0
100
AcDbEntity
  8
0
  6
ByLayer
 62
  256
370
   -1
100
AcDbLine
 10
3.000000166128757
 20
25.00000000000011
 11
1.500000166128984
 21
25.0000000576814
  0
LINE
  5
A1
100
AcDbEntity
  8
0
  6
ByLayer
 62
  256
370
   -1
100
AcDbLine
 10
7.500000166128984
 20
25.0000000576814
 11
6.000000166128757
 21
25.00000011536281
  0
LINE
  5
A2
100
AcDbEntity
  8
0
  6
ByLayer
 62
  256
370
   -1
100
AcDbLine
 10
4.500000108447693
 20
26.5000000576814
 11
4.500000166128984
 21
28.0000000576814
  0
LINE
  5
A3
100
AcDbEntity
  8
0
  6
ByLayer
 62
  256
370
   -1
100
AcDbLine
 10
7.500000166128984
 20
25.0000000576814
 11
7.397777644996268
 21
25.77645719298903
  0
LINE
  5
A4
100
AcDbEntity
  8
0
  6
ByLayer
 62
  256
370
   -1
100
AcDbLine
 10
2.378679822569438
 20
27.12132040124095
 11
1.901923954775611
 21
26.5000000576814
  0
LINE
  5
A5
100
AcDbEntity
  8
0
  6
ByLayer
 62
  256
370
   -1
100
AcDbLine
 10
6.000000166128984
 20
22.40192384632803
 11
6.621320509688758
 21
22.87867971412174
  0
LINE
  5
A6
100
AcDbEntity
  8
0
  6
ByLayer
 62
  256
370
   -1
100
AcDbLine
 10
7.098076377482357
 20
26.5000000576814
 11
6.621320509688758
 21
27.12132040124095
  0
LINE
  5
A7
100
AcDbEntity
  8
0
  6
ByLayer
 62
  256
370
   -1
100
AcDbLine
 10
6.000000166128984
 20
27.59807626903478
 11
5.276457301436722
 21
27.89777753654857
  0
LINE
  5
A8
100
AcDbEntity
  8
0
  6
ByLayer
 62
  256
370
   -1
100
AcDbLine
 10
4.500000166128984
 20
28.0000000576814
 11
3.723543030821475
 21
27.89777753654857
  0
LINE
  5
A9
100
AcDbEntity
  8
0
  6
ByLayer
 62
  256
370
   -1
100
AcDbLine
 10
4.111771654190534
 20
23.55111130331886
 11
3.750000216082299
 21
23.7009619231643
  0
LINE
  5
AA
100
AcDbEntity
  8
0
  6
ByLayer
 62
  256
370
   -1
100
AcDbLine
 10
3.750000216082299
 20
23.7009619231643
 11
3.439340035135729
 21
23.93933984511489
  0
LINE
  5
AB
100
AcDbEntity
  8
0
  6
ByLayer
 62
  256
370
   -1
100
AcDbLine
 10
3.200962089292716
 20
24.25000000772798
 11
3.051111441624471
 21
24.611771434312
  0
LINE
  5
AC
100
AcDbEntity
  8
0
  6
ByLayer
 62
  256
370
   -1
100
AcDbLine
 10
3.051111441624471
 20
24.611771434312
 11
3.000000166128757
 21
25.00000000000011
  0
LINE
  5
AD
100
AcDbEntity
  8
0
  6
ByLayer
 62
  256
370
   -1
100
AcDbLine
 10
4.500000166128984
 20
25.0000000576814
 11
3.000000166128757
 21
25.00000000000011
  0
LINE
  5
AE
100
AcDbEntity
  8
0
  6
ByLayer
 62
  256
370
   -1
100
AcDbLine
 10
7.098076377482357
 20
23.5000000576814
 11
7.397777644996268
 21
24.22354292237378
  0
LINE
  5
AF
100
AcDbEntity
  8
0
  6
ByLayer
 62
  256
370
   -1
100
AcDbLine
 10
5.276457301436722
 20
22.10222257881412
 11
6.000000166128984
 21
22.40192384632803
  0
LINE
  5
B0
100
AcDbEntity
  8
0
  6
ByLayer
 62
  256
370
   -1
100
AcDbLine
 10
1.901923954775611
 20
26.5000000576814
 11
1.602222687261929
 21
25.77645719298903
  0
LINE
  5
B1
100
AcDbEntity
  8
0
  6
ByLayer
 62
  256
370
   -1
100
AcDbLine
 10
3.723543030821475
 20
22.10222257881412
 11
4.500000166128984
 21
22.00000005768129
  0
LINE
  5
B2
100
AcDbEntity
  8
0
  6
ByLayer
 62
  256
370
   -1
100
AcDbLine
 10
4.500000166128984
 20
22.00000005768129
 11
5.276457301436722
 21
22.10222257881412
  0
LINE
  5
B3
100
AcDbEntity
  8
0
  6
ByLayer
 62
  256
370
   -1
100
AcDbLine
 10
3.000000166128984
 20
27.59807626903478
 11
2.378679822569438
 21
27.12132040124095
  0
LINE
  5
B4
100
AcDbEntity
  8
0
  6
ByLayer
 62
  256
370
   -1
100
AcDbLine
 10
1.602222687261929
 20
24.22354292237378
 11
1.901923954775611
 21
23.5000000576814
  0
LINE
  5
B5
100
AcDbEntity
  8
0
  6
ByLayer
 62
  256
370
   -1
100
AcDbLine
 10
7.397777644996268
 20
25.77645719298903
 11
7.098076377482357
 21
26.5000000576814
  0
LINE
  5
B6
100
AcDbEntity
  8
0
  6
ByLayer
 62
  256
370
   -1
100
AcDbLine
 10
1.602222687261929
 20
25.77645719298903
 11
1.500000166128984
 21
25.0000000576814
  0
LINE
  5
B7
100
AcDbEntity
  8
0
  6
ByLayer
 62
  256
370
   -1
100
AcDbLine
 10
1.500000166128984
 20
25.0000000576814
 11
1.602222687261929
 21
24.22354292237378
  0
LINE
  5
B8
100
AcDbEntity
  8
0
  6
ByLayer
 62
  256
370
   -1
100
AcDbLine
 10
7.397777644996268
 20
24.22354292237378
 11
7.500000166128984
 21
25.0000000576814
  0
LINE
  5
B9
100
AcDbEntity
  8
0
  6
ByLayer
 62
  256
370
   -1
100
AcDbLine
 10
6.621320509688758
 20
27.12132040124095
 11
6.000000166128984
 21
27.59807626903478
  0
LINE
  5
BA
100
AcDbEntity
  8
0
  6
ByLayer
 62
  256
370
   -1
100
AcDbLine
 10
4.500000166128984
 20
25.0000000576814
 11
4.500000108447693
 21
26.5000000576814
  0
LINE
  5
BB
100
AcDbEntity
  8
0
  6
ByLayer
 62
  256
370
   -1
100
AcDbLine
 10
4.500000108447693
 20
26.5000000576814
 11
4.888228678066525
 21
26.44888881204406
  0
LINE
  5
BC
100
AcDbEntity
  8
0
  6
ByLayer
 62
  256
370
   -1
100
AcDbLine
 10
5.799038242965025
 20
25.75000010763495
 11
5.948888890633725
 21
25.38822868105115
  0
LINE
  5
BD
100
AcDbEntity
  8
0
  6
ByLayer
 62
  256
370
   -1
100
AcDbLine
 10
5.948888890633725
 20
25.38822868105115
 11
6.000000166128757
 21
25.00000011536281
  0
LINE
  5
BE
100
AcDbEntity
  8
0
  6
ByLayer
 62
  256
370
   -1
100
AcDbLine
 10
3.000000166128984
 20
22.40192384632803
 11
3.723543030821475
 21
22.10222257881412
  0
LINE
  5
BF
100
AcDbEntity
  8
0
  6
ByLayer
 62
  256
370
   -1
100
AcDbLine
 10
1.901923954775611
 20
23.5000000576814
 11
2.378679822569438
 21
22.87867971412174
  0
LINE
  5
C0
100
AcDbEntity
  8
0
  6
ByLayer
 62
  256
370
   -1
100
AcDbLine
 10
2.378679822569438
 20
22.87867971412174
 11
3.000000166128984
 21
22.40192384632803
  0
LINE
  5
C1
100
AcDbEntity
  8
0
  6
ByLayer
 62
  256
370
   -1
100
AcDbLine
 10
4.11177154275947
 20
26.44888878218615
 11
4.500000108447693
 21
26.5000000576814
  0
LINE
  5
C2
100
AcDbEntity
  8
0
  6
ByLayer
 62
  256
370
   -1
100
AcDbLine
 10
3.000000166128757
 20
25.00000000000011
 11
3.051111411766215
 21
25.3882285696194
  0
LINE
  5
C3
100
AcDbEntity
  8
0
  6
ByLayer
 62
  256
370
   -1
100
AcDbLine
 10
3.051111411766215
 20
25.3882285696194
 11
3.200962031611652
 21
25.75000000772798
  0
LINE
  5
C4
100
AcDbEntity
  8
0
  6
ByLayer
 62
  256
370
   -1
100
AcDbLine
 10
6.621320509688758
 20
22.87867971412174
 11
7.098076377482357
 21
23.5000000576814
  0
LINE
  5
C5
100
AcDbEntity
  8
0
  6
ByLayer
 62
  256
370
   -1
100
AcDbLine
 10
4.500000166128984
 20
22.00000005768129
 11
4.500000223810048
 21
23.50000005768152
  0
LINE
  5
C6
100
AcDbEntity
  8
0
  6
ByLayer
 62
  256
370
   -1
100
AcDbLine
 10
4.500000164792709
 20
105.5000001988492
 11
4.500000166138534
 21
107.0000001988492
  0
LINE
  5
C7
100
AcDbEntity
  8
0
  6
ByLayer
 62
  256
370
   -1
100
AcDbLine
 10
6.000000166138079
 20
107.0000001975034
 11
4.500000166138534
 21
107.0000001988492
  0
LINE
  5
C8
100
AcDbEntity
  8
0
  6
ByLayer
 62
  256
370
   -1
100
AcDbLine
 10
6.000000166138079
 20
107.0000001975034
 11
5.948888905223384
 21
106.6117716298957
  0
LINE
  5
C9
100
AcDbEntity
  8
0
  6
ByLayer
 62
  256
370
   -1
100
AcDbLine
 10
5.948888905223384
 20
106.6117716298957
 11
5.799038271142081
 21
106.2500001976837
  0
LINE
  5
CA
100
AcDbEntity
  8
0
  6
ByLayer
 62
  256
370
   -1
100
AcDbLine
 10
5.799038271142081
 20
106.2500001976837
 11
5.560660336966293
 21
105.9393400261179
  0
LINE
  5
CB
100
AcDbEntity
  8
0
  6
ByLayer
 62
  256
370
   -1
100
AcDbLine
 10
5.560660336966293
 20
105.9393400261179
 11
5.250000164972789
 21
105.7009620924998
  0
LINE
  5
CC
100
AcDbEntity
  8
0
  6
ByLayer
 62
  256
370
   -1
100
AcDbLine
 10
5.250000164972789
 20
105.7009620924998
 11
4.88822873249228
 21
105.5511114590674
  0
LINE
  5
CD
100
AcDbEntity
  8
0
  6
ByLayer
 62
  256
370
   -1
100
AcDbLine
 10
4.88822873249228
 20
105.5511114590674
 11
4.500000164792709
 21
105.5000001988492
  0
LINE
  5
CE
100
AcDbEntity
  8
0
  6
ByLayer
 62
  256
370
   -1
100
AcDbLine
 10
6.000000166138534
 20
109.5980764102026
 11
5.276457301446044
 21
109.8977776777162
  0
LINE
  5
CF
100
AcDbEntity
  8
0
  6
ByLayer
 62
  256
370
   -1
100
AcDbLine
 10
3.000000166138307
 20
104.4019239874958
 11
3.723543030830797
 21
104.1022227199819
  0
LINE
  5
D0
100
AcDbEntity
  8
0
  6
ByLayer
 62
  256
370
   -1
100
AcDbLine
 10
4.500000166138534
 20
107.0000001988492
 11
4.500000167484131
 21
108.500000198849
  0
LINE
  5
D1
100
AcDbEntity
  8
0
  6
ByLayer
 62
  256
370
   -1
100
AcDbLine
 10
4.500000167484131
 20
108.500000198849
 11
4.888228735092071
 21
108.4488889379343
  0
LINE
  5
D2
100
AcDbEntity
  8
0
  6
ByLayer
 62
  256
370
   -1
100
AcDbLine
 10
4.888228735092071
 20
108.4488889379343
 11
5.250000167303369
 21
108.299038303853
  0
LINE
  5
D3
100
AcDbEntity
  8
0
  6
ByLayer
 62
  256
370
   -1
100
AcDbLine
 10
5.250000167303369
 20
108.299038303853
 11
5.560660338869639
 21
108.0606603696774
  0
LINE
  5
D4
100
AcDbEntity
  8
0
  6
ByLayer
 62
  256
370
   -1
100
AcDbLine
 10
5.560660338869639
 20
108.0606603696774
 11
5.799038272487678
 21
107.7500001976837
  0
LINE
  5
D5
100
AcDbEntity
  8
0
  6
ByLayer
 62
  256
370
   -1
100
AcDbLine
 10
5.799038272487678
 20
107.7500001976837
 11
5.948888905920057
 21
107.3882287652032
  0
LINE
  5
D6
100
AcDbEntity
  8
0
  6
ByLayer
 62
  256
370
   -1
100
AcDbLine
 10
3.723543030830797
 20
109.8977776777162
 11
3.000000166138307
 21
109.5980764102026
  0
LINE
  5
D7
100
AcDbEntity
  8
0
  6
ByLayer
 62
  256
370
   -1
100
AcDbLine
 10
7.500000166138534
 20
107.0000001988492
 11
7.39777764500559
 21
107.7764573341567
  0
LINE
  5
D8
100
AcDbEntity
  8
0
  6
ByLayer
 62
  256
370
   -1
100
AcDbLine
 10
4.500000166138534
 20
110.0000001988492
 11
3.723543030830797
 21
109.8977776777162
  0
LINE
  5
D9
100
AcDbEntity
  8
0
  6
ByLayer
 62
  256
370
   -1
100
AcDbLine
 10
4.500000166138534
 20
107.0000001988492
 11
3.000000166138761
 21
107.0000002001948
  0
LINE
  5
DA
100
AcDbEntity
  8
0
  6
ByLayer
 62
  256
370
   -1
100
AcDbLine
 10
7.09807637749168
 20
105.5000001988492
 11
7.39777764500559
 21
106.2235430635415
  0
LINE
  5
DB
100
AcDbEntity
  8
0
  6
ByLayer
 62
  256
370
   -1
100
AcDbLine
 10
3.200962061134533
 20
107.7500002000145
 11
3.439339995310092
 21
108.0606603715803
  0
LINE
  5
DC
100
AcDbEntity
  8
0
  6
ByLayer
 62
  256
370
   -1
100
AcDbLine
 10
3.439339995310092
 20
108.0606603715803
 11
3.750000167303824
 21
108.2990383051986
  0
LINE
  5
DD
100
AcDbEntity
  8
0
  6
ByLayer
 62
  256
370
   -1
100
AcDbLine
 10
7.39777764500559
 20
107.7764573341567
 11
7.09807637749168
 21
108.5000001988492
  0
LINE
  5
DE
100
AcDbEntity
  8
0
  6
ByLayer
 62
  256
370
   -1
100
AcDbLine
 10
1.602222687271251
 20
107.7764573341567
 11
1.500000166138307
 21
107.0000001988492
  0
LINE
  5
DF
100
AcDbEntity
  8
0
  6
ByLayer
 62
  256
370
   -1
100
AcDbLine
 10
1.500000166138307
 20
107.0000001988492
 11
1.602222687271251
 21
106.2235430635415
  0
LINE
  5
E0
100
AcDbEntity
  8
0
  6
ByLayer
 62
  256
370
   -1
100
AcDbLine
 10
7.39777764500559
 20
106.2235430635415
 11
7.500000166138534
 21
107.0000001988492
  0
LINE
  5
E1
100
AcDbEntity
  8
0
  6
ByLayer
 62
  256
370
   -1
100
AcDbLine
 10
6.62132050969808
 20
109.1213205424087
 11
6.000000166138534
 21
109.5980764102026
  0
LINE
  5
E2
100
AcDbEntity
  8
0
  6
ByLayer
 62
  256
370
   -1
100
AcDbLine
 10
3.000000166138761
 20
107.0000002001948
 11
1.500000166138307
 21
107.0000001988492
  0
LINE
  5
E3
100
AcDbEntity
  8
0
  6
ByLayer
 62
  256
370
   -1
100
AcDbLine
 10
3.750000167303824
 20
108.2990383051986
 11
4.111771599784788
 21
108.4488889386307
  0
LINE
  5
E4
100
AcDbEntity
  8
0
  6
ByLayer
 62
  256
370
   -1
100
AcDbLine
 10
5.276457301446044
 20
104.1022227199819
 11
6.000000166138534
 21
104.4019239874958
  0
LINE
  5
E5
100
AcDbEntity
  8
0
  6
ByLayer
 62
  256
370
   -1
100
AcDbLine
 10
1.901923954785161
 20
108.5000001988492
 11
1.602222687271251
 21
107.7764573341567
  0
LINE
  5
E6
100
AcDbEntity
  8
0
  6
ByLayer
 62
  256
370
   -1
100
AcDbLine
 10
1.901923954785161
 20
105.5000001988492
 11
2.378679822578761
 21
104.8786798552894
  0
LINE
  5
E7
100
AcDbEntity
  8
0
  6
ByLayer
 62
  256
370
   -1
100
AcDbLine
 10
2.378679822578761
 20
104.8786798552894
 11
3.000000166138307
 21
104.4019239874958
  0
LINE
  5
E8
100
AcDbEntity
  8
0
  6
ByLayer
 62
  256
370
   -1
100
AcDbLine
 10
4.111771599784788
 20
108.4488889386307
 11
4.500000167484131
 21
108.500000198849
  0
LINE
  5
E9
100
AcDbEntity
  8
0
  6
ByLayer
 62
  256
370
   -1
100
AcDbLine
 10
3.000000166138761
 20
107.0000002001948
 11
3.051111427053002
 21
107.3882287678027
  0
LINE
  5
EA
100
AcDbEntity
  8
0
  6
ByLayer
 62
  256
370
   -1
100
AcDbLine
 10
3.051111427053002
 20
107.3882287678027
 11
3.200962061134533
 21
107.7500002000145
  0
LINE
  5
EB
100
AcDbEntity
  8
0
  6
ByLayer
 62
  256
370
   -1
100
AcDbLine
 10
4.500000167484131
 20
108.500000198849
 11
4.500000166138534
 21
110.0000001988492
  0
LINE
  5
EC
100
AcDbEntity
  8
0
  6
ByLayer
 62
  256
370
   -1
100
AcDbLine
 10
4.500000164792709
 20
105.5000001988492
 11
4.111771597184998
 21
105.5511114597641
  0
LINE
  5
ED
100
AcDbEntity
  8
0
  6
ByLayer
 62
  256
370
   -1
100
AcDbLine
 10
4.111771597184998
 20
105.5511114597641
 11
3.750000164972789
 21
105.7009620938454
  0
LINE
  5
EE
100
AcDbEntity
  8
0
  6
ByLayer
 62
  256
370
   -1
100
AcDbLine
 10
3.750000164972789
 20
105.7009620938454
 11
3.439339993407202
 21
105.9393400280208
  0
LINE
  5
EF
100
AcDbEntity
  8
0
  6
ByLayer
 62
  256
370
   -1
100
AcDbLine
 10
3.439339993407202
 20
105.9393400280208
 11
3.200962059788935
 21
106.2500002000147
  0
LINE
  5
F0
100
AcDbEntity
  8
0
  6
ByLayer
 62
  256
370
   -1
100
AcDbLine
 10
2.378679822578761
 20
109.1213205424087
 11
1.901923954785161
 21
108.5000001988492
  0
LINE
  5
F1
100
AcDbEntity
  8
0
  6
ByLayer
 62
  256
370
   -1
100
AcDbLine
 10
7.500000166138534
 20
107.0000001988492
 11
6.000000166138079
 21
107.0000001975034
  0
LINE
  5
F2
100
AcDbEntity
  8
0
  6
ByLayer
 62
  256
370
   -1
100
AcDbLine
 10
6.62132050969808
 20
104.8786798552894
 11
7.09807637749168
 21
105.5000001988492
  0
LINE
  5
F3
100
AcDbEntity
  8
0
  6
ByLayer
 62
  256
370
   -1
100
AcDbLine
 10
4.500000166138534
 20
104.000000198849
 11
4.500000164792709
 21
105.5000001988492
  0
LINE
  5
F4
100
AcDbEntity
  8
0
  6
ByLayer
 62
  256
370
   -1
100
AcDbLine
 10
4.500000166138534
 20
104.000000198849
 11
5.276457301446044
 21
104.1022227199819
  0
LINE
  5
F5
100
AcDbEntity
  8
0
  6
ByLayer
 62
  256
370
   -1
100
AcDbLine
 10
3.000000166138307
 20
109.5980764102026
 11
2.378679822578761
 21
109.1213205424087
  0
LINE
  5
F6
100
AcDbEntity
  8
0
  6
ByLayer
 62
  256
370
   -1
100
AcDbLine
 10
1.602222687271251
 20
106.2235430635415
 11
1.901923954785161
 21
105.5000001988492
  0
LINE
  5
F7
100
AcDbEntity
  8
0
  6
ByLayer
 62
  256
370
   -1
100
AcDbLine
 10
7.09807637749168
 20
108.5000001988492
 11
6.62132050969808
 21
109.1213205424087
  0
LINE
  5
F8
100
AcDbEntity
  8
0
  6
ByLayer
 62
  256
370
   -1
100
AcDbLine
 10
3.723543030830797
 20
104.1022227199819
 11
4.500000166138534
 21
104.000000198849
  0
LINE
  5
F9
100
AcDbEntity
  8
0
  6
ByLayer
 62
  256
370
   -1
100
AcDbLine
 10
5.276457301446044
 20
109.8977776777162
 11
4.500000166138534
 21
110.0000001988492
  0
LINE
  5
FA
100
AcDbEntity
  8
0
  6
ByLayer
 62
  256
370
   -1
100
AcDbLine
 10
6.000000166138534
 20
104.4019239874958
 11
6.62132050969808
 21
104.8786798552894
  0
LINE
  5
FB
100
AcDbEntity
  8
0
  6
ByLayer
 62
  256
370
   -1
100
AcDbLine
 10
7.500000240142072
 20
193.0000001988506
 11
7.397777719009127
 21
193.7764573341583
  0
LINE
  5
FC
100
AcDbEntity
  8
0
  6
ByLayer
 62
  256
370
   -1
100
AcDbLine
 10
7.098076451495217
 20
191.5000001988506
 11
7.397777719009127
 21
192.223543063543
  0
LINE
  5
FD
100
AcDbEntity
  8
0
  6
ByLayer
 62
  256
370
   -1
100
AcDbLine
 10
7.397777719009127
 20
192.223543063543
 11
7.500000240142072
 21
193.0000001988506
  0
LINE
  5
FE
100
AcDbEntity
  8
0
  6
ByLayer
 62
  256
370
   -1
100
AcDbLine
 10
4.111771673788098
 20
194.4488889386325
 11
4.500000241487896
 21
194.5000001988506
  0
LINE
  5
FF
100
AcDbEntity
  8
0
  6
ByLayer
 62
  256
370
   -1
100
AcDbLine
 10
4.500000240141844
 20
193.0000001988506
 11
4.500000241487896
 21
194.5000001988506
  0
LINE
  5
100
100
AcDbEntity
  8
0
  6
ByLayer
 62
  256
370
   -1
100
AcDbLine
 10
4.500000240141844
 20
193.0000001988506
 11
3.000000240141844
 21
193.0000002001964
  0
LINE
  5
101
100
AcDbEntity
  8
0
  6
ByLayer
 62
  256
370
   -1
100
AcDbLine
 10
3.000000240141844
 20
193.0000002001964
 11
3.051111501056994
 21
193.3882287678043
  0
LINE
  5
102
100
AcDbEntity
  8
0
  6
ByLayer
 62
  256
370
   -1
100
AcDbLine
 10
3.051111501056994
 20
193.3882287678043
 11
3.200962135138298
 21
193.7500002000163
  0
LINE
  5
103
100
AcDbEntity
  8
0
  6
ByLayer
 62
  256
370
   -1
100
AcDbLine
 10
3.200962135138298
 20
193.7500002000163
 11
3.439340069314085
 21
194.0606603715821
  0
LINE
  5
104
100
AcDbEntity
  8
0
  6
ByLayer
 62
  256
370
   -1
100
AcDbLine
 10
1.602222761274788
 20
192.223543063543
 11
1.901924028788699
 21
191.5000001988506
  0
LINE
  5
105
100
AcDbEntity
  8
0
  6
ByLayer
 62
  256
370
   -1
100
AcDbLine
 10
4.500000240141844
 20
196.0000001988508
 11
3.723543104834334
 21
195.8977776777178
  0
LINE
  5
106
100
AcDbEntity
  8
0
  6
ByLayer
 62
  256
370
   -1
100
AcDbLine
 10
1.602222761274788
 20
193.7764573341583
 11
1.500000240141844
 21
193.0000001988506
  0
LINE
  5
107
100
AcDbEntity
  8
0
  6
ByLayer
 62
  256
370
   -1
100
AcDbLine
 10
6.621320583701618
 20
195.1213205424103
 11
6.000000240142072
 21
195.5980764102039
  0
LINE
  5
108
100
AcDbEntity
  8
0
  6
ByLayer
 62
  256
370
   -1
100
AcDbLine
 10
5.276457375449581
 20
190.1022227199835
 11
6.000000240142072
 21
190.4019239874974
  0
LINE
  5
109
100
AcDbEntity
  8
0
  6
ByLayer
 62
  256
370
   -1
100
AcDbLine
 10
3.051111500360321
 20
192.6117716324968
 11
3.000000240141844
 21
193.0000002001964
  0
LINE
  5
10A
100
AcDbEntity
  8
0
  6
ByLayer
 62
  256
370
   -1
100
AcDbLine
 10
5.948888979227604
 20
192.6117716298968
 11
5.799038345145846
 21
192.250000197685
  0
LINE
  5
10B
100
AcDbEntity
  8
0
  6
ByLayer
 62
  256
370
   -1
100
AcDbLine
 10
5.799038345145846
 20
192.250000197685
 11
5.560660410970513
 21
191.9393400261192
  0
LINE
  5
10C
100
AcDbEntity
  8
0
  6
ByLayer
 62
  256
370
   -1
100
AcDbLine
 10
7.397777719009127
 20
193.7764573341583
 11
7.098076451495217
 21
194.5000001988508
  0
LINE
  5
10D
100
AcDbEntity
  8
0
  6
ByLayer
 62
  256
370
   -1
100
AcDbLine
 10
5.948888979924277
 20
193.3882287652043
 11
6.000000240142072
 21
193.0000001975047
  0
LINE
  5
10E
100
AcDbEntity
  8
0
  6
ByLayer
 62
  256
370
   -1
100
AcDbLine
 10
5.560660412873631
 20
194.0606603696788
 11
5.799038346491443
 21
193.750000197685
  0
LINE
  5
10F
100
AcDbEntity
  8
0
  6
ByLayer
 62
  256
370
   -1
100
AcDbLine
 10
4.88822880649559
 20
191.5511114590686
 11
4.500000238796702
 21
191.5000001988506
  0
LINE
  5
110
100
AcDbEntity
  8
0
  6
ByLayer
 62
  256
370
   -1
100
AcDbLine
 10
5.799038346491443
 20
193.750000197685
 11
5.948888979924277
 21
193.3882287652043
  0
LINE
  5
111
100
AcDbEntity
  8
0
  6
ByLayer
 62
  256
370
   -1
100
AcDbLine
 10
3.723543104834334
 20
190.1022227199835
 11
4.500000240141844
 21
190.0000001988506
  0
LINE
  5
112
100
AcDbEntity
  8
0
  6
ByLayer
 62
  256
370
   -1
100
AcDbLine
 10
6.000000240142072
 20
193.0000001975047
 11
4.500000240141844
 21
193.0000001988506
  0
LINE
  5
113
100
AcDbEntity
  8
0
  6
ByLayer
 62
  256
370
   -1
100
AcDbLine
 10
5.250000241308044
 20
194.2990383038543
 11
5.560660412873631
 21
194.0606603696788
  0
LINE
  5
114
100
AcDbEntity
  8
0
  6
ByLayer
 62
  256
370
   -1
100
AcDbLine
 10
1.500000240141844
 20
193.0000001988506
 11
1.602222761274788
 21
192.223543063543
  0
LINE
  5
115
100
AcDbEntity
  8
0
  6
ByLayer
 62
  256
370
   -1
100
AcDbLine
 10
5.276457375449581
 20
195.8977776777178
 11
4.500000240141844
 21
196.0000001988508
  0
LINE
  5
116
100
AcDbEntity
  8
0
  6
ByLayer
 62
  256
370
   -1
100
AcDbLine
 10
6.000000240142072
 20
190.4019239874974
 11
6.621320583701618
 21
190.878679855291
  0
LINE
  5
117
100
AcDbEntity
  8
0
  6
ByLayer
 62
  256
370
   -1
100
AcDbLine
 10
4.111771671188308
 20
191.5511114597653
 11
3.750000238976327
 21
191.700962093847
  0
LINE
  5
118
100
AcDbEntity
  8
0
  6
ByLayer
 62
  256
370
   -1
100
AcDbLine
 10
7.098076451495217
 20
194.5000001988508
 11
6.621320583701618
 21
195.1213205424103
  0
LINE
  5
119
100
AcDbEntity
  8
0
  6
ByLayer
 62
  256
370
   -1
100
AcDbLine
 10
6.621320583701618
 20
190.878679855291
 11
7.098076451495217
 21
191.5000001988506
  0
LINE
  5
11A
100
AcDbEntity
  8
0
  6
ByLayer
 62
  256
370
   -1
100
AcDbLine
 10
3.000000240141844
 20
195.5980764102039
 11
2.378679896582298
 21
195.1213205424103
  0
LINE
  5
11B
100
AcDbEntity
  8
0
  6
ByLayer
 62
  256
370
   -1
100
AcDbLine
 10
4.500000238796702
 20
191.5000001988506
 11
4.500000240141844
 21
193.0000001988506
  0
LINE
  5
11C
100
AcDbEntity
  8
0
  6
ByLayer
 62
  256
370
   -1
100
AcDbLine
 10
3.439340067410967
 20
191.9393400280226
 11
3.2009621337927
 21
192.2500002000161
  0
LINE
  5
11D
100
AcDbEntity
  8
0
  6
ByLayer
 62
  256
370
   -1
100
AcDbLine
 10
1.901924028788699
 20
194.5000001988508
 11
1.602222761274788
 21
193.7764573341583
  0
LINE
  5
11E
100
AcDbEntity
  8
0
  6
ByLayer
 62
  256
370
   -1
100
AcDbLine
 10
7.500000240142072
 20
193.0000001988506
 11
6.000000240142072
 21
193.0000001975047
  0
LINE
  5
11F
100
AcDbEntity
  8
0
  6
ByLayer
 62
  256
370
   -1
100
AcDbLine
 10
6.000000240142072
 20
195.5980764102039
 11
5.276457375449581
 21
195.8977776777178
  0
LINE
  5
120
100
AcDbEntity
  8
0
  6
ByLayer
 62
  256
370
   -1
100
AcDbLine
 10
6.000000240142072
 20
193.0000001975047
 11
5.948888979227604
 21
192.6117716298968
  0
LINE
  5
121
100
AcDbEntity
  8
0
  6
ByLayer
 62
  256
370
   -1
100
AcDbLine
 10
3.2009621337927
 20
192.2500002000161
 11
3.051111500360321
 21
192.6117716324968
  0
LINE
  5
122
100
AcDbEntity
  8
0
  6
ByLayer
 62
  256
370
   -1
100
AcDbLine
 10
4.500000240141844
 20
190.0000001988506
 11
5.276457375449581
 21
190.1022227199835
  0
LINE
  5
123
100
AcDbEntity
  8
0
  6
ByLayer
 62
  256
370
   -1
100
AcDbLine
 10
5.560660410970513
 20
191.9393400261192
 11
5.250000238976554
 21
191.700962092501
  0
LINE
  5
124
100
AcDbEntity
  8
0
  6
ByLayer
 62
  256
370
   -1
100
AcDbLine
 10
4.500000238796702
 20
191.5000001988506
 11
4.111771671188308
 21
191.5511114597653
  0
LINE
  5
125
100
AcDbEntity
  8
0
  6
ByLayer
 62
  256
370
   -1
100
AcDbLine
 10
2.378679896582298
 20
195.1213205424103
 11
1.901924028788699
 21
194.5000001988508
  0
LINE
  5
126
100
AcDbEntity
  8
0
  6
ByLayer
 62
  256
370
   -1
100
AcDbLine
 10
3.000000240141844
 20
193.0000002001964
 11
1.500000240141844
 21
193.0000001988506
  0
LINE
  5
127
100
AcDbEntity
  8
0
  6
ByLayer
 62
  256
370
   -1
100
AcDbLine
 10
3.723543104834334
 20
195.8977776777178
 11
3.000000240141844
 21
195.5980764102039
  0
LINE
  5
128
100
AcDbEntity
  8
0
  6
ByLayer
 62
  256
370
   -1
100
AcDbLine
 10
4.500000240141844
 20
190.0000001988506
 11
4.500000238796702
 21
191.5000001988506
  0
LINE
  5
129
100
AcDbEntity
  8
0
  6
ByLayer
 62
  256
370
   -1
100
AcDbLine
 10
1.901924028788699
 20
191.5000001988506
 11
2.378679896582298
 21
190.878679855291
  0
LINE
  5
12A
100
AcDbEntity
  8
0
  6
ByLayer
 62
  256
370
   -1
100
AcDbLine
 10
2.378679896582298
 20
190.878679855291
 11
3.000000240141844
 21
190.4019239874974
  0
LINE
  5
12B
100
AcDbEntity
  8
0
  6
ByLayer
 62
  256
370
   -1
100
AcDbLine
 10
4.500000241487896
 20
194.5000001988506
 11
4.500000240141844
 21
196.0000001988508
  0
LINE
  5
12C
100
AcDbEntity
  8
0
  6
ByLayer
 62
  256
370
   -1
100
AcDbLine
 10
3.000000240141844
 20
190.4019239874974
 11
3.723543104834334
 21
190.1022227199835
  0
LINE
  5
12D
100
AcDbEntity
  8
0
  6
ByLayer
 62
  256
370
   -1
100
AcDbLine
 10
7.50000038818439
 20
279.0000001132184
 11
7.397777867051445
 21
279.776457248526
  0
LINE
  5
12E
100
AcDbEntity
  8
0
  6
ByLayer
 62
  256
370
   -1
100
AcDbLine
 10
4.500000472469537
 20
277.5000001132191
 11
4.50000038818439
 21
279.0000001132184
  0
LINE
  5
12F
100
AcDbEntity
  8
0
  6
ByLayer
 62
  256
370
   -1
100
AcDbLine
 10
1.901924176831017
 20
280.5000001132184
 11
1.602222909317106
 21
279.776457248526
  0
LINE
  5
130
100
AcDbEntity
  8
0
  6
ByLayer
 62
  256
370
   -1
100
AcDbLine
 10
7.50000038818439
 20
279.0000001132184
 11
6.000000388183707
 21
279.0000001975036
  0
LINE
  5
131
100
AcDbEntity
  8
0
  6
ByLayer
 62
  256
370
   -1
100
AcDbLine
 10
4.50000038818439
 20
279.0000001132184
 11
3.000000388185072
 21
279.0000000289328
  0
LINE
  5
132
100
AcDbEntity
  8
0
  6
ByLayer
 62
  256
370
   -1
100
AcDbLine
 10
6.000000388183707
 20
279.0000001975036
 11
4.50000038818439
 21
279.0000001132184
  0
LINE
  5
133
100
AcDbEntity
  8
0
  6
ByLayer
 62
  256
370
   -1
100
AcDbLine
 10
4.50000038818439
 20
279.0000001132184
 11
4.500000303899014
 21
280.5000001132173
  0
LINE
  5
134
100
AcDbEntity
  8
0
  6
ByLayer
 62
  256
370
   -1
100
AcDbLine
 10
4.500000303899014
 20
280.5000001132173
 11
4.888228874424385
 21
280.4488888744656
  0
LINE
  5
135
100
AcDbEntity
  8
0
  6
ByLayer
 62
  256
370
   -1
100
AcDbLine
 10
4.888228874424385
 20
280.4488888744656
 11
5.250000315190618
 21
280.2990382610367
  0
LINE
  5
136
100
AcDbEntity
  8
0
  6
ByLayer
 62
  256
370
   -1
100
AcDbLine
 10
5.250000315190618
 20
280.2990382610367
 11
5.560660500364975
 21
280.060660344596
  0
LINE
  5
137
100
AcDbEntity
  8
0
  6
ByLayer
 62
  256
370
   -1
100
AcDbLine
 10
5.560660500364975
 20
280.060660344596
 11
5.799038451718161
 21
279.7500001862111
  0
LINE
  5
138
100
AcDbEntity
  8
0
  6
ByLayer
 62
  256
370
   -1
100
AcDbLine
 10
5.799038451718161
 20
279.7500001862111
 11
5.948889105802664
 21
279.3882287622851
  0
LINE
  5
139
100
AcDbEntity
  8
0
  6
ByLayer
 62
  256
370
   -1
100
AcDbLine
 10
5.948889105802664
 20
279.3882287622851
 11
6.000000388183707
 21
279.0000001975036
  0
LINE
  5
13A
100
AcDbEntity
  8
0
  6
ByLayer
 62
  256
370
   -1
100
AcDbLine
 10
7.098076599537762
 20
277.5000001132184
 11
7.397777867051445
 21
278.2235429779107
  0
LINE
  5
13B
100
AcDbEntity
  8
0
  6
ByLayer
 62
  256
370
   -1
100
AcDbLine
 10
4.11177173911733
 20
280.4488888308363
 11
4.500000303899014
 21
280.5000001132173
  0
LINE
  5
13C
100
AcDbEntity
  8
0
  6
ByLayer
 62
  256
370
   -1
100
AcDbLine
 10
4.50000038818439
 20
282.0000001132184
 11
3.723543252876652
 21
281.8977775920855
  0
LINE
  5
13D
100
AcDbEntity
  8
0
  6
ByLayer
 62
  256
370
   -1
100
AcDbLine
 10
6.621320731743936
 20
281.121320456778
 11
6.00000038818439
 21
281.5980763245718
  0
LINE
  5
13E
100
AcDbEntity
  8
0
  6
ByLayer
 62
  256
370
   -1
100
AcDbLine
 10
5.948889149431579
 20
278.611771626978
 11
5.799038536003081
 21
278.2500001862118
  0
LINE
  5
13F
100
AcDbEntity
  8
0
  6
ByLayer
 62
  256
370
   -1
100
AcDbLine
 10
3.051111670566115
 20
278.6117714641514
 11
3.000000388185072
 21
279.0000000289328
  0
LINE
  5
140
100
AcDbEntity
  8
0
  6
ByLayer
 62
  256
370
   -1
100
AcDbLine
 10
7.397777867051445
 20
279.776457248526
 11
7.098076599537762
 21
280.5000001132184
  0
LINE
  5
141
100
AcDbEntity
  8
0
  6
ByLayer
 62
  256
370
   -1
100
AcDbLine
 10
3.750000315191755
 20
280.2990381767513
 11
4.11177173911733
 21
280.4488888308363
  0
LINE
  5
142
100
AcDbEntity
  8
0
  6
ByLayer
 62
  256
370
   -1
100
AcDbLine
 10
5.276457523491899
 20
276.1022226343512
 11
6.00000038818439
 21
276.4019239018651
  0
LINE
  5
143
100
AcDbEntity
  8
0
  6
ByLayer
 62
  256
370
   -1
100
AcDbLine
 10
6.00000038818439
 20
281.5980763245718
 11
5.276457523491899
 21
281.8977775920855
  0
LINE
  5
144
100
AcDbEntity
  8
0
  6
ByLayer
 62
  256
370
   -1
100
AcDbLine
 10
6.000000388183707
 20
279.0000001975036
 11
5.948889149431579
 21
278.611771626978
  0
LINE
  5
145
100
AcDbEntity
  8
0
  6
ByLayer
 62
  256
370
   -1
100
AcDbLine
 10
3.200962324650845
 20
278.2500000402254
 11
3.051111670566115
 21
278.6117714641514
  0
LINE
  5
146
100
AcDbEntity
  8
0
  6
ByLayer
 62
  256
370
   -1
100
AcDbLine
 10
4.50000038818439
 20
276.0000001132182
 11
5.276457523491899
 21
276.1022226343512
  0
LINE
  5
147
100
AcDbEntity
  8
0
  6
ByLayer
 62
  256
370
   -1
100
AcDbLine
 10
5.250000461177251
 20
277.7009620496849
 11
4.888229037251449
 21
277.5511113955999
  0
LINE
  5
148
100
AcDbEntity
  8
0
  6
ByLayer
 62
  256
370
   -1
100
AcDbLine
 10
4.888229037251449
 20
277.5511113955999
 11
4.500000472469537
 21
277.5000001132191
  0
LINE
  5
149
100
AcDbEntity
  8
0
  6
ByLayer
 62
  256
370
   -1
100
AcDbLine
 10
6.00000038818439
 20
276.4019239018651
 11
6.621320731743936
 21
276.8786797696587
  0
LINE
  5
14A
100
AcDbEntity
  8
0
  6
ByLayer
 62
  256
370
   -1
100
AcDbLine
 10
4.111771901944394
 20
277.5511113519706
 11
3.750000461178388
 21
277.7009619653998
  0
LINE
  5
14B
100
AcDbEntity
  8
0
  6
ByLayer
 62
  256
370
   -1
100
AcDbLine
 10
7.098076599537762
 20
280.5000001132184
 11
6.621320731743936
 21
281.121320456778
  0
LINE
  5
14C
100
AcDbEntity
  8
0
  6
ByLayer
 62
  256
370
   -1
100
AcDbLine
 10
6.621320731743936
 20
276.8786797696587
 11
7.098076599537762
 21
277.5000001132184
  0
LINE
  5
14D
100
AcDbEntity
  8
0
  6
ByLayer
 62
  256
370
   -1
100
AcDbLine
 10
3.200962240365925
 20
279.7500000402247
 11
3.439340156806338
 21
280.0606602253986
  0
LINE
  5
14E
100
AcDbEntity
  8
0
  6
ByLayer
 62
  256
370
   -1
100
AcDbLine
 10
1.602222909317106
 20
278.2235429779107
 11
1.901924176831017
 21
277.5000001132184
  0
LINE
  5
14F
100
AcDbEntity
  8
0
  6
ByLayer
 62
  256
370
   -1
100
AcDbLine
 10
3.750000461178388
 20
277.7009619653998
 11
3.439340276003804
 21
277.9393398818402
  0
LINE
  5
150
100
AcDbEntity
  8
0
  6
ByLayer
 62
  256
370
   -1
100
AcDbLine
 10
4.500000472469537
 20
277.5000001132191
 11
4.111771901944394
 21
277.5511113519706
  0
LINE
  5
151
100
AcDbEntity
  8
0
  6
ByLayer
 62
  256
370
   -1
100
AcDbLine
 10
2.378680044624616
 20
276.8786797696587
 11
3.00000038818439
 21
276.4019239018651
  0
LINE
  5
152
100
AcDbEntity
  8
0
  6
ByLayer
 62
  256
370
   -1
100
AcDbLine
 10
4.500000303899014
 20
280.5000001132173
 11
4.50000038818439
 21
282.0000001132184
  0
LINE
  5
153
100
AcDbEntity
  8
0
  6
ByLayer
 62
  256
370
   -1
100
AcDbLine
 10
3.00000038818439
 20
276.4019239018651
 11
3.723543252876652
 21
276.1022226343512
  0
LINE
  5
154
100
AcDbEntity
  8
0
  6
ByLayer
 62
  256
370
   -1
100
AcDbLine
 10
1.602222909317106
 20
279.776457248526
 11
1.500000388184162
 21
279.0000001132184
  0
LINE
  5
155
100
AcDbEntity
  8
0
  6
ByLayer
 62
  256
370
   -1
100
AcDbLine
 10
5.276457523491899
 20
281.8977775920855
 11
4.50000038818439
 21
282.0000001132184
  0
LINE
  5
156
100
AcDbEntity
  8
0
  6
ByLayer
 62
  256
370
   -1
100
AcDbLine
 10
7.397777867051445
 20
278.2235429779107
 11
7.50000038818439
 21
279.0000001132184
  0
LINE
  5
157
100
AcDbEntity
  8
0
  6
ByLayer
 62
  256
370
   -1
100
AcDbLine
 10
2.378680044624616
 20
281.121320456778
 11
1.901924176831017
 21
280.5000001132184
  0
LINE
  5
158
100
AcDbEntity
  8
0
  6
ByLayer
 62
  256
370
   -1
100
AcDbLine
 10
3.000000388185072
 20
279.0000000289328
 11
1.500000388184162
 21
279.0000001132184
  0
LINE
  5
159
100
AcDbEntity
  8
0
  6
ByLayer
 62
  256
370
   -1
100
AcDbLine
 10
3.723543252876652
 20
281.8977775920855
 11
3.00000038818439
 21
281.5980763245718
  0
LINE
  5
15A
100
AcDbEntity
  8
0
  6
ByLayer
 62
  256
370
   -1
100
AcDbLine
 10
4.50000038818439
 20
276.0000001132182
 11
4.500000472469537
 21
277.5000001132191
  0
LINE
  5
15B
100
AcDbEntity
  8
0
  6
ByLayer
 62
  256
370
   -1
100
AcDbLine
 10
1.901924176831017
 20
277.5000001132184
 11
2.378680044624616
 21
276.8786797696587
  0
LINE
  5
15C
100
AcDbEntity
  8
0
  6
ByLayer
 62
  256
370
   -1
100
AcDbLine
 10
1.500000388184162
 20
279.0000001132184
 11
1.602222909317106
 21
278.2235429779107
  0
LINE
  5
15D
100
AcDbEntity
  8
0
  6
ByLayer
 62
  256
370
   -1
100
AcDbLine
 10
3.723543252876652
 20
276.1022226343512
 11
4.50000038818439
 21
276.0000001132182
  0
LINE
  5
15E
100
AcDbEntity
  8
0
  6
ByLayer
 62
  256
370
   -1
100
AcDbLine
 10
3.00000038818439
 20
281.5980763245718
 11
2.378680044624616
 21
281.121320456778
  0
LINE
  5
15F
100
AcDbEntity
  8
0
  6
ByLayer
 62
  256
370
   -1
100
AcDbLine
 10
1.602222909308466
 20
366.2304458860724
 11
1.901924176822376
 21
365.5069030213799
  0
LINE
  5
160
100
AcDbEntity
  8
0
  6
ByLayer
 62
  256
370
   -1
100
AcDbLine
 10
4.500000388175749
 20
364.0069030213799
 11
4.500000386829697
 21
365.5069030213797
  0
LINE
  5
161
100
AcDbEntity
  8
0
  6
ByLayer
 62
  256
370
   -1
100
AcDbLine
 10
1.500000388175522
 20
367.0069030213799
 11
1.602222909308466
 21
366.2304458860724
  0
LINE
  5
162
100
AcDbEntity
  8
0
  6
ByLayer
 62
  256
370
   -1
100
AcDbLine
 10
6.621320731735295
 20
364.8855826778204
 11
7.098076599528895
 21
365.5069030213799
  0
LINE
  5
163
100
AcDbEntity
  8
0
  6
ByLayer
 62
  256
370
   -1
100
AcDbLine
 10
3.723543252868012
 20
364.1091255425126
 11
4.500000388175749
 21
364.0069030213799
  0
LINE
  5
164
100
AcDbEntity
  8
0
  6
ByLayer
 62
  256
370
   -1
100
AcDbLine
 10
3.000000388175522
 20
364.4088268100265
 11
3.723543252868012
 21
364.1091255425126
  0
LINE
  5
165
100
AcDbEntity
  8
0
  6
ByLayer
 62
  256
370
   -1
100
AcDbLine
 10
4.500000389520892
 20
368.5069030213797
 11
4.500000388175749
 21
370.0069030213799
  0
LINE
  5
166
100
AcDbEntity
  8
0
  6
ByLayer
 62
  256
370
   -1
100
AcDbLine
 10
7.397777867042805
 20
367.7833601566874
 11
7.098076599528895
 21
368.5069030213799
  0
LINE
  5
167
100
AcDbEntity
  8
0
  6
ByLayer
 62
  256
370
   -1
100
AcDbLine
 10
4.500000388175749
 20
370.0069030213799
 11
3.723543252868012
 21
369.9046805002472
  0
LINE
  5
168
100
AcDbEntity
  8
0
  6
ByLayer
 62
  256
370
   -1
100
AcDbLine
 10
1.901924176822376
 20
368.5069030213799
 11
1.602222909308466
 21
367.7833601566874
  0
LINE
  5
169
100
AcDbEntity
  8
0
  6
ByLayer
 62
  256
370
   -1
100
AcDbLine
 10
6.000000388175749
 20
367.0069030200341
 11
4.500000388175749
 21
367.0069030213799
  0
LINE
  5
16A
100
AcDbEntity
  8
0
  6
ByLayer
 62
  256
370
   -1
100
AcDbLine
 10
4.500000388175749
 20
367.0069030213799
 11
4.500000389520892
 21
368.5069030213797
  0
LINE
  5
16B
100
AcDbEntity
  8
0
  6
ByLayer
 62
  256
370
   -1
100
AcDbLine
 10
4.500000389520892
 20
368.5069030213797
 11
4.888228957129286
 21
368.455791760465
  0
LINE
  5
16C
100
AcDbEntity
  8
0
  6
ByLayer
 62
  256
370
   -1
100
AcDbLine
 10
4.888228957129286
 20
368.455791760465
 11
5.250000389340585
 21
368.3059411263835
  0
LINE
  5
16D
100
AcDbEntity
  8
0
  6
ByLayer
 62
  256
370
   -1
100
AcDbLine
 10
5.250000389340585
 20
368.3059411263835
 11
5.560660560906626
 21
368.0675631922081
  0
LINE
  5
16E
100
AcDbEntity
  8
0
  6
ByLayer
 62
  256
370
   -1
100
AcDbLine
 10
5.799038494525348
 20
367.7569030202144
 11
5.948889127957273
 21
367.3951315877337
  0
LINE
  5
16F
100
AcDbEntity
  8
0
  6
ByLayer
 62
  256
370
   -1
100
AcDbLine
 10
5.948889127957273
 20
367.3951315877337
 11
6.000000388175749
 21
367.0069030200341
  0
LINE
  5
170
100
AcDbEntity
  8
0
  6
ByLayer
 62
  256
370
   -1
100
AcDbLine
 10
5.560660559003509
 20
365.9462428486484
 11
5.250000387010232
 21
365.7078649150301
  0
LINE
  5
171
100
AcDbEntity
  8
0
  6
ByLayer
 62
  256
370
   -1
100
AcDbLine
 10
4.111771819221985
 20
365.5580142822944
 11
3.750000387010232
 21
365.7078649163757
  0
LINE
  5
172
100
AcDbEntity
  8
0
  6
ByLayer
 62
  256
370
   -1
100
AcDbLine
 10
2.378680044615976
 20
369.1282233649395
 11
1.901924176822376
 21
368.5069030213799
  0
LINE
  5
173
100
AcDbEntity
  8
0
  6
ByLayer
 62
  256
370
   -1
100
AcDbLine
 10
4.111771821821549
 20
368.4557917611614
 11
4.500000389520892
 21
368.5069030213797
  0
LINE
  5
174
100
AcDbEntity
  8
0
  6
ByLayer
 62
  256
370
   -1
100
AcDbLine
 10
4.500000386829697
 20
365.5069030213797
 11
4.500000388175749
 21
367.0069030213799
  0
LINE
  5
175
100
AcDbEntity
  8
0
  6
ByLayer
 62
  256
370
   -1
100
AcDbLine
 10
6.000000388175749
 20
367.0069030200341
 11
5.9488891272606
 21
366.6186744524261
  0
LINE
  5
176
100
AcDbEntity
  8
0
  6
ByLayer
 62
  256
370
   -1
100
AcDbLine
 10
5.9488891272606
 20
366.6186744524261
 11
5.799038493179296
 21
366.2569030202144
  0
LINE
  5
177
100
AcDbEntity
  8
0
  6
ByLayer
 62
  256
370
   -1
100
AcDbLine
 10
5.799038493179296
 20
366.2569030202144
 11
5.560660559003509
 21
365.9462428486484
  0
LINE
  5
178
100
AcDbEntity
  8
0
  6
ByLayer
 62
  256
370
   -1
100
AcDbLine
 10
5.250000387010232
 20
365.7078649150301
 11
4.888228954529723
 21
365.5580142815977
  0
LINE
  5
179
100
AcDbEntity
  8
0
  6
ByLayer
 62
  256
370
   -1
100
AcDbLine
 10
4.888228954529723
 20
365.5580142815977
 11
4.500000386829697
 21
365.5069030213797
  0
LINE
  5
17A
100
AcDbEntity
  8
0
  6
ByLayer
 62
  256
370
   -1
100
AcDbLine
 10
1.602222909308466
 20
367.7833601566874
 11
1.500000388175522
 21
367.0069030213799
  0
LINE
  5
17B
100
AcDbEntity
  8
0
  6
ByLayer
 62
  256
370
   -1
100
AcDbLine
 10
4.500000386829697
 20
365.5069030213797
 11
4.111771819221985
 21
365.5580142822944
  0
LINE
  5
17C
100
AcDbEntity
  8
0
  6
ByLayer
 62
  256
370
   -1
100
AcDbLine
 10
6.000000388175749
 20
364.4088268100265
 11
6.621320731735295
 21
364.8855826778204
  0
LINE
  5
17D
100
AcDbEntity
  8
0
  6
ByLayer
 62
  256
370
   -1
100
AcDbLine
 10
4.500000388175749
 20
364.0069030213799
 11
5.276457523483259
 21
364.1091255425126
  0
LINE
  5
17E
100
AcDbEntity
  8
0
  6
ByLayer
 62
  256
370
   -1
100
AcDbLine
 10
1.901924176822376
 20
365.5069030213799
 11
2.378680044615976
 21
364.8855826778204
  0
LINE
  5
17F
100
AcDbEntity
  8
0
  6
ByLayer
 62
  256
370
   -1
100
AcDbLine
 10
5.276457523483259
 20
369.9046805002472
 11
4.500000388175749
 21
370.0069030213799
  0
LINE
  5
180
100
AcDbEntity
  8
0
  6
ByLayer
 62
  256
370
   -1
100
AcDbLine
 10
4.500000388175749
 20
367.0069030213799
 11
3.000000388175522
 21
367.0069030227253
  0
LINE
  5
181
100
AcDbEntity
  8
0
  6
ByLayer
 62
  256
370
   -1
100
AcDbLine
 10
3.000000388175522
 20
367.0069030227253
 11
3.051111649089989
 21
367.3951315903332
  0
LINE
  5
182
100
AcDbEntity
  8
0
  6
ByLayer
 62
  256
370
   -1
100
AcDbLine
 10
3.051111649089989
 20
367.3951315903332
 11
3.200962283171748
 21
367.756903022545
  0
LINE
  5
183
100
AcDbEntity
  8
0
  6
ByLayer
 62
  256
370
   -1
100
AcDbLine
 10
3.43934021734708
 20
368.067563194111
 11
3.750000389340585
 21
368.3059411277291
  0
LINE
  5
184
100
AcDbEntity
  8
0
  6
ByLayer
 62
  256
370
   -1
100
AcDbLine
 10
7.500000388175749
 20
367.0069030213799
 11
6.000000388175749
 21
367.0069030200341
  0
LINE
  5
185
100
AcDbEntity
  8
0
  6
ByLayer
 62
  256
370
   -1
100
AcDbLine
 10
3.000000388175522
 20
367.0069030227253
 11
1.500000388175522
 21
367.0069030213799
  0
LINE
  5
186
100
AcDbEntity
  8
0
  6
ByLayer
 62
  256
370
   -1
100
AcDbLine
 10
3.051111648393317
 20
366.6186744550257
 11
3.000000388175522
 21
367.0069030227253
  0
LINE
  5
187
100
AcDbEntity
  8
0
  6
ByLayer
 62
  256
370
   -1
100
AcDbLine
 10
7.098076599528895
 20
365.5069030213799
 11
7.397777867042805
 21
366.2304458860724
  0
LINE
  5
188
100
AcDbEntity
  8
0
  6
ByLayer
 62
  256
370
   -1
100
AcDbLine
 10
7.098076599528895
 20
368.5069030213799
 11
6.621320731735295
 21
369.1282233649395
  0
LINE
  5
189
100
AcDbEntity
  8
0
  6
ByLayer
 62
  256
370
   -1
100
AcDbLine
 10
3.723543252868012
 20
369.9046805002472
 11
3.000000388175522
 21
369.6049792327333
  0
LINE
  5
18A
100
AcDbEntity
  8
0
  6
ByLayer
 62
  256
370
   -1
100
AcDbLine
 10
3.439340215443963
 20
365.9462428505515
 11
3.200962281825696
 21
366.256903022545
  0
LINE
  5
18B
100
AcDbEntity
  8
0
  6
ByLayer
 62
  256
370
   -1
100
AcDbLine
 10
6.621320731735295
 20
369.1282233649395
 11
6.000000388175749
 21
369.6049792327333
  0
LINE
  5
18C
100
AcDbEntity
  8
0
  6
ByLayer
 62
  256
370
   -1
100
AcDbLine
 10
2.378680044615976
 20
364.8855826778204
 11
3.000000388175522
 21
364.4088268100265
  0
LINE
  5
18D
100
AcDbEntity
  8
0
  6
ByLayer
 62
  256
370
   -1
100
AcDbLine
 10
3.200962281825696
 20
366.256903022545
 11
3.051111648393317
 21
366.6186744550257
  0
LINE
  5
18E
100
AcDbEntity
  8
0
  6
ByLayer
 62
  256
370
   -1
100
AcDbLine
 10
6.000000388175749
 20
369.6049792327333
 11
5.276457523483259
 21
369.9046805002472
  0
LINE
  5
18F
100
AcDbEntity
  8
0
  6
ByLayer
 62
  256
370
   -1
100
AcDbLine
 10
3.000000388175522
 20
369.6049792327333
 11
2.378680044615976
 21
369.1282233649395
  0
LINE
  5
190
100
AcDbEntity
  8
0
  6
ByLayer
 62
  256
370
   -1
100
AcDbLine
 10
7.397777867042805
 20
366.2304458860724
 11
7.500000388175749
 21
367.0069030213799
  0
LINE
  5
191
100
AcDbEntity
  8
0
  6
ByLayer
 62
  256
370
   -1
100
AcDbLine
 10
7.500000388175749
 20
367.0069030213799
 11
7.397777867042805
 21
367.7833601566874
  0
LINE
  5
192
100
AcDbEntity
  8
0
  6
ByLayer
 62
  256
370
   -1
100
AcDbLine
 10
5.276457523483259
 20
364.1091255425126
 11
6.000000388175749
 21
364.4088268100265
  0
LINE
  5
193
100
AcDbEntity
  8
0
  6
ByLayer
 62
  256
370
   -1
100
AcDbLine
 10
26.88263731391248
 20
9.136232391860972
 11
27.08128558426847
 21
9.395115874347312
  0
LINE
  5
194
100
AcDbEntity
  8
0
  6
ByLayer
 62
  256
370
   -1
100
AcDbLine
 10
25.99875381068409
 20
10.02011584137495
 11
26.88263731391248
 21
9.136232391860972
  0
LINE
  5
195
100
AcDbEntity
  8
0
  6
ByLayer
 62
  256
370
   -1
100
AcDbLine
 10
25.99875381068409
 20
10.02011584137495
 11
26.88263726019795
 21
10.90399934460322
  0
LINE
  5
196
100
AcDbEntity
  8
0
  6
ByLayer
 62
  256
370
   -1
100
AcDbLine
 10
25.11487036117001
 20
9.136232338146669
 11
25.99875381068409
 21
10.02011584137495
  0
LINE
  5
197
100
AcDbEntity
  8
0
  6
ByLayer
 62
  256
370
   -1
100
AcDbLine
 10
26.32227765370862
 20
8.812708568496987
 11
26.62375384349775
 21
8.93758410577243
  0
LINE
  5
198
100
AcDbEntity
  8
0
  6
ByLayer
 62
  256
370
   -1
100
AcDbLine
 10
25.67523004103441
 20
8.812708548836099
 11
25.99875384866573
 21
8.770115841533311
  0
LINE
  5
199
100
AcDbEntity
  8
0
  6
ByLayer
 62
  256
370
   -1
100
AcDbLine
 10
25.37375384365623
 20
8.937584067790681
 11
25.67523004103441
 21
8.812708548836099
  0
LINE
  5
19A
100
AcDbEntity
  8
0
  6
ByLayer
 62
  256
370
   -1
100
AcDbLine
 10
26.88263731391248
 20
9.136232391860972
 11
28.12007415424387
 21
7.89879549781574
  0
LINE
  5
19B
100
AcDbEntity
  8
0
  6
ByLayer
 62
  256
370
   -1
100
AcDbLine
 10
26.88263726019795
 20
10.90399934460322
 11
28.12007415424341
 21
12.14143618493506
  0
LINE
  5
19C
100
AcDbEntity
  8
0
  6
ByLayer
 62
  256
370
   -1
100
AcDbLine
 10
25.11487030745548
 20
10.90399929088892
 11
25.99875381068409
 21
10.02011584137495
  0
LINE
  5
19D
100
AcDbEntity
  8
0
  6
ByLayer
 62
  256
370
   -1
100
AcDbLine
 10
25.37375377786975
 20
11.10264757697735
 11
25.11487030745548
 21
10.90399929088892
  0
LINE
  5
19E
100
AcDbEntity
  8
0
  6
ByLayer
 62
  256
370
   -1
100
AcDbLine
 10
23.87743346712432
 20
7.898795497815513
 11
25.11487036117001
 21
9.136232338146669
  0
LINE
  5
19F
100
AcDbEntity
  8
0
  6
ByLayer
 62
  256
370
   -1
100
AcDbLine
 10
24.91622203709949
 20
10.64511580840258
 11
24.79134651814525
 21
10.34363961102451
  0
LINE
  5
1A0
100
AcDbEntity
  8
0
  6
ByLayer
 62
  256
370
   -1
100
AcDbLine
 10
24.79134651814525
 20
10.34363961102451
 11
24.74875381084257
 21
10.0201158033932
  0
LINE
  5
1A1
100
AcDbEntity
  8
0
  6
ByLayer
 62
  256
370
   -1
100
AcDbLine
 10
24.74875381084257
 20
10.0201158033932
 11
24.79134653780579
 21
9.696591998350186
  0
LINE
  5
1A2
100
AcDbEntity
  8
0
  6
ByLayer
 62
  256
370
   -1
100
AcDbLine
 10
24.79134653780579
 20
9.696591998350186
 11
24.91622207508181
 21
9.395115808560945
  0
LINE
  5
1A3
100
AcDbEntity
  8
0
  6
ByLayer
 62
  256
370
   -1
100
AcDbLine
 10
24.91622207508181
 20
9.395115808560945
 11
25.11487036117001
 21
9.136232338146669
  0
LINE
  5
1A4
100
AcDbEntity
  8
0
  6
ByLayer
 62
  256
370
   -1
100
AcDbLine
 10
23.87743346712386
 20
12.14143618493506
 11
25.11487030745548
 21
10.90399929088892
  0
LINE
  5
1A5
100
AcDbEntity
  8
0
  6
ByLayer
 62
  256
370
   -1
100
AcDbLine
 10
53.8785574778085
 20
12.1414370965332
 11
55.11599431802824
 21
10.90400020259949
  0
LINE
  5
1A6
100
AcDbEntity
  8
0
  6
ByLayer
 62
  256
370
   -1
100
AcDbLine
 10
56.88376132470944
 20
9.136233303347467
 11
58.1211981649285
 21
7.898796409413876
  0
LINE
  5
1A7
100
AcDbEntity
  8
0
  6
ByLayer
 62
  256
370
   -1
100
AcDbLine
 10
54.91734604764724
 20
10.64511672008018
 11
55.11599431802824
 21
10.90400020259949
  0
LINE
  5
1A8
100
AcDbEntity
  8
0
  6
ByLayer
 62
  256
370
   -1
100
AcDbLine
 10
55.11599431802824
 20
10.90400020259949
 11
55.99987782136895
 21
10.02011675297308
  0
LINE
  5
1A9
100
AcDbEntity
  8
0
  6
ByLayer
 62
  256
370
   -1
100
AcDbLine
 10
55.11599437174277
 20
9.136233249632937
 11
55.99987782136895
 21
10.02011675297308
  0
LINE
  5
1AA
100
AcDbEntity
  8
0
  6
ByLayer
 62
  256
370
   -1
100
AcDbLine
 10
54.74987782136873
 20
10.02011671499156
 11
54.79247054833763
 21
9.696592909907622
  0
LINE
  5
1AB
100
AcDbEntity
  8
0
  6
ByLayer
 62
  256
370
   -1
100
AcDbLine
 10
54.79247052867709
 20
10.3436405226638
 11
54.74987782136873
 21
10.02011671499156
  0
LINE
  5
1AC
100
AcDbEntity
  8
0
  6
ByLayer
 62
  256
370
   -1
100
AcDbLine
 10
54.91734604764724
 20
10.64511672008018
 11
54.79247052867709
 21
10.3436405226638
  0
LINE
  5
1AD
100
AcDbEntity
  8
0
  6
ByLayer
 62
  256
370
   -1
100
AcDbLine
 10
55.67635405167835
 20
8.812709460281553
 11
55.99987785935082
 21
8.770116752973422
  0
LINE
  5
1AE
100
AcDbEntity
  8
0
  6
ByLayer
 62
  256
370
   -1
100
AcDbLine
 10
56.62487778847549
 20
11.10264852669502
 11
56.88376127099491
 21
10.90400025631379
  0
LINE
  5
1AF
100
AcDbEntity
  8
0
  6
ByLayer
 62
  256
370
   -1
100
AcDbLine
 10
56.88376132470944
 20
9.136233303347467
 11
56.62487785426219
 21
8.937585017233687
  0
LINE
  5
1B0
100
AcDbEntity
  8
0
  6
ByLayer
 62
  256
370
   -1
100
AcDbLine
 10
55.99987782136895
 20
10.02011675297308
 11
56.88376132470944
 21
9.136233303347467
  0
LINE
  5
1B1
100
AcDbEntity
  8
0
  6
ByLayer
 62
  256
370
   -1
100
AcDbLine
 10
56.32340166443441
 20
8.812709479942328
 11
55.99987785935082
 21
8.770116752973422
  0
LINE
  5
1B2
100
AcDbEntity
  8
0
  6
ByLayer
 62
  256
370
   -1
100
AcDbLine
 10
55.37487785426174
 20
8.937584979251938
 11
55.67635405167835
 21
8.812709460281553
  0
LINE
  5
1B3
100
AcDbEntity
  8
0
  6
ByLayer
 62
  256
370
   -1
100
AcDbLine
 10
55.37487785426174
 20
8.937584979251938
 11
55.11599437174277
 21
9.136233249632937
  0
LINE
  5
1B4
100
AcDbEntity
  8
0
  6
ByLayer
 62
  256
370
   -1
100
AcDbLine
 10
57.08240955710858
 20
10.64511678586666
 11
57.20728509440005
 21
10.34364059603911
  0
LINE
  5
1B5
100
AcDbEntity
  8
0
  6
ByLayer
 62
  256
370
   -1
100
AcDbLine
 10
57.2072851140606
 20
9.696592983282812
 11
57.08240959509044
 21
9.395116785866549
  0
LINE
  5
1B6
100
AcDbEntity
  8
0
  6
ByLayer
 62
  256
370
   -1
100
AcDbLine
 10
56.88376127099491
 20
10.90400025631379
 11
58.12119816492805
 21
12.1414370965332
  0
LINE
  5
1B7
100
AcDbEntity
  8
0
  6
ByLayer
 62
  256
370
   -1
100
AcDbLine
 10
53.87855747780895
 20
7.898796409413649
 11
55.11599437174277
 21
9.136233249632937
  0
LINE
  5
1B8
100
AcDbEntity
  8
0
  6
ByLayer
 62
  256
370
   -1
100
AcDbLine
 10
55.37487778847549
 20
11.10264848871304
 11
55.67635397830281
 21
11.2275240260044
  0
LINE
  5
1B9
100
AcDbEntity
  8
0
  6
ByLayer
 62
  256
370
   -1
100
AcDbLine
 10
55.99987782136895
 20
10.02011675297308
 11
56.88376127099491
 21
10.90400025631379
  0
LINE
  5
1BA
100
AcDbEntity
  8
0
  6
ByLayer
 62
  256
370
   -1
100
AcDbLine
 10
56.88376132470944
 20
9.136233303347467
 11
57.08240959509044
 21
9.395116785866549
  0
LINE
  5
1BB
100
AcDbEntity
  8
0
  6
ByLayer
 62
  256
370
   -1
100
AcDbLine
 10
57.20728509440005
 20
10.34364059603911
 11
57.24987782136895
 21
10.02011679095517
  0
LINE
  5
1BC
100
AcDbEntity
  8
0
  6
ByLayer
 62
  256
370
   -1
100
AcDbLine
 10
55.99987778338686
 20
11.27011675297354
 11
56.32340159105911
 21
11.22752404566518
  0
LINE
  5
1BD
100
AcDbEntity
  8
0
  6
ByLayer
 62
  256
370
   -1
100
AcDbLine
 10
55.37487778847549
 20
11.10264848871304
 11
55.11599431802824
 21
10.90400020259949
  0
LINE
  5
1BE
100
AcDbEntity
  8
0
  6
ByLayer
 62
  256
370
   -1
100
AcDbLine
 10
43.13391265249538
 20
52.44579561460273
 11
44.01779615583587
 21
51.56191216497746
  0
LINE
  5
1BF
100
AcDbEntity
  8
0
  6
ByLayer
 62
  256
370
   -1
100
AcDbLine
 10
42.81038888280477
 20
51.23838832191154
 11
43.13391269047725
 21
51.19579561460341
  0
LINE
  5
1C0
100
AcDbEntity
  8
0
  6
ByLayer
 62
  256
370
   -1
100
AcDbLine
 10
42.25002920286943
 20
51.56191211126293
 11
43.13391265249538
 21
52.44579561460273
  0
LINE
  5
1C1
100
AcDbEntity
  8
0
  6
ByLayer
 62
  256
370
   -1
100
AcDbLine
 10
44.01779615583587
 20
51.56191216497746
 11
43.7589126853884
 21
51.36326387886379
  0
LINE
  5
1C2
100
AcDbEntity
  8
0
  6
ByLayer
 62
  256
370
   -1
100
AcDbLine
 10
43.7589126853884
 20
51.36326387886379
 11
43.45743649556107
 21
51.23838834157232
  0
LINE
  5
1C3
100
AcDbEntity
  8
0
  6
ByLayer
 62
  256
370
   -1
100
AcDbLine
 10
43.45743649556107
 20
51.23838834157232
 11
43.13391269047725
 21
51.19579561460341
  0
LINE
  5
1C4
100
AcDbEntity
  8
0
  6
ByLayer
 62
  256
370
   -1
100
AcDbLine
 10
42.5089126853884
 20
51.36326384088193
 11
42.25002920286943
 21
51.56191211126293
  0
LINE
  5
1C5
100
AcDbEntity
  8
0
  6
ByLayer
 62
  256
370
   -1
100
AcDbLine
 10
42.0513808787739
 20
53.07079558171017
 11
42.2500291491549
 21
53.32967906422959
  0
LINE
  5
1C6
100
AcDbEntity
  8
0
  6
ByLayer
 62
  256
370
   -1
100
AcDbLine
 10
42.2500291491549
 20
53.32967906422959
 11
43.13391265249538
 21
52.44579561460273
  0
LINE
  5
1C7
100
AcDbEntity
  8
0
  6
ByLayer
 62
  256
370
   -1
100
AcDbLine
 10
42.05138091675576
 20
51.82079558171017
 11
41.92650537946383
 21
52.12227177153773
  0
LINE
  5
1C8
100
AcDbEntity
  8
0
  6
ByLayer
 62
  256
370
   -1
100
AcDbLine
 10
41.88391265249538
 20
52.44579557662155
 11
41.92650537946383
 21
52.12227177153773
  0
LINE
  5
1C9
100
AcDbEntity
  8
0
  6
ByLayer
 62
  256
370
   -1
100
AcDbLine
 10
41.92650535980329
 20
52.76931938429425
 11
41.88391265249538
 21
52.44579557662155
  0
LINE
  5
1CA
100
AcDbEntity
  8
0
  6
ByLayer
 62
  256
370
   -1
100
AcDbLine
 10
42.0513808787739
 20
53.07079558171017
 11
41.92650535980329
 21
52.76931938429425
  0
LINE
  5
1CB
100
AcDbEntity
  8
0
  6
ByLayer
 62
  256
370
   -1
100
AcDbLine
 10
44.38391265249538
 20
52.44579565258528
 11
44.3413199451868
 21
52.12227184491303
  0
LINE
  5
1CC
100
AcDbEntity
  8
0
  6
ByLayer
 62
  256
370
   -1
100
AcDbLine
 10
44.01779615583587
 20
51.56191216497746
 11
44.21644442621687
 21
51.82079564749665
  0
LINE
  5
1CD
100
AcDbEntity
  8
0
  6
ByLayer
 62
  256
370
   -1
100
AcDbLine
 10
44.216444388235
 20
53.07079564749665
 11
44.34131992552625
 21
52.76931945766933
  0
LINE
  5
1CE
100
AcDbEntity
  8
0
  6
ByLayer
 62
  256
370
   -1
100
AcDbLine
 10
43.13391265249538
 20
52.44579561460273
 11
44.01779610212134
 21
53.3296791179439
  0
LINE
  5
1CF
100
AcDbEntity
  8
0
  6
ByLayer
 62
  256
370
   -1
100
AcDbLine
 10
42.50891261960169
 20
53.52832735034326
 11
42.2500291491549
 21
53.32967906422959
  0
LINE
  5
1D0
100
AcDbEntity
  8
0
  6
ByLayer
 62
  256
370
   -1
100
AcDbLine
 10
42.50891261960169
 20
53.52832735034326
 11
42.81038880942947
 21
53.65320288763428
  0
LINE
  5
1D1
100
AcDbEntity
  8
0
  6
ByLayer
 62
  256
370
   -1
100
AcDbLine
 10
43.75891261960169
 20
53.52832738832512
 11
44.01779610212134
 21
53.3296791179439
  0
LINE
  5
1D2
100
AcDbEntity
  8
0
  6
ByLayer
 62
  256
370
   -1
100
AcDbLine
 10
41.01259230893538
 20
50.32447527104318
 11
42.25002920286943
 21
51.56191211126293
  0
LINE
  5
1D3
100
AcDbEntity
  8
0
  6
ByLayer
 62
  256
370
   -1
100
AcDbLine
 10
44.01779610212134
 20
53.3296791179439
 11
45.2552329960547
 21
54.56711595816273
  0
LINE
  5
1D4
100
AcDbEntity
  8
0
  6
ByLayer
 62
  256
370
   -1
100
AcDbLine
 10
44.34131992552625
 20
52.76931945766933
 11
44.38391265249538
 21
52.44579565258528
  0
LINE
  5
1D5
100
AcDbEntity
  8
0
  6
ByLayer
 62
  256
370
   -1
100
AcDbLine
 10
44.01779615583587
 20
51.56191216497746
 11
45.25523299605493
 21
50.32447527104341
  0
LINE
  5
1D6
100
AcDbEntity
  8
0
  6
ByLayer
 62
  256
370
   -1
100
AcDbLine
 10
44.3413199451868
 20
52.12227184491303
 11
44.21644442621687
 21
51.82079564749665
  0
LINE
  5
1D7
100
AcDbEntity
  8
0
  6
ByLayer
 62
  256
370
   -1
100
AcDbLine
 10
41.01259230893515
 20
54.56711595816273
 11
42.2500291491549
 21
53.32967906422959
  0
LINE
  5
1D8
100
AcDbEntity
  8
0
  6
ByLayer
 62
  256
370
   -1
100
AcDbLine
 10
37.99123333413354
 20
377.5959365272831
 11
38.18988162695223
 21
377.8548199925851
  0
LINE
  5
1D9
100
AcDbEntity
  8
0
  6
ByLayer
 62
  256
370
   -1
100
AcDbLine
 10
37.10734990740025
 20
378.4798200535154
 11
37.99123333413354
 21
377.5959365272831
  0
LINE
  5
1DA
100
AcDbEntity
  8
0
  6
ByLayer
 62
  256
370
   -1
100
AcDbLine
 10
37.10734990740025
 20
378.4798200535154
 11
37.99123343363385
 21
379.3637034802493
  0
LINE
  5
1DB
100
AcDbEntity
  8
0
  6
ByLayer
 62
  256
370
   -1
100
AcDbLine
 10
37.99123343363385
 20
379.3637034802493
 11
38.1898816973096
 21
379.1048199925851
  0
LINE
  5
1DC
100
AcDbEntity
  8
0
  6
ByLayer
 62
  256
370
   -1
100
AcDbLine
 10
38.31475720847197
 20
378.8033437919346
 11
38.35734990740048
 21
378.4798199831589
  0
LINE
  5
1DD
100
AcDbEntity
  8
0
  6
ByLayer
 62
  256
370
   -1
100
AcDbLine
 10
38.35734990740048
 20
378.4798199831589
 11
38.31475717205217
 21
378.1562961791783
  0
LINE
  5
1DE
100
AcDbEntity
  8
0
  6
ByLayer
 62
  256
370
   -1
100
AcDbLine
 10
38.31475717205217
 20
378.1562961791783
 11
38.18988162695223
 21
377.8548199925851
  0
LINE
  5
1DF
100
AcDbEntity
  8
0
  6
ByLayer
 62
  256
370
   -1
100
AcDbLine
 10
35.85734990740025
 20
378.4798201238737
 11
35.89994260632943
 21
378.156296315098
  0
LINE
  5
1E0
100
AcDbEntity
  8
0
  6
ByLayer
 62
  256
370
   -1
100
AcDbLine
 10
37.43087364581879
 20
377.2724127524452
 11
37.10734983704356
 21
377.2298200535163
  0
LINE
  5
1E1
100
AcDbEntity
  8
0
  6
ByLayer
 62
  256
370
   -1
100
AcDbLine
 10
36.22346648066718
 20
379.3637035797499
 11
37.10734990740025
 21
378.4798200535154
  0
LINE
  5
1E2
100
AcDbEntity
  8
0
  6
ByLayer
 62
  256
370
   -1
100
AcDbLine
 10
36.48234996833185
 20
379.5623518434256
 11
36.22346648066718
 21
379.3637035797499
  0
LINE
  5
1E3
100
AcDbEntity
  8
0
  6
ByLayer
 62
  256
370
   -1
100
AcDbLine
 10
36.48234996833185
 20
379.5623518434256
 11
36.78382616898261
 21
379.6872273545875
  0
LINE
  5
1E4
100
AcDbEntity
  8
0
  6
ByLayer
 62
  256
370
   -1
100
AcDbLine
 10
37.43087378173891
 20
379.687227318168
 11
37.73234996833207
 21
379.5623517730683
  0
LINE
  5
1E5
100
AcDbEntity
  8
0
  6
ByLayer
 62
  256
370
   -1
100
AcDbLine
 10
37.73234996833207
 20
379.5623517730683
 11
37.99123343363385
 21
379.3637034802493
  0
LINE
  5
1E6
100
AcDbEntity
  8
0
  6
ByLayer
 62
  256
370
   -1
100
AcDbLine
 10
36.0248181878485
 20
379.1048201144476
 11
35.89994264274901
 21
378.8033439278545
  0
LINE
  5
1E7
100
AcDbEntity
  8
0
  6
ByLayer
 62
  256
370
   -1
100
AcDbLine
 10
37.73234984646933
 20
377.3972882636072
 11
37.43087364581879
 21
377.2724127524452
  0
LINE
  5
1E8
100
AcDbEntity
  8
0
  6
ByLayer
 62
  256
370
   -1
100
AcDbLine
 10
34.98602956384002
 20
380.6011403970756
 11
36.22346648066718
 21
379.3637035797499
  0
LINE
  5
1E9
100
AcDbEntity
  8
0
  6
ByLayer
 62
  256
370
   -1
100
AcDbLine
 10
36.22346638116687
 20
377.5959366267832
 11
37.10734990740025
 21
378.4798200535154
  0
LINE
  5
1EA
100
AcDbEntity
  8
0
  6
ByLayer
 62
  256
370
   -1
100
AcDbLine
 10
37.99123333413354
 20
377.5959365272831
 11
37.73234984646933
 21
377.3972882636072
  0
LINE
  5
1EB
100
AcDbEntity
  8
0
  6
ByLayer
 62
  256
370
   -1
100
AcDbLine
 10
36.7838260330625
 20
377.2724127888648
 11
36.48234984646933
 21
377.3972883339645
  0
LINE
  5
1EC
100
AcDbEntity
  8
0
  6
ByLayer
 62
  256
370
   -1
100
AcDbLine
 10
36.0248181878485
 20
379.1048201144476
 11
36.22346648066718
 21
379.3637035797499
  0
LINE
  5
1ED
100
AcDbEntity
  8
0
  6
ByLayer
 62
  256
370
   -1
100
AcDbLine
 10
35.89994264274901
 20
378.8033439278545
 11
35.85734990740025
 21
378.4798201238737
  0
LINE
  5
1EE
100
AcDbEntity
  8
0
  6
ByLayer
 62
  256
370
   -1
100
AcDbLine
 10
37.99123333413354
 20
377.5959365272831
 11
39.22867025095979
 21
376.3584997099563
  0
LINE
  5
1EF
100
AcDbEntity
  8
0
  6
ByLayer
 62
  256
370
   -1
100
AcDbLine
 10
34.98602956384025
 20
376.358499709956
 11
36.22346638116687
 21
377.5959366267832
  0
LINE
  5
1F0
100
AcDbEntity
  8
0
  6
ByLayer
 62
  256
370
   -1
100
AcDbLine
 10
37.99123343363385
 20
379.3637034802493
 11
39.22867025095957
 21
380.6011403970756
  0
LINE
  5
1F1
100
AcDbEntity
  8
0
  6
ByLayer
 62
  256
370
   -1
100
AcDbLine
 10
73.00000077404229
 20
282.503240350585
 11
73.00000077404229
 21
280.003240350585
  0
LINE
  5
1F2
100
AcDbEntity
  8
0
  6
ByLayer
 62
  256
370
   -1
100
AcDbLine
 10
73.00000077404229
 20
280.003240350585
 11
70.50000077404229
 21
280.003240350585
  0
LINE
  5
1F3
100
AcDbEntity
  8
0
  6
ByLayer
 62
  256
370
   -1
100
AcDbLine
 10
73.00000077404229
 20
280.003240350585
 11
75.50000077404206
 21
280.0032403505847
  0
LINE
  5
1F4
100
AcDbEntity
  8
0
  6
ByLayer
 62
  256
370
   -1
100
AcDbLine
 10
73.00000077404206
 20
277.5032403505847
 11
73.00000077404229
 21
280.003240350585
  0
LINE
  5
1F5
100
AcDbEntity
  8
0
  6
ByLayer
 62
  256
370
   -1
100
AcDbLine
 10
395.5000028745317
 20
194.5000033148703
 11
395.1117743077386
 21
194.4488920477677
  0
LINE
  5
1F6
100
AcDbEntity
  8
0
  6
ByLayer
 62
  256
370
   -1
100
AcDbLine
 10
395.1117743077386
 20
194.4488920477677
 11
394.7500028779147
 21
194.2990414079199
  0
LINE
  5
1F7
100
AcDbEntity
  8
0
  6
ByLayer
 62
  256
370
   -1
100
AcDbLine
 10
330.000000982586
 20
280.0032424226185
 11
330.0000057316004
 21
4.194434040982742e-06
  0
LINE
  5
1F8
100
AcDbEntity
  8
0
  6
ByLayer
 62
  256
370
   -1
100
AcDbLine
 10
400.0000062161006
 20
3.187744027854933e-06
 11
330.0000057316004
 21
4.194434040982742e-06
  0
LINE
  5
1F9
100
AcDbEntity
  8
0
  6
ByLayer
 62
  256
370
   -1
100
AcDbLine
 10
399.9999996654605
 20
390.0033173169121
 11
400.0000062161006
 21
3.187744027854933e-06
  0
LINE
  5
1FA
100
AcDbEntity
  8
0
  6
ByLayer
 62
  256
370
   -1
100
AcDbLine
 10
200.0000005346781
 20
390.0033119797597
 11
399.9999996654605
 21
390.0033173169121
  0
LINE
  5
1FB
100
AcDbEntity
  8
0
  6
ByLayer
 62
  256
370
   -1
100
AcDbLine
 10
200.0000008526956
 20
283.0032458319886
 11
327.0000009313491
 21
283.0032425012866
  0
LINE
  5
1FC
100
AcDbEntity
  8
0
  6
ByLayer
 62
  256
370
   -1
100
AcDbLine
 10
327.0000009313491
 20
283.0032425012866
 11
327.7764580684025
 21
282.9010199597931
  0
LINE
  5
1FD
100
AcDbEntity
  8
0
  6
ByLayer
 62
  256
370
   -1
100
AcDbLine
 10
327.7764580684025
 20
282.9010199597931
 11
328.5000009382134
 21
282.601318673306
  0
LINE
  5
1FE
100
AcDbEntity
  8
0
  6
ByLayer
 62
  256
370
   -1
100
AcDbLine
 10
328.5000009382134
 20
282.601318673306
 11
329.1213212899156
 21
282.1245627892195
  0
LINE
  5
1FF
100
AcDbEntity
  8
0
  6
ByLayer
 62
  256
370
   -1
100
AcDbLine
 10
329.1213212899156
 20
282.1245627892195
 11
329.5980771683207
 21
281.5032424331579
  0
LINE
  5
200
100
AcDbEntity
  8
0
  6
ByLayer
 62
  256
370
   -1
100
AcDbLine
 10
329.5980771683207
 20
281.5032424331579
 11
329.8977784481922
 21
280.7796995606066
  0
LINE
  5
201
100
AcDbEntity
  8
0
  6
ByLayer
 62
  256
370
   -1
100
AcDbLine
 10
329.8977784481922
 20
280.7796995606066
 11
330.000000982586
 21
280.0032424226185
  0
LINE
  5
202
100
AcDbEntity
  8
0
  6
ByLayer
 62
  256
370
   -1
100
AcDbLine
 10
396.2499999564349
 20
368.3059442557027
 11
395.8882285215656
 21
368.4557948833689
  0
LINE
  5
203
100
AcDbEntity
  8
0
  6
ByLayer
 62
  256
370
   -1
100
AcDbLine
 10
396.7990380713547
 20
367.7569061592696
 11
396.5606601322279
 21
368.0675663270363
  0
LINE
  5
204
100
AcDbEntity
  8
0
  6
ByLayer
 62
  256
370
   -1
100
AcDbLine
 10
396.2500000001753
 20
365.7078680443493
 11
396.560660167942
 21
365.9462459834767
  0
LINE
  5
205
100
AcDbEntity
  8
0
  6
ByLayer
 62
  256
370
   -1
100
AcDbLine
 10
394.4393397886683
 20
368.0675662913222
 11
394.2009618600011
 21
367.7569061155291
  0
LINE
  5
206
100
AcDbEntity
  8
0
  6
ByLayer
 62
  256
370
   -1
100
AcDbLine
 10
396.560661595486
 20
280.0606633583238
 11
396.2500014333011
 21
280.2990413047251
  0
LINE
  5
207
100
AcDbEntity
  8
0
  6
ByLayer
 62
  256
370
   -1
100
AcDbLine
 10
396.948890136073
 20
279.3882317385715
 11
396.7990395168779
 21
279.7500031769493
  0
LINE
  5
208
100
AcDbEntity
  8
0
  6
ByLayer
 62
  256
370
   -1
100
AcDbLine
 10
397.0000013810128
 20
279.0000031688605
 11
396.948890136073
 21
279.3882317385715
  0
LINE
  5
209
100
AcDbEntity
  8
0
  6
ByLayer
 62
  256
370
   -1
100
AcDbLine
 10
396.5606615100996
 20
277.9393430147655
 11
396.7990394565011
 21
278.2500031769501
  0
LINE
  5
20A
100
AcDbEntity
  8
0
  6
ByLayer
 62
  256
370
   -1
100
AcDbLine
 10
394.4393411665412
 20
277.9393431001517
 11
394.7500013287256
 21
277.7009651537505
  0
LINE
  5
20B
100
AcDbEntity
  8
0
  6
ByLayer
 62
  256
370
   -1
100
AcDbLine
 10
394.2009632451487
 20
278.2500032815265
 11
394.4393411665412
 21
277.9393431001517
  0
LINE
  5
20C
100
AcDbEntity
  8
0
  6
ByLayer
 62
  256
370
   -1
100
AcDbLine
 10
396.2500028779151
 20
194.2990414331739
 11
395.8882314430462
 21
194.4488920608401
  0
LINE
  5
20D
100
AcDbEntity
  8
0
  6
ByLayer
 62
  256
370
   -1
100
AcDbLine
 10
396.560663053708
 20
194.0606635045073
 11
396.2500028779151
 21
194.2990414331739
  0
LINE
  5
20E
100
AcDbEntity
  8
0
  6
ByLayer
 62
  256
370
   -1
100
AcDbLine
 10
396.2500029216563
 20
191.7009652218207
 11
396.5606630894223
 21
191.9393431609479
  0
LINE
  5
20F
100
AcDbEntity
  8
0
  6
ByLayer
 62
  256
370
   -1
100
AcDbLine
 10
394.7500029216561
 20
191.7009651965666
 11
395.1117743565255
 21
191.5511145689004
  0
LINE
  5
210
100
AcDbEntity
  8
0
  6
ByLayer
 62
  256
370
   -1
100
AcDbLine
 10
396.9488930904887
 20
106.6117747716084
 11
397.0000043445189
 21
107.0000033401225
  0
LINE
  5
211
100
AcDbEntity
  8
0
  6
ByLayer
 62
  256
370
   -1
100
AcDbLine
 10
396.7990424628226
 20
106.2500033367394
 11
396.9488930904887
 21
106.6117747716084
  0
LINE
  5
212
100
AcDbEntity
  8
0
  6
ByLayer
 62
  256
370
   -1
100
AcDbLine
 10
394.0511155985496
 20
107.3882318581294
 11
394.0000043445195
 21
107.000003289615
  0
LINE
  5
213
100
AcDbEntity
  8
0
  6
ByLayer
 62
  256
370
   -1
100
AcDbLine
 10
396.5606657994024
 20
23.93934297804014
 11
396.7990437402939
 21
24.25000314445265
  0
LINE
  5
214
100
AcDbEntity
  8
0
  6
ByLayer
 62
  256
370
   -1
100
AcDbLine
 10
395.5000056177306
 20
23.50000317370109
 11
395.8882341865354
 21
23.55111442552641
  0
LINE
  5
215
100
AcDbEntity
  8
0
  6
ByLayer
 62
  256
370
   -1
100
AcDbLine
 10
395.1117770512277
 20
23.55111444300883
 11
395.5000056177306
 21
23.50000317370109
  0
LINE
  5
216
100
AcDbEntity
  8
0
  6
ByLayer
 62
  256
370
   -1
100
AcDbLine
 10
394.2009675289407
 20
24.25000320294964
 11
394.4393454558426
 21
23.9393430258026
  0
LINE
  5
217
100
AcDbEntity
  8
0
  6
ByLayer
 62
  256
370
   -1
100
AcDbLine
 10
394.0000056515038
 20
25.00000320747438
 11
394.0511169033289
 21
24.61177463866977
  0
LINE
  5
218
100
AcDbEntity
  8
0
  6
ByLayer
 62
  256
370
   -1
100
AcDbLine
 10
394.439345503605
 20
26.06066336936215
 11
394.2009675627135
 21
25.75000320294953
  0
LINE
  5
219
100
AcDbEntity
  8
0
  6
ByLayer
 62
  256
370
   -1
100
AcDbLine
 10
394.7500056807523
 20
26.29904129626448
 11
394.439345503605
 21
26.06066336936215
  0
LINE
  5
21A
100
AcDbEntity
  8
0
  6
ByLayer
 62
  256
370
   -1
100
AcDbLine
 10
395.1117771164726
 20
26.44889192187588
 11
394.7500056807523
 21
26.29904129626448
  0
LINE
  5
21B
100
AcDbEntity
  8
0
  6
ByLayer
 62
  256
370
   -1
100
AcDbLine
 10
396.2500056807523
 20
26.2990412624913
 11
395.8882342517796
 21
26.4488919043938
  0
LINE
  5
21C
100
AcDbEntity
  8
0
  6
ByLayer
 62
  256
370
   -1
100
AcDbLine
 10
396.5606658471647
 20
26.06066332159969
 11
396.2500056807523
 21
26.2990412624913
  0
LINE
  5
21D
100
AcDbEntity
  8
0
  6
ByLayer
 62
  256
370
   -1
100
AcDbLine
 10
396.7990437740668
 20
25.75000314445265
 11
396.5606658471647
 21
26.06066332159969
  0
LINE
  5
21E
100
AcDbEntity
  8
0
  6
ByLayer
 62
  256
370
   -1
100
AcDbLine
 10
345.0826599807251
 20
9.395119032511843
 11
345.2075355132116
 21
9.696595224329712
  0
LINE
  5
21F
100
AcDbEntity
  8
0
  6
ByLayer
 62
  256
370
   -1
100
AcDbLine
 10
344.8840116987379
 20
9.13623555889842
 11
345.0826599807251
 21
9.395119032511843
  0
LINE
  5
220
100
AcDbEntity
  8
0
  6
ByLayer
 62
  256
370
   -1
100
AcDbLine
 10
343.3751282193847
 20
8.937587302449629
 11
343.6766044112028
 21
8.812711769963357
  0
LINE
  5
221
100
AcDbEntity
  8
0
  6
ByLayer
 62
  256
370
   -1
100
AcDbLine
 10
342.7501282350238
 20
10.02011906620942
 11
342.7927209474886
 21
9.696595259215883
  0
LINE
  5
222
100
AcDbEntity
  8
0
  6
ByLayer
 62
  256
370
   -1
100
AcDbLine
 10
343.1162447713099
 20
10.90400253740347
 11
342.9175964893225
 21
10.64511906379016
  0
LINE
  5
223
100
AcDbEntity
  8
0
  6
ByLayer
 62
  256
370
   -1
100
AcDbLine
 10
343.6766044460891
 20
11.2275263356862
 11
343.375128250663
 21
11.10265081191085
  0
LINE
  5
224
100
AcDbEntity
  8
0
  6
ByLayer
 62
  256
370
   -1
100
AcDbLine
 10
344.3236520588454
 20
11.22752632633854
 11
344.0001282530825
 21
11.27011904815117
  0
LINE
  5
225
100
AcDbEntity
  8
0
  6
ByLayer
 62
  256
370
   -1
100
AcDbLine
 10
372.9187205001447
 20
10.6451186302919
 11
372.7938449676742
 21
10.34364243851212
  0
LINE
  5
226
100
AcDbEntity
  8
0
  6
ByLayer
 62
  256
370
   -1
100
AcDbLine
 10
373.1173687821068
 20
10.90400210387236
 11
372.9187205001447
 21
10.6451186302919
  0
LINE
  5
227
100
AcDbEntity
  8
0
  6
ByLayer
 62
  256
370
   -1
100
AcDbLine
 10
373.3762522614271
 20
11.10265037835449
 11
373.1173687821068
 21
10.90400210387236
  0
LINE
  5
228
100
AcDbEntity
  8
0
  6
ByLayer
 62
  256
370
   -1
100
AcDbLine
 10
373.6777284568149
 20
11.22752590211428
 11
373.3762522614271
 21
11.10265037835449
  0
LINE
  5
229
100
AcDbEntity
  8
0
  6
ByLayer
 62
  256
370
   -1
100
AcDbLine
 10
374.0012522637671
 20
11.27011861457368
 11
373.6777284568149
 21
11.22752590211428
  0
LINE
  5
22A
100
AcDbEntity
  8
0
  6
ByLayer
 62
  256
370
   -1
100
AcDbLine
 10
374.3247760694893
 20
11.22752589276649
 11
374.0012522637671
 21
11.27011861457368
  0
LINE
  5
22B
100
AcDbEntity
  8
0
  6
ByLayer
 62
  256
370
   -1
100
AcDbLine
 10
374.6262522612689
 20
11.10265036029613
 11
374.3247760694893
 21
11.22752589276649
  0
LINE
  5
22C
100
AcDbEntity
  8
0
  6
ByLayer
 62
  256
370
   -1
100
AcDbLine
 10
375.0837840093316
 20
10.64511859901381
 11
374.8851357348493
 21
10.90400207833397
  0
LINE
  5
22D
100
AcDbEntity
  8
0
  6
ByLayer
 62
  256
370
   -1
100
AcDbLine
 10
374.6262522299907
 20
8.937586851109472
 11
374.8851357093107
 21
9.136235125591838
  0
LINE
  5
22E
100
AcDbEntity
  8
0
  6
ByLayer
 62
  256
370
   -1
100
AcDbLine
 10
373.6777284219286
 20
8.812711336697475
 11
374.0012522276504
 21
8.770118614890407
  0
LINE
  5
22F
100
AcDbEntity
  8
0
  6
ByLayer
 62
  256
370
   -1
100
AcDbLine
 10
373.1173687565682
 20
9.136235151130109
 11
373.3762522301491
 21
8.937586869167831
  0
LINE
  5
230
100
AcDbEntity
  8
0
  6
ByLayer
 62
  256
370
   -1
100
AcDbLine
 10
372.7938449583268
 20
9.696594825837792
 11
372.918720482086
 21
9.395118630450156
  0
LINE
  5
231
100
AcDbEntity
  8
0
  6
ByLayer
 62
  256
370
   -1
100
AcDbLine
 10
372.7512522458669
 20
10.02011863279041
 11
372.7938449583268
 21
9.696594825837792
  0
LINE
  5
232
100
AcDbEntity
  8
0
  6
ByLayer
 62
  256
370
   -1
100
AcDbLine
 10
372.7938449676742
 20
10.34364243851212
 11
372.7512522458669
 21
10.02011863279041
  0
LINE
  5
233
100
AcDbEntity
  8
0
  6
ByLayer
 62
  256
370
   -1
100
AcDbLine
 10
357.1896165166215
 20
51.23839082731268
 11
357.4910927120475
 21
51.36326635108821
  0
LINE
  5
234
100
AcDbEntity
  8
0
  6
ByLayer
 62
  256
370
   -1
100
AcDbLine
 10
355.9822092639724
 20
53.32968160410053
 11
355.783560981985
 21
53.07079813048705
  0
LINE
  5
235
100
AcDbEntity
  8
0
  6
ByLayer
 62
  256
370
   -1
100
AcDbLine
 10
356.5425689387516
 20
53.65320540238332
 11
356.2410927433259
 21
53.52832987860797
  0
LINE
  5
236
100
AcDbEntity
  8
0
  6
ByLayer
 62
  256
370
   -1
100
AcDbLine
 10
356.8660927457448
 20
53.69579811484823
 11
356.5425689387516
 21
53.65320540238332
  0
LINE
  5
237
100
AcDbEntity
  8
0
  6
ByLayer
 62
  256
370
   -1
100
AcDbLine
 10
357.1896165515077
 20
53.65320539303542
 11
356.8660927457448
 21
53.69579811484823
  0
LINE
  5
238
100
AcDbEntity
  8
0
  6
ByLayer
 62
  256
370
   -1
100
AcDbLine
 10
357.7499761914003
 20
51.56191462559548
 11
357.9486244733877
 21
51.82079809920896
  0
LINE
  5
239
100
AcDbEntity
  8
0
  6
ByLayer
 62
  256
370
   -1
100
AcDbLine
 10
363.9751820760877
 20
377.8548227280019
 11
364.100057582444
 21
378.1562989306428
  0
LINE
  5
23A
100
AcDbEntity
  8
0
  6
ByLayer
 62
  256
370
   -1
100
AcDbLine
 10
363.7765338165379
 20
377.5959392371715
 11
363.9751820760877
 21
377.8548227280019
  0
LINE
  5
23B
100
AcDbEntity
  8
0
  6
ByLayer
 62
  256
370
   -1
100
AcDbLine
 10
363.5176503544018
 20
377.3972909402264
 11
363.7765338165379
 21
377.5959392371715
  0
LINE
  5
23C
100
AcDbEntity
  8
0
  6
ByLayer
 62
  256
370
   -1
100
AcDbLine
 10
362.8926503664967
 20
377.2298226498165
 11
363.2161741697989
 21
377.2724153903216
  0
LINE
  5
23D
100
AcDbEntity
  8
0
  6
ByLayer
 62
  256
370
   -1
100
AcDbLine
 10
361.8101184763456
 20
379.1048225716311
 11
361.6852429699884
 21
378.8033463689903
  0
LINE
  5
23E
100
AcDbEntity
  8
0
  6
ByLayer
 62
  256
370
   -1
100
AcDbLine
 10
362.8926501859356
 20
379.7298226498167
 11
362.5691263826335
 21
379.6872299093117
  0
LINE
  5
23F
100
AcDbEntity
  8
0
  6
ByLayer
 62
  256
370
   -1
100
AcDbLine
 10
363.2161739953898
 20
379.6872299560443
 11
362.8926501859356
 21
379.7298226498167
  0
LINE
  5
240
100
AcDbEntity
  8
0
  6
ByLayer
 62
  256
370
   -1
100
AcDbLine
 10
396.2764627406242
 20
27.89778066494404
 11
397.0000056100936
 21
27.59807940896252
  0
LINE
  5
241
100
AcDbEntity
  8
0
  6
ByLayer
 62
  256
370
   -1
100
AcDbLine
 10
394.723548470009
 20
27.89778064019254
 11
395.5000056036874
 21
28.00000317370103
  0
LINE
  5
242
100
AcDbEntity
  8
0
  6
ByLayer
 62
  256
370
   -1
100
AcDbLine
 10
395.5000056177306
 20
23.50000317370109
 11
395.5000056515036
 21
25.00000317370109
  0
LINE
  5
243
100
AcDbEntity
  8
0
  6
ByLayer
 62
  256
370
   -1
100
AcDbLine
 10
394.0000056515038
 20
25.00000320747438
 11
395.5000056515036
 21
25.00000317370109
  0
LINE
  5
244
100
AcDbEntity
  8
0
  6
ByLayer
 62
  256
370
   -1
100
AcDbLine
 10
394.0511169033289
 20
24.61177463866977
 11
394.2009675289407
 21
24.25000320294964
  0
LINE
  5
245
100
AcDbEntity
  8
0
  6
ByLayer
 62
  256
370
   -1
100
AcDbLine
 10
394.4393454558426
 20
23.9393430258026
 11
394.7500056222552
 21
23.7009650849111
  0
LINE
  5
246
100
AcDbEntity
  8
0
  6
ByLayer
 62
  256
370
   -1
100
AcDbLine
 10
394.7500056222552
 20
23.7009650849111
 11
395.1117770512277
 21
23.55111444300883
  0
LINE
  5
247
100
AcDbEntity
  8
0
  6
ByLayer
 62
  256
370
   -1
100
AcDbLine
 10
397.0000056515038
 20
25.00000313992791
 11
398.5000056515036
 21
25.0000032215172
  0
LINE
  5
248
100
AcDbEntity
  8
0
  6
ByLayer
 62
  256
370
   -1
100
AcDbLine
 10
392.5000056515036
 20
25.00000312588486
 11
394.0000056515038
 21
25.00000320747438
  0
LINE
  5
249
100
AcDbEntity
  8
0
  6
ByLayer
 62
  256
370
   -1
100
AcDbLine
 10
395.5000056852767
 20
26.50000317370109
 11
395.5000056036874
 21
28.00000317370103
  0
LINE
  5
24A
100
AcDbEntity
  8
0
  6
ByLayer
 62
  256
370
   -1
100
AcDbLine
 10
392.5000056515036
 20
25.00000312588486
 11
392.6022281602606
 21
25.77646026282184
  0
LINE
  5
24B
100
AcDbEntity
  8
0
  6
ByLayer
 62
  256
370
   -1
100
AcDbLine
 10
397.621325961252
 20
27.12132355107178
 11
398.0980818389488
 21
26.50000321511118
  0
LINE
  5
24C
100
AcDbEntity
  8
0
  6
ByLayer
 62
  256
370
   -1
100
AcDbLine
 10
394.0000056929135
 20
22.40192693843971
 11
393.3786853417549
 21
22.87868279633028
  0
LINE
  5
24D
100
AcDbEntity
  8
0
  6
ByLayer
 62
  256
370
   -1
100
AcDbLine
 10
392.9019294162421
 20
26.50000313229111
 11
393.3786852741326
 21
27.12132348344954
  0
LINE
  5
24E
100
AcDbEntity
  8
0
  6
ByLayer
 62
  256
370
   -1
100
AcDbLine
 10
394.0000056100936
 20
27.59807936114646
 11
394.723548470009
 21
27.89778064019254
  0
LINE
  5
24F
100
AcDbEntity
  8
0
  6
ByLayer
 62
  256
370
   -1
100
AcDbLine
 10
395.5000056036874
 20
28.00000317370103
 11
396.2764627406242
 21
27.89778066494404
  0
LINE
  5
250
100
AcDbEntity
  8
0
  6
ByLayer
 62
  256
370
   -1
100
AcDbLine
 10
395.8882341865354
 20
23.55111442552641
 11
396.2500056222552
 21
23.70096505113804
  0
LINE
  5
251
100
AcDbEntity
  8
0
  6
ByLayer
 62
  256
370
   -1
100
AcDbLine
 10
396.2500056222552
 20
23.70096505113804
 11
396.5606657994024
 21
23.93934297804014
  0
LINE
  5
252
100
AcDbEntity
  8
0
  6
ByLayer
 62
  256
370
   -1
100
AcDbLine
 10
396.7990437402939
 20
24.25000314445265
 11
396.9488943821959
 21
24.61177457342512
  0
LINE
  5
253
100
AcDbEntity
  8
0
  6
ByLayer
 62
  256
370
   -1
100
AcDbLine
 10
396.9488943821959
 20
24.61177457342512
 11
397.0000056515038
 21
25.00000313992791
  0
LINE
  5
254
100
AcDbEntity
  8
0
  6
ByLayer
 62
  256
370
   -1
100
AcDbLine
 10
395.5000056515036
 20
25.00000317370109
 11
397.0000056515038
 21
25.00000313992791
  0
LINE
  5
255
100
AcDbEntity
  8
0
  6
ByLayer
 62
  256
370
   -1
100
AcDbLine
 10
392.9019294640583
 20
23.50000313229111
 11
392.602228185012
 21
24.2235459922066
  0
LINE
  5
256
100
AcDbEntity
  8
0
  6
ByLayer
 62
  256
370
   -1
100
AcDbLine
 10
394.7235485623827
 20
22.10222568245808
 11
394.0000056929135
 21
22.40192693843971
  0
LINE
  5
257
100
AcDbEntity
  8
0
  6
ByLayer
 62
  256
370
   -1
100
AcDbLine
 10
398.0980818389488
 20
26.50000321511118
 11
398.3977831179949
 21
25.77646035519558
  0
LINE
  5
258
100
AcDbEntity
  8
0
  6
ByLayer
 62
  256
370
   -1
100
AcDbLine
 10
396.2764628329979
 20
22.10222570720953
 11
395.5000056993198
 21
22.00000317370097
  0
LINE
  5
259
100
AcDbEntity
  8
0
  6
ByLayer
 62
  256
370
   -1
100
AcDbLine
 10
395.5000056993198
 20
22.00000317370097
 11
394.7235485623827
 21
22.10222568245808
  0
LINE
  5
25A
100
AcDbEntity
  8
0
  6
ByLayer
 62
  256
370
   -1
100
AcDbLine
 10
397.0000056100936
 20
27.59807940896252
 11
397.621325961252
 21
27.12132355107178
  0
LINE
  5
25B
100
AcDbEntity
  8
0
  6
ByLayer
 62
  256
370
   -1
100
AcDbLine
 10
398.3977831427463
 20
24.22354608458022
 11
398.098081886765
 21
23.50000321511106
  0
LINE
  5
25C
100
AcDbEntity
  8
0
  6
ByLayer
 62
  256
370
   -1
100
AcDbLine
 10
392.6022281602606
 20
25.77646026282184
 11
392.9019294162421
 21
26.50000313229111
  0
LINE
  5
25D
100
AcDbEntity
  8
0
  6
ByLayer
 62
  256
370
   -1
100
AcDbLine
 10
398.3977831179949
 20
25.77646035519558
 11
398.5000056515036
 21
25.0000032215172
  0
LINE
  5
25E
100
AcDbEntity
  8
0
  6
ByLayer
 62
  256
370
   -1
100
AcDbLine
 10
398.5000056515036
 20
25.0000032215172
 11
398.3977831427463
 21
24.22354608458022
  0
LINE
  5
25F
100
AcDbEntity
  8
0
  6
ByLayer
 62
  256
370
   -1
100
AcDbLine
 10
392.602228185012
 20
24.2235459922066
 11
392.5000056515036
 21
25.00000312588486
  0
LINE
  5
260
100
AcDbEntity
  8
0
  6
ByLayer
 62
  256
370
   -1
100
AcDbLine
 10
393.3786852741326
 20
27.12132348344954
 11
394.0000056100936
 21
27.59807936114646
  0
LINE
  5
261
100
AcDbEntity
  8
0
  6
ByLayer
 62
  256
370
   -1
100
AcDbLine
 10
395.5000056515036
 20
25.00000317370109
 11
395.5000056852767
 21
26.50000317370109
  0
LINE
  5
262
100
AcDbEntity
  8
0
  6
ByLayer
 62
  256
370
   -1
100
AcDbLine
 10
395.5000056852767
 20
26.50000317370109
 11
395.1117771164726
 21
26.44889192187588
  0
LINE
  5
263
100
AcDbEntity
  8
0
  6
ByLayer
 62
  256
370
   -1
100
AcDbLine
 10
394.2009675627135
 20
25.75000320294953
 11
394.051116920811
 21
25.3882317739774
  0
LINE
  5
264
100
AcDbEntity
  8
0
  6
ByLayer
 62
  256
370
   -1
100
AcDbLine
 10
394.051116920811
 20
25.3882317739774
 11
394.0000056515038
 21
25.00000320747438
  0
LINE
  5
265
100
AcDbEntity
  8
0
  6
ByLayer
 62
  256
370
   -1
100
AcDbLine
 10
397.0000056929135
 20
22.40192698625583
 11
396.2764628329979
 21
22.10222570720953
  0
LINE
  5
266
100
AcDbEntity
  8
0
  6
ByLayer
 62
  256
370
   -1
100
AcDbLine
 10
398.098081886765
 20
23.50000321511106
 11
397.6213260288743
 21
22.87868286395258
  0
LINE
  5
267
100
AcDbEntity
  8
0
  6
ByLayer
 62
  256
370
   -1
100
AcDbLine
 10
397.6213260288743
 20
22.87868286395258
 11
397.0000056929135
 21
22.40192698625583
  0
LINE
  5
268
100
AcDbEntity
  8
0
  6
ByLayer
 62
  256
370
   -1
100
AcDbLine
 10
395.8882342517796
 20
26.4488919043938
 11
395.5000056852767
 21
26.50000317370109
  0
LINE
  5
269
100
AcDbEntity
  8
0
  6
ByLayer
 62
  256
370
   -1
100
AcDbLine
 10
397.0000056515038
 20
25.00000313992791
 11
396.9488943996785
 21
25.38823170873252
  0
LINE
  5
26A
100
AcDbEntity
  8
0
  6
ByLayer
 62
  256
370
   -1
100
AcDbLine
 10
396.9488943996785
 20
25.38823170873252
 11
396.7990437740668
 21
25.75000314445265
  0
LINE
  5
26B
100
AcDbEntity
  8
0
  6
ByLayer
 62
  256
370
   -1
100
AcDbLine
 10
393.3786853417549
 20
22.87868279633028
 11
392.9019294640583
 21
23.50000313229111
  0
LINE
  5
26C
100
AcDbEntity
  8
0
  6
ByLayer
 62
  256
370
   -1
100
AcDbLine
 10
395.5000056993198
 20
22.00000317370097
 11
395.5000056177306
 21
23.50000317370109
  0
LINE
  5
26D
100
AcDbEntity
  8
0
  6
ByLayer
 62
  256
370
   -1
100
AcDbLine
 10
395.5000043697729
 20
105.5000033148689
 11
395.5000043445191
 21
107.0000033148689
  0
LINE
  5
26E
100
AcDbEntity
  8
0
  6
ByLayer
 62
  256
370
   -1
100
AcDbLine
 10
394.0000043445195
 20
107.000003289615
 11
395.5000043445191
 21
107.0000033148689
  0
LINE
  5
26F
100
AcDbEntity
  8
0
  6
ByLayer
 62
  256
370
   -1
100
AcDbLine
 10
394.0000043445195
 20
107.000003289615
 11
394.0511156116221
 21
106.611774722822
  0
LINE
  5
270
100
AcDbEntity
  8
0
  6
ByLayer
 62
  256
370
   -1
100
AcDbLine
 10
394.0511156116221
 20
106.611774722822
 11
394.2009662514695
 21
106.2500032929983
  0
LINE
  5
271
100
AcDbEntity
  8
0
  6
ByLayer
 62
  256
370
   -1
100
AcDbLine
 10
394.2009662514695
 20
106.2500032929983
 11
394.4393441905968
 21
105.939343125232
  0
LINE
  5
272
100
AcDbEntity
  8
0
  6
ByLayer
 62
  256
370
   -1
100
AcDbLine
 10
394.4393441905968
 20
105.939343125232
 11
394.7500043663898
 21
105.7009651965654
  0
LINE
  5
273
100
AcDbEntity
  8
0
  6
ByLayer
 62
  256
370
   -1
100
AcDbLine
 10
394.7500043663898
 20
105.7009651965654
 11
395.1117758012587
 21
105.5511145688993
  0
LINE
  5
274
100
AcDbEntity
  8
0
  6
ByLayer
 62
  256
370
   -1
100
AcDbLine
 10
395.1117758012587
 20
105.5511145688993
 11
395.5000043697729
 21
105.5000033148689
  0
LINE
  5
275
100
AcDbEntity
  8
0
  6
ByLayer
 62
  256
370
   -1
100
AcDbLine
 10
394.000004303109
 20
109.5980795023142
 11
394.7235471630247
 21
109.8977807813601
  0
LINE
  5
276
100
AcDbEntity
  8
0
  6
ByLayer
 62
  256
370
   -1
100
AcDbLine
 10
397.0000043859293
 20
104.4019271274236
 11
396.2764615260136
 21
104.1022258483774
  0
LINE
  5
277
100
AcDbEntity
  8
0
  6
ByLayer
 62
  256
370
   -1
100
AcDbLine
 10
395.5000043445191
 20
107.0000033148689
 11
395.5000043192654
 21
108.5000033148687
  0
LINE
  5
278
100
AcDbEntity
  8
0
  6
ByLayer
 62
  256
370
   -1
100
AcDbLine
 10
395.5000043192654
 20
108.5000033148687
 11
395.1117757524721
 21
108.4488920477661
  0
LINE
  5
279
100
AcDbEntity
  8
0
  6
ByLayer
 62
  256
370
   -1
100
AcDbLine
 10
395.1117757524721
 20
108.4488920477661
 11
394.7500043226491
 21
108.2990414079186
  0
LINE
  5
27A
100
AcDbEntity
  8
0
  6
ByLayer
 62
  256
370
   -1
100
AcDbLine
 10
394.7500043226491
 20
108.2990414079186
 11
394.4393441548824
 21
108.0606634687915
  0
LINE
  5
27B
100
AcDbEntity
  8
0
  6
ByLayer
 62
  256
370
   -1
100
AcDbLine
 10
394.4393441548824
 20
108.0606634687915
 11
394.2009662262159
 21
107.7500032929983
  0
LINE
  5
27C
100
AcDbEntity
  8
0
  6
ByLayer
 62
  256
370
   -1
100
AcDbLine
 10
394.2009662262159
 20
107.7500032929983
 11
394.0511155985496
 21
107.3882318581294
  0
LINE
  5
27D
100
AcDbEntity
  8
0
  6
ByLayer
 62
  256
370
   -1
100
AcDbLine
 10
396.27646143364
 20
109.8977808061116
 11
397.0000043031092
 21
109.5980795501303
  0
LINE
  5
27E
100
AcDbEntity
  8
0
  6
ByLayer
 62
  256
370
   -1
100
AcDbLine
 10
392.5000043445191
 20
107.0000032670528
 11
392.6022268532762
 21
107.7764604039895
  0
LINE
  5
27F
100
AcDbEntity
  8
0
  6
ByLayer
 62
  256
370
   -1
100
AcDbLine
 10
395.5000042967029
 20
110.0000033148689
 11
396.27646143364
 21
109.8977808061116
  0
LINE
  5
280
100
AcDbEntity
  8
0
  6
ByLayer
 62
  256
370
   -1
100
AcDbLine
 10
395.5000043445191
 20
107.0000033148689
 11
397.0000043445189
 21
107.0000033401225
  0
LINE
  5
281
100
AcDbEntity
  8
0
  6
ByLayer
 62
  256
370
   -1
100
AcDbLine
 10
392.9019281570739
 20
105.5000032734589
 11
392.6022268780277
 21
106.2235461333743
  0
LINE
  5
282
100
AcDbEntity
  8
0
  6
ByLayer
 62
  256
370
   -1
100
AcDbLine
 10
396.799042437569
 20
107.7500033367391
 11
396.560664498442
 21
108.0606635045055
  0
LINE
  5
283
100
AcDbEntity
  8
0
  6
ByLayer
 62
  256
370
   -1
100
AcDbLine
 10
396.560664498442
 20
108.0606635045055
 11
396.2500043226487
 21
108.2990414331723
  0
LINE
  5
284
100
AcDbEntity
  8
0
  6
ByLayer
 62
  256
370
   -1
100
AcDbLine
 10
392.6022268532762
 20
107.7764604039895
 11
392.9019281092578
 21
108.5000032734589
  0
LINE
  5
285
100
AcDbEntity
  8
0
  6
ByLayer
 62
  256
370
   -1
100
AcDbLine
 10
398.3977818110105
 20
107.7764604963632
 11
398.5000043445193
 21
107.000003362685
  0
LINE
  5
286
100
AcDbEntity
  8
0
  6
ByLayer
 62
  256
370
   -1
100
AcDbLine
 10
398.5000043445193
 20
107.000003362685
 11
398.3977818357621
 21
106.2235462257481
  0
LINE
  5
287
100
AcDbEntity
  8
0
  6
ByLayer
 62
  256
370
   -1
100
AcDbLine
 10
392.6022268780277
 20
106.2235461333743
 11
392.5000043445191
 21
107.0000032670528
  0
LINE
  5
288
100
AcDbEntity
  8
0
  6
ByLayer
 62
  256
370
   -1
100
AcDbLine
 10
393.3786839671484
 20
109.1213236246173
 11
394.000004303109
 21
109.5980795023142
  0
LINE
  5
289
100
AcDbEntity
  8
0
  6
ByLayer
 62
  256
370
   -1
100
AcDbLine
 10
397.0000043445189
 20
107.0000033401225
 11
398.5000043445193
 21
107.000003362685
  0
LINE
  5
28A
100
AcDbEntity
  8
0
  6
ByLayer
 62
  256
370
   -1
100
AcDbLine
 10
396.2500043226487
 20
108.2990414331723
 11
395.8882328877794
 21
108.4488920608383
  0
LINE
  5
28B
100
AcDbEntity
  8
0
  6
ByLayer
 62
  256
370
   -1
100
AcDbLine
 10
394.7235472553983
 20
104.1022258236259
 11
394.0000043859291
 21
104.4019270796075
  0
LINE
  5
28C
100
AcDbEntity
  8
0
  6
ByLayer
 62
  256
370
   -1
100
AcDbLine
 10
398.0980805319643
 20
108.5000033562789
 11
398.3977818110105
 21
107.7764604963632
  0
LINE
  5
28D
100
AcDbEntity
  8
0
  6
ByLayer
 62
  256
370
   -1
100
AcDbLine
 10
398.0980805797805
 20
105.5000033562789
 11
397.6213247218899
 21
104.8786830051203
  0
LINE
  5
28E
100
AcDbEntity
  8
0
  6
ByLayer
 62
  256
370
   -1
100
AcDbLine
 10
397.6213247218899
 20
104.8786830051203
 11
397.0000043859293
 21
104.4019271274236
  0
LINE
  5
28F
100
AcDbEntity
  8
0
  6
ByLayer
 62
  256
370
   -1
100
AcDbLine
 10
395.8882328877794
 20
108.4488920608383
 11
395.5000043192654
 21
108.5000033148687
  0
LINE
  5
290
100
AcDbEntity
  8
0
  6
ByLayer
 62
  256
370
   -1
100
AcDbLine
 10
397.0000043445189
 20
107.0000033401225
 11
396.9488930774166
 21
107.3882319069158
  0
LINE
  5
291
100
AcDbEntity
  8
0
  6
ByLayer
 62
  256
370
   -1
100
AcDbLine
 10
396.9488930774166
 20
107.3882319069158
 11
396.799042437569
 21
107.7500033367391
  0
LINE
  5
292
100
AcDbEntity
  8
0
  6
ByLayer
 62
  256
370
   -1
100
AcDbLine
 10
395.5000043192654
 20
108.5000033148687
 11
395.5000042967029
 21
110.0000033148689
  0
LINE
  5
293
100
AcDbEntity
  8
0
  6
ByLayer
 62
  256
370
   -1
100
AcDbLine
 10
395.5000043697729
 20
105.5000033148689
 11
395.8882329365659
 21
105.5511145819716
  0
LINE
  5
294
100
AcDbEntity
  8
0
  6
ByLayer
 62
  256
370
   -1
100
AcDbLine
 10
395.8882329365659
 20
105.5511145819716
 11
396.2500043663898
 21
105.7009652218192
  0
LINE
  5
295
100
AcDbEntity
  8
0
  6
ByLayer
 62
  256
370
   -1
100
AcDbLine
 10
396.2500043663898
 20
105.7009652218192
 11
396.5606645341559
 21
105.939343160946
  0
LINE
  5
296
100
AcDbEntity
  8
0
  6
ByLayer
 62
  256
370
   -1
100
AcDbLine
 10
396.5606645341559
 20
105.939343160946
 11
396.7990424628226
 21
106.2500033367394
  0
LINE
  5
297
100
AcDbEntity
  8
0
  6
ByLayer
 62
  256
370
   -1
100
AcDbLine
 10
397.6213246542677
 20
109.1213236922396
 11
398.0980805319643
 21
108.5000033562789
  0
LINE
  5
298
100
AcDbEntity
  8
0
  6
ByLayer
 62
  256
370
   -1
100
AcDbLine
 10
392.5000043445191
 20
107.0000032670528
 11
394.0000043445195
 21
107.000003289615
  0
LINE
  5
299
100
AcDbEntity
  8
0
  6
ByLayer
 62
  256
370
   -1
100
AcDbLine
 10
393.3786840347706
 20
104.878682937498
 11
392.9019281570739
 21
105.5000032734589
  0
LINE
  5
29A
100
AcDbEntity
  8
0
  6
ByLayer
 62
  256
370
   -1
100
AcDbLine
 10
395.5000043923352
 20
104.0000033148687
 11
395.5000043697729
 21
105.5000033148689
  0
LINE
  5
29B
100
AcDbEntity
  8
0
  6
ByLayer
 62
  256
370
   -1
100
AcDbLine
 10
395.5000043923352
 20
104.0000033148687
 11
394.7235472553983
 21
104.1022258236259
  0
LINE
  5
29C
100
AcDbEntity
  8
0
  6
ByLayer
 62
  256
370
   -1
100
AcDbLine
 10
397.0000043031092
 20
109.5980795501303
 11
397.6213246542677
 21
109.1213236922396
  0
LINE
  5
29D
100
AcDbEntity
  8
0
  6
ByLayer
 62
  256
370
   -1
100
AcDbLine
 10
398.3977818357621
 20
106.2235462257481
 11
398.0980805797805
 21
105.5000033562789
  0
LINE
  5
29E
100
AcDbEntity
  8
0
  6
ByLayer
 62
  256
370
   -1
100
AcDbLine
 10
392.9019281092578
 20
108.5000032734589
 11
393.3786839671484
 21
109.1213236246173
  0
LINE
  5
29F
100
AcDbEntity
  8
0
  6
ByLayer
 62
  256
370
   -1
100
AcDbLine
 10
396.2764615260136
 20
104.1022258483774
 11
395.5000043923352
 21
104.0000033148687
  0
LINE
  5
2A0
100
AcDbEntity
  8
0
  6
ByLayer
 62
  256
370
   -1
100
AcDbLine
 10
394.7235471630247
 20
109.8977807813601
 11
395.5000042967029
 21
110.0000033148689
  0
LINE
  5
2A1
100
AcDbEntity
  8
0
  6
ByLayer
 62
  256
370
   -1
100
AcDbLine
 10
394.0000043859291
 20
104.4019270796075
 11
393.3786840347706
 21
104.878682937498
  0
LINE
  5
2A2
100
AcDbEntity
  8
0
  6
ByLayer
 62
  256
370
   -1
100
AcDbLine
 10
392.5000028997856
 20
193.0000032670541
 11
392.6022254085428
 21
193.7764604039911
  0
LINE
  5
2A3
100
AcDbEntity
  8
0
  6
ByLayer
 62
  256
370
   -1
100
AcDbLine
 10
392.9019267123406
 20
191.5000032734603
 11
392.6022254332943
 21
192.2235461333758
  0
LINE
  5
2A4
100
AcDbEntity
  8
0
  6
ByLayer
 62
  256
370
   -1
100
AcDbLine
 10
392.6022254332943
 20
192.2235461333758
 11
392.5000028997856
 21
193.0000032670541
  0
LINE
  5
2A5
100
AcDbEntity
  8
0
  6
ByLayer
 62
  256
370
   -1
100
AcDbLine
 10
395.8882314430462
 20
194.4488920608401
 11
395.5000028745317
 21
194.5000033148703
  0
LINE
  5
2A6
100
AcDbEntity
  8
0
  6
ByLayer
 62
  256
370
   -1
100
AcDbLine
 10
395.5000028997858
 20
193.0000033148703
 11
395.5000028745317
 21
194.5000033148703
  0
LINE
  5
2A7
100
AcDbEntity
  8
0
  6
ByLayer
 62
  256
370
   -1
100
AcDbLine
 10
395.5000028997858
 20
193.0000033148703
 11
397.0000028997858
 21
193.0000033401242
  0
LINE
  5
2A8
100
AcDbEntity
  8
0
  6
ByLayer
 62
  256
370
   -1
100
AcDbLine
 10
397.0000028997858
 20
193.0000033401242
 11
396.9488916326828
 21
193.3882319069174
  0
LINE
  5
2A9
100
AcDbEntity
  8
0
  6
ByLayer
 62
  256
370
   -1
100
AcDbLine
 10
396.9488916326828
 20
193.3882319069174
 11
396.7990409928353
 21
193.750003336741
  0
LINE
  5
2AA
100
AcDbEntity
  8
0
  6
ByLayer
 62
  256
370
   -1
100
AcDbLine
 10
396.7990409928353
 20
193.750003336741
 11
396.560663053708
 21
194.0606635045073
  0
LINE
  5
2AB
100
AcDbEntity
  8
0
  6
ByLayer
 62
  256
370
   -1
100
AcDbLine
 10
398.3977803910286
 20
192.2235462257495
 11
398.0980791350471
 21
191.5000033562803
  0
LINE
  5
2AC
100
AcDbEntity
  8
0
  6
ByLayer
 62
  256
370
   -1
100
AcDbLine
 10
395.5000028519697
 20
196.0000033148705
 11
396.2764599889065
 21
195.8977808061132
  0
LINE
  5
2AD
100
AcDbEntity
  8
0
  6
ByLayer
 62
  256
370
   -1
100
AcDbLine
 10
398.3977803662772
 20
193.7764604963648
 11
398.5000028997858
 21
193.0000033626864
  0
LINE
  5
2AE
100
AcDbEntity
  8
0
  6
ByLayer
 62
  256
370
   -1
100
AcDbLine
 10
393.3786825224149
 20
195.1213236246189
 11
394.0000028583756
 21
195.5980795023155
  0
LINE
  5
2AF
100
AcDbEntity
  8
0
  6
ByLayer
 62
  256
370
   -1
100
AcDbLine
 10
394.723545810665
 20
190.1022258236274
 11
394.0000029411956
 21
190.401927079609
  0
LINE
  5
2B0
100
AcDbEntity
  8
0
  6
ByLayer
 62
  256
370
   -1
100
AcDbLine
 10
396.9488916457552
 20
192.6117747716099
 11
397.0000028997858
 21
193.0000033401242
  0
LINE
  5
2B1
100
AcDbEntity
  8
0
  6
ByLayer
 62
  256
370
   -1
100
AcDbLine
 10
394.0511141668879
 20
192.611774722823
 11
394.2009648067359
 21
192.2500032929997
  0
LINE
  5
2B2
100
AcDbEntity
  8
0
  6
ByLayer
 62
  256
370
   -1
100
AcDbLine
 10
394.2009648067359
 20
192.2500032929997
 11
394.4393427458627
 21
191.9393431252333
  0
LINE
  5
2B3
100
AcDbEntity
  8
0
  6
ByLayer
 62
  256
370
   -1
100
AcDbLine
 10
392.6022254085428
 20
193.7764604039911
 11
392.9019266645244
 21
194.5000032734605
  0
LINE
  5
2B4
100
AcDbEntity
  8
0
  6
ByLayer
 62
  256
370
   -1
100
AcDbLine
 10
394.0511141538155
 20
193.3882318581306
 11
394.0000028997856
 21
193.0000032896163
  0
LINE
  5
2B5
100
AcDbEntity
  8
0
  6
ByLayer
 62
  256
370
   -1
100
AcDbLine
 10
394.4393427101485
 20
194.0606634687929
 11
394.2009647814822
 21
193.7500032929997
  0
LINE
  5
2B6
100
AcDbEntity
  8
0
  6
ByLayer
 62
  256
370
   -1
100
AcDbLine
 10
395.1117743565255
 20
191.5511145689004
 11
395.5000029250391
 21
191.5000033148703
  0
LINE
  5
2B7
100
AcDbEntity
  8
0
  6
ByLayer
 62
  256
370
   -1
100
AcDbLine
 10
394.2009647814822
 20
193.7500032929997
 11
394.0511141538155
 21
193.3882318581306
  0
LINE
  5
2B8
100
AcDbEntity
  8
0
  6
ByLayer
 62
  256
370
   -1
100
AcDbLine
 10
396.2764600812802
 20
190.1022258483789
 11
395.500002947602
 21
190.0000033148703
  0
LINE
  5
2B9
100
AcDbEntity
  8
0
  6
ByLayer
 62
  256
370
   -1
100
AcDbLine
 10
394.0000028997856
 20
193.0000032896163
 11
395.5000028997858
 21
193.0000033148703
  0
LINE
  5
2BA
100
AcDbEntity
  8
0
  6
ByLayer
 62
  256
370
   -1
100
AcDbLine
 10
394.7500028779147
 20
194.2990414079199
 11
394.4393427101485
 21
194.0606634687929
  0
LINE
  5
2BB
100
AcDbEntity
  8
0
  6
ByLayer
 62
  256
370
   -1
100
AcDbLine
 10
398.5000028997858
 20
193.0000033626864
 11
398.3977803910286
 21
192.2235462257495
  0
LINE
  5
2BC
100
AcDbEntity
  8
0
  6
ByLayer
 62
  256
370
   -1
100
AcDbLine
 10
394.7235457182912
 20
195.8977807813617
 11
395.5000028519697
 21
196.0000033148705
  0
LINE
  5
2BD
100
AcDbEntity
  8
0
  6
ByLayer
 62
  256
370
   -1
100
AcDbLine
 10
394.0000029411956
 20
190.401927079609
 11
393.3786825900372
 21
190.8786829374995
  0
LINE
  5
2BE
100
AcDbEntity
  8
0
  6
ByLayer
 62
  256
370
   -1
100
AcDbLine
 10
395.8882314918328
 20
191.5511145819729
 11
396.2500029216563
 21
191.7009652218207
  0
LINE
  5
2BF
100
AcDbEntity
  8
0
  6
ByLayer
 62
  256
370
   -1
100
AcDbLine
 10
392.9019266645244
 20
194.5000032734605
 11
393.3786825224149
 21
195.1213236246189
  0
LINE
  5
2C0
100
AcDbEntity
  8
0
  6
ByLayer
 62
  256
370
   -1
100
AcDbLine
 10
393.3786825900372
 20
190.8786829374995
 11
392.9019267123406
 21
191.5000032734603
  0
LINE
  5
2C1
100
AcDbEntity
  8
0
  6
ByLayer
 62
  256
370
   -1
100
AcDbLine
 10
397.0000028583759
 20
195.5980795501316
 11
397.6213232095342
 21
195.1213236922411
  0
LINE
  5
2C2
100
AcDbEntity
  8
0
  6
ByLayer
 62
  256
370
   -1
100
AcDbLine
 10
395.5000029250391
 20
191.5000033148703
 11
395.5000028997858
 21
193.0000033148703
  0
LINE
  5
2C3
100
AcDbEntity
  8
0
  6
ByLayer
 62
  256
370
   -1
100
AcDbLine
 10
396.5606630894223
 20
191.9393431609479
 11
396.799041018089
 21
192.2500033367407
  0
LINE
  5
2C4
100
AcDbEntity
  8
0
  6
ByLayer
 62
  256
370
   -1
100
AcDbLine
 10
398.0980790872309
 20
194.5000033562805
 11
398.3977803662772
 21
193.7764604963648
  0
LINE
  5
2C5
100
AcDbEntity
  8
0
  6
ByLayer
 62
  256
370
   -1
100
AcDbLine
 10
392.5000028997856
 20
193.0000032670541
 11
394.0000028997856
 21
193.0000032896163
  0
LINE
  5
2C6
100
AcDbEntity
  8
0
  6
ByLayer
 62
  256
370
   -1
100
AcDbLine
 10
394.0000028583756
 20
195.5980795023155
 11
394.7235457182912
 21
195.8977807813617
  0
LINE
  5
2C7
100
AcDbEntity
  8
0
  6
ByLayer
 62
  256
370
   -1
100
AcDbLine
 10
394.0000028997856
 20
193.0000032896163
 11
394.0511141668879
 21
192.611774722823
  0
LINE
  5
2C8
100
AcDbEntity
  8
0
  6
ByLayer
 62
  256
370
   -1
100
AcDbLine
 10
396.799041018089
 20
192.2500033367407
 11
396.9488916457552
 21
192.6117747716099
  0
LINE
  5
2C9
100
AcDbEntity
  8
0
  6
ByLayer
 62
  256
370
   -1
100
AcDbLine
 10
395.500002947602
 20
190.0000033148703
 11
394.723545810665
 21
190.1022258236274
  0
LINE
  5
2CA
100
AcDbEntity
  8
0
  6
ByLayer
 62
  256
370
   -1
100
AcDbLine
 10
394.4393427458627
 20
191.9393431252333
 11
394.7500029216561
 21
191.7009651965666
  0
LINE
  5
2CB
100
AcDbEntity
  8
0
  6
ByLayer
 62
  256
370
   -1
100
AcDbLine
 10
395.5000029250391
 20
191.5000033148703
 11
395.8882314918328
 21
191.5511145819729
  0
LINE
  5
2CC
100
AcDbEntity
  8
0
  6
ByLayer
 62
  256
370
   -1
100
AcDbLine
 10
397.6213232095342
 20
195.1213236922411
 11
398.0980790872309
 21
194.5000033562805
  0
LINE
  5
2CD
100
AcDbEntity
  8
0
  6
ByLayer
 62
  256
370
   -1
100
AcDbLine
 10
397.0000028997858
 20
193.0000033401242
 11
398.5000028997858
 21
193.0000033626864
  0
LINE
  5
2CE
100
AcDbEntity
  8
0
  6
ByLayer
 62
  256
370
   -1
100
AcDbLine
 10
396.2764599889065
 20
195.8977808061132
 11
397.0000028583759
 21
195.5980795501316
  0
LINE
  5
2CF
100
AcDbEntity
  8
0
  6
ByLayer
 62
  256
370
   -1
100
AcDbLine
 10
395.500002947602
 20
190.0000033148703
 11
395.5000029250391
 21
191.5000033148703
  0
LINE
  5
2D0
100
AcDbEntity
  8
0
  6
ByLayer
 62
  256
370
   -1
100
AcDbLine
 10
398.0980791350471
 20
191.5000033562803
 11
397.6213232771565
 21
190.8786830051218
  0
LINE
  5
2D1
100
AcDbEntity
  8
0
  6
ByLayer
 62
  256
370
   -1
100
AcDbLine
 10
397.6213232771565
 20
190.8786830051218
 11
397.0000029411958
 21
190.4019271274252
  0
LINE
  5
2D2
100
AcDbEntity
  8
0
  6
ByLayer
 62
  256
370
   -1
100
AcDbLine
 10
395.5000028745317
 20
194.5000033148703
 11
395.5000028519697
 21
196.0000033148705
  0
LINE
  5
2D3
100
AcDbEntity
  8
0
  6
ByLayer
 62
  256
370
   -1
100
AcDbLine
 10
397.0000029411958
 20
190.4019271274252
 11
396.2764600812802
 21
190.1022258483789
  0
LINE
  5
2D4
100
AcDbEntity
  8
0
  6
ByLayer
 62
  256
370
   -1
100
AcDbLine
 10
392.5000013810135
 20
279.0000031814218
 11
392.6022238897707
 21
279.7764603183588
  0
LINE
  5
2D5
100
AcDbEntity
  8
0
  6
ByLayer
 62
  256
370
   -1
100
AcDbLine
 10
395.5000013206363
 20
277.5000032292388
 11
395.5000013810135
 21
279.0000032292381
  0
LINE
  5
2D6
100
AcDbEntity
  8
0
  6
ByLayer
 62
  256
370
   -1
100
AcDbLine
 10
398.0980775684587
 20
280.5000032706481
 11
398.397778847505
 21
279.7764604107326
  0
LINE
  5
2D7
100
AcDbEntity
  8
0
  6
ByLayer
 62
  256
370
   -1
100
AcDbLine
 10
392.5000013810135
 20
279.0000031814218
 11
394.0000013810142
 21
279.0000032896152
  0
LINE
  5
2D8
100
AcDbEntity
  8
0
  6
ByLayer
 62
  256
370
   -1
100
AcDbLine
 10
395.5000013810135
 20
279.0000032292381
 11
397.0000013810128
 21
279.0000031688605
  0
LINE
  5
2D9
100
AcDbEntity
  8
0
  6
ByLayer
 62
  256
370
   -1
100
AcDbLine
 10
394.0000013810142
 20
279.0000032896152
 11
395.5000013810135
 21
279.0000032292381
  0
LINE
  5
2DA
100
AcDbEntity
  8
0
  6
ByLayer
 62
  256
370
   -1
100
AcDbLine
 10
395.5000013810135
 20
279.0000032292381
 11
395.5000014413907
 21
280.500003229237
  0
LINE
  5
2DB
100
AcDbEntity
  8
0
  6
ByLayer
 62
  256
370
   -1
100
AcDbLine
 10
395.5000014413907
 20
280.500003229237
 11
395.11177287168
 21
280.4488919842974
  0
LINE
  5
2DC
100
AcDbEntity
  8
0
  6
ByLayer
 62
  256
370
   -1
100
AcDbLine
 10
395.11177287168
 20
280.4488919842974
 11
394.7500014333023
 21
280.2990413651023
  0
LINE
  5
2DD
100
AcDbEntity
  8
0
  6
ByLayer
 62
  256
370
   -1
100
AcDbLine
 10
394.7500014333023
 20
280.2990413651023
 11
394.4393412519273
 21
280.0606634437101
  0
LINE
  5
2DE
100
AcDbEntity
  8
0
  6
ByLayer
 62
  256
370
   -1
100
AcDbLine
 10
394.4393412519273
 20
280.0606634437101
 11
394.2009633055256
 21
279.7500032815258
  0
LINE
  5
2DF
100
AcDbEntity
  8
0
  6
ByLayer
 62
  256
370
   -1
100
AcDbLine
 10
394.2009633055256
 20
279.7500032815258
 11
394.0511126572073
 21
279.3882318552114
  0
LINE
  5
2E0
100
AcDbEntity
  8
0
  6
ByLayer
 62
  256
370
   -1
100
AcDbLine
 10
394.0511126572073
 20
279.3882318552114
 11
394.0000013810142
 21
279.0000032896152
  0
LINE
  5
2E1
100
AcDbEntity
  8
0
  6
ByLayer
 62
  256
370
   -1
100
AcDbLine
 10
392.9019251935681
 20
277.500003187828
 11
392.6022239145221
 21
278.2235460477435
  0
LINE
  5
2E2
100
AcDbEntity
  8
0
  6
ByLayer
 62
  256
370
   -1
100
AcDbLine
 10
395.8882300069871
 20
280.4488919530439
 11
395.5000014413907
 21
280.500003229237
  0
LINE
  5
2E3
100
AcDbEntity
  8
0
  6
ByLayer
 62
  256
370
   -1
100
AcDbLine
 10
395.5000013331972
 20
282.0000032292381
 11
396.2764584701343
 21
281.8977807204809
  0
LINE
  5
2E4
100
AcDbEntity
  8
0
  6
ByLayer
 62
  256
370
   -1
100
AcDbLine
 10
393.3786810036428
 20
281.1213235389865
 11
394.0000013396034
 21
281.5980794166834
  0
LINE
  5
2E5
100
AcDbEntity
  8
0
  6
ByLayer
 62
  256
370
   -1
100
AcDbLine
 10
394.0511126259541
 20
278.6117747199042
 11
394.2009632451487
 21
278.2500032815265
  0
LINE
  5
2E6
100
AcDbEntity
  8
0
  6
ByLayer
 62
  256
370
   -1
100
AcDbLine
 10
396.9488901048196
 20
278.6117746032645
 11
397.0000013810128
 21
279.0000031688605
  0
LINE
  5
2E7
100
AcDbEntity
  8
0
  6
ByLayer
 62
  256
370
   -1
100
AcDbLine
 10
392.6022238897707
 20
279.7764603183588
 11
392.901925145752
 21
280.500003187828
  0
LINE
  5
2E8
100
AcDbEntity
  8
0
  6
ByLayer
 62
  256
370
   -1
100
AcDbLine
 10
396.2500014333011
 20
280.2990413047251
 11
395.8882300069871
 21
280.4488919530439
  0
LINE
  5
2E9
100
AcDbEntity
  8
0
  6
ByLayer
 62
  256
370
   -1
100
AcDbLine
 10
394.7235442918928
 20
276.1022257379952
 11
394.0000014224235
 21
276.4019269939766
  0
LINE
  5
2EA
100
AcDbEntity
  8
0
  6
ByLayer
 62
  256
370
   -1
100
AcDbLine
 10
394.0000013396034
 20
281.5980794166834
 11
394.7235441995191
 21
281.8977806957295
  0
LINE
  5
2EB
100
AcDbEntity
  8
0
  6
ByLayer
 62
  256
370
   -1
100
AcDbLine
 10
394.0000013810142
 20
279.0000032896152
 11
394.0511126259541
 21
278.6117747199042
  0
LINE
  5
2EC
100
AcDbEntity
  8
0
  6
ByLayer
 62
  256
370
   -1
100
AcDbLine
 10
396.7990394565011
 20
278.2500031769501
 11
396.9488901048196
 21
278.6117746032645
  0
LINE
  5
2ED
100
AcDbEntity
  8
0
  6
ByLayer
 62
  256
370
   -1
100
AcDbLine
 10
395.5000014288296
 20
276.0000032292379
 11
394.7235442918928
 21
276.1022257379952
  0
LINE
  5
2EE
100
AcDbEntity
  8
0
  6
ByLayer
 62
  256
370
   -1
100
AcDbLine
 10
394.7500013287256
 20
277.7009651537505
 11
395.1117727550399
 21
277.5511145054317
  0
LINE
  5
2EF
100
AcDbEntity
  8
0
  6
ByLayer
 62
  256
370
   -1
100
AcDbLine
 10
395.1117727550399
 20
277.5511145054317
 11
395.5000013206363
 21
277.5000032292388
  0
LINE
  5
2F0
100
AcDbEntity
  8
0
  6
ByLayer
 62
  256
370
   -1
100
AcDbLine
 10
394.0000014224235
 20
276.4019269939766
 11
393.3786810712651
 21
276.8786828518672
  0
LINE
  5
2F1
100
AcDbEntity
  8
0
  6
ByLayer
 62
  256
370
   -1
100
AcDbLine
 10
395.8882298903469
 20
277.5511144741781
 11
396.2500013287245
 21
277.7009650933736
  0
LINE
  5
2F2
100
AcDbEntity
  8
0
  6
ByLayer
 62
  256
370
   -1
100
AcDbLine
 10
392.901925145752
 20
280.500003187828
 11
393.3786810036428
 21
281.1213235389865
  0
LINE
  5
2F3
100
AcDbEntity
  8
0
  6
ByLayer
 62
  256
370
   -1
100
AcDbLine
 10
393.3786810712651
 20
276.8786828518672
 11
392.9019251935681
 21
277.500003187828
  0
LINE
  5
2F4
100
AcDbEntity
  8
0
  6
ByLayer
 62
  256
370
   -1
100
AcDbLine
 10
396.7990395168779
 20
279.7500031769493
 11
396.560661595486
 21
280.0606633583238
  0
LINE
  5
2F5
100
AcDbEntity
  8
0
  6
ByLayer
 62
  256
370
   -1
100
AcDbLine
 10
398.3977788722565
 20
278.2235461401173
 11
398.0980776162748
 21
277.5000032706481
  0
LINE
  5
2F6
100
AcDbEntity
  8
0
  6
ByLayer
 62
  256
370
   -1
100
AcDbLine
 10
396.2500013287245
 20
277.7009650933736
 11
396.5606615100996
 21
277.9393430147655
  0
LINE
  5
2F7
100
AcDbEntity
  8
0
  6
ByLayer
 62
  256
370
   -1
100
AcDbLine
 10
395.5000013206363
 20
277.5000032292388
 11
395.8882298903469
 21
277.5511144741781
  0
LINE
  5
2F8
100
AcDbEntity
  8
0
  6
ByLayer
 62
  256
370
   -1
100
AcDbLine
 10
397.6213217583844
 20
276.8786829194895
 11
397.0000014224235
 21
276.4019270417928
  0
LINE
  5
2F9
100
AcDbEntity
  8
0
  6
ByLayer
 62
  256
370
   -1
100
AcDbLine
 10
395.5000014413907
 20
280.500003229237
 11
395.5000013331972
 21
282.0000032292381
  0
LINE
  5
2FA
100
AcDbEntity
  8
0
  6
ByLayer
 62
  256
370
   -1
100
AcDbLine
 10
397.0000014224235
 20
276.4019270417928
 11
396.2764585625081
 21
276.1022257627466
  0
LINE
  5
2FB
100
AcDbEntity
  8
0
  6
ByLayer
 62
  256
370
   -1
100
AcDbLine
 10
398.397778847505
 20
279.7764604107326
 11
398.5000013810137
 21
279.0000032770542
  0
LINE
  5
2FC
100
AcDbEntity
  8
0
  6
ByLayer
 62
  256
370
   -1
100
AcDbLine
 10
394.7235441995191
 20
281.8977806957295
 11
395.5000013331972
 21
282.0000032292381
  0
LINE
  5
2FD
100
AcDbEntity
  8
0
  6
ByLayer
 62
  256
370
   -1
100
AcDbLine
 10
392.6022239145221
 20
278.2235460477435
 11
392.5000013810135
 21
279.0000031814218
  0
LINE
  5
2FE
100
AcDbEntity
  8
0
  6
ByLayer
 62
  256
370
   -1
100
AcDbLine
 10
397.6213216907621
 20
281.1213236066088
 11
398.0980775684587
 21
280.5000032706481
  0
LINE
  5
2FF
100
AcDbEntity
  8
0
  6
ByLayer
 62
  256
370
   -1
100
AcDbLine
 10
397.0000013810128
 20
279.0000031688605
 11
398.5000013810137
 21
279.0000032770542
  0
LINE
  5
300
100
AcDbEntity
  8
0
  6
ByLayer
 62
  256
370
   -1
100
AcDbLine
 10
396.2764584701343
 20
281.8977807204809
 11
397.0000013396034
 21
281.5980794644995
  0
LINE
  5
301
100
AcDbEntity
  8
0
  6
ByLayer
 62
  256
370
   -1
100
AcDbLine
 10
395.5000014288296
 20
276.0000032292379
 11
395.5000013206363
 21
277.5000032292388
  0
LINE
  5
302
100
AcDbEntity
  8
0
  6
ByLayer
 62
  256
370
   -1
100
AcDbLine
 10
398.0980776162748
 20
277.5000032706481
 11
397.6213217583844
 21
276.8786829194895
  0
LINE
  5
303
100
AcDbEntity
  8
0
  6
ByLayer
 62
  256
370
   -1
100
AcDbLine
 10
398.5000013810137
 20
279.0000032770542
 11
398.3977788722565
 21
278.2235461401173
  0
LINE
  5
304
100
AcDbEntity
  8
0
  6
ByLayer
 62
  256
370
   -1
100
AcDbLine
 10
396.2764585625081
 20
276.1022257627466
 11
395.5000014288296
 21
276.0000032292379
  0
LINE
  5
305
100
AcDbEntity
  8
0
  6
ByLayer
 62
  256
370
   -1
100
AcDbLine
 10
397.0000013396034
 20
281.5980794644995
 11
397.6213216907621
 21
281.1213236066088
  0
LINE
  5
306
100
AcDbEntity
  8
0
  6
ByLayer
 62
  256
370
   -1
100
AcDbLine
 10
398.3977774695478
 20
366.2304490482788
 11
398.0980762135662
 21
365.5069061788096
  0
LINE
  5
307
100
AcDbEntity
  8
0
  6
ByLayer
 62
  256
370
   -1
100
AcDbLine
 10
395.5000000261209
 20
364.0069061373996
 11
395.5000000035589
 21
365.5069061373994
  0
LINE
  5
308
100
AcDbEntity
  8
0
  6
ByLayer
 62
  256
370
   -1
100
AcDbLine
 10
398.499999978305
 20
367.0069061852157
 11
398.3977774695478
 21
366.2304490482788
  0
LINE
  5
309
100
AcDbEntity
  8
0
  6
ByLayer
 62
  256
370
   -1
100
AcDbLine
 10
393.3786796685563
 20
364.885585760029
 11
392.9019237908597
 21
365.5069060959895
  0
LINE
  5
30A
100
AcDbEntity
  8
0
  6
ByLayer
 62
  256
370
   -1
100
AcDbLine
 10
396.2764571597993
 20
364.109128670908
 11
395.5000000261209
 21
364.0069061373996
  0
LINE
  5
30B
100
AcDbEntity
  8
0
  6
ByLayer
 62
  256
370
   -1
100
AcDbLine
 10
397.000000019715
 20
364.4088299499543
 11
396.2764571597993
 21
364.109128670908
  0
LINE
  5
30C
100
AcDbEntity
  8
0
  6
ByLayer
 62
  256
370
   -1
100
AcDbLine
 10
395.4999999530515
 20
368.5069061373994
 11
395.4999999304886
 21
370.0069061373996
  0
LINE
  5
30D
100
AcDbEntity
  8
0
  6
ByLayer
 62
  256
370
   -1
100
AcDbLine
 10
392.6022224870619
 20
367.7833632265202
 11
392.9019237430435
 21
368.5069060959895
  0
LINE
  5
30E
100
AcDbEntity
  8
0
  6
ByLayer
 62
  256
370
   -1
100
AcDbLine
 10
395.4999999304886
 20
370.0069061373996
 11
396.2764570674257
 21
369.9046836286426
  0
LINE
  5
30F
100
AcDbEntity
  8
0
  6
ByLayer
 62
  256
370
   -1
100
AcDbLine
 10
398.0980761657501
 20
368.5069061788096
 11
398.3977774447962
 21
367.7833633188939
  0
LINE
  5
310
100
AcDbEntity
  8
0
  6
ByLayer
 62
  256
370
   -1
100
AcDbLine
 10
393.9999999783048
 20
367.0069061121457
 11
395.4999999783048
 21
367.0069061373996
  0
LINE
  5
311
100
AcDbEntity
  8
0
  6
ByLayer
 62
  256
370
   -1
100
AcDbLine
 10
395.4999999783048
 20
367.0069061373996
 11
395.4999999530515
 21
368.5069061373994
  0
LINE
  5
312
100
AcDbEntity
  8
0
  6
ByLayer
 62
  256
370
   -1
100
AcDbLine
 10
395.4999999530515
 20
368.5069061373994
 11
395.1117713862578
 21
368.4557948702968
  0
LINE
  5
313
100
AcDbEntity
  8
0
  6
ByLayer
 62
  256
370
   -1
100
AcDbLine
 10
395.1117713862578
 20
368.4557948702968
 11
394.7499999564349
 21
368.3059442304491
  0
LINE
  5
314
100
AcDbEntity
  8
0
  6
ByLayer
 62
  256
370
   -1
100
AcDbLine
 10
394.7499999564349
 20
368.3059442304491
 11
394.4393397886683
 21
368.0675662913222
  0
LINE
  5
315
100
AcDbEntity
  8
0
  6
ByLayer
 62
  256
370
   -1
100
AcDbLine
 10
394.2009618600011
 20
367.7569061155291
 11
394.0511112323353
 21
367.39513468066
  0
LINE
  5
316
100
AcDbEntity
  8
0
  6
ByLayer
 62
  256
370
   -1
100
AcDbLine
 10
394.0511112323353
 20
367.39513468066
 11
393.9999999783048
 21
367.0069061121457
  0
LINE
  5
317
100
AcDbEntity
  8
0
  6
ByLayer
 62
  256
370
   -1
100
AcDbLine
 10
394.4393398243825
 20
365.9462459477625
 11
394.7500000001753
 21
365.7078680190957
  0
LINE
  5
318
100
AcDbEntity
  8
0
  6
ByLayer
 62
  256
370
   -1
100
AcDbLine
 10
395.888228570352
 20
365.5580174045019
 11
396.2500000001753
 21
365.7078680443493
  0
LINE
  5
319
100
AcDbEntity
  8
0
  6
ByLayer
 62
  256
370
   -1
100
AcDbLine
 10
397.6213202880534
 20
369.1282265147703
 11
398.0980761657501
 21
368.5069061788096
  0
LINE
  5
31A
100
AcDbEntity
  8
0
  6
ByLayer
 62
  256
370
   -1
100
AcDbLine
 10
395.8882285215656
 20
368.4557948833689
 11
395.4999999530515
 21
368.5069061373994
  0
LINE
  5
31B
100
AcDbEntity
  8
0
  6
ByLayer
 62
  256
370
   -1
100
AcDbLine
 10
395.5000000035589
 20
365.5069061373994
 11
395.4999999783048
 21
367.0069061373996
  0
LINE
  5
31C
100
AcDbEntity
  8
0
  6
ByLayer
 62
  256
370
   -1
100
AcDbLine
 10
393.9999999783048
 20
367.0069061121457
 11
394.0511112454078
 21
366.6186775453523
  0
LINE
  5
31D
100
AcDbEntity
  8
0
  6
ByLayer
 62
  256
370
   -1
100
AcDbLine
 10
394.0511112454078
 20
366.6186775453523
 11
394.2009618852552
 21
366.2569061155291
  0
LINE
  5
31E
100
AcDbEntity
  8
0
  6
ByLayer
 62
  256
370
   -1
100
AcDbLine
 10
394.2009618852552
 20
366.2569061155291
 11
394.4393398243825
 21
365.9462459477625
  0
LINE
  5
31F
100
AcDbEntity
  8
0
  6
ByLayer
 62
  256
370
   -1
100
AcDbLine
 10
394.7500000001753
 20
365.7078680190957
 11
395.1117714350443
 21
365.5580173914295
  0
LINE
  5
320
100
AcDbEntity
  8
0
  6
ByLayer
 62
  256
370
   -1
100
AcDbLine
 10
395.1117714350443
 20
365.5580173914295
 11
395.5000000035589
 21
365.5069061373994
  0
LINE
  5
321
100
AcDbEntity
  8
0
  6
ByLayer
 62
  256
370
   -1
100
AcDbLine
 10
398.3977774447962
 20
367.7833633188939
 11
398.499999978305
 21
367.0069061852157
  0
LINE
  5
322
100
AcDbEntity
  8
0
  6
ByLayer
 62
  256
370
   -1
100
AcDbLine
 10
395.5000000035589
 20
365.5069061373994
 11
395.888228570352
 21
365.5580174045019
  0
LINE
  5
323
100
AcDbEntity
  8
0
  6
ByLayer
 62
  256
370
   -1
100
AcDbLine
 10
394.0000000197148
 20
364.4088299021381
 11
393.3786796685563
 21
364.885585760029
  0
LINE
  5
324
100
AcDbEntity
  8
0
  6
ByLayer
 62
  256
370
   -1
100
AcDbLine
 10
395.5000000261209
 20
364.0069061373996
 11
394.723542889184
 21
364.1091286461565
  0
LINE
  5
325
100
AcDbEntity
  8
0
  6
ByLayer
 62
  256
370
   -1
100
AcDbLine
 10
398.0980762135662
 20
365.5069061788096
 11
397.6213203556756
 21
364.8855858276513
  0
LINE
  5
326
100
AcDbEntity
  8
0
  6
ByLayer
 62
  256
370
   -1
100
AcDbLine
 10
394.7235427968104
 20
369.904683603891
 11
395.4999999304886
 21
370.0069061373996
  0
LINE
  5
327
100
AcDbEntity
  8
0
  6
ByLayer
 62
  256
370
   -1
100
AcDbLine
 10
395.4999999783048
 20
367.0069061373996
 11
396.999999978305
 21
367.006906162653
  0
LINE
  5
328
100
AcDbEntity
  8
0
  6
ByLayer
 62
  256
370
   -1
100
AcDbLine
 10
396.999999978305
 20
367.006906162653
 11
396.9488887112026
 21
367.3951347294462
  0
LINE
  5
329
100
AcDbEntity
  8
0
  6
ByLayer
 62
  256
370
   -1
100
AcDbLine
 10
396.9488887112026
 20
367.3951347294462
 11
396.7990380713547
 21
367.7569061592696
  0
LINE
  5
32A
100
AcDbEntity
  8
0
  6
ByLayer
 62
  256
370
   -1
100
AcDbLine
 10
396.5606601322279
 20
368.0675663270363
 11
396.2499999564349
 21
368.3059442557027
  0
LINE
  5
32B
100
AcDbEntity
  8
0
  6
ByLayer
 62
  256
370
   -1
100
AcDbLine
 10
392.4999999783048
 20
367.0069060895834
 11
393.9999999783048
 21
367.0069061121457
  0
LINE
  5
32C
100
AcDbEntity
  8
0
  6
ByLayer
 62
  256
370
   -1
100
AcDbLine
 10
396.999999978305
 20
367.006906162653
 11
398.499999978305
 21
367.0069061852157
  0
LINE
  5
32D
100
AcDbEntity
  8
0
  6
ByLayer
 62
  256
370
   -1
100
AcDbLine
 10
396.9488887242751
 20
366.6186775941387
 11
396.999999978305
 21
367.006906162653
  0
LINE
  5
32E
100
AcDbEntity
  8
0
  6
ByLayer
 62
  256
370
   -1
100
AcDbLine
 10
392.9019237908597
 20
365.5069060959895
 11
392.6022225118135
 21
366.2304489559052
  0
LINE
  5
32F
100
AcDbEntity
  8
0
  6
ByLayer
 62
  256
370
   -1
100
AcDbLine
 10
392.9019237430435
 20
368.5069060959895
 11
393.3786796009341
 21
369.1282264471481
  0
LINE
  5
330
100
AcDbEntity
  8
0
  6
ByLayer
 62
  256
370
   -1
100
AcDbLine
 10
396.2764570674257
 20
369.9046836286426
 11
396.9999999368949
 21
369.604982372661
  0
LINE
  5
331
100
AcDbEntity
  8
0
  6
ByLayer
 62
  256
370
   -1
100
AcDbLine
 10
396.560660167942
 20
365.9462459834767
 11
396.7990380966088
 21
366.2569061592696
  0
LINE
  5
332
100
AcDbEntity
  8
0
  6
ByLayer
 62
  256
370
   -1
100
AcDbLine
 10
393.3786796009341
 20
369.1282264471481
 11
393.9999999368947
 21
369.6049823248449
  0
LINE
  5
333
100
AcDbEntity
  8
0
  6
ByLayer
 62
  256
370
   -1
100
AcDbLine
 10
397.6213203556756
 20
364.8855858276513
 11
397.000000019715
 21
364.4088299499543
  0
LINE
  5
334
100
AcDbEntity
  8
0
  6
ByLayer
 62
  256
370
   -1
100
AcDbLine
 10
396.7990380966088
 20
366.2569061592696
 11
396.9488887242751
 21
366.6186775941387
  0
LINE
  5
335
100
AcDbEntity
  8
0
  6
ByLayer
 62
  256
370
   -1
100
AcDbLine
 10
393.9999999368947
 20
369.6049823248449
 11
394.7235427968104
 21
369.904683603891
  0
LINE
  5
336
100
AcDbEntity
  8
0
  6
ByLayer
 62
  256
370
   -1
100
AcDbLine
 10
396.9999999368949
 20
369.604982372661
 11
397.6213202880534
 21
369.1282265147703
  0
LINE
  5
337
100
AcDbEntity
  8
0
  6
ByLayer
 62
  256
370
   -1
100
AcDbLine
 10
392.6022225118135
 20
366.2304489559052
 11
392.4999999783048
 21
367.0069060895834
  0
LINE
  5
338
100
AcDbEntity
  8
0
  6
ByLayer
 62
  256
370
   -1
100
AcDbLine
 10
392.4999999783048
 20
367.0069060895834
 11
392.6022224870619
 21
367.7833632265202
  0
LINE
  5
339
100
AcDbEntity
  8
0
  6
ByLayer
 62
  256
370
   -1
100
AcDbLine
 10
394.723542889184
 20
364.1091286461565
 11
394.0000000197148
 21
364.4088299021381
  0
LINE
  5
33A
100
AcDbEntity
  8
0
  6
ByLayer
 62
  256
370
   -1
100
AcDbLine
 10
373.1173687565682
 20
9.136235151130109
 11
372.918720482086
 21
9.395118630450156
  0
LINE
  5
33B
100
AcDbEntity
  8
0
  6
ByLayer
 62
  256
370
   -1
100
AcDbLine
 10
374.0012522457087
 20
10.02011861473203
 11
373.1173687565682
 21
9.136235151130109
  0
LINE
  5
33C
100
AcDbEntity
  8
0
  6
ByLayer
 62
  256
370
   -1
100
AcDbLine
 10
374.0012522457087
 20
10.02011861473203
 11
373.1173687821068
 21
10.90400210387236
  0
LINE
  5
33D
100
AcDbEntity
  8
0
  6
ByLayer
 62
  256
370
   -1
100
AcDbLine
 10
374.8851357093107
 20
9.136235125591838
 11
374.0012522457087
 21
10.02011861473203
  0
LINE
  5
33E
100
AcDbEntity
  8
0
  6
ByLayer
 62
  256
370
   -1
100
AcDbLine
 10
373.6777284219286
 20
8.812711336697475
 11
373.3762522301491
 21
8.937586869167831
  0
LINE
  5
33F
100
AcDbEntity
  8
0
  6
ByLayer
 62
  256
370
   -1
100
AcDbLine
 10
374.3247760346028
 20
8.812711327349803
 11
374.0012522276504
 21
8.770118614890407
  0
LINE
  5
340
100
AcDbEntity
  8
0
  6
ByLayer
 62
  256
370
   -1
100
AcDbLine
 10
374.6262522299907
 20
8.937586851109472
 11
374.3247760346028
 21
8.812711327349803
  0
LINE
  5
341
100
AcDbEntity
  8
0
  6
ByLayer
 62
  256
370
   -1
100
AcDbLine
 10
373.1173687565682
 20
9.136235151130109
 11
371.87993193596
 21
7.898798237361689
  0
LINE
  5
342
100
AcDbEntity
  8
0
  6
ByLayer
 62
  256
370
   -1
100
AcDbLine
 10
373.1173687821068
 20
10.90400210387236
 11
371.8799318683382
 21
12.14143892448101
  0
LINE
  5
343
100
AcDbEntity
  8
0
  6
ByLayer
 62
  256
370
   -1
100
AcDbLine
 10
374.8851357348493
 20
10.90400207833397
 11
374.0012522457087
 21
10.02011861473203
  0
LINE
  5
344
100
AcDbEntity
  8
0
  6
ByLayer
 62
  256
370
   -1
100
AcDbLine
 10
374.6262522612689
 20
11.10265036029613
 11
374.8851357348493
 21
10.90400207833397
  0
LINE
  5
345
100
AcDbEntity
  8
0
  6
ByLayer
 62
  256
370
   -1
100
AcDbLine
 10
376.1225726230796
 20
7.898798304983757
 11
374.8851357093107
 21
9.136235125591838
  0
LINE
  5
346
100
AcDbEntity
  8
0
  6
ByLayer
 62
  256
370
   -1
100
AcDbLine
 10
375.0837840093316
 20
10.64511859901381
 11
375.2086595330909
 21
10.34364240362607
  0
LINE
  5
347
100
AcDbEntity
  8
0
  6
ByLayer
 62
  256
370
   -1
100
AcDbLine
 10
375.2086595330909
 20
10.34364240362607
 11
375.2512522455502
 21
10.02011859667368
  0
LINE
  5
348
100
AcDbEntity
  8
0
  6
ByLayer
 62
  256
370
   -1
100
AcDbLine
 10
375.2512522455502
 20
10.02011859667368
 11
375.2086595237434
 21
9.696594790951849
  0
LINE
  5
349
100
AcDbEntity
  8
0
  6
ByLayer
 62
  256
370
   -1
100
AcDbLine
 10
375.2086595237434
 20
9.696594790951849
 11
375.0837839912726
 21
9.395118599172179
  0
LINE
  5
34A
100
AcDbEntity
  8
0
  6
ByLayer
 62
  256
370
   -1
100
AcDbLine
 10
375.0837839912726
 20
9.395118599172179
 11
374.8851357093107
 21
9.136235125591838
  0
LINE
  5
34B
100
AcDbEntity
  8
0
  6
ByLayer
 62
  256
370
   -1
100
AcDbLine
 10
376.1225725554577
 20
12.1414389921033
 11
374.8851357348493
 21
10.90400207833397
  0
LINE
  5
34C
100
AcDbEntity
  8
0
  6
ByLayer
 62
  256
370
   -1
100
AcDbLine
 10
346.1214485447731
 20
12.14143942552186
 11
344.8840117242765
 21
10.90400251186509
  0
LINE
  5
34D
100
AcDbEntity
  8
0
  6
ByLayer
 62
  256
370
   -1
100
AcDbLine
 10
343.1162447457713
 20
9.136235584437145
 11
341.8788079252754
 21
7.898798670780366
  0
LINE
  5
34E
100
AcDbEntity
  8
0
  6
ByLayer
 62
  256
370
   -1
100
AcDbLine
 10
345.0826599987838
 20
10.64511903251196
 11
344.8840117242765
 21
10.90400251186509
  0
LINE
  5
34F
100
AcDbEntity
  8
0
  6
ByLayer
 62
  256
370
   -1
100
AcDbLine
 10
344.8840117242765
 20
10.90400251186509
 11
344.0001282350238
 21
10.02011904815072
  0
LINE
  5
350
100
AcDbEntity
  8
0
  6
ByLayer
 62
  256
370
   -1
100
AcDbLine
 10
344.8840116987379
 20
9.13623555889842
 11
344.0001282350238
 21
10.02011904815072
  0
LINE
  5
351
100
AcDbEntity
  8
0
  6
ByLayer
 62
  256
370
   -1
100
AcDbLine
 10
345.250128235024
 20
10.02011903009259
 11
345.2075355132116
 21
9.696595224329712
  0
LINE
  5
352
100
AcDbEntity
  8
0
  6
ByLayer
 62
  256
370
   -1
100
AcDbLine
 10
345.2075355225591
 20
10.3436428370859
 11
345.250128235024
 21
10.02011903009259
  0
LINE
  5
353
100
AcDbEntity
  8
0
  6
ByLayer
 62
  256
370
   -1
100
AcDbLine
 10
345.0826599987838
 20
10.64511903251196
 11
345.2075355225591
 21
10.3436428370859
  0
LINE
  5
354
100
AcDbEntity
  8
0
  6
ByLayer
 62
  256
370
   -1
100
AcDbLine
 10
344.3236520239589
 20
8.812711760615684
 11
344.0001282169653
 21
8.770119048151059
  0
LINE
  5
355
100
AcDbEntity
  8
0
  6
ByLayer
 62
  256
370
   -1
100
AcDbLine
 10
343.375128250663
 20
11.10265081191085
 11
343.1162447713099
 21
10.90400253740347
  0
LINE
  5
356
100
AcDbEntity
  8
0
  6
ByLayer
 62
  256
370
   -1
100
AcDbLine
 10
343.1162447457713
 20
9.136235584437145
 11
343.3751282193847
 21
8.937587302449629
  0
LINE
  5
357
100
AcDbEntity
  8
0
  6
ByLayer
 62
  256
370
   -1
100
AcDbLine
 10
344.0001282350238
 20
10.02011904815072
 11
343.1162447457713
 21
9.136235584437145
  0
LINE
  5
358
100
AcDbEntity
  8
0
  6
ByLayer
 62
  256
370
   -1
100
AcDbLine
 10
343.6766044112028
 20
8.812711769963357
 11
344.0001282169653
 21
8.770119048151059
  0
LINE
  5
359
100
AcDbEntity
  8
0
  6
ByLayer
 62
  256
370
   -1
100
AcDbLine
 10
344.6251282193851
 20
8.93758728439127
 11
344.3236520239589
 21
8.812711760615684
  0
LINE
  5
35A
100
AcDbEntity
  8
0
  6
ByLayer
 62
  256
370
   -1
100
AcDbLine
 10
344.6251282193851
 20
8.93758728439127
 11
344.8840116987379
 21
9.13623555889842
  0
LINE
  5
35B
100
AcDbEntity
  8
0
  6
ByLayer
 62
  256
370
   -1
100
AcDbLine
 10
342.9175964893225
 20
10.64511906379016
 11
342.7927209568361
 21
10.34364287197218
  0
LINE
  5
35C
100
AcDbEntity
  8
0
  6
ByLayer
 62
  256
370
   -1
100
AcDbLine
 10
342.7927209474886
 20
9.696595259215883
 11
342.917596471264
 21
9.395119063790048
  0
LINE
  5
35D
100
AcDbEntity
  8
0
  6
ByLayer
 62
  256
370
   -1
100
AcDbLine
 10
343.1162447713099
 20
10.90400253740347
 11
341.8788078576536
 21
12.14143935789968
  0
LINE
  5
35E
100
AcDbEntity
  8
0
  6
ByLayer
 62
  256
370
   -1
100
AcDbLine
 10
346.1214486123949
 20
7.898798738402434
 11
344.8840116987379
 21
9.13623555889842
  0
LINE
  5
35F
100
AcDbEntity
  8
0
  6
ByLayer
 62
  256
370
   -1
100
AcDbLine
 10
344.625128250663
 20
11.10265079385238
 11
344.3236520588454
 21
11.22752632633854
  0
LINE
  5
360
100
AcDbEntity
  8
0
  6
ByLayer
 62
  256
370
   -1
100
AcDbLine
 10
344.0001282350238
 20
10.02011904815072
 11
343.1162447713099
 21
10.90400253740347
  0
LINE
  5
361
100
AcDbEntity
  8
0
  6
ByLayer
 62
  256
370
   -1
100
AcDbLine
 10
343.1162447457713
 20
9.136235584437145
 11
342.917596471264
 21
9.395119063790048
  0
LINE
  5
362
100
AcDbEntity
  8
0
  6
ByLayer
 62
  256
370
   -1
100
AcDbLine
 10
342.7927209568361
 20
10.34364287197218
 11
342.7501282350238
 21
10.02011906620942
  0
LINE
  5
363
100
AcDbEntity
  8
0
  6
ByLayer
 62
  256
370
   -1
100
AcDbLine
 10
344.0001282530825
 20
11.27011904815117
 11
343.6766044460891
 21
11.2275263356862
  0
LINE
  5
364
100
AcDbEntity
  8
0
  6
ByLayer
 62
  256
370
   -1
100
AcDbLine
 10
344.625128250663
 20
11.10265079385238
 11
344.8840117242765
 21
10.90400251186509
  0
LINE
  5
365
100
AcDbEntity
  8
0
  6
ByLayer
 62
  256
370
   -1
100
AcDbLine
 10
356.8660927276864
 20
52.44579811484726
 11
355.9822092384338
 21
51.56191465113409
  0
LINE
  5
366
100
AcDbEntity
  8
0
  6
ByLayer
 62
  256
370
   -1
100
AcDbLine
 10
357.1896165166215
 20
51.23839082731268
 11
356.8660927096279
 21
51.195798114848
  0
LINE
  5
367
100
AcDbEntity
  8
0
  6
ByLayer
 62
  256
370
   -1
100
AcDbLine
 10
357.7499761914003
 20
51.56191462559548
 11
356.8660927276864
 21
52.44579811484726
  0
LINE
  5
368
100
AcDbEntity
  8
0
  6
ByLayer
 62
  256
370
   -1
100
AcDbLine
 10
355.9822092384338
 20
51.56191465113409
 11
356.2410927120475
 21
51.36326636914669
  0
LINE
  5
369
100
AcDbEntity
  8
0
  6
ByLayer
 62
  256
370
   -1
100
AcDbLine
 10
356.2410927120475
 20
51.36326636914669
 11
356.5425689038652
 21
51.2383908366603
  0
LINE
  5
36A
100
AcDbEntity
  8
0
  6
ByLayer
 62
  256
370
   -1
100
AcDbLine
 10
356.5425689038652
 20
51.2383908366603
 11
356.8660927096279
 21
51.195798114848
  0
LINE
  5
36B
100
AcDbEntity
  8
0
  6
ByLayer
 62
  256
370
   -1
100
AcDbLine
 10
357.4910927120475
 20
51.36326635108821
 11
357.7499761914003
 21
51.56191462559548
  0
LINE
  5
36C
100
AcDbEntity
  8
0
  6
ByLayer
 62
  256
370
   -1
100
AcDbLine
 10
357.9486244914461
 20
53.07079809920896
 11
357.7499762169389
 21
53.32968157856221
  0
LINE
  5
36D
100
AcDbEntity
  8
0
  6
ByLayer
 62
  256
370
   -1
100
AcDbLine
 10
357.7499762169389
 20
53.32968157856221
 11
356.8660927276864
 21
52.44579811484726
  0
LINE
  5
36E
100
AcDbEntity
  8
0
  6
ByLayer
 62
  256
370
   -1
100
AcDbLine
 10
357.9486244733877
 20
51.82079809920896
 11
358.0735000058744
 21
52.12227429102682
  0
LINE
  5
36F
100
AcDbEntity
  8
0
  6
ByLayer
 62
  256
370
   -1
100
AcDbLine
 10
358.1160927276864
 20
52.44579809678953
 11
358.0735000058744
 21
52.12227429102682
  0
LINE
  5
370
100
AcDbEntity
  8
0
  6
ByLayer
 62
  256
370
   -1
100
AcDbLine
 10
358.0735000152218
 20
52.76932190378335
 11
358.1160927276864
 21
52.44579809678953
  0
LINE
  5
371
100
AcDbEntity
  8
0
  6
ByLayer
 62
  256
370
   -1
100
AcDbLine
 10
357.9486244914461
 20
53.07079809920896
 11
358.0735000152218
 21
52.76932190378335
  0
LINE
  5
372
100
AcDbEntity
  8
0
  6
ByLayer
 62
  256
370
   -1
100
AcDbLine
 10
355.6160927276864
 20
52.44579813290641
 11
355.6586854401514
 21
52.12227432591311
  0
LINE
  5
373
100
AcDbEntity
  8
0
  6
ByLayer
 62
  256
370
   -1
100
AcDbLine
 10
355.9822092384338
 20
51.56191465113409
 11
355.7835609639266
 21
51.82079813048711
  0
LINE
  5
374
100
AcDbEntity
  8
0
  6
ByLayer
 62
  256
370
   -1
100
AcDbLine
 10
355.783560981985
 20
53.07079813048705
 11
355.6586854494989
 21
52.76932193866934
  0
LINE
  5
375
100
AcDbEntity
  8
0
  6
ByLayer
 62
  256
370
   -1
100
AcDbLine
 10
356.8660927276864
 20
52.44579811484726
 11
355.9822092639724
 21
53.32968160410053
  0
LINE
  5
376
100
AcDbEntity
  8
0
  6
ByLayer
 62
  256
370
   -1
100
AcDbLine
 10
357.4910927433259
 20
53.52832986054949
 11
357.7499762169389
 21
53.32968157856221
  0
LINE
  5
377
100
AcDbEntity
  8
0
  6
ByLayer
 62
  256
370
   -1
100
AcDbLine
 10
357.4910927433259
 20
53.52832986054949
 11
357.1896165515077
 21
53.65320539303542
  0
LINE
  5
378
100
AcDbEntity
  8
0
  6
ByLayer
 62
  256
370
   -1
100
AcDbLine
 10
356.2410927433259
 20
53.52832987860797
 11
355.9822092639724
 21
53.32968160410053
  0
LINE
  5
379
100
AcDbEntity
  8
0
  6
ByLayer
 62
  256
370
   -1
100
AcDbLine
 10
358.9874131050575
 20
50.32447780509893
 11
357.7499761914003
 21
51.56191462559548
  0
LINE
  5
37A
100
AcDbEntity
  8
0
  6
ByLayer
 62
  256
370
   -1
100
AcDbLine
 10
355.9822092639724
 20
53.32968160410053
 11
354.7447723503159
 21
54.56711842459623
  0
LINE
  5
37B
100
AcDbEntity
  8
0
  6
ByLayer
 62
  256
370
   -1
100
AcDbLine
 10
355.6586854494989
 20
52.76932193866934
 11
355.6160927276864
 21
52.44579813290641
  0
LINE
  5
37C
100
AcDbEntity
  8
0
  6
ByLayer
 62
  256
370
   -1
100
AcDbLine
 10
355.9822092384338
 20
51.56191465113409
 11
354.744772417938
 21
50.32447773747685
  0
LINE
  5
37D
100
AcDbEntity
  8
0
  6
ByLayer
 62
  256
370
   -1
100
AcDbLine
 10
355.6586854401514
 20
52.12227432591311
 11
355.7835609639266
 21
51.82079813048711
  0
LINE
  5
37E
100
AcDbEntity
  8
0
  6
ByLayer
 62
  256
370
   -1
100
AcDbLine
 10
358.9874130374354
 20
54.56711849221847
 11
357.7499762169389
 21
53.32968157856221
  0
LINE
  5
37F
100
AcDbEntity
  8
0
  6
ByLayer
 62
  256
370
   -1
100
AcDbLine
 10
362.0087668635713
 20
377.5959391094953
 11
361.8101185666263
 21
377.8548225716311
  0
LINE
  5
380
100
AcDbEntity
  8
0
  6
ByLayer
 62
  256
370
   -1
100
AcDbLine
 10
362.8926502762166
 20
378.4798226498157
 11
362.0087668635713
 21
377.5959391094953
  0
LINE
  5
381
100
AcDbEntity
  8
0
  6
ByLayer
 62
  256
370
   -1
100
AcDbLine
 10
362.8926502762166
 20
378.4798226498157
 11
362.0087667358951
 21
379.3637060624615
  0
LINE
  5
382
100
AcDbEntity
  8
0
  6
ByLayer
 62
  256
370
   -1
100
AcDbLine
 10
362.0087667358951
 20
379.3637060624615
 11
361.8101184763456
 21
379.1048225716311
  0
LINE
  5
383
100
AcDbEntity
  8
0
  6
ByLayer
 62
  256
370
   -1
100
AcDbLine
 10
361.6852429699884
 20
378.8033463689903
 11
361.6426502762164
 21
378.4798225595357
  0
LINE
  5
384
100
AcDbEntity
  8
0
  6
ByLayer
 62
  256
370
   -1
100
AcDbLine
 10
361.6426502762164
 20
378.4798225595357
 11
361.6852430167213
 21
378.156298756234
  0
LINE
  5
385
100
AcDbEntity
  8
0
  6
ByLayer
 62
  256
370
   -1
100
AcDbLine
 10
361.6852430167213
 20
378.156298756234
 11
361.8101185666263
 21
377.8548225716311
  0
LINE
  5
386
100
AcDbEntity
  8
0
  6
ByLayer
 62
  256
370
   -1
100
AcDbLine
 10
364.1426502762166
 20
378.4798227400974
 11
364.100057582444
 21
378.1562989306428
  0
LINE
  5
387
100
AcDbEntity
  8
0
  6
ByLayer
 62
  256
370
   -1
100
AcDbLine
 10
362.5691265570426
 20
377.2724153435889
 11
362.8926503664967
 21
377.2298226498165
  0
LINE
  5
388
100
AcDbEntity
  8
0
  6
ByLayer
 62
  256
370
   -1
100
AcDbLine
 10
363.7765336888617
 20
379.3637061901381
 11
362.8926502762166
 21
378.4798226498157
  0
LINE
  5
389
100
AcDbEntity
  8
0
  6
ByLayer
 62
  256
370
   -1
100
AcDbLine
 10
363.5176501980309
 20
379.5623544496876
 11
363.7765336888617
 21
379.3637061901381
  0
LINE
  5
38A
100
AcDbEntity
  8
0
  6
ByLayer
 62
  256
370
   -1
100
AcDbLine
 10
363.5176501980309
 20
379.5623544496876
 11
363.2161739953898
 21
379.6872299560443
  0
LINE
  5
38B
100
AcDbEntity
  8
0
  6
ByLayer
 62
  256
370
   -1
100
AcDbLine
 10
362.5691263826335
 20
379.6872299093117
 11
362.2676501980307
 21
379.5623543594068
  0
LINE
  5
38C
100
AcDbEntity
  8
0
  6
ByLayer
 62
  256
370
   -1
100
AcDbLine
 10
362.2676501980307
 20
379.5623543594068
 11
362.0087667358951
 21
379.3637060624615
  0
LINE
  5
38D
100
AcDbEntity
  8
0
  6
ByLayer
 62
  256
370
   -1
100
AcDbLine
 10
363.9751819858067
 20
379.104822728002
 11
364.1000575357114
 21
378.8033465433992
  0
LINE
  5
38E
100
AcDbEntity
  8
0
  6
ByLayer
 62
  256
370
   -1
100
AcDbLine
 10
362.2676503544018
 20
377.3972908499458
 11
362.5691265570426
 21
377.2724153435889
  0
LINE
  5
38F
100
AcDbEntity
  8
0
  6
ByLayer
 62
  256
370
   -1
100
AcDbLine
 10
365.0139705859657
 20
380.6011430271869
 11
363.7765336888617
 21
379.3637061901381
  0
LINE
  5
390
100
AcDbEntity
  8
0
  6
ByLayer
 62
  256
370
   -1
100
AcDbLine
 10
363.7765338165379
 20
377.5959392371715
 11
362.8926502762166
 21
378.4798226498157
  0
LINE
  5
391
100
AcDbEntity
  8
0
  6
ByLayer
 62
  256
370
   -1
100
AcDbLine
 10
362.0087668635713
 20
377.5959391094953
 11
362.2676503544018
 21
377.3972908499458
  0
LINE
  5
392
100
AcDbEntity
  8
0
  6
ByLayer
 62
  256
370
   -1
100
AcDbLine
 10
363.2161741697989
 20
377.2724153903216
 11
363.5176503544018
 21
377.3972909402264
  0
LINE
  5
393
100
AcDbEntity
  8
0
  6
ByLayer
 62
  256
370
   -1
100
AcDbLine
 10
363.9751819858067
 20
379.104822728002
 11
363.7765336888617
 21
379.3637061901381
  0
LINE
  5
394
100
AcDbEntity
  8
0
  6
ByLayer
 62
  256
370
   -1
100
AcDbLine
 10
364.1000575357114
 20
378.8033465433992
 11
364.1426502762166
 21
378.4798227400974
  0
LINE
  5
395
100
AcDbEntity
  8
0
  6
ByLayer
 62
  256
370
   -1
100
AcDbLine
 10
362.0087668635713
 20
377.5959391094953
 11
360.7713299664682
 21
376.3585022724454
  0
LINE
  5
396
100
AcDbEntity
  8
0
  6
ByLayer
 62
  256
370
   -1
100
AcDbLine
 10
365.0139706535878
 20
376.3585023400673
 11
363.7765338165379
 21
377.5959392371715
  0
LINE
  5
397
100
AcDbEntity
  8
0
  6
ByLayer
 62
  256
370
   -1
100
AcDbLine
 10
362.0087667358951
 20
379.3637060624615
 11
360.7713298988461
 21
380.6011429595646
  0
LINE
  5
398
100
AcDbEntity
  8
0
  6
ByLayer
 62
  256
370
   -1
100
AcDbLine
 10
327.0000009393184
 20
282.5032423748023
 11
327.0000009791652
 21
280.0032423748023
  0
LINE
  5
399
100
AcDbEntity
  8
0
  6
ByLayer
 62
  256
370
   -1
100
AcDbLine
 10
327.0000009791652
 20
280.0032423748023
 11
329.5000009791652
 21
280.0032424146491
  0
LINE
  5
39A
100
AcDbEntity
  8
0
  6
ByLayer
 62
  256
370
   -1
100
AcDbLine
 10
327.0000009791652
 20
280.0032423748023
 11
324.5000009791654
 21
280.0032423349552
  0
LINE
  5
39B
100
AcDbEntity
  8
0
  6
ByLayer
 62
  256
370
   -1
100
AcDbLine
 10
327.0000010190122
 20
277.503242374802
 11
327.0000009791652
 21
280.0032423748023
  0
ENDSEC
  0
SECTION
  2
OBJECTS
  0
DICTIONARY
  5
C
330
0
100
AcDbDictionary
281
    1
  3
ACAD_GROUP
350
D
  0
DICTIONARY
  5
D
330
C
100
AcDbDictionary
281
    1
  0
ENDSEC
  0
EOF
